<svg width="192" height="52" fill="none" xmlns="http://www.w3.org/2000/svg"><g clip-path="url(#a)" fill="#2E65F2"><path d="m56.443 10.103-.986 3.23h-2.146l3.653-11.401h2.655l3.706 11.4h-2.232l-1.03-3.229h-3.62Zm3.262-1.571-.9-2.807c-.216-.694-.4-1.474-.574-2.135H58.2c-.173.66-.336 1.452-.542 2.135l-.878 2.807h2.926ZM66.436 5.096l1.332 4.183c.239.727.401 1.388.564 2.06h.054c.152-.672.336-1.323.564-2.06l1.322-4.183h2.178l-3.143 8.237H67.26l-3.067-8.237h2.254-.01ZM80.752 11.36c0 .748.032 1.474.13 1.984h-1.875l-.152-.91h-.054c-.488.639-1.355 1.094-2.438 1.094-1.659 0-2.59-1.203-2.59-2.45 0-2.059 1.842-3.131 4.887-3.11v-.13c0-.542-.217-1.441-1.68-1.441-.813 0-1.658.249-2.21.607l-.401-1.355c.606-.369 1.68-.726 2.98-.726 2.644 0 3.403 1.68 3.403 3.49v2.958-.01Zm-2.027-2.048c-1.474-.022-2.872.293-2.872 1.539 0 .813.52 1.181 1.182 1.181.845 0 1.44-.542 1.636-1.138.054-.151.054-.303.054-.455V9.301v.011ZM84.718 3.915c-.693 0-1.148-.51-1.148-1.116 0-.64.476-1.138 1.17-1.138s1.149.487 1.17 1.138c0 .606-.455 1.116-1.17 1.116h-.022Zm-1.03 9.418V5.096h2.082v8.237h-2.081ZM88.76 1.314h2.081v12.03h-2.08V1.314ZM100.249 11.36c0 .748.032 1.474.13 1.984h-1.875l-.152-.91h-.054c-.488.639-1.355 1.094-2.439 1.094-1.658 0-2.59-1.203-2.59-2.45 0-2.059 1.843-3.131 4.888-3.11v-.13c0-.542-.217-1.441-1.67-1.441-.812 0-1.657.249-2.21.607l-.4-1.355c.606-.369 1.679-.726 2.98-.726 2.633 0 3.402 1.68 3.402 3.49v2.958l-.01-.01Zm-2.027-2.048c-1.474-.022-2.872.293-2.872 1.539 0 .813.52 1.181 1.181 1.181.846 0 1.442-.542 1.637-1.138.054-.151.054-.303.054-.455V9.301v.011ZM103.196 1.314h2.081v4.92h.033c.509-.79 1.408-1.322 2.644-1.322 2.016 0 3.446 1.68 3.435 4.183 0 2.959-1.874 4.433-3.739 4.433-1.062 0-2.015-.412-2.601-1.42h-.032l-.098 1.236h-1.777c.033-.564.065-1.474.065-2.298V1.314h-.011Zm2.081 8.627c0 .173.022.336.054.487.217.846.943 1.452 1.843 1.452 1.3 0 2.102-1.029 2.102-2.709 0-1.452-.693-2.633-2.081-2.633-.845 0-1.625.607-1.842 1.517a2.527 2.527 0 0 0-.065.542V9.93l-.011.01ZM113.828 1.314h2.081v12.03h-2.081V1.314ZM120.395 9.8c.055 1.485 1.214 2.135 2.536 2.135.965 0 1.637-.152 2.287-.369l.304 1.42c-.716.303-1.691.52-2.872.52-2.677 0-4.249-1.636-4.249-4.161 0-2.287 1.388-4.433 4.032-4.433s3.555 2.2 3.555 4.01c0 .39-.033.694-.065.878H120.395Zm3.62-1.452c.022-.759-.325-2.016-1.712-2.016-1.29 0-1.832 1.17-1.908 2.016h3.62ZM136.24 13.528c-2.319 0-4.129-1.593-4.129-4.248 0-2.656 1.777-4.368 4.259-4.368s4.096 1.723 4.096 4.227c0 3.023-2.135 4.378-4.215 4.378h-.022l.011.01Zm.065-1.507c1.181 0 2.016-1.148 2.016-2.828 0-1.29-.575-2.774-1.994-2.774-1.42 0-2.07 1.44-2.07 2.806 0 1.594.791 2.796 2.026 2.796h.022ZM142.916 7.556c0-.942-.033-1.744-.065-2.449h1.81l.097 1.236h.054c.369-.64 1.268-1.42 2.645-1.42 1.376 0 2.926.932 2.926 3.533v4.888h-2.081v-4.66c0-1.182-.444-2.081-1.571-2.081-.824 0-1.399.596-1.626 1.213a2.023 2.023 0 0 0-.098.662v4.855h-2.08V7.556h-.011ZM159.963 2.983v2.113h1.983v1.56h-1.983v3.62c0 1.02.271 1.518 1.062 1.518.369 0 .575-.022.813-.087l.033 1.572c-.304.119-.867.216-1.507.216-.78 0-1.398-.249-1.788-.671-.455-.477-.661-1.236-.661-2.32V6.646h-1.171v-1.56h1.171v-1.54l2.048-.574v.011ZM164.266 1.314h2.08v4.899h.033c.249-.39.607-.716 1.029-.933a2.912 2.912 0 0 1 1.442-.368c1.398 0 2.872.932 2.872 3.566v4.855h-2.081V8.705c0-1.181-.444-2.102-1.593-2.102-.813 0-1.387.542-1.626 1.17a1.961 1.961 0 0 0-.086.629v4.942h-2.081V1.314h.011ZM176.154 9.8c.055 1.485 1.214 2.135 2.536 2.135.965 0 1.637-.152 2.287-.369l.304 1.42c-.716.303-1.691.52-2.872.52-2.677 0-4.249-1.636-4.249-4.161 0-2.287 1.387-4.433 4.032-4.433 2.644 0 3.555 2.2 3.555 4.01 0 .39-.033.694-.065.878H176.154Zm3.62-1.452c.022-.759-.325-2.016-1.712-2.016-1.29 0-1.832 1.17-1.908 2.016h3.62ZM30.563 24.398c-.054-5.646 4.617-8.388 4.834-8.518-2.645-3.858-6.752-4.39-8.193-4.433-3.447-.357-6.785 2.06-8.54 2.06-1.756 0-4.498-2.027-7.402-1.973-3.75.065-7.25 2.232-9.18 5.592-3.966 6.871-1.007 16.96 2.796 22.52 1.908 2.72 4.13 5.755 7.034 5.647 2.84-.12 3.901-1.81 7.337-1.81s4.4 1.81 7.37 1.745c3.056-.055 4.974-2.731 6.805-5.473 2.2-3.121 3.078-6.188 3.122-6.34-.076-.022-5.928-2.254-5.994-9.028M24.96 7.806c1.528-1.919 2.58-4.52 2.287-7.164-2.21.098-4.985 1.528-6.578 3.403-1.41 1.647-2.677 4.357-2.352 6.893 2.493.184 5.04-1.257 6.643-3.143M71.68 44.86h-3.966l-2.167-6.828h-7.543l-2.07 6.827h-3.858l7.478-23.236h4.617l7.51 23.236Zm-6.783-9.69-1.962-6.069c-.206-.617-.596-2.08-1.17-4.378h-.066c-.227.986-.596 2.45-1.105 4.378l-1.929 6.07h6.242-.01ZM90.917 36.276c0 2.85-.769 5.104-2.308 6.751-1.376 1.474-3.089 2.2-5.137 2.2-2.21 0-3.793-.79-4.758-2.373h-.065v8.822h-3.728V33.62c0-1.788-.043-3.63-.14-5.516h3.272l.206 2.655h.076c1.236-2.005 3.121-3.002 5.646-3.002 1.973 0 3.631.78 4.942 2.341 1.323 1.56 1.984 3.62 1.984 6.167m-3.793.14c0-1.625-.369-2.98-1.106-4.03-.802-1.106-1.886-1.659-3.24-1.659-.922 0-1.756.303-2.504.91-.748.618-1.235 1.41-1.463 2.395-.12.466-.173.835-.173 1.138v2.796c0 1.214.368 2.244 1.116 3.078.748.846 1.723 1.257 2.915 1.257 1.398 0 2.493-.53 3.273-1.614.78-1.084 1.17-2.504 1.17-4.281M110.187 36.276c0 2.85-.77 5.104-2.309 6.751-1.376 1.474-3.089 2.2-5.137 2.2-2.2 0-3.793-.79-4.757-2.373h-.066v8.822h-3.717V33.62c0-1.788-.043-3.63-.14-5.516h3.272l.206 2.655h.076c1.236-2.005 3.121-3.002 5.646-3.002 1.973 0 3.62.78 4.942 2.341 1.322 1.56 1.984 3.62 1.984 6.167m-3.794.14c0-1.625-.368-2.98-1.105-4.03-.802-1.106-1.886-1.659-3.24-1.659-.922 0-1.756.303-2.504.91-.748.618-1.235 1.41-1.463 2.395-.12.466-.173.835-.173 1.138v2.796c0 1.214.368 2.244 1.116 3.078.748.846 1.712 1.257 2.915 1.257 1.398 0 2.493-.53 3.273-1.614.78-1.084 1.171-2.504 1.171-4.281M131.731 38.346c0 1.972-.682 3.587-2.069 4.822-1.518 1.355-3.62 2.038-6.33 2.038-2.503 0-4.508-.477-6.025-1.442l.867-3.099c1.636.986 3.424 1.485 5.386 1.485 1.398 0 2.493-.315 3.273-.943.78-.64 1.17-1.485 1.17-2.536 0-.943-.325-1.734-.964-2.384-.64-.65-1.712-1.247-3.208-1.8-4.064-1.517-6.102-3.738-6.102-6.665 0-1.907.716-3.478 2.135-4.692 1.42-1.225 3.317-1.832 5.69-1.832 2.113 0 3.869.369 5.267 1.106l-.932 3.034c-1.311-.715-2.796-1.073-4.443-1.073-1.312 0-2.33.326-3.067.965-.618.574-.932 1.279-.932 2.102 0 .922.357 1.68 1.062 2.276.617.553 1.745 1.149 3.381 1.8 1.994.801 3.468 1.744 4.411 2.828.943 1.084 1.409 2.428 1.409 4.031M144.032 30.9h-4.097v8.14c0 2.07.727 3.099 2.179 3.099.661 0 1.214-.055 1.647-.174l.098 2.829c-.726.27-1.702.412-2.894.412-1.474 0-2.623-.445-3.446-1.344-.824-.9-1.247-2.406-1.247-4.52V30.9h-2.449v-2.796h2.449v-3.067l3.653-1.105v4.172h4.096V30.9h.011ZM162.553 36.352c0 2.58-.737 4.693-2.2 6.34-1.539 1.701-3.587 2.547-6.134 2.547s-4.421-.813-5.874-2.45c-1.463-1.625-2.189-3.684-2.189-6.166 0-2.601.748-4.725 2.254-6.373 1.507-1.658 3.533-2.481 6.08-2.481s4.433.812 5.928 2.449c1.431 1.593 2.135 3.63 2.135 6.134Zm-3.858.12c0-1.54-.336-2.873-.997-3.978-.78-1.333-1.896-2.005-3.338-2.005-1.441 0-2.633.672-3.414 2.005-.672 1.105-.997 2.449-.997 4.042s.325 2.872.997 3.977c.802 1.334 1.929 2.005 3.382 2.005 1.452 0 2.536-.682 3.338-2.037.693-1.127 1.029-2.46 1.029-4.01ZM174.648 31.377a6.743 6.743 0 0 0-1.171-.098c-1.311 0-2.319.499-3.034 1.485-.618.878-.932 1.973-.932 3.306v8.789h-3.717l.032-11.477c0-1.93-.043-3.685-.141-5.278h3.241l.141 3.208h.097c.39-1.105 1.019-1.994 1.864-2.655.824-.596 1.723-.9 2.688-.9.347 0 .65.022.932.065v3.555ZM191.294 35.69c0 .672-.043 1.225-.13 1.691h-11.162c.043 1.658.585 2.916 1.614 3.793.943.78 2.157 1.17 3.653 1.17 1.647 0 3.153-.26 4.519-.79l.585 2.59c-1.582.693-3.457 1.04-5.625 1.04-2.59 0-4.638-.77-6.112-2.297-1.474-1.528-2.222-3.577-2.222-6.156 0-2.58.694-4.628 2.07-6.308 1.442-1.788 3.403-2.687 5.853-2.687 2.449 0 4.248.9 5.483 2.688.987 1.43 1.474 3.186 1.474 5.277m-3.544-.964c.022-1.106-.216-2.06-.726-2.861-.639-1.03-1.636-1.55-2.969-1.55-1.214 0-2.2.51-2.959 1.517-.618.802-.986 1.767-1.094 2.894h7.748Z"/></g><defs><clipPath id="a"><path fill="#fff" transform="translate(.208 .642)" d="M0 0h191.087v51.045H0z"/></clipPath></defs></svg>