<svg width="156" height="121" fill="none" xmlns="http://www.w3.org/2000/svg"><path d="M156 91.052c0 4.186-.8 8.131-2.4 11.834a31.854 31.854 0 0 1-6.48 9.419c-2.72 2.738-5.92 4.911-9.6 6.521A31.165 31.165 0 0 1 126 121c-5.28 0-10.32-.966-15.12-2.898-4.64-1.932-8.72-4.75-12.24-8.453-3.52-3.865-6.32-8.614-8.4-14.25-2.08-5.635-3.12-12.237-3.12-19.804 0-19 5.52-34.94 16.56-47.82C114.88 14.894 130.24 5.635 149.76 0v8.453c-8 3.22-14.64 7.165-19.92 11.834-5.12 4.509-9.2 9.259-12.24 14.25-3.04 4.83-5.2 9.58-6.48 14.25-1.28 4.508-1.92 8.372-1.92 11.592 0 1.288.24 2.737.72 4.348.48 1.449 1.52 2.173 3.12 2.173.64 0 1.36-.241 2.16-.724s1.76-1.047 2.88-1.691c1.28-.644 2.8-1.208 4.56-1.69 1.76-.484 4-.725 6.72-.725 3.52 0 6.88.724 10.08 2.173a23.974 23.974 0 0 1 8.64 6.28c2.4 2.576 4.32 5.635 5.76 9.178 1.44 3.542 2.16 7.326 2.16 11.35Zm-87.12 0c0 4.186-.8 8.131-2.4 11.834a31.854 31.854 0 0 1-6.48 9.419c-2.72 2.738-5.92 4.911-9.6 6.521A31.165 31.165 0 0 1 38.88 121c-5.28 0-10.32-.966-15.12-2.898-4.64-1.932-8.72-4.75-12.24-8.453-3.52-3.865-6.32-8.614-8.4-14.25C1.04 89.764 0 83.162 0 75.595c0-19 5.6-34.94 16.8-47.82C28 14.894 43.36 5.635 62.88 0v8.453c-8 3.22-14.64 7.165-19.92 11.834-5.12 4.509-9.28 9.259-12.48 14.25-3.04 4.83-5.2 9.58-6.48 14.25-1.28 4.508-1.92 8.372-1.92 11.592 0 1.288.24 2.737.72 4.348.48 1.449 1.6 2.173 3.36 2.173.64 0 1.36-.241 2.16-.724s1.76-1.047 2.88-1.691c1.28-.644 2.8-1.208 4.56-1.69 1.76-.484 4-.725 6.72-.725 3.52 0 6.88.724 10.08 2.173 3.2 1.45 6 3.543 8.4 6.28 2.4 2.576 4.32 5.635 5.76 9.178 1.44 3.542 2.16 7.326 2.16 11.35Z" fill="#fff"/></svg>