<svg width="313" height="456" fill="none" xmlns="http://www.w3.org/2000/svg"><g clip-path="url(#a)"><path d="M112.32 26.41C1.74 11.818-99.736 89.643-114.331 200.238c-14.596 110.596 63.216 212.081 173.797 226.674 110.581 14.594 212.056-63.231 226.651-173.826C300.713 142.49 222.901 41.005 112.32 26.411Z" fill="url(#b)"/><mask id="c" style="mask-type:luminance" maskUnits="userSpaceOnUse" x="-86" y="165" width="229" height="228"><path d="M43.313 166.45c-62.249-8.216-119.372 35.594-127.588 97.851-8.216 62.257 35.586 119.386 97.835 127.601 62.249 8.215 119.372-35.594 127.588-97.852 8.216-62.257-35.586-119.385-97.835-127.6Z" fill="#fff"/></mask><g mask="url(#c)"><path d="M43.313 166.45c-62.249-8.216-119.372 35.594-127.588 97.851-8.216 62.257 35.586 119.386 97.835 127.601 62.249 8.215 119.372-35.594 127.588-97.852 8.216-62.257-35.586-119.385-97.835-127.6Z" fill="url(#d)"/><path d="M32.042 156.951c-72.785-9.606-139.576 41.619-149.183 114.414-9.607 72.794 41.61 139.592 114.394 149.198 72.785 9.605 139.577-41.619 149.184-114.414 9.606-72.794-41.61-139.593-114.395-149.198Z" fill="url(#e)"/></g></g><defs><radialGradient id="b" cx="0" cy="0" r="1" gradientUnits="userSpaceOnUse" gradientTransform="matrix(-200.22391 -26.42397 26.4275 -200.25068 85.893 226.661)"><stop offset=".03" stop-color="#00DCCD"/><stop offset=".06" stop-color="#00DCCD" stop-opacity=".94"/><stop offset=".2" stop-color="#00DCCD" stop-opacity=".69"/><stop offset=".34" stop-color="#00DCCD" stop-opacity=".48"/><stop offset=".47" stop-color="#00DCCD" stop-opacity=".31"/><stop offset=".61" stop-color="#00DCCD" stop-opacity=".17"/><stop offset=".74" stop-color="#00DCCD" stop-opacity=".08"/><stop offset=".88" stop-color="#00DCCD" stop-opacity=".02"/><stop offset="1" stop-color="#00DCCD" stop-opacity="0"/></radialGradient><radialGradient id="e" cx="0" cy="0" r="1" gradientUnits="userSpaceOnUse" gradientTransform="rotate(97.518 -119.253 150.8) scale(132.949 132.932)"><stop offset=".57" stop-color="#00C3BB" stop-opacity="0"/><stop offset=".61" stop-color="#00C4BC" stop-opacity=".02"/><stop offset=".66" stop-color="#00C8BF" stop-opacity=".09"/><stop offset=".72" stop-color="#00CEC4" stop-opacity=".19"/><stop offset=".78" stop-color="#00D7CB" stop-opacity=".34"/><stop offset=".85" stop-color="#00E3D4" stop-opacity=".54"/><stop offset=".92" stop-color="#00F0DF" stop-opacity=".77"/><stop offset=".98" stop-color="#00FFEB"/></radialGradient><linearGradient id="d" x1="118.647" y1="209.99" x2="-61.792" y2="348.338" gradientUnits="userSpaceOnUse"><stop offset=".31" stop-color="#5449FF"/><stop offset=".91" stop-color="#9603FF"/></linearGradient><clipPath id="a"><path fill="#fff" transform="rotate(-172.482 144.677 219.06)" d="M0 0h403.921v405.806H0z"/></clipPath></defs></svg>