<svg width="336" height="773" fill="none" xmlns="http://www.w3.org/2000/svg"><mask id="a" style="mask-type:luminance" maskUnits="userSpaceOnUse" x="103" y="103" width="567" height="567"><path d="M141.469 245.306c-78.063 135.208-31.723 308.106 103.503 386.179 135.226 78.073 308.13 31.755 386.193-103.453 78.062-135.208 31.722-308.107-103.504-386.179-135.225-78.073-308.13-31.755-386.192 103.453Z" fill="#fff"/></mask><g mask="url(#a)"><path d="M141.469 245.306c-78.063 135.208-31.723 308.106 103.503 386.179 135.226 78.073 308.13 31.755 386.193-103.453 78.062-135.208 31.722-308.107-103.504-386.179-135.225-78.073-308.13-31.755-386.192 103.453Z" fill="url(#b)"/><path d="M108.929 262.169C17.654 420.262 71.837 622.425 229.95 713.711c158.114 91.287 360.283 37.13 451.558-120.963 91.275-158.093 37.092-360.255-121.022-451.542-158.113-91.287-360.282-37.13-451.557 120.963Z" fill="url(#c)"/></g><defs><radialGradient id="c" cx="0" cy="0" r="1" gradientUnits="userSpaceOnUse" gradientTransform="matrix(286.28981 165.2895 -165.268 286.25257 395.218 427.459)"><stop offset=".57" stop-color="#00C3BB" stop-opacity="0"/><stop offset=".61" stop-color="#00C4BC" stop-opacity=".02"/><stop offset=".66" stop-color="#00C8BF" stop-opacity=".09"/><stop offset=".72" stop-color="#00CEC4" stop-opacity=".19"/><stop offset=".78" stop-color="#00D7CB" stop-opacity=".34"/><stop offset=".85" stop-color="#00E3D4" stop-opacity=".54"/><stop offset=".92" stop-color="#00F0DF" stop-opacity=".77"/><stop offset=".98" stop-color="#00FFEB"/></radialGradient><linearGradient id="b" x1="313.135" y1="113.623" x2="459.427" y2="659.733" gradientUnits="userSpaceOnUse"><stop offset=".31" stop-color="#5449FF"/><stop offset=".91" stop-color="#9603FF"/></linearGradient></defs></svg>