<svg width="526" height="48" fill="none" xmlns="http://www.w3.org/2000/svg"><path d="M11.72 37.272h6.912c1.75 0 3.37-.32 4.864-.96a12.369 12.369 0 0 0 4.032-2.688 12.56 12.56 0 0 0 2.688-3.968c.64-1.536.96-3.179.96-4.928 0-1.792-.32-3.456-.96-4.992-.64-1.579-1.536-2.944-2.688-4.096a12.369 12.369 0 0 0-4.032-2.688c-1.493-.683-3.115-1.024-4.864-1.024H11.72v25.344ZM.712 47V2.2h18.176c3.328 0 6.421.576 9.28 1.728 2.859 1.152 5.355 2.752 7.488 4.8a21.68 21.68 0 0 1 5.056 7.168c1.237 2.73 1.856 5.675 1.856 8.832 0 3.115-.619 6.016-1.856 8.704a21.87 21.87 0 0 1-5.056 7.104c-2.133 2.005-4.63 3.584-7.488 4.736C25.309 46.424 22.216 47 18.888 47H.712ZM64.4 47V2.2H87.31c3.072 0 5.803.619 8.192 1.856 2.39 1.195 4.246 2.88 5.569 5.056 1.365 2.133 2.048 4.587 2.048 7.36 0 2.816-.768 5.333-2.304 7.552-1.537 2.219-3.563 3.904-6.08 5.056L104.528 47H92.24l-8.448-16.32h-8.385V47H64.4Zm11.007-25.28h10.88c1.707 0 3.072-.47 4.096-1.408 1.067-.939 1.6-2.155 1.6-3.648 0-1.493-.533-2.71-1.6-3.648-1.023-.939-2.389-1.408-4.096-1.408h-10.88V21.72Zm53.655 25.984c-1.621 0-3.029-.576-4.223-1.728-1.152-1.195-1.728-2.603-1.728-4.224s.576-3.008 1.728-4.16c1.194-1.195 2.602-1.792 4.223-1.792 1.622 0 3.009.597 4.161 1.792 1.194 1.152 1.792 2.539 1.792 4.16s-.598 3.03-1.792 4.224c-1.152 1.152-2.539 1.728-4.161 1.728Zm47.486 0c-3.371 0-6.507-.576-9.408-1.728-2.901-1.195-5.44-2.837-7.616-4.928a23.793 23.793 0 0 1-5.12-7.36c-1.195-2.816-1.792-5.845-1.792-9.088 0-3.243.597-6.25 1.792-9.024a22.833 22.833 0 0 1 5.12-7.36c2.176-2.133 4.715-3.776 7.616-4.928 2.901-1.195 6.037-1.792 9.408-1.792 3.371 0 6.507.597 9.408 1.792 2.901 1.152 5.44 2.795 7.616 4.928a22.026 22.026 0 0 1 5.056 7.36c1.237 2.773 1.856 5.781 1.856 9.024 0 3.243-.619 6.272-1.856 9.088a22.916 22.916 0 0 1-5.056 7.36c-2.176 2.09-4.715 3.733-7.616 4.928-2.901 1.152-6.037 1.728-9.408 1.728Zm0-10.112c1.792 0 3.456-.32 4.992-.96 1.536-.683 2.859-1.6 3.968-2.752 1.152-1.152 2.048-2.517 2.688-4.096.64-1.621.96-3.35.96-5.184 0-1.877-.32-3.605-.96-5.184-.64-1.579-1.536-2.944-2.688-4.096a11.665 11.665 0 0 0-3.968-2.688c-1.536-.683-3.2-1.024-4.992-1.024-1.792 0-3.456.341-4.992 1.024a12.369 12.369 0 0 0-4.032 2.688c-1.109 1.152-1.984 2.517-2.624 4.096-.64 1.579-.96 3.285-.96 5.12 0 1.877.32 3.627.96 5.248.64 1.579 1.515 2.944 2.624 4.096a13.262 13.262 0 0 0 4.032 2.752c1.536.64 3.2.96 4.992.96ZM222.337 47V2.2h10.368l20.352 25.984V2.2h10.368V47h-9.728l-20.992-27.008V47h-10.368Zm76.34-19.456c-2.432 0-4.651-.597-6.656-1.792a13.619 13.619 0 0 1-4.8-4.8c-1.195-2.048-1.792-4.31-1.792-6.784 0-2.517.597-4.779 1.792-6.784a13.618 13.618 0 0 1 4.8-4.8c2.005-1.195 4.224-1.792 6.656-1.792 2.475 0 4.693.597 6.656 1.792 2.005 1.195 3.605 2.816 4.8 4.864 1.195 2.005 1.792 4.245 1.792 6.72 0 2.475-.597 4.736-1.792 6.784a13.619 13.619 0 0 1-4.8 4.8c-1.963 1.195-4.181 1.792-6.656 1.792Zm-.064-3.136c1.963 0 3.669-.427 5.12-1.28a9.635 9.635 0 0 0 3.52-3.648c.853-1.579 1.28-3.35 1.28-5.312 0-2.005-.427-3.776-1.28-5.312-.853-1.536-2.027-2.73-3.52-3.584-1.451-.896-3.157-1.344-5.12-1.344-1.877 0-3.563.448-5.056 1.344-1.493.853-2.667 2.048-3.52 3.584-.811 1.536-1.216 3.307-1.216 5.312 0 1.963.405 3.733 1.216 5.312a9.635 9.635 0 0 0 3.52 3.648c1.493.853 3.179 1.28 5.056 1.28Zm-4.736-4.288V8.088h5.76c1.237 0 2.219.363 2.944 1.088.768.683 1.152 1.6 1.152 2.752 0 .683-.192 1.323-.576 1.92a3.604 3.604 0 0 1-1.472 1.408l2.752 4.864h-3.712l-2.112-4.16h-1.344v4.16h-3.392Zm4.992-9.472h-1.6v2.944h1.536c1.067 0 1.6-.49 1.6-1.472 0-.47-.128-.832-.384-1.088-.256-.256-.64-.384-1.152-.384ZM358.302 47 376.67 2.2h12.608L407.39 47h-11.904l-4.096-10.816h-17.472L369.758 47h-11.456Zm18.944-19.584h10.88L382.75 13.08l-5.504 14.336ZM426.65 47V2.2h23.616c2.944 0 5.546.64 7.808 1.92 2.304 1.237 4.117 2.944 5.44 5.12 1.322 2.176 1.984 4.672 1.984 7.488 0 2.688-.662 5.12-1.984 7.296-1.323 2.133-3.136 3.819-5.44 5.056-2.304 1.237-4.907 1.856-7.808 1.856h-12.608V47H426.65Zm11.008-25.152h11.328c1.621 0 2.922-.47 3.904-1.408.981-.939 1.472-2.155 1.472-3.648 0-1.536-.491-2.773-1.472-3.712-.982-.981-2.283-1.472-3.904-1.472h-11.328v10.24ZM487.15 47V2.2h23.616c2.944 0 5.546.64 7.808 1.92 2.304 1.237 4.117 2.944 5.44 5.12 1.322 2.176 1.984 4.672 1.984 7.488 0 2.688-.662 5.12-1.984 7.296-1.323 2.133-3.136 3.819-5.44 5.056-2.304 1.237-4.907 1.856-7.808 1.856h-12.608V47H487.15Zm11.008-25.152h11.328c1.621 0 2.922-.47 3.904-1.408.981-.939 1.472-2.155 1.472-3.648 0-1.536-.491-2.773-1.472-3.712-.982-.981-2.283-1.472-3.904-1.472h-11.328v10.24Z" fill="#28F2FF"/></svg>