<svg width="736" height="197" fill="none" xmlns="http://www.w3.org/2000/svg"><path d="M92.922 2.863H5.817A5.82 5.82 0 0 0 0 8.693v87.29c0 51.433 41.603 93.127 92.922 93.127 51.32 0 92.923-41.694 92.923-93.126 0-51.433-41.603-93.127-92.923-93.127v.006ZM67.848 135.86c-13.253-7.215-21.387-21.239-21.387-36.357V55.25a5.82 5.82 0 0 1 5.817-5.83h44.15c15.079 0 29.078 8.152 36.277 21.434 23.929 44.126-20.828 88.981-64.857 65v.006Z" fill="#fff"/><path d="M92.922 2.863H5.817A5.82 5.82 0 0 0 0 8.693v87.29c0 51.433 41.603 93.127 92.922 93.127 51.32 0 92.923-41.694 92.923-93.126 0-51.433-41.603-93.127-92.923-93.127v.006ZM67.848 135.86c-13.253-7.215-21.387-21.239-21.387-36.357V55.25a5.82 5.82 0 0 1 5.817-5.83h44.15c15.079 0 29.078 8.152 36.277 21.434 23.929 44.126-20.828 88.981-64.857 65v.006ZM237.565 137.66V6.56a2.393 2.393 0 0 1 2.389-2.396h64.743c24.504 0 38.206 6.87 49.839 18.109 12.046 12.485 18.482 29.968 18.482 49.736 0 19.768-7.06 38.916-19.937 51.402-11.628 10.407-23.88 16.65-48.384 16.65h-64.743a2.393 2.393 0 0 1-2.389-2.395v-.006Zm66.095-18.413c17.231 0 23.048-3.951 31.146-10.613 8.722-8.742 13.914-22.06 13.914-36.625 0-14.565-4.568-26.844-13.084-35.585-7.684-7.076-14.951-11.446-31.976-11.446h-42.841v94.269h42.841ZM401.743 74.295v63.365a2.393 2.393 0 0 1-2.389 2.395h-16.601a2.393 2.393 0 0 1-2.39-2.395V67.013s0-22.79.036-24.692c.031-1.496.849-2.833 2.341-2.833l12.695.06c1.153 0 1.941.888 2.354 1.964.855 2.225 1.031 6.328 1.449 11.24 5.69-8.383 14.764-16.528 29.303-16.528 4.943 0 9.741 1.051 12.725 3.033.873.577 1.213 1.702.891 2.699l-5.095 15.805a2.378 2.378 0 0 1-3.117 1.501c-3.282-1.246-7.934-2.024-10.384-2.024-9.553 0-21.805 9.854-21.805 17.063l-.013-.006ZM522.913 0c42.779 0 76.831 32.047 76.831 71.796 0 39.749-34.058 72.423-76.831 72.423-42.774 0-76.212-32.048-76.212-72.423S480.133 0 522.913 0Zm0 123.411c29.278 0 52.326-23.306 52.326-51.609 0-28.302-23.048-50.988-52.326-50.988-29.278 0-51.708 22.892-51.708 50.988s22.63 51.609 51.708 51.609ZM659.542 36.211c21.599 0 38.625 14.985 38.625 35.798v65.657a2.394 2.394 0 0 1-2.39 2.395H678.97a2.394 2.394 0 0 1-2.39-2.395V72.009c0-9.154-8.516-16.856-20.556-16.856-12.039 0-27.245 13.112-27.409 19.069v63.444a2.394 2.394 0 0 1-2.39 2.395h-16.601a2.394 2.394 0 0 1-2.39-2.395V67.219l.037-24.856c-.255-1.47.849-2.827 2.341-2.827h12.737c1.134 0 2.384.852 2.62 1.964.916 4.267 1.086 6.152 1.45 11.24 6.787-10.06 16.528-16.529 33.142-16.529h-.019ZM701.066 17.337c0-9.21 7.321-17.015 16.838-17.015 9.516 0 17.098 7.805 17.098 17.015 0 9.209-7.575 16.874-17.098 16.874s-16.838-7.452-16.838-16.874Zm30.631-.073c0-7.386-6.023-13.78-13.793-13.78s-13.599 6.327-13.599 13.78c0 7.452 5.956 13.64 13.599 13.64 7.642 0 13.793-6.115 13.793-13.64Zm-20.981 7.945V8.34h9.844c3.5 0 6.09 2.25 6.09 5.483 0 1.97-1.164 3.8-3.366 4.711l3.821 6.68h-4.664l-3.239-5.975h-4.47v5.976h-4.016v-.006Zm4.016-13.501v4.006h5.634c1.232 0 2.202-1.052 2.202-1.97 0-1.057-.904-2.042-2.135-2.042h-5.701v.006ZM445.311 137.66a2.393 2.393 0 0 1-2.389 2.395H426.32a2.393 2.393 0 0 1-2.389-2.395s0-12.717.036-14.626c.03-1.495.849-2.832 2.341-2.832l12.695.06c1.153 0 1.941.888 2.354 1.964.855 2.225 3.96 15.434 3.96 15.434h-.006ZM245.043 189.718h-3.53v-19.969h3.53v19.969ZM261.893 176.698c1.007 1.191 1.51 2.753 1.51 4.692v8.328h-3.469v-8.188c0-1.143-.273-2.054-.825-2.735-.552-.687-1.268-1.028-2.165-1.028-1.116 0-2.014.414-2.687 1.241-.674.826-1.019 1.926-1.044 3.294v7.416h-3.445v-14.491h3.445v2.595c.383-.875.995-1.58 1.85-2.109a5.301 5.301 0 0 1 2.845-.796c1.65 0 2.978.595 3.985 1.781ZM271.567 175.232h4.355v2.626h-4.355v7.131c0 .705.182 1.246.558 1.629.37.383.88.571 1.523.571.813 0 1.547-.17 2.189-.51l.825 2.34c-.988.687-2.232 1.027-3.73 1.027-1.498 0-2.578-.413-3.457-1.24-.88-.826-1.322-1.908-1.322-3.24v-7.701h-2.251v-2.626h2.475l.655-4.079h2.535v4.079-.007ZM290.71 176.813c1.298 1.265 1.947 2.942 1.947 5.033 0 .572-.031.991-.085 1.253h-11.13c.036 1.276.485 2.279 1.34 3.021.855.741 2.002 1.112 3.445 1.112 1.596 0 2.863-.316 3.816-.942l1.34 2.194c-1.541 1.028-3.342 1.538-5.41 1.538-2.39 0-4.301-.693-5.72-2.085-1.425-1.386-2.135-3.234-2.135-5.531 0-2.298.685-4.031 2.062-5.423 1.377-1.386 3.172-2.085 5.392-2.085s3.84.633 5.138 1.897v.018Zm-7.855 1.696c-.728.645-1.183 1.502-1.353 2.565h7.91c-.037-1.063-.419-1.92-1.141-2.565-.721-.644-1.619-.972-2.705-.972-1.085 0-1.989.322-2.717.972h.006ZM299.262 189.718h-3.469v-20.625h3.469v20.625ZM307.117 172.661h-3.73v-3.082h3.73v3.082Zm-.146 17.057h-3.445v-14.492h3.445v14.492ZM320.382 175.688c.946.517 1.662 1.191 2.135 2.024v-2.48h3.415v13.689c0 2.262-.722 4.079-2.16 5.447-1.443 1.368-3.342 2.055-5.695 2.055-1.158 0-2.335-.183-3.53-.541-1.195-.359-2.19-.839-2.99-1.429l1.31-2.456c.661.493 1.456.894 2.377 1.198.922.304 1.79.456 2.603.456 1.401 0 2.535-.438 3.402-1.313.862-.876 1.304-2.025 1.323-3.453v-1.653c-.492.838-1.22 1.513-2.178 2.024a6.377 6.377 0 0 1-3.033.772c-2.086 0-3.778-.693-5.064-2.085-1.292-1.386-1.935-3.216-1.935-5.477 0-2.262.643-4.085 1.935-5.477 1.292-1.386 2.978-2.085 5.064-2.085 1.062 0 2.069.255 3.021.772v.012Zm-5.423 3.337c-.788.876-1.182 2.024-1.182 3.453 0 1.428.394 2.577 1.182 3.453.789.875 1.826 1.313 3.118 1.313 1.292 0 2.432-.438 3.257-1.313.825-.876 1.238-2.025 1.238-3.453 0-1.429-.413-2.577-1.238-3.453-.825-.875-1.91-1.313-3.257-1.313-1.347 0-2.329.438-3.118 1.313ZM341.854 176.813c1.298 1.264 1.947 2.942 1.947 5.033 0 .572-.031.991-.085 1.253h-11.13c.036 1.276.485 2.279 1.34 3.021.855.741 2.002 1.112 3.445 1.112 1.595 0 2.863-.316 3.815-.942l1.341 2.194c-1.535 1.028-3.342 1.538-5.411 1.538-2.389 0-4.294-.693-5.719-2.085-1.426-1.386-2.135-3.234-2.135-5.531 0-2.298.685-4.031 2.062-5.423 1.377-1.386 3.172-2.085 5.392-2.085s3.833.632 5.138 1.897v.018Zm-.753-3.264h-1.14l-3.445-2.456-3.415 2.456h-1.14l3.415-4.45h2.305l3.414 4.45h.006Zm-7.102 4.966c-.728.644-1.177 1.502-1.353 2.565h7.916c-.037-1.063-.419-1.921-1.141-2.565-.721-.644-1.619-.972-2.699-.972-1.079 0-1.989.322-2.717.972h-.006ZM359.061 176.698c1.007 1.191 1.511 2.753 1.511 4.692v8.328h-3.47v-8.188c0-1.143-.273-2.054-.825-2.735-.552-.687-1.267-1.028-2.159-1.028-1.122 0-2.02.414-2.693 1.241-.673.826-1.019 1.926-1.037 3.294v7.416h-3.445v-14.491h3.445v2.595c.382-.875.995-1.58 1.85-2.109a5.295 5.295 0 0 1 2.844-.796c1.65 0 2.979.595 3.985 1.781h-.006ZM374.771 175.446c1.079.352 1.971.802 2.674 1.355l-1.534 2.255c-1.08-.857-2.432-1.282-4.04-1.282-1.383 0-2.505.431-3.36 1.301-.855.863-1.286 2-1.31 3.41.018 1.41.455 2.541 1.31 3.41.855.863 1.971 1.295 3.36 1.295 1.614 0 2.96-.426 4.04-1.283l1.534 2.255c-.703.554-1.595 1.003-2.674 1.356-1.08.353-2.148.529-3.185.529-2.353-.018-4.252-.717-5.689-2.097-1.444-1.38-2.166-3.198-2.166-5.465 0-2.268.722-4.085 2.166-5.465 1.443-1.38 3.342-2.079 5.689-2.097 1.043 0 2.105.176 3.185.529v-.006ZM384.021 172.661h-3.731v-3.082h3.731v3.082Zm-.146 17.057h-3.445v-14.492h3.445v14.492ZM399.063 176.655c1.225 1.161 1.838 2.693 1.838 4.59v8.474h-3.446v-2.225c-.455.76-1.152 1.374-2.092 1.842a6.414 6.414 0 0 1-2.887.699c-1.65 0-2.985-.426-3.998-1.283-1.012-.857-1.522-1.976-1.522-3.368s.534-2.437 1.607-3.264c1.074-.827 2.493-1.24 4.252-1.24s3.239.407 4.64 1.228v-1.027c0-1.028-.339-1.854-1.013-2.481-.673-.626-1.577-.942-2.717-.942-.74 0-1.534.134-2.39.401-.855.268-1.577.608-2.165 1.028l-1.14-2.28c.643-.553 1.54-1.003 2.693-1.355a11.607 11.607 0 0 1 3.427-.529c2.05 0 3.687.577 4.907 1.738l.006-.006Zm-7.758 6.96c-.57.42-.855.979-.855 1.684 0 .645.279 1.167.837 1.569.558.401 1.304.601 2.238.601.74 0 1.48-.194 2.22-.583.74-.389 1.328-.9 1.765-1.526v-1.368c-1.177-.662-2.487-.997-3.93-.997-.947 0-1.711.213-2.275.627v-.007ZM419.685 169.755c3.075 0 5.55.918 7.43 2.754 1.88 1.836 2.814 4.243 2.814 7.234 0 2.991-.94 5.398-2.814 7.233-1.88 1.836-4.355 2.754-7.43 2.754h-7.169v-19.969h7.169v-.006Zm-3.645 2.997v13.975h3.33c2.104 0 3.797-.644 5.082-1.927 1.28-1.282 1.923-2.972 1.923-5.063 0-2.091-.637-3.781-1.923-5.064-1.279-1.283-2.978-1.927-5.082-1.927h-3.33v.006ZM436.905 172.661h-3.73v-3.082h3.73v3.082Zm-.146 17.057h-3.445v-14.492h3.445v14.492ZM450.164 175.688c.946.517 1.662 1.191 2.135 2.024v-2.48h3.415v13.689c0 2.262-.722 4.079-2.166 5.447-1.443 1.368-3.342 2.055-5.689 2.055-1.158 0-2.335-.183-3.53-.541-1.195-.359-2.19-.839-2.99-1.429l1.31-2.456c.667.493 1.456.894 2.377 1.198.922.304 1.79.456 2.603.456 1.401 0 2.535-.438 3.402-1.313.862-.876 1.304-2.025 1.323-3.453v-1.653c-.498.838-1.22 1.513-2.178 2.024a6.36 6.36 0 0 1-3.033.772c-2.086 0-3.772-.693-5.064-2.085-1.292-1.386-1.935-3.216-1.935-5.477 0-2.262.643-4.085 1.935-5.477 1.292-1.386 2.978-2.085 5.064-2.085 1.062 0 2.069.255 3.021.772v.012Zm-5.423 3.337c-.788.876-1.182 2.024-1.182 3.453 0 1.428.394 2.577 1.182 3.453.789.875 1.826 1.313 3.118 1.313 1.292 0 2.432-.438 3.257-1.313.825-.876 1.238-2.025 1.238-3.453 0-1.429-.413-2.577-1.238-3.453-.825-.875-1.91-1.313-3.257-1.313-1.346 0-2.329.438-3.118 1.313ZM463.544 172.661h-3.73v-3.082h3.73v3.082Zm-.145 17.057h-3.446v-14.492h3.446v14.492ZM471.969 175.232h4.355v2.626h-4.355v7.131c0 .705.182 1.246.558 1.629.37.383.88.571 1.523.571.812 0 1.546-.17 2.189-.51l.825 2.34c-.989.687-2.232 1.027-3.73 1.027-1.498 0-2.578-.413-3.457-1.24-.88-.826-1.323-1.908-1.323-3.24v-7.701h-2.25v-2.626h2.475l.655-4.079h2.535v4.079-.007ZM490.456 176.655c1.226 1.161 1.838 2.693 1.838 4.59v8.474h-3.445v-2.225c-.455.76-1.152 1.374-2.092 1.842a6.418 6.418 0 0 1-2.888.699c-1.649 0-2.984-.426-3.997-1.283s-1.522-1.976-1.522-3.368.534-2.437 1.607-3.264c1.074-.827 2.493-1.24 4.252-1.24s3.239.407 4.64 1.228v-1.027c0-1.028-.34-1.854-1.013-2.481-.673-.626-1.577-.942-2.717-.942-.74 0-1.535.134-2.39.401-.855.268-1.577.608-2.165 1.028l-1.141-2.28c.643-.553 1.541-1.003 2.693-1.355a11.617 11.617 0 0 1 3.427-.529c2.051 0 3.688.577 4.907 1.738l.006-.006Zm-7.757 6.96c-.57.42-.855.979-.855 1.684 0 .645.279 1.167.837 1.569.558.401 1.304.601 2.238.601.74 0 1.48-.194 2.22-.583.74-.389 1.328-.9 1.765-1.526v-1.368c-1.177-.662-2.487-.997-3.931-.997-.946 0-1.71.213-2.274.627v-.007ZM499.834 189.718h-3.47v-20.625h3.47v20.625ZM524.908 177.002c1.292 1.385 1.935 3.215 1.935 5.476 0 2.262-.643 4.091-1.935 5.477-1.292 1.386-2.996 2.085-5.125 2.085a6.171 6.171 0 0 1-2.99-.772c-.953-.516-1.668-1.185-2.166-2.024v8.869h-3.445v-20.88h3.445v2.48c.498-.839 1.213-1.514 2.166-2.024a6.221 6.221 0 0 1 2.99-.772c2.129 0 3.833.692 5.125 2.085Zm-9.068 2.042c-.825.863-1.237 2.012-1.237 3.434 0 1.423.412 2.572 1.237 3.435.825.863 1.911 1.301 3.258 1.301 1.346 0 2.323-.432 3.105-1.301.776-.863 1.165-2.012 1.165-3.435 0-1.422-.389-2.571-1.165-3.434s-1.814-1.295-3.105-1.295c-1.292 0-2.433.432-3.258 1.295ZM541.145 176.655c1.225 1.161 1.832 2.693 1.832 4.59v8.474h-3.445v-2.225c-.455.76-1.153 1.374-2.093 1.842a6.41 6.41 0 0 1-2.887.699c-1.65 0-2.984-.426-3.997-1.283-1.019-.857-1.523-1.976-1.523-3.368s.534-2.437 1.608-3.264c1.073-.827 2.487-1.24 4.252-1.24 1.765 0 3.233.407 4.64 1.228v-1.027c0-1.028-.34-1.854-1.013-2.481-.673-.626-1.583-.942-2.718-.942-.74 0-1.54.134-2.389.401-.856.268-1.577.608-2.16 1.028l-1.14-2.28c.643-.553 1.541-1.003 2.693-1.355a11.626 11.626 0 0 1 3.433-.529c2.05 0 3.688.577 4.907 1.738v-.006Zm-7.758 6.96c-.57.42-.855.979-.855 1.684 0 .645.279 1.167.837 1.569.558.401 1.304.601 2.232.601.74 0 1.48-.194 2.22-.583.74-.389 1.329-.9 1.765-1.526v-1.368c-1.176-.662-2.487-.997-3.924-.997-.946 0-1.71.213-2.275.627v-.007ZM555.448 174.971v3.368a6.338 6.338 0 0 0-1.28-.116c-1.098 0-1.99.523-2.663 1.569-.673 1.045-1.013 2.413-1.013 4.109v5.817h-3.445v-14.491h3.36v3.738c.249-1.216.753-2.194 1.523-2.936.77-.742 1.668-1.112 2.693-1.112.224 0 .503.018.825.054ZM568.755 176.655c1.225 1.161 1.838 2.693 1.838 4.59v8.474h-3.445v-2.225c-.455.76-1.153 1.374-2.093 1.842a6.41 6.41 0 0 1-2.887.699c-1.65 0-2.984-.426-3.997-1.283s-1.523-1.976-1.523-3.368.534-2.437 1.608-3.264c1.073-.827 2.493-1.24 4.252-1.24s3.239.407 4.64 1.228v-1.027c0-1.028-.34-1.854-1.013-2.481-.673-.626-1.577-.942-2.718-.942-.74 0-1.534.134-2.389.401-.856.268-1.577.608-2.166 1.028l-1.14-2.28c.643-.553 1.541-1.003 2.693-1.355a11.612 11.612 0 0 1 3.427-.529c2.05 0 3.688.577 4.907 1.738l.006-.006Zm-7.758 6.96c-.57.42-.855.979-.855 1.684 0 .645.279 1.167.837 1.569.558.401 1.304.601 2.238.601.74 0 1.48-.194 2.22-.583.74-.389 1.329-.9 1.765-1.526v-1.368c-1.176-.662-2.487-.997-3.93-.997-.946 0-1.711.213-2.275.627v-.007ZM604.972 189.718h-3.561l-1.225-14.006-5.78 13.781h-2.505l-5.781-13.781-1.225 14.006h-3.56l1.85-19.969h3.7l6.259 14.887 6.26-14.887h3.7l1.849 19.969h.019ZM620.329 176.812c1.298 1.265 1.947 2.943 1.947 5.034 0 .571-.03.99-.084 1.252h-11.131c.037 1.276.486 2.279 1.341 3.021s2.001 1.112 3.445 1.112c1.595 0 2.863-.316 3.815-.942l1.341 2.195c-1.535 1.027-3.342 1.538-5.411 1.538-2.389 0-4.294-.693-5.719-2.085-1.426-1.386-2.135-3.234-2.135-5.532s.685-4.03 2.062-5.422c1.377-1.386 3.172-2.085 5.392-2.085s3.833.632 5.137 1.896v.018Zm-7.854 1.696c-.728.645-1.177 1.502-1.353 2.566h7.915c-.036-1.064-.418-1.921-1.14-2.566-.722-.644-1.619-.972-2.699-.972-1.08 0-1.989.322-2.717.972h-.006Zm7.782-9.069-5.211 4.164h-1.14l2.535-4.419h3.816v.255ZM640.182 189.718h-3.47v-2.48c-.473.839-1.189 1.513-2.135 2.024a6.204 6.204 0 0 1-2.99.772c-2.123 0-3.833-.693-5.125-2.085-1.292-1.386-1.935-3.216-1.935-5.477s.643-4.085 1.935-5.477c1.292-1.386 2.996-2.085 5.125-2.085 1.043 0 2.038.255 2.99.772.946.517 1.662 1.192 2.135 2.024v-8.613h3.47v20.625Zm-11.015-10.68c-.776.863-1.165 2.012-1.165 3.434 0 1.423.389 2.571 1.165 3.435.776.863 1.813 1.3 3.099 1.3 1.286 0 2.433-.431 3.257-1.3.825-.864 1.238-2.012 1.238-3.435 0-1.422-.413-2.571-1.238-3.434-.824-.864-1.91-1.295-3.257-1.295-1.346 0-2.323.431-3.099 1.295ZM648.036 172.661h-3.73v-3.082h3.73v3.082Zm-.145 17.057h-3.446v-14.492h3.446v14.492ZM662.296 175.446c1.08.352 1.971.802 2.675 1.355l-1.534 2.255c-1.08-.857-2.427-1.282-4.04-1.282-1.383 0-2.505.431-3.36 1.301-.856.863-1.292 2-1.311 3.41.019 1.41.455 2.541 1.311 3.41.855.863 1.971 1.295 3.36 1.295 1.613 0 2.96-.426 4.04-1.283l1.534 2.255c-.704.554-1.595 1.003-2.675 1.356a10.24 10.24 0 0 1-3.19.529c-2.354-.018-4.252-.717-5.69-2.097-1.437-1.38-2.159-3.198-2.159-5.465 0-2.268.722-4.085 2.159-5.465 1.444-1.38 3.342-2.079 5.69-2.097 1.043 0 2.104.176 3.19.529v-.006ZM680.098 177.087c1.511 1.447 2.263 3.24 2.263 5.392s-.752 3.945-2.263 5.392c-1.51 1.446-3.384 2.17-5.622 2.17-2.239 0-4.131-.718-5.623-2.152-1.486-1.435-2.232-3.24-2.232-5.404 0-2.164.746-3.945 2.25-5.392 1.498-1.447 3.366-2.17 5.605-2.17 2.238 0 4.112.723 5.622 2.17v-.006Zm-8.855 2.055c-.88.911-1.323 2.036-1.323 3.367s.443 2.419 1.323 3.325c.885.906 1.959 1.356 3.233 1.356 1.273 0 2.347-.45 3.232-1.356.88-.906 1.323-2.012 1.323-3.325 0-1.313-.443-2.456-1.323-3.367-.885-.912-1.959-1.368-3.232-1.368-1.274 0-2.348.456-3.233 1.368ZM695.911 176.175l-.995 2.34c-1.444-.663-2.808-.997-4.1-.997-.722 0-1.31.146-1.765.444-.455.292-.686.687-.686 1.185 0 .705.589 1.234 1.765 1.599l2.105.656c2.596.839 3.9 2.274 3.9 4.304 0 1.295-.522 2.34-1.565 3.137-1.043.796-2.438 1.197-4.185 1.197-2.426 0-4.476-.51-6.15-1.538l1.164-2.395c1.517.857 3.124 1.283 4.81 1.283.819 0 1.456-.158 1.923-.468.467-.316.697-.687.697-1.125 0-.778-.667-1.361-1.995-1.738l-2.075-.657c-2.468-.82-3.699-2.212-3.699-4.194 0-1.295.503-2.328 1.51-3.106 1.007-.778 2.353-1.167 4.039-1.167 1.899 0 3.664.419 5.295 1.258l.007-.018Z" fill="#fff"/></svg>