<svg width="736" height="197" viewBox="0 0 736 197" fill="none" xmlns="http://www.w3.org/2000/svg">
<path d="M92.9223 2.86301H5.81675C2.60207 2.86301 0 5.4708 0 8.69255V95.9836C0 147.416 41.6028 189.11 92.9223 189.11C144.242 189.11 185.845 147.416 185.845 95.9836C185.845 44.5512 144.242 2.85693 92.9223 2.85693V2.86301ZM67.8479 135.86C54.5949 128.645 46.4612 114.621 46.4612 99.5032V55.2498C46.4612 52.0281 49.0632 49.4203 52.2779 49.4203H96.4282C111.507 49.4203 125.506 57.5719 132.705 70.854C156.634 114.98 111.877 159.835 67.8479 135.854V135.86Z" fill="white"/>
<path d="M92.9223 2.86301H5.81675C2.60207 2.86301 0 5.4708 0 8.69255V95.9836C0 147.416 41.6028 189.11 92.9223 189.11C144.242 189.11 185.845 147.416 185.845 95.9836C185.845 44.5512 144.242 2.85693 92.9223 2.85693V2.86301ZM67.8479 135.86C54.5949 128.645 46.4612 114.621 46.4612 99.5032V55.2498C46.4612 52.0281 49.0632 49.4203 52.2779 49.4203H96.4282C111.507 49.4203 125.506 57.5719 132.705 70.854C156.634 114.98 111.877 159.835 67.8479 135.854V135.86Z" fill="white"/>
<path d="M237.565 137.66V6.5591C237.565 5.23392 238.638 4.16406 239.954 4.16406H304.697C329.201 4.16406 342.903 11.0331 354.536 22.2727C366.582 34.7585 373.018 52.241 373.018 72.0091C373.018 91.7773 365.958 110.925 353.081 123.411C341.453 133.818 329.201 140.061 304.697 140.061H239.954C238.632 140.061 237.565 138.985 237.565 137.666V137.66ZM303.66 119.247C320.891 119.247 326.708 115.296 334.806 108.634C343.528 99.8924 348.72 86.5739 348.72 72.0091C348.72 57.4444 344.152 45.1653 335.636 36.4241C327.952 29.3484 320.685 24.9777 303.66 24.9777H260.819V119.247H303.66Z" fill="white"/>
<path d="M401.743 74.2949V137.66C401.743 138.985 400.67 140.055 399.354 140.055H382.753C381.43 140.055 380.363 138.979 380.363 137.66V67.0126C380.363 67.0126 380.363 44.2233 380.399 42.3206C380.43 40.8253 381.248 39.4879 382.74 39.4879L395.435 39.5487C396.588 39.5487 397.376 40.4362 397.789 41.5122C398.644 43.737 398.82 47.8401 399.238 52.7518C404.928 44.3692 414.002 36.2236 428.541 36.2236C433.484 36.2236 438.282 37.2753 441.266 39.2569C442.139 39.8344 442.479 40.959 442.157 41.9559L437.062 57.7607C436.644 59.0676 435.225 59.7484 433.945 59.2621C430.663 58.016 426.011 57.2379 423.561 57.2379C414.008 57.2379 401.756 67.0916 401.756 74.301L401.743 74.2949Z" fill="white"/>
<path d="M522.913 0C565.692 0 599.744 32.0472 599.744 71.7963C599.744 111.545 565.686 144.219 522.913 144.219C480.139 144.219 446.701 112.171 446.701 71.7963C446.701 31.4211 480.133 0 522.913 0ZM522.913 123.411C552.191 123.411 575.239 100.105 575.239 71.8024C575.239 43.4996 552.191 20.8137 522.913 20.8137C493.635 20.8137 471.205 43.7063 471.205 71.8024C471.205 99.8984 493.835 123.411 522.913 123.411Z" fill="white"/>
<path d="M659.542 36.2114C681.141 36.2114 698.167 51.1956 698.167 72.0093V137.666C698.167 138.991 697.093 140.061 695.777 140.061H678.97C677.648 140.061 676.58 138.985 676.58 137.666V72.0093C676.58 62.8546 668.064 55.1529 656.024 55.1529C643.985 55.1529 628.779 68.2647 628.615 74.2219V137.666C628.615 138.991 627.541 140.061 626.225 140.061H609.624C608.302 140.061 607.234 138.985 607.234 137.666V67.2192L607.271 42.3631C607.016 40.8921 608.12 39.5365 609.612 39.5365H622.349C623.483 39.5365 624.733 40.3875 624.969 41.4999C625.885 45.7672 626.055 47.6517 626.419 52.7396C633.206 42.6792 642.947 36.2114 659.561 36.2114H659.542Z" fill="white"/>
<path d="M701.066 17.3367C701.066 8.1274 708.387 0.322266 717.904 0.322266C727.42 0.322266 735.002 8.1274 735.002 17.3367C735.002 26.546 727.427 34.2114 717.904 34.2114C708.381 34.2114 701.066 26.7588 701.066 17.3367ZM731.697 17.2638C731.697 9.87808 725.674 3.48322 717.904 3.48322C710.134 3.48322 704.305 9.81121 704.305 17.2638C704.305 24.7163 710.261 30.9045 717.904 30.9045C725.546 30.9045 731.697 24.7893 731.697 17.2638ZM710.716 25.2087V8.34015H720.56C724.06 8.34015 726.65 10.5893 726.65 13.8232C726.65 15.7927 725.486 17.6224 723.284 18.5342L727.105 25.2148H722.441L719.202 19.2394H714.732V25.2148H710.716V25.2087ZM714.732 11.7078V15.7137H720.366C721.598 15.7137 722.568 14.6621 722.568 13.7442C722.568 12.6865 721.664 11.7017 720.433 11.7017H714.732V11.7078Z" fill="white"/>
<path d="M445.311 137.66C445.311 138.985 444.238 140.055 442.922 140.055H426.32C424.998 140.055 423.931 138.979 423.931 137.66C423.931 137.66 423.931 124.943 423.967 123.034C423.997 121.539 424.816 120.202 426.308 120.202L439.003 120.262C440.156 120.262 440.944 121.15 441.357 122.226C442.212 124.451 445.317 137.66 445.317 137.66H445.311Z" fill="white"/>
<path d="M245.043 189.718H241.513V169.749H245.043V189.718Z" fill="white"/>
<path d="M261.893 176.698C262.9 177.889 263.403 179.451 263.403 181.39V189.718H259.934V181.53C259.934 180.387 259.661 179.476 259.109 178.795C258.557 178.108 257.841 177.767 256.944 177.767C255.828 177.767 254.93 178.181 254.257 179.008C253.583 179.834 253.238 180.934 253.213 182.302V189.718H249.768V175.227H253.213V177.822C253.596 176.947 254.208 176.242 255.063 175.713C255.919 175.184 256.865 174.917 257.908 174.917C259.558 174.917 260.886 175.512 261.893 176.698Z" fill="white"/>
<path d="M271.567 175.232H275.922V177.858H271.567V184.989C271.567 185.694 271.749 186.235 272.125 186.618C272.495 187.001 273.005 187.189 273.648 187.189C274.461 187.189 275.195 187.019 275.837 186.679L276.662 189.019C275.674 189.706 274.43 190.046 272.932 190.046C271.434 190.046 270.354 189.633 269.475 188.806C268.595 187.98 268.153 186.898 268.153 185.566V177.865H265.902V175.239H268.377L269.032 171.16H271.567V175.239V175.232Z" fill="white"/>
<path d="M290.71 176.813C292.008 178.078 292.657 179.755 292.657 181.846C292.657 182.418 292.626 182.837 292.572 183.099H281.442C281.478 184.375 281.927 185.378 282.782 186.12C283.637 186.861 284.784 187.232 286.227 187.232C287.823 187.232 289.09 186.916 290.043 186.29L291.383 188.484C289.842 189.512 288.041 190.022 285.973 190.022C283.583 190.022 281.672 189.329 280.253 187.937C278.828 186.551 278.118 184.703 278.118 182.406C278.118 180.108 278.803 178.375 280.18 176.983C281.557 175.597 283.352 174.898 285.572 174.898C287.792 174.898 289.412 175.531 290.71 176.795V176.813ZM282.855 178.509C282.127 179.154 281.672 180.011 281.502 181.074H289.412C289.375 180.011 288.993 179.154 288.271 178.509C287.55 177.865 286.652 177.537 285.566 177.537C284.481 177.537 283.577 177.859 282.849 178.509H282.855Z" fill="white"/>
<path d="M299.262 189.718H295.793V169.093H299.262V189.718Z" fill="white"/>
<path d="M307.117 172.661H303.387V169.579H307.117V172.661ZM306.971 189.718H303.526V175.226H306.971V189.718Z" fill="white"/>
<path d="M320.382 175.688C321.328 176.205 322.044 176.879 322.517 177.712V175.232H325.932V188.921C325.932 191.183 325.21 193 323.772 194.368C322.329 195.736 320.43 196.423 318.077 196.423C316.919 196.423 315.742 196.24 314.547 195.882C313.352 195.523 312.357 195.043 311.557 194.453L312.867 191.997C313.528 192.49 314.323 192.891 315.244 193.195C316.166 193.499 317.034 193.651 317.847 193.651C319.248 193.651 320.382 193.213 321.249 192.338C322.111 191.462 322.553 190.313 322.572 188.885V187.232C322.08 188.07 321.352 188.745 320.394 189.256C319.436 189.766 318.423 190.028 317.361 190.028C315.275 190.028 313.583 189.335 312.297 187.943C311.005 186.557 310.362 184.727 310.362 182.466C310.362 180.204 311.005 178.381 312.297 176.989C313.589 175.603 315.275 174.904 317.361 174.904C318.423 174.904 319.43 175.159 320.382 175.676V175.688ZM314.959 179.025C314.171 179.901 313.777 181.049 313.777 182.478C313.777 183.906 314.171 185.055 314.959 185.931C315.748 186.806 316.785 187.244 318.077 187.244C319.369 187.244 320.509 186.806 321.334 185.931C322.159 185.055 322.572 183.906 322.572 182.478C322.572 181.049 322.159 179.901 321.334 179.025C320.509 178.15 319.424 177.712 318.077 177.712C316.73 177.712 315.748 178.15 314.959 179.025Z" fill="white"/>
<path d="M341.854 176.813C343.152 178.077 343.801 179.755 343.801 181.846C343.801 182.418 343.77 182.837 343.716 183.099H332.586C332.622 184.375 333.071 185.378 333.926 186.12C334.781 186.861 335.928 187.232 337.371 187.232C338.966 187.232 340.234 186.916 341.186 186.29L342.527 188.484C340.992 189.512 339.185 190.022 337.116 190.022C334.727 190.022 332.822 189.329 331.397 187.937C329.971 186.551 329.262 184.703 329.262 182.406C329.262 180.108 329.947 178.375 331.324 176.983C332.701 175.597 334.496 174.898 336.716 174.898C338.936 174.898 340.549 175.53 341.854 176.795V176.813ZM341.101 173.549H339.961L336.516 171.093L333.101 173.549H331.961L335.376 169.099H337.681L341.095 173.549H341.101ZM333.999 178.515C333.271 179.159 332.822 180.017 332.646 181.08H340.562C340.525 180.017 340.143 179.159 339.421 178.515C338.7 177.871 337.802 177.543 336.722 177.543C335.643 177.543 334.733 177.865 334.005 178.515H333.999Z" fill="white"/>
<path d="M359.061 176.698C360.068 177.889 360.572 179.451 360.572 181.39V189.718H357.102V181.53C357.102 180.387 356.829 179.476 356.277 178.795C355.725 178.108 355.01 177.767 354.118 177.767C352.996 177.767 352.098 178.181 351.425 179.008C350.752 179.834 350.406 180.934 350.388 182.302V189.718H346.943V175.227H350.388V177.822C350.77 176.947 351.383 176.242 352.238 175.713C353.093 175.184 354.039 174.917 355.082 174.917C356.732 174.917 358.061 175.512 359.067 176.698H359.061Z" fill="white"/>
<path d="M374.771 175.446C375.85 175.798 376.742 176.248 377.445 176.801L375.911 179.056C374.831 178.199 373.479 177.774 371.871 177.774C370.488 177.774 369.366 178.205 368.511 179.075C367.656 179.938 367.225 181.075 367.201 182.485C367.219 183.895 367.656 185.026 368.511 185.895C369.366 186.758 370.482 187.19 371.871 187.19C373.485 187.19 374.831 186.764 375.911 185.907L377.445 188.162C376.742 188.716 375.85 189.165 374.771 189.518C373.691 189.871 372.623 190.047 371.586 190.047C369.233 190.029 367.334 189.33 365.897 187.95C364.453 186.57 363.731 184.752 363.731 182.485C363.731 180.217 364.453 178.4 365.897 177.02C367.34 175.64 369.239 174.941 371.586 174.923C372.629 174.923 373.691 175.099 374.771 175.452V175.446Z" fill="white"/>
<path d="M384.021 172.661H380.29V169.579H384.021V172.661ZM383.875 189.718H380.43V175.226H383.875V189.718Z" fill="white"/>
<path d="M399.063 176.655C400.288 177.816 400.901 179.348 400.901 181.245V189.719H397.455V187.494C397 188.254 396.303 188.868 395.363 189.336C394.423 189.804 393.458 190.035 392.476 190.035C390.826 190.035 389.491 189.609 388.478 188.752C387.466 187.895 386.956 186.776 386.956 185.384C386.956 183.992 387.49 182.947 388.563 182.12C389.637 181.293 391.056 180.88 392.815 180.88C394.574 180.88 396.054 181.287 397.455 182.108V181.081C397.455 180.053 397.116 179.227 396.442 178.6C395.769 177.974 394.865 177.658 393.725 177.658C392.985 177.658 392.191 177.792 391.335 178.059C390.48 178.327 389.758 178.667 389.17 179.087L388.03 176.807C388.673 176.254 389.57 175.804 390.723 175.452C391.869 175.099 393.015 174.923 394.15 174.923C396.2 174.923 397.837 175.5 399.057 176.661L399.063 176.655ZM391.305 183.615C390.735 184.035 390.45 184.594 390.45 185.299C390.45 185.944 390.729 186.466 391.287 186.868C391.845 187.269 392.591 187.469 393.525 187.469C394.265 187.469 395.005 187.275 395.745 186.886C396.485 186.497 397.073 185.986 397.51 185.36V183.992C396.333 183.33 395.023 182.995 393.58 182.995C392.633 182.995 391.869 183.208 391.305 183.622V183.615Z" fill="white"/>
<path d="M419.685 169.755C422.76 169.755 425.235 170.673 427.115 172.509C428.995 174.345 429.929 176.752 429.929 179.743C429.929 182.734 428.989 185.141 427.115 186.976C425.235 188.812 422.76 189.73 419.685 189.73H412.516V169.761H419.685V169.755ZM416.04 172.752V186.727H419.37C421.474 186.727 423.167 186.083 424.452 184.8C425.732 183.518 426.375 181.828 426.375 179.737C426.375 177.646 425.738 175.956 424.452 174.673C423.173 173.39 421.474 172.746 419.37 172.746H416.04V172.752Z" fill="white"/>
<path d="M436.905 172.661H433.175V169.579H436.905V172.661ZM436.759 189.718H433.314V175.226H436.759V189.718Z" fill="white"/>
<path d="M450.164 175.688C451.11 176.205 451.826 176.879 452.299 177.712V175.232H455.714V188.921C455.714 191.183 454.992 193 453.548 194.368C452.105 195.736 450.206 196.423 447.859 196.423C446.701 196.423 445.524 196.24 444.329 195.882C443.134 195.523 442.139 195.043 441.339 194.453L442.649 191.997C443.316 192.49 444.105 192.891 445.026 193.195C445.948 193.499 446.816 193.651 447.629 193.651C449.03 193.651 450.164 193.213 451.031 192.338C451.893 191.462 452.335 190.313 452.354 188.885V187.232C451.856 188.07 451.134 188.745 450.176 189.256C449.218 189.766 448.211 190.028 447.143 190.028C445.057 190.028 443.371 189.335 442.079 187.943C440.787 186.557 440.144 184.727 440.144 182.466C440.144 180.204 440.787 178.381 442.079 176.989C443.371 175.603 445.057 174.904 447.143 174.904C448.205 174.904 449.212 175.159 450.164 175.676V175.688ZM444.741 179.025C443.953 179.901 443.559 181.049 443.559 182.478C443.559 183.906 443.953 185.055 444.741 185.931C445.53 186.806 446.567 187.244 447.859 187.244C449.151 187.244 450.291 186.806 451.116 185.931C451.941 185.055 452.354 183.906 452.354 182.478C452.354 181.049 451.941 179.901 451.116 179.025C450.291 178.15 449.206 177.712 447.859 177.712C446.513 177.712 445.53 178.15 444.741 179.025Z" fill="white"/>
<path d="M463.544 172.661H459.814V169.579H463.544V172.661ZM463.399 189.718H459.953V175.226H463.399V189.718Z" fill="white"/>
<path d="M471.969 175.232H476.324V177.858H471.969V184.989C471.969 185.694 472.151 186.235 472.527 186.618C472.897 187.001 473.407 187.189 474.05 187.189C474.862 187.189 475.596 187.019 476.239 186.679L477.064 189.019C476.075 189.706 474.832 190.046 473.334 190.046C471.836 190.046 470.756 189.633 469.877 188.806C468.997 187.98 468.554 186.898 468.554 185.566V177.865H466.304V175.239H468.779L469.434 171.16H471.969V175.239V175.232Z" fill="white"/>
<path d="M490.456 176.655C491.682 177.816 492.294 179.348 492.294 181.245V189.719H488.849V187.494C488.394 188.254 487.697 188.868 486.757 189.336C485.816 189.804 484.852 190.035 483.869 190.035C482.22 190.035 480.885 189.609 479.872 188.752C478.859 187.895 478.35 186.776 478.35 185.384C478.35 183.992 478.884 182.947 479.957 182.12C481.031 181.293 482.45 180.88 484.209 180.88C485.968 180.88 487.448 181.287 488.849 182.108V181.081C488.849 180.053 488.509 179.227 487.836 178.6C487.163 177.974 486.259 177.658 485.119 177.658C484.379 177.658 483.584 177.792 482.729 178.059C481.874 178.327 481.152 178.667 480.564 179.087L479.423 176.807C480.066 176.254 480.964 175.804 482.116 175.452C483.263 175.099 484.409 174.923 485.543 174.923C487.594 174.923 489.231 175.5 490.45 176.661L490.456 176.655ZM482.699 183.615C482.129 184.035 481.844 184.594 481.844 185.299C481.844 185.944 482.123 186.466 482.681 186.868C483.239 187.269 483.985 187.469 484.919 187.469C485.659 187.469 486.399 187.275 487.139 186.886C487.879 186.497 488.467 185.986 488.904 185.36V183.992C487.727 183.33 486.417 182.995 484.973 182.995C484.027 182.995 483.263 183.208 482.699 183.622V183.615Z" fill="white"/>
<path d="M499.834 189.718H496.364V169.093H499.834V189.718Z" fill="white"/>
<path d="M524.908 177.002C526.2 178.387 526.843 180.217 526.843 182.478C526.843 184.74 526.2 186.569 524.908 187.955C523.616 189.341 521.912 190.04 519.783 190.04C518.74 190.04 517.745 189.785 516.793 189.268C515.84 188.752 515.125 188.083 514.627 187.244V196.113H511.182V175.233H514.627V177.713C515.125 176.874 515.84 176.199 516.793 175.689C517.739 175.178 518.74 174.917 519.783 174.917C521.912 174.917 523.616 175.609 524.908 177.002ZM515.84 179.044C515.015 179.907 514.603 181.056 514.603 182.478C514.603 183.901 515.015 185.05 515.84 185.913C516.665 186.776 517.751 187.214 519.098 187.214C520.444 187.214 521.421 186.782 522.203 185.913C522.979 185.05 523.368 183.901 523.368 182.478C523.368 181.056 522.979 179.907 522.203 179.044C521.427 178.181 520.389 177.749 519.098 177.749C517.806 177.749 516.665 178.181 515.84 179.044Z" fill="white"/>
<path d="M541.145 176.655C542.37 177.816 542.977 179.348 542.977 181.245V189.719H539.532V187.494C539.077 188.254 538.379 188.868 537.439 189.336C536.499 189.804 535.535 190.035 534.552 190.035C532.902 190.035 531.568 189.609 530.555 188.752C529.536 187.895 529.032 186.776 529.032 185.384C529.032 183.992 529.566 182.947 530.64 182.12C531.713 181.293 533.127 180.88 534.892 180.88C536.657 180.88 538.125 181.287 539.532 182.108V181.081C539.532 180.053 539.192 179.227 538.519 178.6C537.846 177.974 536.936 177.658 535.801 177.658C535.061 177.658 534.261 177.792 533.412 178.059C532.556 178.327 531.835 178.667 531.252 179.087L530.112 176.807C530.755 176.254 531.653 175.804 532.805 175.452C533.952 175.099 535.098 174.923 536.238 174.923C538.288 174.923 539.926 175.5 541.145 176.661V176.655ZM533.387 183.615C532.817 184.035 532.532 184.594 532.532 185.299C532.532 185.944 532.811 186.466 533.369 186.868C533.927 187.269 534.673 187.469 535.601 187.469C536.341 187.469 537.081 187.275 537.821 186.886C538.561 186.497 539.15 185.986 539.586 185.36V183.992C538.41 183.33 537.099 182.995 535.662 182.995C534.716 182.995 533.952 183.208 533.387 183.622V183.615Z" fill="white"/>
<path d="M555.448 174.971V178.339C555.066 178.26 554.641 178.223 554.168 178.223C553.07 178.223 552.178 178.746 551.505 179.792C550.832 180.837 550.492 182.205 550.492 183.901V189.718H547.047V175.227H550.407V178.965C550.656 177.749 551.16 176.771 551.93 176.029C552.7 175.287 553.598 174.917 554.623 174.917C554.847 174.917 555.126 174.935 555.448 174.971Z" fill="white"/>
<path d="M568.755 176.655C569.98 177.816 570.593 179.348 570.593 181.245V189.719H567.148V187.494C566.693 188.254 565.995 188.868 565.055 189.336C564.115 189.804 563.151 190.035 562.168 190.035C560.518 190.035 559.184 189.609 558.171 188.752C557.158 187.895 556.648 186.776 556.648 185.384C556.648 183.992 557.182 182.947 558.256 182.12C559.329 181.293 560.749 180.88 562.508 180.88C564.267 180.88 565.747 181.287 567.148 182.108V181.081C567.148 180.053 566.808 179.227 566.135 178.6C565.462 177.974 564.558 177.658 563.417 177.658C562.677 177.658 561.883 177.792 561.028 178.059C560.172 178.327 559.451 178.667 558.862 179.087L557.722 176.807C558.365 176.254 559.263 175.804 560.415 175.452C561.561 175.099 562.708 174.923 563.842 174.923C565.892 174.923 567.53 175.5 568.749 176.661L568.755 176.655ZM560.997 183.615C560.427 184.035 560.142 184.594 560.142 185.299C560.142 185.944 560.421 186.466 560.979 186.868C561.537 187.269 562.283 187.469 563.217 187.469C563.957 187.469 564.697 187.275 565.437 186.886C566.177 186.497 566.766 185.986 567.202 185.36V183.992C566.026 183.33 564.715 182.995 563.272 182.995C562.326 182.995 561.561 183.208 560.997 183.622V183.615Z" fill="white"/>
<path d="M604.972 189.718H601.411L600.186 175.712L594.406 189.493H591.901L586.12 175.712L584.895 189.718H581.335L583.185 169.749H586.885L593.144 184.636L599.404 169.749H603.104L604.953 189.718H604.972Z" fill="white"/>
<path d="M620.329 176.812C621.627 178.077 622.276 179.755 622.276 181.846C622.276 182.417 622.246 182.836 622.192 183.098H611.061C611.098 184.374 611.547 185.377 612.402 186.119C613.257 186.861 614.403 187.231 615.847 187.231C617.442 187.231 618.71 186.915 619.662 186.289L621.003 188.484C619.468 189.511 617.661 190.022 615.592 190.022C613.203 190.022 611.298 189.329 609.873 187.937C608.447 186.551 607.738 184.703 607.738 182.405C607.738 180.107 608.423 178.375 609.8 176.983C611.177 175.597 612.972 174.898 615.192 174.898C617.412 174.898 619.025 175.53 620.329 176.794V176.812ZM612.475 178.508C611.747 179.153 611.298 180.01 611.122 181.074H619.037C619.001 180.01 618.619 179.153 617.897 178.508C617.175 177.864 616.278 177.536 615.198 177.536C614.118 177.536 613.209 177.858 612.481 178.508H612.475ZM620.257 169.439L615.046 173.603H613.906L616.441 169.184H620.257V169.439Z" fill="white"/>
<path d="M640.182 189.718H636.712V187.238C636.239 188.077 635.523 188.751 634.577 189.262C633.631 189.773 632.636 190.034 631.587 190.034C629.464 190.034 627.754 189.341 626.462 187.949C625.17 186.563 624.527 184.733 624.527 182.472C624.527 180.211 625.17 178.387 626.462 176.995C627.754 175.609 629.458 174.91 631.587 174.91C632.63 174.91 633.625 175.165 634.577 175.682C635.523 176.199 636.239 176.874 636.712 177.706V169.093H640.182V189.718ZM629.167 179.038C628.391 179.901 628.002 181.05 628.002 182.472C628.002 183.895 628.391 185.043 629.167 185.907C629.943 186.77 630.98 187.207 632.266 187.207C633.552 187.207 634.699 186.776 635.523 185.907C636.348 185.043 636.761 183.895 636.761 182.472C636.761 181.05 636.348 179.901 635.523 179.038C634.699 178.174 633.613 177.743 632.266 177.743C630.92 177.743 629.943 178.174 629.167 179.038Z" fill="white"/>
<path d="M648.036 172.661H644.306V169.579H648.036V172.661ZM647.891 189.718H644.445V175.226H647.891V189.718Z" fill="white"/>
<path d="M662.296 175.446C663.376 175.798 664.267 176.248 664.971 176.801L663.437 179.056C662.357 178.199 661.01 177.774 659.397 177.774C658.014 177.774 656.892 178.205 656.037 179.075C655.181 179.938 654.745 181.075 654.726 182.485C654.745 183.895 655.181 185.026 656.037 185.895C656.892 186.758 658.008 187.19 659.397 187.19C661.01 187.19 662.357 186.764 663.437 185.907L664.971 188.162C664.267 188.716 663.376 189.165 662.296 189.518C661.217 189.871 660.149 190.047 659.106 190.047C656.752 190.029 654.854 189.33 653.416 187.95C651.979 186.57 651.257 184.752 651.257 182.485C651.257 180.217 651.979 178.4 653.416 177.02C654.86 175.64 656.758 174.941 659.106 174.923C660.149 174.923 661.21 175.099 662.296 175.452V175.446Z" fill="white"/>
<path d="M680.098 177.087C681.609 178.534 682.361 180.327 682.361 182.479C682.361 184.631 681.609 186.424 680.098 187.871C678.588 189.317 676.714 190.041 674.476 190.041C672.237 190.041 670.345 189.323 668.853 187.889C667.367 186.454 666.621 184.649 666.621 182.485C666.621 180.321 667.367 178.54 668.871 177.093C670.369 175.646 672.237 174.923 674.476 174.923C676.714 174.923 678.588 175.646 680.098 177.093V177.087ZM671.243 179.142C670.363 180.053 669.92 181.178 669.92 182.509C669.92 183.84 670.363 184.928 671.243 185.834C672.128 186.74 673.202 187.19 674.476 187.19C675.749 187.19 676.823 186.74 677.708 185.834C678.588 184.928 679.031 183.822 679.031 182.509C679.031 181.196 678.588 180.053 677.708 179.142C676.823 178.23 675.749 177.774 674.476 177.774C673.202 177.774 672.128 178.23 671.243 179.142Z" fill="white"/>
<path d="M695.911 176.175L694.916 178.515C693.472 177.852 692.108 177.518 690.816 177.518C690.094 177.518 689.506 177.664 689.051 177.962C688.596 178.254 688.365 178.649 688.365 179.147C688.365 179.852 688.954 180.381 690.13 180.746L692.235 181.402C694.831 182.241 696.135 183.676 696.135 185.706C696.135 187.001 695.613 188.046 694.57 188.843C693.527 189.639 692.132 190.04 690.385 190.04C687.959 190.04 685.909 189.53 684.235 188.502L685.399 186.107C686.916 186.964 688.523 187.39 690.209 187.39C691.028 187.39 691.665 187.232 692.132 186.922C692.599 186.606 692.829 186.235 692.829 185.797C692.829 185.019 692.162 184.436 690.834 184.059L688.759 183.402C686.291 182.582 685.06 181.19 685.06 179.208C685.06 177.913 685.563 176.88 686.57 176.102C687.577 175.324 688.923 174.935 690.609 174.935C692.508 174.935 694.273 175.354 695.904 176.193L695.911 176.175Z" fill="white"/>
</svg>
