<svg width="443" height="73" viewBox="0 0 443 73" fill="none" xmlns="http://www.w3.org/2000/svg">
<g clip-path="url(#clip0_233_459)">
<path d="M119.806 19.935C119.806 28.9153 113.261 34.3493 102.433 34.3493H92.1418V46.8698H86.1952V5.52066H102.439C113.267 5.52066 119.812 10.9547 119.812 19.935H119.806ZM113.859 19.935C113.859 14.0306 109.87 10.6638 102.259 10.6638H92.1481V29.2124H102.259C109.876 29.2124 113.859 25.8455 113.859 19.9412V19.935Z" fill="white"/>
<path d="M156.396 46.8698L147.413 34.1698C146.578 34.2317 145.687 34.2874 144.795 34.2874H134.504V46.8698H128.557V5.52066H144.801C155.629 5.52066 162.174 10.9547 162.174 19.935C162.174 26.3159 158.845 30.9206 153.011 32.9877L162.884 46.8698H156.402H156.396ZM156.215 19.935C156.215 14.0306 152.225 10.6638 144.614 10.6638H134.504V29.2681H144.614C152.232 29.2681 156.215 25.8394 156.215 19.935Z" fill="white"/>
<path d="M168.413 26.1921C168.413 14.0801 177.813 5.0441 190.604 5.0441C203.395 5.0441 212.677 14.0244 212.677 26.1921C212.677 38.3598 203.277 47.3402 190.604 47.3402C177.932 47.3402 168.413 38.3041 168.413 26.1921ZM206.73 26.1921C206.73 17.0385 199.83 10.3048 190.604 10.3048C181.379 10.3048 174.36 17.0385 174.36 26.1921C174.36 35.3458 181.26 42.0795 190.604 42.0795C199.948 42.0795 206.73 35.3458 206.73 26.1921Z" fill="white"/>
<path d="M246.468 46.8698L233.976 29.8004L221.659 46.8698H214.815L230.46 25.6661L215.762 5.52066H222.544L234.207 21.408L245.751 5.52066H252.234L237.542 25.4866L253.306 46.8698H246.462H246.468Z" fill="white"/>
<path d="M274.487 32.5731V46.8698H268.596V32.4555L252.059 5.52066H258.423L271.75 27.3185L285.134 5.52066H291.024L274.487 32.5731Z" fill="white"/>
<path d="M333.311 20.8324L322.048 43.441H316.506L305.299 20.8324V46.8698H295.998V5.50208H308.571L319.299 28.2283L330.089 5.50208H342.605V46.8698H333.305V20.8324H333.311Z" fill="white"/>
<path d="M382.898 5.50208V13.7273H362.153V22.2497H380.81V30.1222H362.153V38.7064H383.552V46.876H352.859V5.50208H382.898Z" fill="white"/>
<path d="M423.67 10.9175C427.641 14.5257 429.63 19.5512 429.63 25.9755C429.63 32.3997 427.691 37.4995 423.82 41.2439C419.949 44.9945 414.034 46.8636 406.086 46.8636H391.843V5.50208H406.566C413.996 5.50208 419.7 7.30928 423.67 10.9175ZM416.845 35.5067C419.126 33.3776 420.273 30.2769 420.273 26.2169C420.273 22.1568 419.132 19.0252 416.845 16.8342C414.557 14.6433 411.054 13.5479 406.323 13.5479H401.137V38.7002H407.04C411.291 38.7002 414.557 37.6357 416.845 35.5067Z" fill="white"/>
<path d="M438.101 9.74159C435.383 9.74159 433.183 7.55685 433.189 4.8646C433.201 2.18474 435.408 0 438.101 0C440.812 0 443.006 2.19093 443 4.88936C442.994 7.5816 440.812 9.74159 438.101 9.74159ZM433.924 4.8646C433.924 7.16075 435.788 9.02365 438.094 9.02984C440.395 9.02984 442.277 7.16075 442.283 4.87698C442.283 2.59941 440.413 0.736498 438.126 0.730309C435.807 0.730309 433.937 2.57465 433.931 4.8646H433.924Z" fill="white"/>
<path d="M438.125 5.38449H437.309V6.72133H436.561V2.90268H438.431C438.824 2.90268 439.142 3.02646 439.385 3.28021C439.628 3.53396 439.746 3.81866 439.746 4.14049C439.746 4.40043 439.671 4.63562 439.522 4.84605C439.372 5.05647 439.166 5.2112 438.905 5.30404L439.858 6.71514H438.992L438.125 5.3783V5.38449ZM437.303 4.72845H438.381C438.574 4.72845 438.724 4.67275 438.842 4.56135C438.961 4.44995 439.017 4.31379 439.017 4.14668C439.017 3.97958 438.961 3.8558 438.842 3.74439C438.724 3.63299 438.581 3.57729 438.406 3.57729H437.303V4.73464V4.72845Z" fill="white"/>
<path d="M98.344 61.6864C99.6343 61.6864 100.663 62.0763 101.405 62.8747C102.153 63.6669 102.527 64.7747 102.527 66.1797V72.6844H101.461V66.2601C101.461 65.1461 101.18 64.2796 100.625 63.6545C100.071 63.0294 99.279 62.7138 98.2692 62.7138C97.2594 62.7138 96.4117 63.0975 95.7385 63.8588C95.0653 64.62 94.7349 65.5979 94.7349 66.7924V72.6967H93.669V66.2725C93.669 65.1585 93.4134 64.292 92.8898 63.6669C92.3662 63.0418 91.6307 62.7262 90.6707 62.7262C89.6048 62.7262 88.7197 63.1408 88.0216 63.964C87.3297 64.7933 86.9743 65.8578 86.9743 67.1885V72.7215H85.9084V61.9773H86.9743V64.0444C87.3359 63.3575 87.847 62.7942 88.5078 62.3672C89.1685 61.9402 89.9352 61.7297 90.8141 61.7297C92.5969 61.7297 93.7937 62.5219 94.3983 64.1125C94.7162 63.4008 95.2211 62.8314 95.9006 62.3858C96.58 61.9402 97.4153 61.7173 98.3877 61.7173L98.3316 61.6864H98.344Z" fill="white"/>
<path d="M112.513 72.9814C110.867 72.9814 109.527 72.4616 108.467 71.4342C107.407 70.4068 106.89 69.039 106.89 67.3308C106.89 65.734 107.401 64.3972 108.417 63.3265C109.433 62.2558 110.742 61.7173 112.344 61.7173C113.946 61.7173 115.299 62.2248 116.253 63.2337C117.2 64.2425 117.68 65.5112 117.68 67.0461C117.68 67.3123 117.668 67.5351 117.661 67.7145H108.006C108.062 68.9957 108.498 70.0231 109.321 70.8091C110.144 71.5951 111.21 71.985 112.525 71.985C113.497 71.985 114.339 71.7498 115.043 71.2856C115.748 70.8215 116.246 70.2459 116.558 69.5713L117.593 69.8807C117.156 70.7843 116.514 71.5208 115.673 72.1026C114.831 72.6844 113.772 72.9814 112.506 72.9814H112.525H112.513ZM116.602 66.7305C116.514 65.5112 116.103 64.5396 115.355 63.8031C114.607 63.0727 113.603 62.7014 112.338 62.7014C111.073 62.7014 110.131 63.0913 109.321 63.8773C108.511 64.6633 108.074 65.6165 108 66.7491L116.614 66.7305H116.602Z" fill="white"/>
<path d="M127.404 61.7173C128.738 61.7173 129.804 62.132 130.596 62.9552C131.387 63.7783 131.78 64.9233 131.78 66.3901V72.7277H130.714V66.4953C130.714 65.307 130.415 64.3848 129.816 63.7288C129.218 63.0728 128.376 62.7447 127.279 62.7447C126.039 62.7447 125.035 63.1594 124.269 63.9949C123.502 64.8304 123.115 65.9259 123.115 67.2689V72.7153H122.05V61.9711H123.115V64.1868C123.508 63.4379 124.075 62.8314 124.811 62.3858C125.546 61.9402 126.413 61.7173 127.417 61.7173H127.404Z" fill="white"/>
<path d="M138.992 62.9799V69.6641C138.992 71.1185 139.653 71.8365 140.974 71.8365C141.529 71.8365 142.096 71.7003 142.663 71.4218L142.981 72.4182C142.258 72.7277 141.554 72.8762 140.868 72.8762C139.896 72.8762 139.16 72.5915 138.662 72.0159C138.163 71.4466 137.914 70.6605 137.914 69.6517V62.9675H135.62V61.9711H137.914V58.1586H138.992V61.9711H142.981V62.9675L138.992 62.9799Z" fill="white"/>
<path d="M151.546 72.9938C149.913 72.9938 148.56 72.4554 147.469 71.3723C146.378 70.2892 145.836 68.9462 145.836 67.3432C145.836 65.7402 146.378 64.4096 147.469 63.3389C148.56 62.2682 149.925 61.7297 151.558 61.7297C153.192 61.7297 154.513 62.262 155.591 63.3265C156.67 64.391 157.212 65.734 157.212 67.3308C157.212 68.9276 156.676 70.2768 155.604 71.3599C154.532 72.443 153.179 72.9814 151.571 72.9814L151.552 72.9938H151.546ZM151.546 71.9974C152.836 71.9974 153.927 71.5518 154.812 70.6729C155.697 69.7941 156.134 68.6924 156.134 67.3803C156.134 66.0682 155.697 64.9666 154.812 64.0754C153.927 63.1841 152.836 62.7385 151.546 62.7385C150.256 62.7385 149.134 63.1841 148.248 64.0754C147.363 64.9666 146.915 66.0682 146.915 67.3803C146.915 68.6924 147.363 69.7941 148.248 70.6729C149.134 71.5518 150.231 71.985 151.546 71.985V71.9974Z" fill="white"/>
<path d="M162.704 63.9825C163.034 63.2089 163.545 62.6271 164.243 62.2372C164.935 61.8473 165.77 61.7174 166.743 61.8473V62.8438C165.502 62.7076 164.524 63.0109 163.794 63.7783C163.071 64.5396 162.704 65.7836 162.704 67.5103V72.7215H161.638V61.9773H162.704V63.9887V63.9825Z" fill="white"/>
<path d="M171.312 59.7245C171.069 59.7245 170.863 59.6378 170.695 59.4707C170.527 59.3036 170.439 59.087 170.439 58.8456C170.439 58.6043 170.527 58.4124 170.695 58.2515C170.863 58.0906 171.081 58.0101 171.324 58.0101C171.568 58.0101 171.786 58.0967 171.954 58.2515C172.122 58.4124 172.21 58.5981 172.21 58.8209C172.21 59.0622 172.122 59.2665 171.954 59.4336C171.786 59.6007 171.58 59.6873 171.337 59.6873L171.312 59.7183V59.7245ZM170.788 62.002H171.854V72.7463H170.788V62.002Z" fill="white"/>
<path d="M181.903 73C180.313 73 178.998 72.4615 177.957 71.3785C176.91 70.2954 176.386 68.9523 176.386 67.3494C176.386 65.7464 176.91 64.4158 177.957 63.3451C179.004 62.2743 180.325 61.7359 181.915 61.7359C182.962 61.7359 183.891 61.9587 184.689 62.4043C185.487 62.8499 186.129 63.4626 186.596 64.2363V61.9773H187.662V72.7215H186.596V70.4439C186.147 71.2361 185.518 71.8612 184.708 72.3068C183.897 72.7524 182.968 72.9752 181.921 72.9752L181.903 72.9938V73ZM182.021 72.0469C183.293 72.0469 184.371 71.6013 185.262 70.7039C186.16 69.8002 186.609 68.6986 186.609 67.3989C186.609 66.0992 186.16 64.9913 185.262 64.0939C184.365 63.1903 183.286 62.7509 182.021 62.7509C180.687 62.7509 179.59 63.1965 178.736 64.0754C177.882 64.9542 177.458 66.0559 177.458 67.3927C177.458 68.7295 177.882 69.8312 178.748 70.71C179.615 71.5889 180.699 72.0221 182.027 72.0221V72.0531L182.021 72.0469Z" fill="white"/>
<path d="M205.153 72.9814C203.507 72.9814 202.167 72.4616 201.108 71.4342C200.048 70.4068 199.531 69.039 199.531 67.3308C199.531 65.734 200.042 64.3972 201.058 63.3265C202.074 62.2558 203.383 61.7173 204.985 61.7173C206.587 61.7173 207.939 62.2248 208.893 63.2337C209.841 64.2425 210.32 65.5112 210.32 67.0461C210.32 67.3123 210.308 67.5351 210.302 67.7145H200.646C200.702 68.9957 201.139 70.0231 201.962 70.8091C202.784 71.5951 203.85 71.985 205.165 71.985C206.138 71.985 206.979 71.7498 207.684 71.2856C208.388 70.8215 208.887 70.2459 209.198 69.5713L210.233 69.8807C209.797 70.7843 209.155 71.5208 208.313 72.1026C207.472 72.6844 206.412 72.9814 205.147 72.9814H205.165H205.153ZM209.242 66.7305C209.155 65.5112 208.743 64.5396 207.995 63.8031C207.247 63.0727 206.244 62.7014 204.978 62.7014C203.713 62.7014 202.772 63.0913 201.962 63.8773C201.151 64.6633 200.715 65.6165 200.64 66.7491L209.255 66.7305H209.242Z" fill="white"/>
<path d="M227.101 61.6864C228.391 61.6864 229.42 62.0763 230.161 62.8747C230.909 63.6669 231.283 64.7747 231.283 66.1797V72.6844H230.217V66.2601C230.217 65.1461 229.937 64.2796 229.382 63.6545C228.827 63.0294 228.036 62.7138 227.026 62.7138C226.016 62.7138 225.168 63.0975 224.495 63.8588C223.822 64.62 223.492 65.5979 223.492 66.7924V72.6967H222.426V66.2725C222.426 65.1585 222.17 64.292 221.647 63.6669C221.123 63.0418 220.387 62.7262 219.427 62.7262C218.362 62.7262 217.476 63.1408 216.778 63.964C216.086 64.7933 215.731 65.8578 215.731 67.1885V72.7215H214.665V61.9773H215.731V64.0444C216.093 63.3575 216.604 62.7942 217.264 62.3672C217.925 61.9402 218.692 61.7297 219.571 61.7297C221.354 61.7297 222.55 62.5219 223.155 64.1125C223.473 63.4008 223.978 62.8314 224.657 62.3858C225.337 61.9402 226.172 61.7173 227.144 61.7173L227.088 61.6864H227.101Z" fill="white"/>
<path d="M249.117 61.7174C250.451 61.7174 251.517 62.132 252.308 62.9552C253.1 63.7783 253.493 64.9233 253.493 66.3901V72.7277H252.427V66.4953C252.427 65.307 252.128 64.3848 251.529 63.7288C250.931 63.0728 250.089 62.7447 248.992 62.7447C247.752 62.7447 246.748 63.1594 245.982 63.9949C245.215 64.8304 244.828 65.9259 244.828 67.2689V72.7153H243.762V56.8775H244.828V64.1868C245.221 63.4379 245.788 62.8314 246.524 62.3858C247.259 61.9402 248.126 61.7174 249.129 61.7174H249.117Z" fill="white"/>
<path d="M263.454 72.9814C261.808 72.9814 260.468 72.4616 259.408 71.4342C258.349 70.4068 257.831 69.039 257.831 67.3308C257.831 65.734 258.342 64.3972 259.358 63.3265C260.375 62.2558 261.684 61.7173 263.286 61.7173C264.887 61.7173 266.24 62.2248 267.194 63.2337C268.141 64.2425 268.621 65.5112 268.621 67.0461C268.621 67.3123 268.609 67.5351 268.603 67.7145H258.947C259.003 68.9957 259.44 70.0231 260.262 70.8091C261.085 71.5951 262.151 71.985 263.466 71.985C264.439 71.985 265.28 71.7498 265.985 71.2856C266.689 70.8215 267.188 70.2459 267.499 69.5713L268.534 69.8807C268.098 70.7843 267.456 71.5208 266.614 72.1026C265.773 72.6844 264.713 72.9814 263.448 72.9814H263.466H263.454ZM267.543 66.7305C267.456 65.5112 267.044 64.5396 266.296 63.8031C265.548 63.0727 264.545 62.7014 263.279 62.7014C262.014 62.7014 261.073 63.0913 260.262 63.8773C259.452 64.6633 259.016 65.6165 258.941 66.7491L267.555 66.7305H267.543Z" fill="white"/>
<path d="M277.784 73C276.195 73 274.88 72.4615 273.839 71.3785C272.798 70.2954 272.268 68.9523 272.268 67.3494C272.268 65.7464 272.791 64.4158 273.839 63.3451C274.886 62.2743 276.207 61.7359 277.797 61.7359C278.844 61.7359 279.773 61.9587 280.571 62.4043C281.369 62.8499 282.011 63.4626 282.478 64.2363V61.9773H283.544V72.7215H282.478V70.4439C282.029 71.2361 281.4 71.8612 280.589 72.3068C279.779 72.7524 278.85 72.9752 277.803 72.9752L277.784 72.9938V73ZM277.903 72.0469C279.174 72.0469 280.253 71.6013 281.144 70.7039C282.042 69.8002 282.491 68.6986 282.491 67.3989C282.491 66.0992 282.042 64.9913 281.144 64.0939C280.247 63.1903 279.168 62.7509 277.903 62.7509C276.569 62.7509 275.472 63.1965 274.618 64.0754C273.764 64.9542 273.34 66.0559 273.34 67.3927C273.34 68.7295 273.764 69.8312 274.63 70.71C275.497 71.5889 276.581 72.0221 277.909 72.0221V72.0531L277.903 72.0469Z" fill="white"/>
<path d="M288.687 56.8775H289.752V72.7153H288.687V56.8775Z" fill="white"/>
<path d="M297.058 62.9799V69.6641C297.058 71.1185 297.719 71.8365 299.04 71.8365C299.595 71.8365 300.162 71.7003 300.729 71.4218L301.047 72.4182C300.324 72.7277 299.62 72.8762 298.934 72.8762C297.962 72.8762 297.226 72.5915 296.728 72.0159C296.229 71.4466 295.98 70.6605 295.98 69.6517V62.9675H293.686V61.9711H295.98V58.1586H297.058V61.9711H301.047V62.9675L297.058 62.9799Z" fill="white"/>
<path d="M310.771 61.7174C312.105 61.7174 313.171 62.132 313.963 62.9552C314.754 63.7783 315.147 64.9233 315.147 66.3901V72.7277H314.081V66.4953C314.081 65.307 313.782 64.3848 313.184 63.7288C312.585 63.0728 311.744 62.7447 310.647 62.7447C309.406 62.7447 308.403 63.1594 307.636 63.9949C306.869 64.8304 306.483 65.9259 306.483 67.2689V72.7153H305.417V56.8775H306.483V64.1868C306.875 63.4379 307.443 62.8314 308.178 62.3858C308.914 61.9402 309.78 61.7174 310.784 61.7174H310.771Z" fill="white"/>
<path d="M333.33 61.7173C334.919 61.7173 336.241 62.2496 337.301 63.3141C338.36 64.3848 338.878 65.7217 338.878 67.3184C338.878 68.9152 338.354 70.2644 337.307 71.3413C336.26 72.4244 334.938 72.9629 333.349 72.9629C332.301 72.9629 331.373 72.7401 330.562 72.2945C329.752 71.8488 329.122 71.2237 328.661 70.4315V72.7091H327.595V56.8713H328.661V64.2239C329.129 63.4379 329.771 62.8252 330.569 62.3796C331.366 61.934 332.295 61.7112 333.342 61.7112H333.324L333.33 61.7173ZM333.236 71.985C334.558 71.985 335.649 71.5394 336.515 70.6605C337.382 69.7817 337.805 68.68 337.805 67.3432C337.805 66.0064 337.382 64.8923 336.528 64.0135C335.674 63.1346 334.577 62.689 333.23 62.689C331.959 62.689 330.88 63.1346 329.983 64.0321C329.085 64.9295 328.636 66.0373 328.636 67.337C328.636 68.6367 329.085 69.7446 329.983 70.642C330.88 71.5456 331.959 71.985 333.23 71.985L333.243 71.9726L333.236 71.985Z" fill="white"/>
<path d="M352.909 61.9587V72.7029H351.843V70.4872C351.45 71.2423 350.896 71.8426 350.166 72.3006C349.437 72.7586 348.577 72.9814 347.561 72.9814C346.227 72.9814 345.161 72.5668 344.369 71.7436C343.578 70.9205 343.185 69.7755 343.185 68.3087V61.9711H344.251V68.2035C344.251 69.3918 344.55 70.3139 345.148 70.97C345.747 71.626 346.588 71.954 347.679 71.954C348.92 71.954 349.923 71.5332 350.702 70.6915C351.482 69.8498 351.868 68.7605 351.868 67.4175V61.9711L352.915 61.9587H352.909Z" fill="white"/>
<path d="M361.904 72.9567C360.751 72.9567 359.741 72.6472 358.849 72.0469C357.964 71.4404 357.391 70.6667 357.11 69.7384L358.158 69.4599C358.363 70.1716 358.806 70.7658 359.504 71.2423C360.196 71.7189 361 71.9541 361.904 71.9541C362.808 71.9541 363.599 71.7498 364.198 71.3413C364.796 70.9267 365.095 70.4316 365.095 69.8374C365.095 69.3608 364.958 68.9895 364.69 68.7234C364.422 68.4572 363.967 68.2344 363.313 68.055L360.077 67.1018C359.342 66.879 358.756 66.582 358.307 66.1982C357.858 65.8145 357.634 65.2761 357.634 64.5891C357.634 63.8031 357.995 63.1285 358.725 62.5529C359.448 61.9835 360.345 61.6926 361.405 61.6926C362.515 61.6926 363.456 61.9464 364.223 62.4539C364.989 62.9614 365.544 63.5988 365.874 64.3725L364.852 64.6695C364.646 64.1187 364.235 63.6545 363.606 63.2708C362.976 62.8871 362.228 62.7014 361.361 62.7014C360.495 62.7014 359.89 62.9057 359.398 63.3079C358.906 63.7102 358.662 64.1558 358.662 64.6448C358.662 65.0347 358.812 65.3441 359.099 65.567C359.386 65.7898 359.822 65.994 360.414 66.1735L363.693 67.1514C365.326 67.6279 366.149 68.5191 366.161 69.8188C366.161 70.7286 365.756 71.4837 364.946 72.084C364.135 72.6906 363.119 72.9876 361.891 72.9876L361.91 72.9691L361.904 72.9567Z" fill="white"/>
<path d="M371.366 59.7245C371.123 59.7245 370.917 59.6378 370.749 59.4707C370.581 59.3036 370.493 59.087 370.493 58.8456C370.493 58.6043 370.581 58.4124 370.749 58.2515C370.917 58.0906 371.135 58.0101 371.379 58.0101C371.622 58.0101 371.84 58.0967 372.008 58.2515C372.176 58.4124 372.264 58.5981 372.264 58.8209C372.264 59.0622 372.176 59.2665 372.008 59.4336C371.84 59.6007 371.634 59.6873 371.391 59.6873L371.366 59.7183V59.7245ZM370.842 62.002H371.908V72.7463H370.842V62.002Z" fill="white"/>
<path d="M382.524 61.7173C383.858 61.7173 384.924 62.132 385.715 62.9552C386.507 63.7783 386.9 64.9233 386.9 66.3901V72.7277H385.834V66.4953C385.834 65.307 385.534 64.3848 384.936 63.7288C384.338 63.0728 383.496 62.7447 382.399 62.7447C381.159 62.7447 380.155 63.1594 379.388 63.9949C378.622 64.8304 378.235 65.9259 378.235 67.2689V72.7153H377.169V61.9711H378.235V64.1868C378.628 63.4379 379.195 62.8314 379.931 62.3858C380.666 61.9402 381.533 61.7173 382.536 61.7173H382.524Z" fill="white"/>
<path d="M396.861 72.9814C395.215 72.9814 393.875 72.4616 392.815 71.4342C391.755 70.4068 391.238 69.039 391.238 67.3308C391.238 65.734 391.749 64.3972 392.765 63.3265C393.781 62.2558 395.09 61.7173 396.692 61.7173C398.294 61.7173 399.647 62.2248 400.601 63.2337C401.548 64.2425 402.028 65.5112 402.028 67.0461C402.028 67.3123 402.016 67.5351 402.009 67.7145H392.354C392.41 68.9957 392.846 70.0231 393.669 70.8091C394.492 71.5951 395.558 71.985 396.873 71.985C397.845 71.985 398.687 71.7498 399.391 71.2856C400.096 70.8215 400.594 70.2459 400.906 69.5713L401.941 69.8807C401.504 70.7843 400.862 71.5208 400.021 72.1026C399.179 72.6844 398.12 72.9814 396.854 72.9814H396.873H396.861ZM400.95 66.7305C400.862 65.5112 400.451 64.5396 399.703 63.8031C398.955 63.0727 397.951 62.7014 396.686 62.7014C395.421 62.7014 394.479 63.0913 393.669 63.8773C392.859 64.6633 392.422 65.6165 392.348 66.7491L400.962 66.7305H400.95Z" fill="white"/>
<path d="M410.25 72.9567C409.097 72.9567 408.087 72.6472 407.196 72.0469C406.31 71.4404 405.737 70.6667 405.456 69.7384L406.504 69.4599C406.709 70.1716 407.152 70.7658 407.85 71.2423C408.542 71.7189 409.346 71.9541 410.25 71.9541C411.154 71.9541 411.945 71.7498 412.544 71.3413C413.142 70.9267 413.441 70.4316 413.441 69.8374C413.441 69.3608 413.304 68.9895 413.036 68.7234C412.768 68.4572 412.313 68.2344 411.659 68.055L408.423 67.1018C407.688 66.879 407.102 66.582 406.653 66.1982C406.204 65.8145 405.98 65.2761 405.98 64.5891C405.98 63.8031 406.342 63.1285 407.071 62.5529C407.794 61.9835 408.692 61.6926 409.751 61.6926C410.861 61.6926 411.802 61.9464 412.569 62.4539C413.335 62.9614 413.89 63.5988 414.221 64.3725L413.198 64.6695C412.993 64.1187 412.581 63.6545 411.952 63.2708C411.322 62.8871 410.574 62.7014 409.708 62.7014C408.841 62.7014 408.236 62.9057 407.744 63.3079C407.252 63.7102 407.009 64.1558 407.009 64.6448C407.009 65.0347 407.158 65.3441 407.445 65.567C407.732 65.7898 408.168 65.994 408.76 66.1735L412.039 67.1514C413.672 67.6279 414.495 68.5191 414.507 69.8188C414.507 70.7286 414.102 71.4837 413.292 72.084C412.481 72.6906 411.465 72.9876 410.237 72.9876L410.256 72.9691L410.25 72.9567Z" fill="white"/>
<path d="M422.71 72.9567C421.557 72.9567 420.547 72.6472 419.656 72.0469C418.771 71.4404 418.197 70.6667 417.917 69.7384L418.964 69.4599C419.17 70.1716 419.612 70.7658 420.31 71.2423C421.002 71.7189 421.807 71.9541 422.71 71.9541C423.614 71.9541 424.406 71.7498 425.004 71.3413C425.603 70.9267 425.902 70.4316 425.902 69.8374C425.902 69.3608 425.765 68.9895 425.497 68.7234C425.229 68.4572 424.774 68.2344 424.119 68.055L420.884 67.1018C420.148 66.879 419.562 66.582 419.114 66.1982C418.665 65.8145 418.44 65.2761 418.44 64.5891C418.44 63.8031 418.802 63.1285 419.531 62.5529C420.254 61.9835 421.152 61.6926 422.212 61.6926C423.321 61.6926 424.262 61.9464 425.029 62.4539C425.796 62.9614 426.351 63.5988 426.681 64.3725L425.659 64.6695C425.453 64.1187 425.042 63.6545 424.412 63.2708C423.782 62.8871 423.034 62.7014 422.168 62.7014C421.302 62.7014 420.697 62.9057 420.205 63.3079C419.712 63.7102 419.469 64.1558 419.469 64.6448C419.469 65.0347 419.619 65.3441 419.905 65.567C420.192 65.7898 420.628 65.994 421.221 66.1735L424.499 67.1514C426.132 67.6279 426.955 68.5191 426.968 69.8188C426.968 70.7286 426.563 71.4837 425.752 72.084C424.942 72.6906 423.926 72.9876 422.698 72.9876L422.717 72.9691L422.71 72.9567Z" fill="white"/>
<path d="M35.4555 8.73895C36.6897 8.76989 37.7182 8.03339 37.7431 7.09884C37.7681 6.15811 36.7832 5.3721 35.549 5.34115C34.3148 5.31021 33.2863 6.0467 33.2613 6.98125C33.2364 7.92199 34.2213 8.708 35.4555 8.73895Z" fill="white"/>
<path d="M17.7278 13.6036C19.3235 13.028 20.2959 11.6849 19.897 10.5957C19.4981 9.5064 17.8836 9.09173 16.2879 9.66731C14.6921 10.2429 13.7197 11.5859 14.1187 12.6752C14.5176 13.7645 16.132 14.1791 17.7278 13.6036Z" fill="white"/>
<path d="M71.5592 33.39C72.5815 32.6782 72.6251 30.9763 71.6465 29.5961C70.6678 28.2159 69.0472 27.6775 68.0249 28.3954C67.0026 29.1133 66.959 30.8091 67.9376 32.1893C68.9163 33.5695 70.5369 34.1079 71.5592 33.39Z" fill="white"/>
<path d="M59.0176 17.1128C60.47 17.973 62.1405 17.8554 62.7452 16.8466C63.356 15.8378 62.6704 14.3215 61.218 13.4612C59.7656 12.6009 58.0951 12.7185 57.4904 13.7273C56.8796 14.7362 57.5652 16.2525 59.0176 17.1128Z" fill="white"/>
<path d="M4.42571 33.7552C5.13631 32.3502 4.81218 30.7596 3.69017 30.2026C2.57439 29.6456 1.09085 30.3264 0.374011 31.7313C-0.336594 33.1362 -0.0124582 34.7268 1.10955 35.2838C2.22532 35.8409 3.70887 35.1601 4.42571 33.7552Z" fill="white"/>
<path d="M42.0815 27.9127C42.0815 25.6041 39.8811 23.735 37.1634 23.735C34.4456 23.735 32.2452 25.6041 32.2452 27.9127C32.2452 30.2212 34.4456 32.0903 37.1634 32.0903C39.8811 32.0903 42.0815 30.2212 42.0815 27.9127Z" fill="white"/>
<path d="M73.5415 43.7505C73.3545 41.2687 71.2039 39.4119 68.7355 39.5976C67.6447 39.6781 66.6723 40.1484 65.9492 40.8602L60.7319 37.7595C60.9189 37.0972 61.0248 36.4041 61.0248 35.6799C61.0248 34.2936 60.6446 32.9877 59.9901 31.8737C62.259 30.2707 63.007 28.1355 63.2564 26.8853C63.7987 26.613 64.2537 26.2107 64.5529 25.6846C65.6188 23.8464 64.4968 21.2161 62.0346 19.8112C60.7817 19.0932 59.4166 18.8271 58.2447 18.9942C56.7737 18.103 53.8128 16.6733 49.599 16.3886C49.2001 15.2065 48.2838 14.1172 47.0247 13.3312C47.4548 12.6628 47.8662 12.0253 48.2152 11.4869C49.5866 11.6787 50.8021 11.1712 51.0764 10.2243C51.388 9.14742 50.3408 7.90342 48.7451 7.45161C47.1493 6.99981 45.6035 7.50732 45.2918 8.58421C45.1048 9.24644 45.4227 9.97056 46.0647 10.5338C45.7032 11.0908 45.2918 11.7344 44.8679 12.3905C44.7245 12.3534 44.5749 12.3162 44.4316 12.2853C43.0602 11.9882 41.7138 12.0439 40.5482 12.3905C38.541 10.9732 35.5802 9.65492 31.3041 9.2155C30.5997 7.96531 28.8606 7.32783 27.0779 7.76726C25.0146 8.27476 23.6807 10.0263 24.0921 11.6849C24.117 11.784 24.1419 11.8768 24.1793 11.9634C22.9389 13.2693 21.5052 15.3179 20.084 18.5177C19.8284 18.6105 19.5729 18.7095 19.3173 18.8271C18.3013 19.2913 17.4286 19.9102 16.718 20.6158C14.7233 20.1268 12.9966 19.8607 11.644 19.7121C11.644 19.3532 11.5443 19.0128 11.351 18.7219C10.6217 17.6264 8.76418 17.5645 7.1996 18.5919C5.63503 19.6131 4.96182 21.3337 5.69113 22.4291C6.42043 23.5246 8.27798 23.5865 9.84256 22.5591C10.229 22.3054 10.5594 22.0145 10.8274 21.6926C11.9868 21.7979 13.5514 22.0021 15.384 22.4044C14.7046 23.7165 14.5363 25.1338 15.0163 26.4025C12.8408 28.0364 11.1952 29.6951 10.1044 31.3723C9.48102 32.3316 9.12572 33.161 8.93248 33.8232C8.78288 33.8665 8.63328 33.9222 8.48368 33.9841C5.68489 35.1229 4.36965 38.3598 5.55399 41.2191C6.6947 43.9857 9.74906 45.3782 12.4855 44.4375C14.1124 45.1368 16.9673 45.7557 21.9353 45.5639C22.4527 47.5506 23.7243 49.2402 25.426 50.3047C24.2728 52.9165 23.1197 55.5097 22.1722 57.5954C21.7919 57.5088 21.4055 57.4654 21.0003 57.4654C18.0581 57.4654 15.6708 59.8358 15.6708 62.7571C15.6708 65.6783 18.0581 68.0487 21.0003 68.0487C23.9425 68.0487 26.3298 65.6783 26.3298 62.7571C26.3298 61.0922 25.5569 59.613 24.3539 58.6414C24.9647 57.2983 25.7377 55.5778 26.7225 53.3621C27.0342 52.6565 27.3459 51.951 27.6513 51.2578C28.3058 51.4311 28.9915 51.5177 29.6959 51.5177C30.9986 51.5177 32.2329 51.2083 33.3237 50.6575C36.7895 54.0305 39.6755 55.6582 41.5892 56.4381C42.1626 59.6007 44.9489 62.002 48.3025 62.002C52.0737 62.002 55.1281 58.9694 55.1281 55.225C55.1281 54.309 54.9473 53.4425 54.6169 52.6442C55.6704 49.7353 56.0631 45.1987 56.2002 42.7169C57.7149 42.1227 58.999 41.0644 59.8592 39.7152L64.8397 42.6736C64.6651 43.2182 64.5841 43.8062 64.634 44.4127C64.821 46.8945 66.9715 48.7512 69.4399 48.5656C71.9021 48.3799 73.7472 46.2199 73.5602 43.7381L73.5415 43.7505ZM25.7564 13.554C26.5605 13.9192 27.5578 14.0182 28.5739 13.7706C29.9577 13.4302 31.0173 12.5266 31.4412 11.4683C34.0842 11.784 36.4092 12.5081 38.3042 13.6035C37.6434 14.1977 37.1759 14.9404 36.9889 15.8007C36.9765 15.8687 36.9578 15.943 36.9515 16.0111C32.3887 16.7105 28.8357 18.0968 26.6914 19.118C25.6691 18.3629 24.2978 17.973 22.808 18.004C23.8801 15.8749 24.9086 14.47 25.7688 13.554H25.7564ZM21.6922 43.1687C18.4758 43.2863 16.3377 43.0325 14.9415 42.6983C16.1383 41.182 16.4998 39.053 15.6957 37.0972C14.9415 35.2715 13.3519 34.046 11.5754 33.6932C11.7188 33.39 11.8996 33.0496 12.1427 32.6782C12.8657 31.5704 14.1623 30.0726 16.4811 28.3273C17.7527 29.2866 19.5853 29.6704 21.5052 29.3671C22.0911 31.589 23.0573 34.4483 24.6157 37.4252C22.9264 38.8054 21.8106 40.854 21.6922 43.1687ZM29.6896 35.618C28.5053 35.618 27.3833 35.8718 26.3672 36.3298C24.9398 33.5633 24.0422 30.8772 23.4999 28.8039C23.6246 28.7544 23.7492 28.6987 23.8801 28.643C27.3521 27.0524 29.2159 23.6731 28.15 20.9933C30.1634 20.0835 33.305 18.9199 37.2445 18.301C37.9925 20.0587 39.8687 21.5441 42.2873 22.064C43.8955 22.4106 45.4663 22.2744 46.7566 21.7607C48.2215 23.8774 49.8858 26.452 50.9829 28.5068C47.9659 29.5156 45.7967 32.344 45.7967 35.6737C45.7967 36.4907 45.9276 37.2767 46.1707 38.0132L37.3692 41.2625C36.3781 37.9884 33.3175 35.6057 29.6959 35.6057L29.6896 35.618ZM53.1957 50.5151C51.9553 49.2464 50.2224 48.4604 48.2963 48.4604C45.0113 48.4604 42.2748 50.7627 41.6203 53.8263C40.0557 53.0588 37.8865 51.691 35.3121 49.234C36.7583 47.8229 37.6621 45.8733 37.6995 43.7071L47.2802 40.167C48.6703 42.0299 50.8956 43.2368 53.4076 43.2368C53.6694 43.2368 53.9312 43.2244 54.1806 43.1996C54.031 45.3844 53.7318 48.2871 53.1895 50.5089L53.1957 50.5151ZM53.4076 28.1169C53.2705 28.1169 53.1271 28.1169 52.99 28.1293C52.4602 27.0833 51.6935 25.7279 50.5715 23.964C49.8047 22.7634 49.038 21.6246 48.4334 20.7457C49.0879 20.1516 49.5554 19.4151 49.7424 18.5548C49.7424 18.5486 49.7424 18.5424 49.7424 18.5362C52.4415 18.7652 54.5421 19.5141 55.9384 20.1825C55.8324 20.3063 55.7389 20.4425 55.6517 20.5848C54.5858 22.423 55.7078 25.0533 58.1699 26.4582C59.0676 26.9719 60.015 27.2504 60.9126 27.3123C60.5947 28.185 59.9465 29.299 58.6499 30.1902C57.2848 28.9029 55.4397 28.1169 53.4076 28.1169Z" fill="white"/>
<path d="M62.0096 62.3424C64.2714 62.3424 66.105 60.5219 66.105 58.2762C66.105 56.0305 64.2714 54.21 62.0096 54.21C59.7478 54.21 57.9143 56.0305 57.9143 58.2762C57.9143 60.5219 59.7478 62.3424 62.0096 62.3424Z" fill="white"/>
<path d="M7.17464 56.5309C9.25741 56.5309 10.9458 54.8545 10.9458 52.7865C10.9458 50.7185 9.25741 49.0421 7.17464 49.0421C5.09186 49.0421 3.40344 50.7185 3.40344 52.7865C3.40344 54.8545 5.09186 56.5309 7.17464 56.5309Z" fill="white"/>
<path d="M39.1082 72.3749C41.6626 72.3749 43.7334 70.3189 43.7334 67.7826C43.7334 65.2464 41.6626 63.1903 39.1082 63.1903C36.5538 63.1903 34.483 65.2464 34.483 67.7826C34.483 70.3189 36.5538 72.3749 39.1082 72.3749Z" fill="white"/>
</g>
<defs>
<clipPath id="clip0_233_459">
<rect width="443" height="73" fill="white"/>
</clipPath>
</defs>
</svg>
