<svg width="443" height="73" fill="none" xmlns="http://www.w3.org/2000/svg"><g clip-path="url(#a)" fill="#fff"><path d="M119.806 19.935c0 8.98-6.545 14.414-17.373 14.414H92.142v12.52h-5.947V5.522h16.244c10.828 0 17.373 5.434 17.373 14.414h-.006Zm-5.947 0c0-5.904-3.989-9.271-11.6-9.271h-10.11v18.548h10.11c7.617 0 11.6-3.366 11.6-9.27v-.007ZM156.396 46.87l-8.983-12.7c-.835.062-1.726.117-2.618.117h-10.291V46.87h-5.947V5.52h16.244c10.828 0 17.373 5.435 17.373 14.415 0 6.38-3.329 10.986-9.163 13.053l9.873 13.882h-6.488Zm-.181-26.935c0-5.904-3.99-9.271-11.601-9.271h-10.11v18.604h10.11c7.618 0 11.601-3.429 11.601-9.333ZM168.413 26.192c0-12.112 9.4-21.148 22.191-21.148 12.791 0 22.073 8.98 22.073 21.148s-9.4 21.148-22.073 21.148c-12.672 0-22.191-9.036-22.191-21.148Zm38.317 0c0-9.154-6.9-15.887-16.126-15.887-9.225 0-16.244 6.733-16.244 15.887s6.9 15.888 16.244 15.888 16.126-6.734 16.126-15.888ZM246.468 46.87 233.976 29.8l-12.317 17.07h-6.844l15.645-21.204-14.698-20.145h6.782l11.663 15.887 11.544-15.887h6.483l-14.692 19.966 15.764 21.383h-6.844.006Z"/><path d="M274.487 32.573V46.87h-5.891V32.456L252.059 5.52h6.364l13.327 21.797 13.384-21.797h5.89l-16.537 27.052ZM333.311 20.832l-11.263 22.609h-5.542l-11.207-22.609V46.87h-9.301V5.502h12.573l10.728 22.726 10.79-22.726h12.516V46.87h-9.3V20.832h.006ZM382.898 5.502v8.225h-20.745v8.523h18.657v7.872h-18.657v8.584h21.399v8.17h-30.693V5.502h30.039ZM423.67 10.918c3.971 3.608 5.96 8.633 5.96 15.058 0 6.424-1.939 11.523-5.81 15.268-3.871 3.75-9.786 5.62-17.734 5.62h-14.243V5.502h14.723c7.43 0 13.134 1.807 17.104 5.416Zm-6.825 24.589c2.281-2.13 3.428-5.23 3.428-9.29 0-4.06-1.141-7.192-3.428-9.383-2.288-2.19-5.791-3.286-10.522-3.286h-5.186V38.7h5.903c4.251 0 7.517-1.064 9.805-3.193ZM438.101 9.742c-2.718 0-4.918-2.185-4.912-4.877.012-2.68 2.219-4.865 4.912-4.865 2.711 0 4.905 2.19 4.899 4.89-.006 2.692-2.188 4.852-4.899 4.852Zm-4.177-4.877a4.172 4.172 0 0 0 4.17 4.165c2.301 0 4.183-1.87 4.189-4.153 0-2.278-1.87-4.14-4.157-4.147-2.319 0-4.189 1.845-4.195 4.135h-.007Z"/><path d="M438.125 5.384h-.816v1.337h-.748V2.903h1.87c.393 0 .711.123.954.377s.361.539.361.86c0 .26-.075.496-.224.706-.15.21-.356.365-.617.458l.953 1.411h-.866l-.867-1.337v.006Zm-.822-.656h1.078a.638.638 0 0 0 .461-.167.539.539 0 0 0 .175-.414.513.513 0 0 0-.175-.403.607.607 0 0 0-.436-.167h-1.103v1.158-.007ZM98.344 61.686c1.29 0 2.319.39 3.061 1.189.748.792 1.122 1.9 1.122 3.305v6.504h-1.066V66.26c0-1.114-.281-1.98-.836-2.606-.554-.625-1.346-.94-2.356-.94-1.01 0-1.857.383-2.53 1.145-.674.761-1.004 1.739-1.004 2.933v5.905h-1.066v-6.425c0-1.114-.256-1.98-.78-2.605-.523-.625-1.258-.94-2.218-.94-1.066 0-1.951.414-2.65 1.237-.691.83-1.047 1.894-1.047 3.225v5.533h-1.066V61.977h1.066v2.067a4.42 4.42 0 0 1 1.534-1.677c.66-.427 1.427-.637 2.306-.637 1.783 0 2.98.792 3.584 2.383.318-.712.823-1.282 1.503-1.727.679-.446 1.514-.669 2.487-.669l-.056-.03h.012ZM112.513 72.981c-1.646 0-2.986-.52-4.046-1.547s-1.577-2.395-1.577-4.103c0-1.597.511-2.934 1.527-4.005 1.016-1.07 2.325-1.609 3.927-1.609 1.602 0 2.955.508 3.909 1.517.947 1.009 1.427 2.277 1.427 3.812 0 .266-.012.49-.019.668h-9.655c.056 1.282.492 2.31 1.315 3.095.823.786 1.889 1.176 3.204 1.176.972 0 1.814-.235 2.518-.7.705-.463 1.203-1.04 1.515-1.714l1.035.31a5.666 5.666 0 0 1-1.92 2.222c-.842.581-1.901.878-3.167.878h.019-.012Zm4.089-6.25c-.088-1.22-.499-2.191-1.247-2.928-.748-.73-1.752-1.102-3.017-1.102s-2.207.39-3.017 1.176c-.81.786-1.247 1.74-1.321 2.872l8.614-.018h-.012ZM127.404 61.717c1.334 0 2.4.415 3.192 1.238.791.823 1.184 1.968 1.184 3.435v6.338h-1.066v-6.233c0-1.188-.299-2.11-.898-2.766-.598-.656-1.44-.984-2.537-.984-1.24 0-2.244.414-3.01 1.25-.767.835-1.154 1.93-1.154 3.274v5.446h-1.065V61.971h1.065v2.216a4.543 4.543 0 0 1 1.696-1.801c.735-.446 1.602-.669 2.606-.669h-.013ZM138.992 62.98v6.684c0 1.454.661 2.172 1.982 2.172.555 0 1.122-.136 1.689-.414l.318.996c-.723.31-1.427.458-2.113.458-.972 0-1.708-.285-2.206-.86-.499-.57-.748-1.356-.748-2.364v-6.684h-2.294v-.997h2.294V58.16h1.078v3.812h3.989v.997l-3.989.012ZM151.546 72.994c-1.633 0-2.986-.539-4.077-1.622-1.091-1.083-1.633-2.426-1.633-4.029 0-1.603.542-2.933 1.633-4.004 1.091-1.07 2.456-1.61 4.089-1.61 1.634 0 2.955.533 4.033 1.598 1.079 1.064 1.621 2.407 1.621 4.004 0 1.597-.536 2.946-1.608 4.029-1.072 1.083-2.425 1.621-4.033 1.621l-.019.013h-.006Zm0-.997c1.29 0 2.381-.445 3.266-1.324.885-.879 1.322-1.98 1.322-3.293 0-1.312-.437-2.413-1.322-3.305-.885-.89-1.976-1.337-3.266-1.337s-2.412.446-3.298 1.337c-.885.892-1.333 1.993-1.333 3.305s.448 2.414 1.333 3.293c.886.879 1.983 1.312 3.298 1.312v.012ZM162.704 63.983c.33-.774.841-1.356 1.539-1.746.692-.39 1.527-.52 2.5-.39v.997c-1.241-.136-2.219.167-2.949.934-.723.762-1.09 2.006-1.09 3.732v5.212h-1.066V61.977h1.066v2.012-.006ZM171.312 59.724a.845.845 0 0 1-.617-.253.863.863 0 0 1-.256-.625c0-.242.088-.434.256-.594a.887.887 0 0 1 .629-.242c.244 0 .462.087.63.242a.76.76 0 0 1 .256.569.835.835 0 0 1-.256.613.845.845 0 0 1-.617.253l-.025.031v.006Zm-.524 2.278h1.066v10.744h-1.066V62.002ZM181.903 73c-1.59 0-2.905-.538-3.946-1.621-1.047-1.084-1.571-2.427-1.571-4.03 0-1.603.524-2.933 1.571-4.004 1.047-1.07 2.368-1.61 3.958-1.61 1.047 0 1.976.224 2.774.67a5.09 5.09 0 0 1 1.907 1.831v-2.259h1.066v10.745h-1.066v-2.278a4.781 4.781 0 0 1-1.888 1.863c-.811.445-1.74.668-2.787.668l-.018.019V73Zm.118-.953c1.272 0 2.35-.446 3.241-1.343.898-.904 1.347-2.005 1.347-3.305 0-1.3-.449-2.408-1.347-3.305-.897-.904-1.976-1.343-3.241-1.343-1.334 0-2.431.446-3.285 1.324-.854.88-1.278 1.98-1.278 3.318 0 1.337.424 2.438 1.29 3.317.867.879 1.951 1.312 3.279 1.312v.031l-.006-.006ZM205.153 72.981c-1.646 0-2.986-.52-4.045-1.547-1.06-1.027-1.577-2.395-1.577-4.103 0-1.597.511-2.934 1.527-4.005 1.016-1.07 2.325-1.609 3.927-1.609 1.602 0 2.954.508 3.908 1.517.948 1.009 1.427 2.277 1.427 3.812 0 .266-.012.49-.018.668h-9.656c.056 1.282.493 2.31 1.316 3.095.822.786 1.888 1.176 3.203 1.176.973 0 1.814-.235 2.519-.7.704-.463 1.203-1.04 1.514-1.714l1.035.31a5.65 5.65 0 0 1-1.92 2.222c-.841.581-1.901.878-3.166.878h.018-.012Zm4.089-6.25c-.087-1.22-.499-2.191-1.247-2.928-.748-.73-1.751-1.102-3.017-1.102-1.265 0-2.206.39-3.016 1.176-.811.786-1.247 1.74-1.322 2.872l8.615-.018h-.013ZM227.101 61.686c1.29 0 2.319.39 3.06 1.189.748.792 1.122 1.9 1.122 3.305v6.504h-1.066V66.26c0-1.114-.28-1.98-.835-2.606-.555-.625-1.346-.94-2.356-.94-1.01 0-1.858.383-2.531 1.145-.673.761-1.003 1.739-1.003 2.933v5.905h-1.066v-6.425c0-1.114-.256-1.98-.779-2.605-.524-.625-1.26-.94-2.22-.94-1.065 0-1.951.414-2.649 1.237-.692.83-1.047 1.894-1.047 3.225v5.533h-1.066V61.977h1.066v2.067a4.428 4.428 0 0 1 1.533-1.677c.661-.427 1.428-.637 2.307-.637 1.783 0 2.979.792 3.584 2.383.318-.712.823-1.282 1.502-1.727.68-.446 1.515-.669 2.487-.669l-.056-.03h.013ZM249.117 61.717c1.334 0 2.4.415 3.191 1.238.792.823 1.185 1.968 1.185 3.435v6.338h-1.066v-6.233c0-1.188-.299-2.11-.898-2.766-.598-.656-1.44-.984-2.537-.984-1.24 0-2.244.414-3.01 1.25-.767.835-1.154 1.93-1.154 3.274v5.446h-1.066V56.877h1.066v7.31a4.543 4.543 0 0 1 1.696-1.801c.735-.446 1.602-.669 2.605-.669h-.012ZM263.454 72.981c-1.646 0-2.986-.52-4.046-1.547-1.059-1.027-1.577-2.395-1.577-4.103 0-1.597.511-2.934 1.527-4.005 1.017-1.07 2.326-1.609 3.928-1.609 1.601 0 2.954.508 3.908 1.517.947 1.009 1.427 2.277 1.427 3.812 0 .266-.012.49-.018.668h-9.656c.056 1.282.493 2.31 1.315 3.095.823.786 1.889 1.176 3.204 1.176.973 0 1.814-.235 2.519-.7.704-.463 1.203-1.04 1.514-1.714l1.035.31a5.65 5.65 0 0 1-1.92 2.222c-.841.581-1.901.878-3.166.878h.018-.012Zm4.089-6.25c-.087-1.22-.499-2.191-1.247-2.928-.748-.73-1.751-1.102-3.017-1.102-1.265 0-2.206.39-3.017 1.176-.81.786-1.246 1.74-1.321 2.872l8.614-.018h-.012ZM277.784 73c-1.589 0-2.904-.538-3.945-1.621-1.041-1.084-1.571-2.427-1.571-4.03 0-1.603.523-2.933 1.571-4.004 1.047-1.07 2.368-1.61 3.958-1.61 1.047 0 1.976.224 2.774.67a5.09 5.09 0 0 1 1.907 1.831v-2.259h1.066v10.745h-1.066v-2.278a4.777 4.777 0 0 1-1.889 1.863c-.81.445-1.739.668-2.786.668l-.019.019V73Zm.119-.953c1.271 0 2.35-.446 3.241-1.343.898-.904 1.347-2.005 1.347-3.305 0-1.3-.449-2.408-1.347-3.305-.897-.904-1.976-1.343-3.241-1.343-1.334 0-2.431.446-3.285 1.324-.854.88-1.278 1.98-1.278 3.318 0 1.337.424 2.438 1.29 3.317.867.879 1.951 1.312 3.279 1.312v.031l-.006-.006ZM288.687 56.877h1.065v15.838h-1.065V56.877ZM297.058 62.98v6.684c0 1.454.661 2.172 1.982 2.172.555 0 1.122-.136 1.689-.414l.318.996c-.723.31-1.427.458-2.113.458-.972 0-1.708-.285-2.206-.86-.499-.57-.748-1.356-.748-2.364v-6.684h-2.294v-.997h2.294V58.16h1.078v3.812h3.989v.997l-3.989.012ZM310.771 61.717c1.334 0 2.4.415 3.192 1.238.791.823 1.184 1.968 1.184 3.435v6.338h-1.066v-6.233c0-1.188-.299-2.11-.897-2.766-.599-.656-1.44-.984-2.537-.984-1.241 0-2.244.414-3.011 1.25-.767.835-1.153 1.93-1.153 3.274v5.446h-1.066V56.877h1.066v7.31a4.54 4.54 0 0 1 1.695-1.801c.736-.446 1.602-.669 2.606-.669h-.013ZM333.33 61.717c1.589 0 2.911.533 3.971 1.597 1.059 1.07 1.577 2.408 1.577 4.004 0 1.597-.524 2.946-1.571 4.023-1.047 1.083-2.369 1.622-3.958 1.622-1.048 0-1.976-.223-2.787-.668a4.894 4.894 0 0 1-1.901-1.864v2.278h-1.066V56.871h1.066v7.353a5.04 5.04 0 0 1 1.908-1.844c.797-.446 1.726-.669 2.773-.669h-.018l.006.006Zm-.094 10.268c1.322 0 2.413-.446 3.279-1.325.867-.878 1.29-1.98 1.29-3.317 0-1.337-.423-2.45-1.277-3.33-.854-.878-1.951-1.324-3.298-1.324-1.271 0-2.35.446-3.247 1.343-.898.898-1.347 2.005-1.347 3.305 0 1.3.449 2.408 1.347 3.305.897.904 1.976 1.343 3.247 1.343l.013-.012-.007.012ZM352.909 61.959v10.744h-1.066v-2.216a4.612 4.612 0 0 1-1.677 1.814c-.729.458-1.589.68-2.605.68-1.334 0-2.4-.414-3.192-1.237-.791-.823-1.184-1.969-1.184-3.435V61.97h1.066v6.233c0 1.188.299 2.11.897 2.766.599.656 1.44.984 2.531.984 1.241 0 2.244-.42 3.023-1.262.78-.842 1.166-1.931 1.166-3.274V61.97l1.047-.012h-.006ZM361.904 72.957c-1.153 0-2.163-.31-3.055-.91-.885-.607-1.458-1.38-1.739-2.309l1.048-.278c.205.712.648 1.306 1.346 1.782.692.477 1.496.712 2.4.712.904 0 1.695-.204 2.294-.613.598-.414.897-.91.897-1.504 0-.476-.137-.847-.405-1.114-.268-.266-.723-.489-1.377-.668l-3.236-.953c-.735-.223-1.321-.52-1.77-.904-.449-.383-.673-.922-.673-1.609 0-.786.361-1.46 1.091-2.036.723-.57 1.62-.86 2.68-.86 1.11 0 2.051.253 2.818.76.766.508 1.321 1.146 1.651 1.92l-1.022.296c-.206-.55-.617-1.014-1.246-1.398-.63-.384-1.378-.57-2.245-.57-.866 0-1.471.205-1.963.607s-.736.848-.736 1.337c0 .39.15.7.437.922.287.223.723.427 1.315.607l3.279.977c1.633.477 2.456 1.368 2.468 2.668 0 .91-.405 1.665-1.215 2.265-.811.607-1.827.904-3.055.904l.019-.019-.006-.012ZM371.366 59.724a.845.845 0 0 1-.617-.253.863.863 0 0 1-.256-.625c0-.242.088-.434.256-.594a.888.888 0 0 1 .63-.242c.243 0 .461.087.629.242a.76.76 0 0 1 .256.569.835.835 0 0 1-.256.613.845.845 0 0 1-.617.253l-.025.031v.006Zm-.524 2.278h1.066v10.744h-1.066V62.002ZM382.524 61.717c1.334 0 2.4.415 3.191 1.238.792.823 1.185 1.968 1.185 3.435v6.338h-1.066v-6.233c0-1.188-.3-2.11-.898-2.766-.598-.656-1.44-.984-2.537-.984-1.24 0-2.244.414-3.011 1.25-.766.835-1.153 1.93-1.153 3.274v5.446h-1.066V61.971h1.066v2.216a4.543 4.543 0 0 1 1.696-1.801c.735-.446 1.602-.669 2.605-.669h-.012ZM396.861 72.981c-1.646 0-2.986-.52-4.046-1.547s-1.577-2.395-1.577-4.103c0-1.597.511-2.934 1.527-4.005 1.016-1.07 2.325-1.609 3.927-1.609 1.602 0 2.955.508 3.909 1.517.947 1.009 1.427 2.277 1.427 3.812 0 .266-.012.49-.019.668h-9.655c.056 1.282.492 2.31 1.315 3.095.823.786 1.889 1.176 3.204 1.176.972 0 1.814-.235 2.518-.7.705-.463 1.203-1.04 1.515-1.714l1.035.31a5.666 5.666 0 0 1-1.92 2.222c-.842.581-1.901.878-3.167.878h.019-.012Zm4.089-6.25c-.088-1.22-.499-2.191-1.247-2.928-.748-.73-1.752-1.102-3.017-1.102s-2.207.39-3.017 1.176c-.81.786-1.247 1.74-1.321 2.872l8.614-.018h-.012ZM410.25 72.957c-1.153 0-2.163-.31-3.054-.91-.886-.607-1.459-1.38-1.74-2.309l1.048-.278c.205.712.648 1.306 1.346 1.782.692.477 1.496.712 2.4.712.904 0 1.695-.204 2.294-.613.598-.414.897-.91.897-1.504 0-.476-.137-.847-.405-1.114-.268-.266-.723-.489-1.377-.668l-3.236-.953c-.735-.223-1.321-.52-1.77-.904-.449-.383-.673-.922-.673-1.609 0-.786.362-1.46 1.091-2.036.723-.57 1.621-.86 2.68-.86 1.11 0 2.051.253 2.818.76.766.508 1.321 1.146 1.652 1.92l-1.023.296c-.205-.55-.617-1.014-1.246-1.398-.63-.384-1.378-.57-2.244-.57-.867 0-1.472.205-1.964.607s-.735.848-.735 1.337c0 .39.149.7.436.922.287.223.723.427 1.315.607l3.279.977c1.633.477 2.456 1.368 2.468 2.668 0 .91-.405 1.665-1.215 2.265-.811.607-1.827.904-3.055.904l.019-.019-.006-.012ZM422.71 72.957c-1.153 0-2.163-.31-3.054-.91-.885-.607-1.459-1.38-1.739-2.309l1.047-.278c.206.712.648 1.306 1.346 1.782.692.477 1.497.712 2.4.712.904 0 1.696-.204 2.294-.613.599-.414.898-.91.898-1.504 0-.476-.137-.847-.405-1.114-.268-.266-.723-.489-1.378-.668l-3.235-.953c-.736-.223-1.322-.52-1.77-.904-.449-.383-.674-.922-.674-1.609 0-.786.362-1.46 1.091-2.036.723-.57 1.621-.86 2.681-.86 1.109 0 2.05.253 2.817.76.767.508 1.322 1.146 1.652 1.92l-1.022.296c-.206-.55-.617-1.014-1.247-1.398-.63-.384-1.378-.57-2.244-.57-.866 0-1.471.205-1.963.607-.493.402-.736.848-.736 1.337 0 .39.15.7.436.922.287.223.723.427 1.316.607l3.278.977c1.633.477 2.456 1.368 2.469 2.668 0 .91-.405 1.665-1.216 2.265-.81.607-1.826.904-3.054.904l.019-.019-.007-.012ZM35.456 8.739c1.234.03 2.262-.706 2.287-1.64.025-.94-.96-1.727-2.194-1.758-1.234-.03-2.263.706-2.288 1.64-.025.941.96 1.727 2.194 1.758ZM17.728 13.604c1.595-.576 2.568-1.92 2.169-3.008-.399-1.09-2.013-1.504-3.61-.929-1.595.576-2.567 1.919-2.168 3.008.399 1.09 2.013 1.504 3.609.929ZM71.56 33.39c1.022-.712 1.065-2.414.087-3.794-.98-1.38-2.6-1.919-3.622-1.2-1.022.717-1.066 2.413-.087 3.793.978 1.38 2.599 1.919 3.621 1.201ZM59.018 17.113c1.452.86 3.123.742 3.727-.266.611-1.01-.075-2.526-1.527-3.386-1.452-.86-3.123-.742-3.728.266-.61 1.01.075 2.526 1.528 3.386ZM4.426 33.755c.71-1.405.386-2.995-.736-3.552-1.116-.557-2.6.123-3.316 1.528-.71 1.405-.386 2.996.736 3.553 1.115.557 2.599-.124 3.316-1.529ZM42.081 27.913c0-2.309-2.2-4.178-4.918-4.178-2.717 0-4.918 1.87-4.918 4.178s2.2 4.177 4.918 4.177 4.919-1.869 4.919-4.177Z"/><path d="M73.541 43.75c-.186-2.481-2.337-4.338-4.805-4.152-1.091.08-2.064.55-2.787 1.262l-5.217-3.1a7.506 7.506 0 0 0-.742-5.886 7.972 7.972 0 0 0 3.266-4.989 3.028 3.028 0 0 0 1.297-1.2c1.066-1.839-.056-4.469-2.518-5.874-1.253-.718-2.618-.984-3.79-.817-1.471-.891-4.432-2.32-8.646-2.605-.399-1.182-1.315-2.272-2.574-3.058.43-.668.841-1.306 1.19-1.844 1.372.192 2.587-.316 2.861-1.263.312-1.077-.735-2.32-2.33-2.772-1.597-.452-3.143.055-3.454 1.132-.187.662.13 1.387.773 1.95-.362.557-.773 1.2-1.197 1.856a11.184 11.184 0 0 0-.436-.105c-1.372-.297-2.718-.241-3.884.105-2.007-1.417-4.968-2.735-9.244-3.175-.704-1.25-2.443-1.887-4.226-1.448-2.063.508-3.397 2.26-2.986 3.918.025.099.05.192.087.278-1.24 1.306-2.674 3.355-4.095 6.555a9.911 9.911 0 0 0-.767.31 8.984 8.984 0 0 0-2.599 1.788 39.426 39.426 0 0 0-5.074-.904c0-.359-.1-.7-.293-.99-.73-1.096-2.587-1.158-4.151-.13-1.565 1.021-2.238 2.742-1.509 3.837.73 1.096 2.587 1.158 4.152.13.386-.254.716-.544.984-.866 1.16.105 2.724.31 4.557.711-.68 1.313-.848 2.73-.368 3.998-2.175 1.634-3.82 3.293-4.912 4.97-.623.96-.978 1.789-1.172 2.451-.15.044-.299.1-.448.161-2.8 1.139-4.114 4.376-2.93 7.235 1.14 2.767 4.195 4.16 6.931 3.218 1.627.7 4.482 1.319 9.45 1.127a7.981 7.981 0 0 0 3.491 4.74 797.438 797.438 0 0 1-3.254 7.291 5.234 5.234 0 0 0-1.172-.13c-2.942 0-5.33 2.37-5.33 5.292 0 2.921 2.388 5.292 5.33 5.292s5.33-2.37 5.33-5.292a5.276 5.276 0 0 0-1.976-4.116c.61-1.343 1.384-3.063 2.369-5.279l.928-2.104c.655.173 1.34.26 2.045.26a8.03 8.03 0 0 0 3.628-.86c3.465 3.373 6.352 5 8.265 5.78.574 3.163 3.36 5.564 6.714 5.564 3.77 0 6.825-3.033 6.825-6.777 0-.916-.18-1.782-.511-2.58 1.053-2.91 1.446-7.446 1.583-9.928a7.662 7.662 0 0 0 3.66-3.002l4.98 2.959a4.483 4.483 0 0 0-.206 1.739c.187 2.482 2.338 4.338 4.806 4.153 2.462-.186 4.307-2.346 4.12-4.828l-.019.013ZM25.757 13.555c.805.365 1.802.464 2.818.217 1.384-.34 2.443-1.244 2.867-2.303 2.643.316 4.968 1.04 6.863 2.136-.66.594-1.128 1.336-1.315 2.197-.012.068-.031.142-.037.21-4.563.7-8.116 2.086-10.26 3.107-1.023-.755-2.394-1.145-3.884-1.114 1.072-2.13 2.1-3.534 2.96-4.45h-.012Zm-4.064 29.615c-3.216.117-5.354-.136-6.75-.47a5.595 5.595 0 0 0 .754-5.602 5.662 5.662 0 0 0-4.12-3.404c.143-.303.324-.643.567-1.015.723-1.108 2.02-2.605 4.338-4.35 1.272.959 3.104 1.342 5.024 1.04a38.935 38.935 0 0 0 3.11 8.057 7.931 7.931 0 0 0-2.923 5.744Zm7.998-7.551a8.055 8.055 0 0 0-3.323.712 37.067 37.067 0 0 1-2.867-7.526c.125-.05.25-.105.38-.161 3.472-1.59 5.336-4.97 4.27-7.65a35.771 35.771 0 0 1 9.095-2.692c.748 1.758 2.624 3.243 5.042 3.763 1.608.347 3.18.21 4.47-.303 1.465 2.116 3.129 4.691 4.226 6.746-3.017 1.009-5.186 3.837-5.186 7.167 0 .817.13 1.603.374 2.34l-8.802 3.248a8.005 8.005 0 0 0-7.673-5.656l-.006.012Zm23.506 14.897a6.822 6.822 0 0 0-4.9-2.055c-3.285 0-6.021 2.303-6.676 5.366-1.564-.767-3.733-2.135-6.308-4.592a7.882 7.882 0 0 0 2.388-5.527l9.58-3.54a7.626 7.626 0 0 0 6.128 3.07c.261 0 .523-.013.773-.037-.15 2.184-.45 5.087-.991 7.309l.006.006Zm.212-22.398c-.138 0-.28 0-.418.012-.53-1.046-1.297-2.401-2.419-4.165-.766-1.2-1.533-2.34-2.138-3.218.655-.594 1.122-1.33 1.31-2.191v-.019c2.698.23 4.8.978 6.195 1.646-.106.124-.2.26-.286.403-1.066 1.838.056 4.468 2.518 5.873a6.45 6.45 0 0 0 2.743.854c-.318.873-.966 1.987-2.263 2.878a7.612 7.612 0 0 0-5.242-2.073Z"/><path d="M62.01 62.342c2.261 0 4.095-1.82 4.095-4.066 0-2.245-1.834-4.066-4.095-4.066-2.262 0-4.096 1.82-4.096 4.066 0 2.246 1.834 4.066 4.096 4.066ZM7.175 56.53c2.082 0 3.77-1.675 3.77-3.744 0-2.068-1.688-3.744-3.77-3.744-2.083 0-3.772 1.676-3.772 3.744 0 2.069 1.689 3.745 3.772 3.745ZM39.108 72.375c2.555 0 4.625-2.056 4.625-4.592 0-2.537-2.07-4.593-4.625-4.593-2.554 0-4.625 2.056-4.625 4.593 0 2.536 2.07 4.592 4.625 4.592Z"/></g><defs><clipPath id="a"><path fill="#fff" d="M0 0h443v73H0z"/></clipPath></defs></svg>