<svg width="202" height="49" fill="none" xmlns="http://www.w3.org/2000/svg"><g clip-path="url(#a)" fill="#2E65F2"><path d="M101.422 26.614c-4.096 0-7.445 3.121-7.445 7.413 0 4.291 3.338 7.413 7.445 7.413 4.108 0 7.446-3.143 7.446-7.413 0-4.27-3.338-7.413-7.446-7.413Zm0 11.91c-2.243 0-4.183-1.853-4.183-4.497 0-2.645 1.94-4.498 4.183-4.498 2.244 0 4.184 1.82 4.184 4.498 0 2.676-1.94 4.497-4.184 4.497Zm-16.234-11.91c-4.097 0-7.445 3.121-7.445 7.413 0 4.291 3.338 7.413 7.445 7.413s7.445-3.143 7.445-7.413c0-4.27-3.338-7.413-7.445-7.413Zm0 11.91c-2.243 0-4.183-1.853-4.183-4.497 0-2.645 1.94-4.498 4.183-4.498s4.183 1.82 4.183 4.498c0 2.676-1.94 4.497-4.183 4.497ZM65.875 28.89v3.142h7.522c-.228 1.767-.813 3.057-1.713 3.956-1.094 1.095-2.807 2.298-5.808 2.298-4.639 0-8.259-3.74-8.259-8.367 0-4.627 3.62-8.366 8.259-8.366 2.503 0 4.324.986 5.667 2.243l2.222-2.222c-1.886-1.799-4.378-3.175-7.89-3.175-6.35 0-11.682 5.17-11.682 11.51s5.332 11.509 11.683 11.509c3.424 0 6.014-1.127 8.03-3.23 2.08-2.08 2.72-4.996 2.72-7.359 0-.726-.054-1.408-.173-1.961H65.865l.01.022Zm78.973 2.438c-.617-1.658-2.503-4.714-6.35-4.714-3.848 0-6.991 3.002-6.991 7.413 0 4.15 3.143 7.413 7.359 7.413 3.403 0 5.365-2.081 6.177-3.284l-2.525-1.68c-.845 1.235-1.994 2.048-3.652 2.048-1.658 0-2.839-.758-3.598-2.243l9.916-4.097-.336-.845v-.01ZM134.737 33.8c-.087-2.861 2.222-4.324 3.88-4.324 1.289 0 2.384.65 2.752 1.571l-6.621 2.753h-.011Zm-8.063 7.185h3.262V19.201h-3.262v21.794-.01Zm-5.332-12.723h-.109c-.726-.867-2.135-1.658-3.901-1.658-3.707 0-7.11 3.262-7.11 7.445s3.403 7.38 7.11 7.38c1.766 0 3.175-.79 3.901-1.68h.109v1.063c0 2.84-1.517 4.356-3.956 4.356-1.994 0-3.229-1.43-3.739-2.644l-2.839 1.181c.813 1.962 2.98 4.379 6.567 4.379 3.815 0 7.045-2.243 7.045-7.727V27.047h-3.089v1.203l.011.011Zm-3.739 10.252c-2.244 0-4.129-1.885-4.129-4.465 0-2.579 1.885-4.519 4.129-4.519 2.243 0 3.956 1.907 3.956 4.52 0 2.611-1.745 4.464-3.956 4.464Zm42.494-19.323h-7.792v21.794h3.251v-8.258h4.541c3.609 0 7.152-2.612 7.152-6.762 0-4.151-3.543-6.763-7.152-6.763v-.01Zm.086 10.502h-4.627v-7.467h4.627c2.428 0 3.815 2.015 3.815 3.738 0 1.724-1.376 3.74-3.815 3.74v-.011Zm20.104-3.132c-2.352 0-4.79 1.04-5.798 3.338l2.883 1.203c.617-1.203 1.766-1.594 2.969-1.594 1.68 0 3.392 1.008 3.425 2.807v.228c-.585-.336-1.853-.846-3.392-.846-3.111 0-6.275 1.713-6.275 4.91 0 2.915 2.547 4.79 5.408 4.79 2.189 0 3.392-.986 4.15-2.135h.109v1.68h3.143v-8.356c0-3.869-2.883-6.025-6.611-6.025h-.011Zm-.39 11.942c-1.062 0-2.547-.53-2.547-1.853 0-1.68 1.853-2.33 3.446-2.33 1.431 0 2.103.304 2.97.726-.249 2.016-1.994 3.447-3.869 3.447v.01Zm18.445-11.466-3.728 9.45h-.108l-3.869-9.45h-3.501l5.798 13.2-3.305 7.348h3.392l8.941-20.548h-3.62Zm-29.294 13.937h3.252V19.201h-3.252v21.794-.022ZM62.57 3.085a3.69 3.69 0 0 0-2.471-.953c-2.146 0-3.793 1.766-3.793 3.945 0 2.178 1.647 3.923 3.793 3.923 1.842 0 3.186-1.073 3.273-2.764h-2.915V6.033h4.497c0 3.598-1.918 5.3-4.855 5.3-2.937 0-5.18-2.352-5.18-5.256 0-2.905 2.265-5.267 5.18-5.267 1.355 0 2.58.52 3.468 1.354l-.997.921ZM72.909.929v1.29h-4.693V5.49h4.097v1.3h-4.097v3.1h4.834v1.29h-6.22V.929H72.907ZM81.893.929V2.24h-3.11v8.941h-1.398v-8.94h-3.11V.928h7.618ZM88.526.929V11.18h-1.387V.929h1.387ZM97.965.929V2.24h-3.11v8.941h-1.398v-8.94h-3.11V.928h7.618ZM107.73.81c2.937 0 5.213 2.351 5.213 5.267 0 2.915-2.276 5.256-5.213 5.256-2.937 0-5.18-2.352-5.18-5.256 0-2.905 2.265-5.267 5.18-5.267Zm0 9.179c2.157 0 3.815-1.745 3.815-3.912 0-2.168-1.648-3.934-3.815-3.934-2.168 0-3.793 1.755-3.793 3.934 0 2.178 1.647 3.912 3.793 3.912ZM121.125 11.181l-4.671-7.727v7.727h-1.387V.929h1.365l4.628 7.662V.929h1.387V11.18h-1.322ZM.038 4.554V42.58a.42.42 0 0 0 .497.41.417.417 0 0 0 .213-.113l19.725-19.31L.748 4.258a.417.417 0 0 0-.71.297Zm28.705 11.08L4.011 1.956l-.016-.009c-.426-.232-.83.346-.482.683l19.388 18.61 5.842-5.606ZM3.515 44.507c-.35.337.054.915.482.683l.016-.009 24.73-13.678-5.842-5.607-19.386 18.61ZM38.727 21.15l-6.906-3.819-6.494 6.238 6.494 6.234 6.906-3.815c1.879-1.043 1.879-3.796 0-4.838Z"/></g><defs><clipPath id="a"><path fill="#fff" transform="translate(.038 .81)" d="M0 0h201.924v47.284H0z"/></clipPath></defs></svg>