<svg width="1038" height="947" fill="none" xmlns="http://www.w3.org/2000/svg"><path d="M531.879 24.831c.17-6.455-3.116-12.415-8.627-16.832C517.74 3.582 510.023.73 501.418.513c-8.604-.216-16.474 2.248-22.225 6.377-5.751 4.128-9.358 9.896-9.528 16.306l62.214 1.635Zm0 0c-.171 6.41-3.778 12.179-9.529 16.307m9.529-16.307-9.529 16.307m0 0c-5.751 4.128-13.621 6.592-22.225 6.376m22.225-6.376-22.225 6.376m0 0c-8.605-.216-16.322-3.068-21.834-7.486m21.834 7.486-21.834-7.486m0 0c-5.511-4.417-8.797-10.377-8.626-16.832l8.626 16.832ZM280.2 74.415c2.74 7.494.79 15.91-4.683 23.504-5.473 7.591-14.441 14.311-25.613 18.347-11.171 4.036-22.388 4.592-31.488 2.248-9.103-2.344-16.037-7.57-18.777-15.065-2.74-7.493-.791-15.91 4.683-23.503 5.473-7.591 14.441-14.311 25.613-18.347 11.171-4.036 22.388-4.592 31.488-2.248 9.103 2.344 16.037 7.57 18.777 15.064ZM1009.05 395.851v.001c-7.05 4.958-16.192 5.603-25.324 2.568-9.131-3.034-18.212-9.739-25.059-19.41-6.846-9.67-10.104-20.43-9.876-30.006.228-9.576 3.937-17.934 10.987-22.893 7.049-4.958 16.194-5.602 25.326-2.568 9.131 3.034 18.216 9.74 25.056 19.41 6.85 9.67 10.11 20.452 9.88 30.039-.23 9.587-3.94 17.944-10.99 22.859ZM884.594 162.293l-.001.002c-4.157 6.946-12.004 10.869-21.411 11.539-9.404.67-20.315-1.922-30.481-7.953-10.165-6.031-17.628-14.351-21.482-22.902-3.855-8.552-4.085-17.289.115-24.235l.001-.002c4.157-6.947 12.004-10.87 21.41-11.54 9.404-.669 20.316 1.922 30.481 7.953 10.166 6.031 17.628 14.351 21.483 22.902 3.854 8.552 4.084 17.289-.115 24.236ZM51.855 351.679l.001.001c15.483 7.698 20.102 29.808 10.152 49.512-10.038 19.703-30.702 29.076-46.104 21.375C.42 414.868-4.199 392.759 5.751 373.054c10.038-19.703 30.702-29.076 46.104-21.375ZM524.205 260.364c38.135 0 68.868 26.254 68.868 58.517 0 32.264-30.733 58.518-68.868 58.518-38.136 0-68.868-26.254-68.868-58.518 0-32.263 30.732-58.517 68.868-58.517Z" stroke="#2E65F2" stroke-opacity=".45"/><mask id="a" fill="#fff"><path d="M1037.3 542.623c-2.64-35.061-32.97-61.291-67.786-58.668-15.386 1.137-29.102 7.782-39.3 17.836l-73.588-43.804c2.637-9.355 4.132-19.147 4.132-29.377a106.17 106.17 0 0 0-14.595-53.771c32.003-22.646 42.553-52.81 46.07-70.471 7.649-3.848 14.067-9.531 18.287-16.962 15.034-25.968-.791-63.127-35.519-82.975-17.672-10.142-36.926-13.901-53.455-11.541-20.749-12.59-62.51-32.787-121.943-36.809-5.627-16.7-18.551-32.088-36.311-43.192a9360.09 9360.09 0 0 1 16.793-26.055c19.342 2.71 36.486-4.46 40.355-17.836 4.396-15.214-10.375-32.788-32.882-39.17-22.507-6.383-44.311.787-48.707 16-2.638 9.355 1.846 19.585 10.902 27.541-5.099 7.87-10.902 16.962-16.881 26.23a157.275 157.275 0 0 0-6.154-1.486c-19.342-4.197-38.333-3.41-54.773 1.486-28.31-20.022-70.072-38.645-130.384-44.853-9.935-17.662-34.464-26.667-59.609-20.46-29.101 7.17-47.916 31.914-42.113 55.346.352 1.399.703 2.71 1.231 3.934-17.496 18.449-37.717 47.389-57.763 92.592-3.605 1.311-7.209 2.71-10.814 4.372-14.331 6.557-26.639 15.3-36.662 25.268-28.134-6.907-52.488-10.667-71.566-12.765 0-5.072-1.407-9.88-4.132-13.99-10.287-15.475-36.487-16.35-58.554-1.836-22.068 14.427-31.563 38.733-21.276 54.209 10.286 15.475 36.486 16.35 58.553 1.836 5.451-3.585 10.111-7.694 13.892-12.241 16.353 1.487 38.42 4.372 64.268 10.055-9.583 18.536-11.957 38.558-5.187 56.482-30.684 23.082-53.894 46.514-69.28 70.209-8.792 13.552-13.803 25.268-16.529 34.623-2.11.612-4.22 1.399-6.33 2.273-39.475 16.088-58.026 61.816-41.322 102.21 16.09 39.082 59.17 58.755 97.766 45.465 22.947 9.88 63.214 18.623 133.285 15.913 7.297 28.066 25.233 51.935 49.235 66.973-16.265 36.897-32.53 73.532-45.894 102.997-5.363-1.224-10.814-1.836-16.529-1.836-41.498 0-75.17 33.486-75.17 74.755 0 41.268 33.672 74.755 75.17 74.755 41.498 0 75.171-33.487 75.171-74.755 0-23.52-10.902-44.416-27.871-58.143 8.617-18.973 19.518-43.28 33.41-74.581 4.396-9.967 8.792-19.934 13.1-29.727 9.231 2.448 18.902 3.672 28.837 3.672 18.375 0 35.783-4.371 51.169-12.153 48.883 47.651 89.589 70.646 116.58 81.663 8.089 44.678 47.388 78.602 94.689 78.602 53.191 0 96.271-42.842 96.271-95.739 0-12.94-2.55-25.181-7.209-36.46 14.858-41.093 20.397-105.182 22.331-140.243 21.364-8.393 39.475-23.344 51.608-42.405l70.247 41.793c-2.461 7.694-3.604 16.001-2.901 24.569 2.638 35.061 32.97 61.291 67.785 58.668 34.732-2.623 60.752-33.137 58.112-68.198l-.26.175ZM363.313 116.037c11.342 5.158 25.409 6.557 39.74 3.06 19.518-4.809 34.464-17.574 40.442-32.525 37.278 4.459 70.072 14.688 96.799 30.164-9.32 8.394-15.913 18.886-18.551 31.039-.176.962-.44 2.011-.528 2.973-64.356 9.88-114.47 29.465-144.714 43.891-14.419-10.667-33.761-16.175-54.773-15.738 15.122-30.077 29.628-49.924 41.761-62.864h-.176ZM305.99 534.404c-45.366 1.661-75.522-1.924-95.216-6.645 16.88-21.421 21.98-51.498 10.638-79.127-10.638-25.793-33.057-43.104-58.114-48.088a117.838 117.838 0 0 1 8.001-14.339c10.198-15.651 28.485-36.809 61.191-61.466 17.935 13.553 43.784 18.973 70.863 14.689 8.264 31.389 21.891 71.783 43.871 113.838-23.826 19.498-39.563 48.438-41.234 81.138Zm112.8-106.668c-16.705 0-32.53 3.584-46.861 10.054-20.133-39.082-32.793-77.028-40.442-106.318 1.758-.7 3.516-1.487 5.363-2.273 48.97-22.471 75.258-70.209 60.224-108.068 28.398-12.852 72.709-29.29 128.274-38.033 10.55 24.831 37.013 45.815 71.126 53.159 22.683 4.896 44.839 2.973 63.038-4.284 20.661 29.902 44.135 66.274 59.609 95.302-42.553 14.252-73.149 54.209-73.149 101.248 0 11.541 1.847 22.645 5.275 33.049l-124.141 45.903c-13.979-46.252-57.147-79.914-108.228-79.914l-.088.175Zm331.542 210.451c-17.496-17.924-41.937-29.028-69.104-29.028-46.333 0-84.93 32.526-94.161 75.805-22.068-10.842-52.664-30.165-88.974-64.875 20.397-19.935 33.145-47.477 33.673-78.078l135.131-50.012c19.606 26.317 50.993 43.367 86.424 43.367 3.693 0 7.385-.175 10.902-.525-2.11 30.864-6.33 71.87-13.979 103.259l.088.087Zm2.989-316.42c-1.934 0-3.956 0-5.89.175-7.473-14.777-18.288-33.924-34.113-58.843-10.814-16.962-21.628-33.05-30.156-45.465 9.231-8.394 15.825-18.798 18.463-30.951v-.263c38.069 3.235 67.697 13.815 87.391 23.257-1.494 1.749-2.813 3.673-4.044 5.684-15.034 25.967.791 63.126 35.519 82.974 12.66 7.257 26.024 11.191 38.684 12.065-4.483 12.328-13.627 28.066-31.914 40.657-19.254-18.186-45.278-29.29-73.94-29.29Z"/></mask><path d="M1037.3 542.623c-2.64-35.061-32.97-61.291-67.786-58.668-15.386 1.137-29.102 7.782-39.3 17.836l-73.588-43.804c2.637-9.355 4.132-19.147 4.132-29.377a106.17 106.17 0 0 0-14.595-53.771c32.003-22.646 42.553-52.81 46.07-70.471 7.649-3.848 14.067-9.531 18.287-16.962 15.034-25.968-.791-63.127-35.519-82.975-17.672-10.142-36.926-13.901-53.455-11.541-20.749-12.59-62.51-32.787-121.943-36.809-5.627-16.7-18.551-32.088-36.311-43.192a9360.09 9360.09 0 0 1 16.793-26.055c19.342 2.71 36.486-4.46 40.355-17.836 4.396-15.214-10.375-32.788-32.882-39.17-22.507-6.383-44.311.787-48.707 16-2.638 9.355 1.846 19.585 10.902 27.541-5.099 7.87-10.902 16.962-16.881 26.23a157.275 157.275 0 0 0-6.154-1.486c-19.342-4.197-38.333-3.41-54.773 1.486-28.31-20.022-70.072-38.645-130.384-44.853-9.935-17.662-34.464-26.667-59.609-20.46-29.101 7.17-47.916 31.914-42.113 55.346.352 1.399.703 2.71 1.231 3.934-17.496 18.449-37.717 47.389-57.763 92.592-3.605 1.311-7.209 2.71-10.814 4.372-14.331 6.557-26.639 15.3-36.662 25.268-28.134-6.907-52.488-10.667-71.566-12.765 0-5.072-1.407-9.88-4.132-13.99-10.287-15.475-36.487-16.35-58.554-1.836-22.068 14.427-31.563 38.733-21.276 54.209 10.286 15.475 36.486 16.35 58.553 1.836 5.451-3.585 10.111-7.694 13.892-12.241 16.353 1.487 38.42 4.372 64.268 10.055-9.583 18.536-11.957 38.558-5.187 56.482-30.684 23.082-53.894 46.514-69.28 70.209-8.792 13.552-13.803 25.268-16.529 34.623-2.11.612-4.22 1.399-6.33 2.273-39.475 16.088-58.026 61.816-41.322 102.21 16.09 39.082 59.17 58.755 97.766 45.465 22.947 9.88 63.214 18.623 133.285 15.913 7.297 28.066 25.233 51.935 49.235 66.973-16.265 36.897-32.53 73.532-45.894 102.997-5.363-1.224-10.814-1.836-16.529-1.836-41.498 0-75.17 33.486-75.17 74.755 0 41.268 33.672 74.755 75.17 74.755 41.498 0 75.171-33.487 75.171-74.755 0-23.52-10.902-44.416-27.871-58.143 8.617-18.973 19.518-43.28 33.41-74.581 4.396-9.967 8.792-19.934 13.1-29.727 9.231 2.448 18.902 3.672 28.837 3.672 18.375 0 35.783-4.371 51.169-12.153 48.883 47.651 89.589 70.646 116.58 81.663 8.089 44.678 47.388 78.602 94.689 78.602 53.191 0 96.271-42.842 96.271-95.739 0-12.94-2.55-25.181-7.209-36.46 14.858-41.093 20.397-105.182 22.331-140.243 21.364-8.393 39.475-23.344 51.608-42.405l70.247 41.793c-2.461 7.694-3.604 16.001-2.901 24.569 2.638 35.061 32.97 61.291 67.785 58.668 34.732-2.623 60.752-33.137 58.112-68.198l-.26.175ZM363.313 116.037c11.342 5.158 25.409 6.557 39.74 3.06 19.518-4.809 34.464-17.574 40.442-32.525 37.278 4.459 70.072 14.688 96.799 30.164-9.32 8.394-15.913 18.886-18.551 31.039-.176.962-.44 2.011-.528 2.973-64.356 9.88-114.47 29.465-144.714 43.891-14.419-10.667-33.761-16.175-54.773-15.738 15.122-30.077 29.628-49.924 41.761-62.864h-.176ZM305.99 534.404c-45.366 1.661-75.522-1.924-95.216-6.645 16.88-21.421 21.98-51.498 10.638-79.127-10.638-25.793-33.057-43.104-58.114-48.088a117.838 117.838 0 0 1 8.001-14.339c10.198-15.651 28.485-36.809 61.191-61.466 17.935 13.553 43.784 18.973 70.863 14.689 8.264 31.389 21.891 71.783 43.871 113.838-23.826 19.498-39.563 48.438-41.234 81.138Zm112.8-106.668c-16.705 0-32.53 3.584-46.861 10.054-20.133-39.082-32.793-77.028-40.442-106.318 1.758-.7 3.516-1.487 5.363-2.273 48.97-22.471 75.258-70.209 60.224-108.068 28.398-12.852 72.709-29.29 128.274-38.033 10.55 24.831 37.013 45.815 71.126 53.159 22.683 4.896 44.839 2.973 63.038-4.284 20.661 29.902 44.135 66.274 59.609 95.302-42.553 14.252-73.149 54.209-73.149 101.248 0 11.541 1.847 22.645 5.275 33.049l-124.141 45.903c-13.979-46.252-57.147-79.914-108.228-79.914l-.088.175Zm331.542 210.451c-17.496-17.924-41.937-29.028-69.104-29.028-46.333 0-84.93 32.526-94.161 75.805-22.068-10.842-52.664-30.165-88.974-64.875 20.397-19.935 33.145-47.477 33.673-78.078l135.131-50.012c19.606 26.317 50.993 43.367 86.424 43.367 3.693 0 7.385-.175 10.902-.525-2.11 30.864-6.33 71.87-13.979 103.259l.088.087Zm2.989-316.42c-1.934 0-3.956 0-5.89.175-7.473-14.777-18.288-33.924-34.113-58.843-10.814-16.962-21.628-33.05-30.156-45.465 9.231-8.394 15.825-18.798 18.463-30.951v-.263c38.069 3.235 67.697 13.815 87.391 23.257-1.494 1.749-2.813 3.673-4.044 5.684-15.034 25.967.791 63.126 35.519 82.974 12.66 7.257 26.024 11.191 38.684 12.065-4.483 12.328-13.627 28.066-31.914 40.657-19.254-18.186-45.278-29.29-73.94-29.29Z" stroke="#2E65F2" stroke-opacity=".45" stroke-width="2" mask="url(#a)"/><path d="M931.912 747.829c0 31.447-25.635 56.944-57.263 56.944-31.628 0-57.263-25.497-57.263-56.944 0-31.446 25.635-56.943 57.263-56.943 31.628 0 57.263 25.497 57.263 56.943ZM153.915 670.275c0 28.936-23.587 52.397-52.69 52.397-29.103 0-52.691-23.461-52.691-52.397 0-28.935 23.588-52.397 52.691-52.397s52.69 23.462 52.69 52.397ZM616.369 882.125c0 35.55-28.981 64.375-64.736 64.375s-64.736-28.825-64.736-64.375c0-35.551 28.981-64.376 64.736-64.376s64.736 28.825 64.736 64.376Z" stroke="#2E65F2" stroke-opacity=".45"/></svg>