<svg width="218" height="56" fill="none" xmlns="http://www.w3.org/2000/svg"><path d="M27.438.846H1.718C.768.846 0 1.616 0 2.566v25.776C0 43.53 12.284 55.841 27.438 55.841c15.154 0 27.439-12.312 27.439-27.499S42.591.844 27.438.844v.002Zm-7.404 39.271c-3.913-2.13-6.315-6.271-6.315-10.735V16.314c0-.95.769-1.721 1.718-1.721h13.037c4.452 0 8.586 2.407 10.711 6.329 7.066 13.03-6.15 26.274-19.15 19.193v.002Z" fill="#fff"/><path d="M27.438.846H1.718C.768.846 0 1.616 0 2.566v25.776C0 43.53 12.284 55.841 27.438 55.841c15.154 0 27.439-12.312 27.439-27.499S42.591.844 27.438.844v.002Zm-7.404 39.271c-3.913-2.13-6.315-6.271-6.315-10.735V16.314c0-.95.769-1.721 1.718-1.721h13.037c4.452 0 8.586 2.407 10.711 6.329 7.066 13.03-6.15 26.274-19.15 19.193v.002ZM70.148 40.648V1.937c0-.392.317-.708.706-.708h19.117c7.236 0 11.282 2.029 14.717 5.348 3.557 3.687 5.457 8.849 5.457 14.686s-2.084 11.491-5.887 15.178c-3.433 3.073-7.051 4.916-14.287 4.916H70.854a.707.707 0 0 1-.706-.707v-.002Zm19.517-5.437c5.088 0 6.806-1.166 9.197-3.134 2.575-2.58 4.108-6.513 4.108-10.814 0-4.3-1.348-7.927-3.863-10.508-2.269-2.089-4.415-3.38-9.442-3.38h-12.65v27.836h12.65ZM118.628 21.938v18.71a.707.707 0 0 1-.706.708h-4.902a.707.707 0 0 1-.706-.707V19.788s0-6.73.011-7.291c.009-.442.251-.837.691-.837l3.749.018c.34 0 .573.262.695.58.252.657.304 1.868.428 3.319 1.68-2.476 4.359-4.88 8.652-4.88 1.46 0 2.877.31 3.758.895.258.17.358.503.263.797l-1.504 4.667a.703.703 0 0 1-.921.443c-.969-.368-2.343-.598-3.066-.598-2.821 0-6.439 2.91-6.439 5.039l-.003-.002ZM154.407 0c12.632 0 22.686 9.463 22.686 21.2s-10.056 21.385-22.686 21.385c-12.631 0-22.504-9.463-22.504-21.385 0-11.922 9.872-21.2 22.504-21.2Zm0 36.441c8.645 0 15.451-6.882 15.451-15.24 0-8.356-6.806-15.055-15.451-15.055-8.646 0-15.269 6.76-15.269 15.056s6.683 15.239 15.269 15.239ZM194.751 10.692c6.378 0 11.405 4.425 11.405 10.57V40.65a.707.707 0 0 1-.706.707h-4.962a.707.707 0 0 1-.706-.707V21.263c0-2.703-2.515-4.978-6.07-4.978s-8.045 3.872-8.093 5.631V40.65a.707.707 0 0 1-.706.707h-4.902a.707.707 0 0 1-.706-.707V19.848l.011-7.34a.707.707 0 0 1 .691-.834h3.761c.335 0 .704.252.774.58.271 1.26.321 1.816.428 3.319 2.004-2.97 4.881-4.88 9.786-4.88h-.005ZM207.012 5.12c0-2.72 2.162-5.025 4.972-5.025 2.81 0 5.049 2.305 5.049 5.024 0 2.72-2.237 4.983-5.049 4.983-2.812 0-4.972-2.2-4.972-4.983Zm9.045-.022c0-2.181-1.779-4.07-4.073-4.07-2.294 0-4.016 1.87-4.016 4.07s1.759 4.028 4.016 4.028c2.256 0 4.073-1.806 4.073-4.028Zm-6.196 2.346V2.463h2.907c1.034 0 1.798.664 1.798 1.619 0 .581-.343 1.122-.994 1.39l1.129 1.974h-1.378l-.956-1.765h-1.32v1.765h-1.186v-.002Zm1.186-3.987V4.64h1.664c.364 0 .65-.31.65-.582a.62.62 0 0 0-.63-.603h-1.684v.002ZM131.492 40.648a.707.707 0 0 1-.705.707h-4.902a.707.707 0 0 1-.706-.707s0-3.755.011-4.318c.009-.442.25-.837.691-.837l3.749.018c.34 0 .573.262.695.58.252.657 1.169 4.557 1.169 4.557h-.002Z" fill="#fff"/></svg>