<svg width="46" height="41" viewBox="0 0 46 41" fill="none" xmlns="http://www.w3.org/2000/svg">
<path fill-rule="evenodd" clip-rule="evenodd" d="M15.259 0.377565C15.5863 0.159532 15.9654 0.031903 16.3579 0.00761546C16.7504 -0.0166721 17.1424 0.063245 17.4941 0.239266L29.8807 6.43149L42.2674 0.239266C42.6074 0.0693709 42.9852 -0.0108312 43.3649 0.00626995C43.7446 0.0233711 44.1136 0.137209 44.4369 0.33698C44.7603 0.536752 45.0272 0.815832 45.2124 1.14774C45.3976 1.47964 45.4949 1.85337 45.4951 2.23345V29.001C45.4952 29.3681 45.4046 29.7296 45.2314 30.0534C45.0583 30.3771 44.8079 30.6531 44.5025 30.8569L31.1187 39.7794C30.7914 39.9974 30.4123 40.125 30.0198 40.1493C29.6273 40.1736 29.2353 40.0937 28.8836 39.9177L16.497 33.7254L4.11029 39.9177C3.77029 40.0876 3.39253 40.1678 3.01283 40.1507C2.63314 40.1336 2.26411 40.0197 1.94077 39.82C1.61742 39.6202 1.35049 39.3411 1.16529 39.0092C0.980089 38.6773 0.882771 38.3036 0.882568 37.9235V11.156C0.882513 10.7888 0.973083 10.4273 1.14624 10.1036C1.3194 9.77984 1.56979 9.50384 1.8752 9.30008L15.259 0.377565ZM7.57445 20.0785C7.57445 20.6701 7.80946 21.2374 8.22779 21.6558C8.64611 22.0741 9.21348 22.3091 9.80508 22.3091C10.3967 22.3091 10.964 22.0741 11.3824 21.6558C11.8007 21.2374 12.0357 20.6701 12.0357 20.0785C12.0357 19.4869 11.8007 18.9195 11.3824 18.5012C10.964 18.0829 10.3967 17.8478 9.80508 17.8478C9.21348 17.8478 8.64611 18.0829 8.22779 18.5012C7.80946 18.9195 7.57445 19.4869 7.57445 20.0785ZM18.7276 22.3091C18.136 22.3091 17.5686 22.0741 17.1503 21.6558C16.732 21.2374 16.497 20.6701 16.497 20.0785C16.497 19.4869 16.732 18.9195 17.1503 18.5012C17.5686 18.0829 18.136 17.8478 18.7276 17.8478C19.3192 17.8478 19.8866 18.0829 20.3049 18.5012C20.7232 18.9195 20.9582 19.4869 20.9582 20.0785V20.0807C20.9582 20.6723 20.7232 21.2397 20.3049 21.658C19.8866 22.0763 19.3192 22.3113 18.7276 22.3113V22.3091ZM29.2272 14.0379C29.0214 13.8249 28.7752 13.6549 28.5031 13.538C28.231 13.4211 27.9383 13.3596 27.6421 13.357C27.3459 13.3545 27.0522 13.4109 26.778 13.5231C26.5039 13.6352 26.2548 13.8008 26.0454 14.0103C25.836 14.2197 25.6703 14.4688 25.5582 14.7429C25.446 15.017 25.3896 15.3108 25.3921 15.607C25.3947 15.9031 25.4563 16.1958 25.5732 16.468C25.6901 16.7401 25.86 16.9863 26.073 17.192L28.9572 20.0785L26.073 22.9627C25.6667 23.3834 25.4419 23.9468 25.447 24.5317C25.452 25.1166 25.6866 25.676 26.1002 26.0896C26.5138 26.5032 27.0733 26.7378 27.6581 26.7429C28.243 26.7479 28.8064 26.5231 29.2272 26.1168L32.1114 23.2326L34.9956 26.1168C35.4163 26.5231 35.9797 26.7479 36.5646 26.7429C37.1494 26.7378 37.7089 26.5032 38.1225 26.0896C38.5361 25.676 38.7707 25.1166 38.7757 24.5317C38.7808 23.9468 38.556 23.3834 38.1497 22.9627L35.2655 20.0785L38.1497 17.1943C38.556 16.7736 38.7808 16.2101 38.7757 15.6252C38.7707 15.0404 38.5361 14.4809 38.1225 14.0673C37.7089 13.6538 37.1494 13.4192 36.5646 13.4141C35.9797 13.409 35.4163 13.6338 34.9956 14.0402L32.1114 16.9244L29.2272 14.0402V14.0379Z" fill="white"/>
</svg>
