<svg width="59" height="41" viewBox="0 0 59 41" fill="none" xmlns="http://www.w3.org/2000/svg">
<path d="M18.1292 20.0785C23.6704 20.0785 28.1552 15.5885 28.1552 10.0409C28.1552 4.49337 23.6704 0.00335693 18.1292 0.00335693C12.5881 0.00335693 8.10329 4.49337 8.10329 10.0409C8.10329 15.5885 12.5881 20.0785 18.1292 20.0785ZM25.0042 22.9463H24.2612C22.3992 23.8426 20.3314 24.3803 18.1292 24.3803C15.9271 24.3803 13.8682 23.8426 11.9973 22.9463H11.2543C5.56099 22.9463 0.941895 27.5708 0.941895 33.2707V35.8518C0.941895 38.2267 2.86652 40.1536 5.23873 40.1536H31.0198C33.392 40.1536 35.3166 38.2267 35.3166 35.8518V33.2707C35.3166 27.5708 30.6975 22.9463 25.0042 22.9463ZM43.9103 20.0785C48.6547 20.0785 52.5039 16.2248 52.5039 11.4748C52.5039 6.72493 48.6547 2.87123 43.9103 2.87123C39.1658 2.87123 35.3166 6.72493 35.3166 11.4748C35.3166 16.2248 39.1658 20.0785 43.9103 20.0785ZM48.2071 22.9463H47.8669C46.6226 23.3765 45.3067 23.6633 43.9103 23.6633C42.5138 23.6633 41.1979 23.3765 39.9536 22.9463H39.6134C37.7873 22.9463 36.1043 23.4751 34.6273 24.3265C36.8115 26.6835 38.1811 29.8113 38.1811 33.2707V36.7121C38.1811 36.9093 38.1364 37.0975 38.1274 37.2857H53.9362C56.3084 37.2857 58.233 35.3589 58.233 32.9839C58.233 27.4364 53.7482 22.9463 48.2071 22.9463Z" fill="white"/>
</svg>
