<svg width="34" height="41" viewBox="0 0 34 41" fill="none" xmlns="http://www.w3.org/2000/svg">
<path d="M17.0266 20.4621C18.1519 20.4621 19.1155 20.0611 19.9175 19.2591C20.7181 18.4585 21.1184 17.4956 21.1184 16.3703C21.1184 15.2451 20.7181 14.2815 19.9175 13.4795C19.1155 12.6789 18.1519 12.2786 17.0266 12.2786C15.9014 12.2786 14.9385 12.6789 14.1379 13.4795C13.3359 14.2815 12.9349 15.2451 12.9349 16.3703C12.9349 17.4956 13.3359 18.4585 14.1379 19.2591C14.9385 20.0611 15.9014 20.4621 17.0266 20.4621ZM17.0266 40.1536C16.7539 40.1536 16.4811 40.1024 16.2083 40.0001C15.9355 39.8978 15.6968 39.7615 15.4922 39.591C10.5139 35.1923 6.79728 31.1095 4.34224 27.3423C1.88719 23.5738 0.659668 20.0529 0.659668 16.7795C0.659668 11.6648 2.30523 7.59013 5.59636 4.55542C8.88612 1.52071 12.6962 0.00335693 17.0266 0.00335693C21.3571 0.00335693 25.1672 1.52071 28.4569 4.55542C31.748 7.59013 33.3936 11.6648 33.3936 16.7795C33.3936 20.0529 32.1661 23.5738 29.711 27.3423C27.256 31.1095 23.5393 35.1923 18.561 39.591C18.3565 39.7615 18.1178 39.8978 17.845 40.0001C17.5722 40.1024 17.2994 40.1536 17.0266 40.1536Z" fill="white"/>
</svg>
