<svg width="38" height="41" viewBox="0 0 38 41" fill="none" xmlns="http://www.w3.org/2000/svg">
<path d="M12.0586 40.1536C11.1198 40.1536 10.2984 39.8686 9.59432 39.2986C8.89025 38.7287 8.42088 37.9911 8.18619 37.0858L5.92311 28.0838H32.0742L29.8112 37.0858C29.5765 37.9911 29.1071 38.7287 28.403 39.2986C27.699 39.8686 26.8775 40.1536 25.9388 40.1536H12.0586ZM8.43764 0.0216445C11.4216 0.390443 13.928 1.70605 15.9571 3.96845C17.9848 6.2322 18.9987 8.90633 18.9987 11.9908C18.9987 8.90633 20.0125 6.2322 22.0403 3.96845C24.0693 1.70605 26.5758 0.390443 29.5597 0.0216445C29.962 -0.0454097 30.3141 0.071935 30.6158 0.373679C30.9176 0.675423 31.0349 1.02746 30.9678 1.42978C30.6326 4.07842 29.5429 6.34955 27.699 8.24316C25.855 10.1381 23.6254 11.3203 21.0103 11.7897V16.0141H35.0917C35.6616 16.0141 36.1391 16.2065 36.524 16.5914C36.9102 16.9776 37.1033 17.4557 37.1033 18.0257V22.0489C37.1033 23.1553 36.7097 24.1021 35.9225 24.8894C35.1339 25.6779 34.1865 26.0722 33.0801 26.0722H4.91729C3.8109 26.0722 2.86342 25.6779 2.07487 24.8894C1.28765 24.1021 0.894043 23.1553 0.894043 22.0489V18.0257C0.894043 17.4557 1.08716 16.9776 1.47339 16.5914C1.85828 16.2065 2.33571 16.0141 2.90567 16.0141H16.987V11.7897C14.3719 11.3203 12.1424 10.1381 10.2984 8.24316C8.4544 6.34955 7.36477 4.07842 7.0295 1.42978C6.96245 1.02746 7.07979 0.675423 7.38154 0.373679C7.68328 0.071935 8.03531 -0.0454097 8.43764 0.0216445Z" fill="white"/>
</svg>
