<svg width="412" height="68" viewBox="0 0 412 68" fill="none" xmlns="http://www.w3.org/2000/svg">
<g clip-path="url(#clip0_233_513)">
<path d="M111.422 18.5696C111.422 26.9349 105.335 31.9967 95.2651 31.9967H85.694V43.6596H80.1635V5.14258H95.2709C105.341 5.14258 111.428 10.2044 111.428 18.5696H111.422ZM105.891 18.5696C105.891 13.0697 102.181 9.93342 95.1028 9.93342H85.6998V27.2116H95.1028C102.187 27.2116 105.891 24.0753 105.891 18.5754V18.5696Z" fill="white"/>
<path d="M145.451 43.6596L137.098 31.8295C136.321 31.8871 135.492 31.939 134.663 31.939H125.092V43.6596H119.561V5.14258H134.669C144.738 5.14258 150.825 10.2044 150.825 18.5696C150.825 24.5135 147.73 28.8028 142.304 30.7283L151.486 43.6596H145.457H145.451ZM145.283 18.5696C145.283 13.0697 141.573 9.93342 134.495 9.93342H125.092V27.2635H134.495C141.579 27.2635 145.283 24.0696 145.283 18.5696Z" fill="white"/>
<path d="M156.628 24.3983C156.628 13.1159 165.37 4.69873 177.266 4.69873C189.162 4.69873 197.794 13.064 197.794 24.3983C197.794 35.7326 189.052 44.0978 177.266 44.0978C165.481 44.0978 156.628 35.6807 156.628 24.3983ZM192.264 24.3983C192.264 15.8716 185.846 9.59911 177.266 9.59911C168.686 9.59911 162.159 15.8716 162.159 24.3983C162.159 32.9249 168.576 39.1974 177.266 39.1974C185.956 39.1974 192.264 32.9249 192.264 24.3983Z" fill="white"/>
<path d="M229.221 43.6596L217.603 27.7593L206.148 43.6596H199.782L214.333 23.9082L200.664 5.14258H206.971L217.818 19.9417L228.554 5.14258H234.583L220.919 23.741L235.58 43.6596H229.215H229.221Z" fill="white"/>
<path d="M255.279 30.3421V43.6596H249.801V30.2325L234.421 5.14258H240.34L252.734 25.4475L265.181 5.14258H270.659L255.279 30.3421Z" fill="white"/>
<path d="M309.987 19.4058L299.511 40.4659H294.358L283.934 19.4058V43.6598H275.285V5.12549H286.978L296.955 26.2951L306.99 5.12549H318.631V43.6598H309.981V19.4058H309.987Z" fill="white"/>
<path d="M356.104 5.12549V12.7874H336.811V20.726H354.162V28.0593H336.811V36.0555H356.712V43.6655H328.167V5.12549H356.104Z" fill="white"/>
<path d="M394.023 10.17C397.716 13.5311 399.565 18.2124 399.565 24.1966C399.565 30.1809 397.762 34.9313 394.162 38.4193C390.562 41.9129 385.06 43.654 377.669 43.654H364.422V5.12549H378.115C385.026 5.12549 390.33 6.80891 394.023 10.17ZM387.675 33.075C389.797 31.0917 390.863 28.2034 390.863 24.4215C390.863 20.6395 389.803 17.7224 387.675 15.6815C385.547 13.6406 382.289 12.6202 377.889 12.6202H373.066V36.0498H378.556C382.51 36.0498 385.547 35.0582 387.675 33.075Z" fill="white"/>
<path d="M407.443 9.07435C404.916 9.07435 402.869 7.03925 402.875 4.53141C402.887 2.0351 404.939 0 407.443 0C409.965 0 412.006 2.04086 412 4.55447C411.994 7.06231 409.965 9.07435 407.443 9.07435ZM403.559 4.53141C403.559 6.67028 405.293 8.4056 407.438 8.41136C409.577 8.41136 411.328 6.67028 411.333 4.54294C411.333 2.42137 409.594 0.686053 407.467 0.680288C405.31 0.680288 403.571 2.3983 403.565 4.53141H403.559Z" fill="white"/>
<path d="M407.467 5.01593H406.707V6.2612H406.011V2.7041H407.751C408.116 2.7041 408.412 2.8194 408.638 3.05578C408.864 3.29215 408.974 3.55734 408.974 3.85713C408.974 4.09927 408.904 4.31834 408.765 4.51436C408.626 4.71038 408.435 4.8545 408.191 4.94098L409.078 6.25544H408.272L407.467 5.01016V5.01593ZM406.701 4.40482H407.704C407.884 4.40482 408.023 4.35294 408.133 4.24916C408.243 4.14539 408.296 4.01856 408.296 3.8629C408.296 3.70724 408.243 3.59194 408.133 3.48816C408.023 3.38439 407.89 3.3325 407.727 3.3325H406.701V4.41059V4.40482Z" fill="white"/>
<path d="M91.4621 57.4614C92.6621 57.4614 93.6187 57.8246 94.3085 58.5683C95.0042 59.3063 95.352 60.3382 95.352 61.6469V67.7061H94.3607V61.7219C94.3607 60.6841 94.0998 59.877 93.5839 59.2947C93.0679 58.7125 92.3317 58.4184 91.3925 58.4184C90.4534 58.4184 89.665 58.7759 89.0389 59.485C88.4128 60.1941 88.1055 61.105 88.1055 62.2177V67.7176H87.1142V61.7334C87.1142 60.6957 86.8765 59.8886 86.3896 59.3063C85.9026 58.724 85.2185 58.43 84.3258 58.43C83.3345 58.43 82.5113 58.8162 81.862 59.583C81.2185 60.3555 80.888 61.3471 80.888 62.5866V67.7407H79.8967V57.7324H80.888V59.658C81.2243 59.018 81.6997 58.4934 82.3142 58.0956C82.9287 57.6978 83.6417 57.5018 84.4591 57.5018C86.1171 57.5018 87.2302 58.2397 87.7925 59.7214C88.0881 59.0584 88.5577 58.528 89.1896 58.1129C89.8215 57.6978 90.5983 57.4903 91.5027 57.4903L91.4505 57.4614H91.4621Z" fill="white"/>
<path d="M104.639 67.9828C103.109 67.9828 101.862 67.4985 100.877 66.5415C99.8912 65.5845 99.41 64.3104 99.41 62.7192C99.41 61.2318 99.8854 59.9865 100.83 58.9892C101.775 57.9918 102.993 57.4902 104.483 57.4902C105.972 57.4902 107.23 57.963 108.117 58.9027C108.999 59.8424 109.445 61.0243 109.445 62.454C109.445 62.7019 109.433 62.9095 109.428 63.0767H100.448C100.5 64.2701 100.906 65.2271 101.671 65.9592C102.436 66.6914 103.427 67.0546 104.651 67.0546C105.555 67.0546 106.338 66.8355 106.993 66.4032C107.648 65.9708 108.112 65.4346 108.401 64.8062L109.364 65.0945C108.958 65.9362 108.361 66.6222 107.578 67.1642C106.796 67.7061 105.81 67.9828 104.633 67.9828H104.651H104.639ZM108.442 62.16C108.361 61.0243 107.978 60.1191 107.283 59.4331C106.587 58.7528 105.654 58.4069 104.477 58.4069C103.3 58.4069 102.425 58.7701 101.671 59.5023C100.917 60.2344 100.511 61.1223 100.442 62.1773L108.454 62.16H108.442Z" fill="white"/>
<path d="M118.489 57.4902C119.729 57.4902 120.72 57.8765 121.457 58.6433C122.193 59.41 122.558 60.4766 122.558 61.8429V67.7464H121.567V61.9409C121.567 60.834 121.289 59.975 120.732 59.3639C120.176 58.7528 119.393 58.4472 118.373 58.4472C117.219 58.4472 116.286 58.8335 115.573 59.6118C114.86 60.3901 114.5 61.4105 114.5 62.6616V67.7349H113.509V57.7266H114.5V59.7905C114.865 59.0929 115.393 58.528 116.077 58.1129C116.761 57.6978 117.567 57.4902 118.5 57.4902H118.489Z" fill="white"/>
<path d="M129.266 58.6663V64.8927C129.266 66.2475 129.88 66.9163 131.109 66.9163C131.625 66.9163 132.153 66.7895 132.68 66.53L132.976 67.4582C132.303 67.7465 131.648 67.8848 131.01 67.8848C130.106 67.8848 129.422 67.6196 128.958 67.0835C128.495 66.5531 128.263 65.8209 128.263 64.8812V58.6548H126.129V57.7266H128.263V54.1753H129.266V57.7266H132.976V58.6548L129.266 58.6663Z" fill="white"/>
<path d="M140.941 67.9945C139.422 67.9945 138.164 67.493 137.15 66.4841C136.135 65.4752 135.631 64.2241 135.631 62.7309C135.631 61.2378 136.135 59.9983 137.15 59.0009C138.164 58.0035 139.434 57.502 140.953 57.502C142.472 57.502 143.701 57.9978 144.703 58.9894C145.706 59.981 146.211 61.232 146.211 62.7194C146.211 64.2068 145.712 65.4636 144.715 66.4725C143.718 67.4814 142.46 67.983 140.964 67.983L140.947 67.9945H140.941ZM140.941 67.0663C142.141 67.0663 143.156 66.6513 143.979 65.8326C144.802 65.014 145.208 63.9878 145.208 62.7655C145.208 61.5433 144.802 60.5171 143.979 59.6869C143.156 58.8568 142.141 58.4417 140.941 58.4417C139.741 58.4417 138.698 58.8568 137.874 59.6869C137.051 60.5171 136.634 61.5433 136.634 62.7655C136.634 63.9878 137.051 65.014 137.874 65.8326C138.698 66.6513 139.718 67.0548 140.941 67.0548V67.0663Z" fill="white"/>
<path d="M151.318 59.6003C151.625 58.8797 152.101 58.3377 152.75 57.9745C153.393 57.6113 154.17 57.4903 155.075 57.6113V58.5395C153.921 58.4127 153.011 58.6952 152.332 59.41C151.66 60.1192 151.318 61.278 151.318 62.8864V67.7407H150.327V57.7324H151.318V59.6061V59.6003Z" fill="white"/>
<path d="M159.324 55.6336C159.098 55.6336 158.907 55.5529 158.75 55.3972C158.593 55.2415 158.512 55.0398 158.512 54.8149C158.512 54.5901 158.593 54.4114 158.75 54.2615C158.907 54.1116 159.109 54.0366 159.336 54.0366C159.562 54.0366 159.765 54.1173 159.921 54.2615C160.078 54.4114 160.159 54.5843 160.159 54.7919C160.159 55.0167 160.078 55.2069 159.921 55.3626C159.765 55.5183 159.573 55.599 159.347 55.599L159.324 55.6278V55.6336ZM158.837 57.7551H159.828V67.7635H158.837V57.7551Z" fill="white"/>
<path d="M169.173 67.9999C167.695 67.9999 166.472 67.4983 165.504 66.4894C164.53 65.4805 164.043 64.2295 164.043 62.7363C164.043 61.2431 164.53 60.0036 165.504 59.0063C166.478 58.0089 167.707 57.5073 169.185 57.5073C170.159 57.5073 171.023 57.7149 171.765 58.13C172.507 58.5451 173.104 59.1158 173.539 59.8364V57.7322H174.53V67.7405H173.539V65.6189C173.121 66.3568 172.536 66.9391 171.782 67.3542C171.028 67.7693 170.165 67.9768 169.191 67.9768L169.173 67.9941V67.9999ZM169.284 67.1121C170.466 67.1121 171.469 66.697 172.298 65.861C173.133 65.0193 173.55 63.9931 173.55 62.7824C173.55 61.5718 173.133 60.5398 172.298 59.7038C171.463 58.8621 170.46 58.4528 169.284 58.4528C168.043 58.4528 167.023 58.8679 166.228 59.6866C165.434 60.5052 165.04 61.5314 165.04 62.7767C165.04 64.0219 165.434 65.0481 166.24 65.8668C167.046 66.6854 168.054 67.089 169.289 67.089V67.1178L169.284 67.1121Z" fill="white"/>
<path d="M190.797 67.9828C189.266 67.9828 188.02 67.4985 187.034 66.5415C186.049 65.5845 185.568 64.3104 185.568 62.7192C185.568 61.2318 186.043 59.9865 186.988 58.9892C187.933 57.9918 189.15 57.4902 190.64 57.4902C192.13 57.4902 193.388 57.963 194.275 58.9027C195.156 59.8424 195.603 61.0243 195.603 62.454C195.603 62.7019 195.591 62.9095 195.585 63.0767H186.605C186.658 64.2701 187.063 65.2271 187.829 65.9592C188.594 66.6914 189.585 67.0546 190.808 67.0546C191.713 67.0546 192.495 66.8355 193.15 66.4032C193.806 65.9708 194.269 65.4346 194.559 64.8062L195.522 65.0945C195.116 65.9362 194.519 66.6222 193.736 67.1642C192.953 67.7061 191.968 67.9828 190.791 67.9828H190.808H190.797ZM194.6 62.16C194.519 61.0243 194.136 60.1191 193.44 59.4331C192.745 58.7528 191.811 58.4069 190.634 58.4069C189.458 58.4069 188.582 58.7701 187.829 59.5023C187.075 60.2344 186.669 61.1223 186.6 62.1773L194.611 62.16H194.6Z" fill="white"/>
<path d="M211.209 57.4614C212.409 57.4614 213.365 57.8246 214.055 58.5683C214.751 59.3063 215.099 60.3382 215.099 61.6469V67.7061H214.107V61.7219C214.107 60.6841 213.846 59.877 213.33 59.2947C212.815 58.7125 212.078 58.4184 211.139 58.4184C210.2 58.4184 209.412 58.7759 208.785 59.485C208.159 60.1941 207.852 61.105 207.852 62.2177V67.7176H206.861V61.7334C206.861 60.6957 206.623 59.8886 206.136 59.3063C205.649 58.724 204.965 58.43 204.072 58.43C203.081 58.43 202.258 58.8162 201.609 59.583C200.965 60.3555 200.635 61.3471 200.635 62.5866V67.7407H199.643V57.7324H200.635V59.658C200.971 59.018 201.446 58.4934 202.061 58.0956C202.675 57.6978 203.388 57.5018 204.206 57.5018C205.864 57.5018 206.977 58.2397 207.539 59.7214C207.835 59.0584 208.304 58.528 208.936 58.1129C209.568 57.6978 210.345 57.4903 211.249 57.4903L211.197 57.4614H211.209Z" fill="white"/>
<path d="M231.684 57.4903C232.925 57.4903 233.916 57.8765 234.653 58.6433C235.389 59.4101 235.754 60.4766 235.754 61.843V67.7465H234.763V61.941C234.763 60.8341 234.484 59.9751 233.928 59.364C233.371 58.7529 232.589 58.4473 231.568 58.4473C230.415 58.4473 229.481 58.8336 228.768 59.6119C228.055 60.3902 227.696 61.4106 227.696 62.6616V67.735H226.705V52.9819H227.696V59.7906C228.061 59.093 228.589 58.528 229.273 58.1129C229.957 57.6978 230.763 57.4903 231.696 57.4903H231.684Z" fill="white"/>
<path d="M245.018 67.9828C243.487 67.9828 242.241 67.4985 241.256 66.5415C240.27 65.5845 239.789 64.3104 239.789 62.7192C239.789 61.2318 240.264 59.9865 241.209 58.9892C242.154 57.9918 243.371 57.4902 244.861 57.4902C246.351 57.4902 247.609 57.963 248.496 58.9027C249.377 59.8424 249.824 61.0243 249.824 62.454C249.824 62.7019 249.812 62.9095 249.806 63.0767H240.827C240.879 64.2701 241.284 65.2271 242.05 65.9592C242.815 66.6914 243.806 67.0546 245.029 67.0546C245.934 67.0546 246.716 66.8355 247.372 66.4032C248.027 65.9708 248.49 65.4346 248.78 64.8062L249.743 65.0945C249.337 65.9362 248.74 66.6222 247.957 67.1642C247.174 67.7061 246.189 67.9828 245.012 67.9828H245.029H245.018ZM248.821 62.16C248.74 61.0243 248.357 60.1191 247.661 59.4331C246.966 58.7528 246.032 58.4069 244.856 58.4069C243.679 58.4069 242.803 58.7701 242.05 59.5023C241.296 60.2344 240.89 61.1223 240.821 62.1773L248.832 62.16H248.821Z" fill="white"/>
<path d="M258.346 67.9999C256.867 67.9999 255.644 67.4983 254.676 66.4894C253.708 65.4805 253.215 64.2295 253.215 62.7363C253.215 61.2431 253.702 60.0036 254.676 59.0063C255.65 58.0089 256.879 57.5073 258.357 57.5073C259.331 57.5073 260.195 57.7149 260.937 58.13C261.679 58.5451 262.276 59.1158 262.711 59.8364V57.7322H263.702V67.7405H262.711V65.6189C262.293 66.3568 261.708 66.9391 260.954 67.3542C260.201 67.7693 259.337 67.9768 258.363 67.9768L258.346 67.9941V67.9999ZM258.456 67.1121C259.638 67.1121 260.641 66.697 261.47 65.861C262.305 65.0193 262.722 63.9931 262.722 62.7824C262.722 61.5718 262.305 60.5398 261.47 59.7038C260.635 58.8621 259.633 58.4528 258.456 58.4528C257.215 58.4528 256.195 58.8679 255.401 59.6866C254.606 60.5052 254.212 61.5314 254.212 62.7767C254.212 64.0219 254.606 65.0481 255.412 65.8668C256.218 66.6854 257.227 67.089 258.462 67.089V67.1178L258.456 67.1121Z" fill="white"/>
<path d="M268.485 52.9819H269.476V67.735H268.485V52.9819Z" fill="white"/>
<path d="M276.271 58.6663V64.8927C276.271 66.2475 276.885 66.9163 278.114 66.9163C278.63 66.9163 279.158 66.7895 279.685 66.53L279.981 67.4582C279.308 67.7465 278.653 67.8848 278.016 67.8848C277.111 67.8848 276.427 67.6196 275.963 67.0835C275.5 66.5531 275.268 65.8209 275.268 64.8812V58.6548H273.134V57.7266H275.268V54.1753H276.271V57.7266H279.981V58.6548L276.271 58.6663Z" fill="white"/>
<path d="M289.024 57.4903C290.265 57.4903 291.256 57.8765 291.992 58.6433C292.729 59.4101 293.094 60.4766 293.094 61.843V67.7465H292.103V61.941C292.103 60.8341 291.824 59.9751 291.268 59.364C290.711 58.7529 289.929 58.4473 288.908 58.4473C287.755 58.4473 286.821 58.8336 286.108 59.6119C285.395 60.3902 285.036 61.4106 285.036 62.6616V67.735H284.045V52.9819H285.036V59.7906C285.401 59.093 285.929 58.528 286.613 58.1129C287.297 57.6978 288.103 57.4903 289.036 57.4903H289.024Z" fill="white"/>
<path d="M310.004 57.4902C311.483 57.4902 312.712 57.986 313.697 58.9776C314.683 59.975 315.164 61.2202 315.164 62.7077C315.164 64.1951 314.677 65.4519 313.703 66.455C312.729 67.4639 311.5 67.9655 310.022 67.9655C309.048 67.9655 308.184 67.7579 307.43 67.3428C306.677 66.9277 306.091 66.3455 305.662 65.6075V67.7291H304.671V52.9761H305.662V59.8251C306.097 59.0929 306.694 58.5222 307.436 58.1071C308.178 57.692 309.042 57.4844 310.016 57.4844H309.999L310.004 57.4902ZM309.917 67.0546C311.146 67.0546 312.161 66.6395 312.967 65.8208C313.772 65.0022 314.167 63.976 314.167 62.7307C314.167 61.4854 313.772 60.4477 312.978 59.6291C312.184 58.8104 311.164 58.3953 309.912 58.3953C308.729 58.3953 307.726 58.8104 306.891 59.6464C306.056 60.4823 305.639 61.5143 305.639 62.725C305.639 63.9356 306.056 64.9676 306.891 65.8035C307.726 66.6453 308.729 67.0546 309.912 67.0546L309.923 67.0431L309.917 67.0546Z" fill="white"/>
<path d="M328.213 57.7148V67.7232H327.222V65.6592C326.857 66.3626 326.341 66.9218 325.663 67.3484C324.984 67.775 324.184 67.9826 323.239 67.9826C321.999 67.9826 321.007 67.5963 320.271 66.8296C319.535 66.0628 319.17 64.9962 319.17 63.6299V57.7264H320.161V63.5319C320.161 64.6388 320.439 65.4978 320.996 66.1089C321.552 66.72 322.335 67.0256 323.349 67.0256C324.503 67.0256 325.436 66.6335 326.161 65.8495C326.886 65.0654 327.245 64.0507 327.245 62.7997V57.7264L328.219 57.7148H328.213Z" fill="white"/>
<path d="M336.579 67.9599C335.506 67.9599 334.567 67.6716 333.738 67.1124C332.915 66.5474 332.381 65.8268 332.121 64.962L333.095 64.7026C333.286 65.3655 333.697 65.919 334.347 66.3629C334.99 66.8068 335.738 67.0259 336.579 67.0259C337.419 67.0259 338.155 66.8357 338.712 66.4552C339.269 66.0689 339.547 65.6077 339.547 65.0542C339.547 64.6103 339.419 64.2644 339.17 64.0165C338.921 63.7686 338.497 63.5611 337.889 63.3939L334.88 62.506C334.196 62.2985 333.651 62.0218 333.234 61.6643C332.816 61.3069 332.608 60.8053 332.608 60.1654C332.608 59.4332 332.944 58.8048 333.622 58.2686C334.295 57.7382 335.129 57.4673 336.115 57.4673C337.147 57.4673 338.022 57.7037 338.735 58.1764C339.448 58.6491 339.964 59.243 340.271 59.9636L339.321 60.2403C339.129 59.7272 338.747 59.2948 338.161 58.9374C337.576 58.58 336.88 58.407 336.074 58.407C335.268 58.407 334.706 58.5973 334.248 58.972C333.79 59.3467 333.564 59.7618 333.564 60.2173C333.564 60.5805 333.703 60.8687 333.97 61.0763C334.237 61.2838 334.642 61.4741 335.193 61.6413L338.242 62.5522C339.761 62.9961 340.526 63.8262 340.538 65.0369C340.538 65.8844 340.161 66.5878 339.408 67.147C338.654 67.712 337.709 67.9887 336.567 67.9887L336.584 67.9714L336.579 67.9599Z" fill="white"/>
<path d="M345.379 55.6336C345.153 55.6336 344.961 55.5529 344.805 55.3972C344.648 55.2415 344.567 55.0398 344.567 54.8149C344.567 54.5901 344.648 54.4114 344.805 54.2615C344.961 54.1116 345.164 54.0366 345.39 54.0366C345.616 54.0366 345.819 54.1173 345.976 54.2615C346.132 54.4114 346.214 54.5843 346.214 54.7919C346.214 55.0167 346.132 55.2069 345.976 55.3626C345.819 55.5183 345.628 55.599 345.402 55.599L345.379 55.6278V55.6336ZM344.892 57.7551H345.883V67.7635H344.892V57.7551Z" fill="white"/>
<path d="M355.756 57.4902C356.996 57.4902 357.988 57.8765 358.724 58.6433C359.46 59.41 359.825 60.4766 359.825 61.8429V67.7464H358.834V61.9409C358.834 60.834 358.556 59.975 357.999 59.3639C357.443 58.7528 356.66 58.4472 355.64 58.4472C354.486 58.4472 353.553 58.8335 352.84 59.6118C352.127 60.3901 351.767 61.4105 351.767 62.6616V67.7349H350.776V57.7266H351.767V59.7905C352.132 59.0929 352.66 58.528 353.344 58.1129C354.028 57.6978 354.834 57.4902 355.767 57.4902H355.756Z" fill="white"/>
<path d="M369.089 67.9828C367.559 67.9828 366.312 67.4985 365.327 66.5415C364.341 65.5845 363.86 64.3104 363.86 62.7192C363.86 61.2318 364.335 59.9865 365.28 58.9892C366.225 57.9918 367.443 57.4902 368.933 57.4902C370.423 57.4902 371.68 57.963 372.567 58.9027C373.449 59.8424 373.895 61.0243 373.895 62.454C373.895 62.7019 373.883 62.9095 373.878 63.0767H364.898C364.95 64.2701 365.356 65.2271 366.121 65.9592C366.886 66.6914 367.878 67.0546 369.101 67.0546C370.005 67.0546 370.788 66.8355 371.443 66.4032C372.098 65.9708 372.562 65.4346 372.852 64.8062L373.814 65.0945C373.408 65.9362 372.811 66.6222 372.028 67.1642C371.246 67.7061 370.26 67.9828 369.083 67.9828H369.101H369.089ZM372.892 62.16C372.811 61.0243 372.428 60.1191 371.733 59.4331C371.037 58.7528 370.104 58.4069 368.927 58.4069C367.75 58.4069 366.875 58.7701 366.121 59.5023C365.367 60.2344 364.962 61.1223 364.892 62.1773L372.904 62.16H372.892Z" fill="white"/>
<path d="M381.542 67.9599C380.469 67.9599 379.53 67.6716 378.701 67.1124C377.878 66.5474 377.344 65.8268 377.083 64.962L378.057 64.7026C378.249 65.3655 378.66 65.919 379.31 66.3629C379.953 66.8068 380.701 67.0259 381.542 67.0259C382.382 67.0259 383.118 66.8357 383.675 66.4552C384.231 66.0689 384.51 65.6077 384.51 65.0542C384.51 64.6103 384.382 64.2644 384.133 64.0165C383.884 63.7686 383.46 63.5611 382.852 63.3939L379.843 62.506C379.159 62.2985 378.614 62.0218 378.197 61.6643C377.779 61.3069 377.57 60.8053 377.57 60.1654C377.57 59.4332 377.907 58.8048 378.585 58.2686C379.257 57.7382 380.092 57.4673 381.078 57.4673C382.11 57.4673 382.985 57.7037 383.698 58.1764C384.411 58.6491 384.927 59.243 385.234 59.9636L384.284 60.2403C384.092 59.7272 383.71 59.2948 383.124 58.9374C382.539 58.58 381.843 58.407 381.037 58.407C380.231 58.407 379.669 58.5973 379.211 58.972C378.753 59.3467 378.527 59.7618 378.527 60.2173C378.527 60.5805 378.666 60.8687 378.933 61.0763C379.199 61.2838 379.605 61.4741 380.156 61.6413L383.205 62.5522C384.724 62.9961 385.489 63.8262 385.501 65.0369C385.501 65.8844 385.124 66.5878 384.371 67.147C383.617 67.712 382.672 67.9887 381.53 67.9887L381.547 67.9714L381.542 67.9599Z" fill="white"/>
<path d="M393.13 67.9599C392.058 67.9599 391.119 67.6716 390.29 67.1124C389.466 66.5474 388.933 65.8268 388.672 64.962L389.646 64.7026C389.837 65.3655 390.249 65.919 390.898 66.3629C391.542 66.8068 392.29 67.0259 393.13 67.0259C393.971 67.0259 394.707 66.8357 395.264 66.4552C395.82 66.0689 396.098 65.6077 396.098 65.0542C396.098 64.6103 395.971 64.2644 395.721 64.0165C395.472 63.7686 395.049 63.5611 394.44 63.3939L391.432 62.506C390.748 62.2985 390.203 62.0218 389.785 61.6643C389.368 61.3069 389.159 60.8053 389.159 60.1654C389.159 59.4332 389.495 58.8048 390.174 58.2686C390.846 57.7382 391.681 57.4673 392.666 57.4673C393.698 57.4673 394.574 57.7037 395.287 58.1764C396 58.6491 396.516 59.243 396.823 59.9636L395.872 60.2403C395.681 59.7272 395.298 59.2948 394.713 58.9374C394.127 58.58 393.432 58.407 392.626 58.407C391.82 58.407 391.258 58.5973 390.8 58.972C390.342 59.3467 390.116 59.7618 390.116 60.2173C390.116 60.5805 390.255 60.8687 390.521 61.0763C390.788 61.2838 391.194 61.4741 391.745 61.6413L394.794 62.5522C396.313 62.9961 397.078 63.8262 397.09 65.0369C397.09 65.8844 396.713 66.5878 395.959 67.147C395.206 67.712 394.261 67.9887 393.119 67.9887L393.136 67.9714L393.13 67.9599Z" fill="white"/>
<path d="M32.9744 8.14056C34.1222 8.16938 35.0788 7.48333 35.102 6.61279C35.1251 5.73649 34.2092 5.00431 33.0613 4.97549C31.9135 4.94666 30.957 5.63271 30.9338 6.50325C30.9106 7.37955 31.8265 8.11173 32.9744 8.14056Z" fill="white"/>
<path d="M16.4872 12.6718C17.9712 12.1357 18.8756 10.8846 18.5046 9.86995C18.1336 8.85528 16.6321 8.46902 15.148 9.00517C13.6639 9.54133 12.7596 10.7924 13.1306 11.807C13.5016 12.8217 15.0031 13.208 16.4872 12.6718Z" fill="white"/>
<path d="M66.5517 31.1031C67.5024 30.4401 67.543 28.8547 66.6328 27.5691C65.7227 26.2834 64.2154 25.7819 63.2647 26.4506C62.3139 27.1194 62.2734 28.699 63.1835 29.9847C64.0937 31.2703 65.6009 31.7719 66.5517 31.1031Z" fill="white"/>
<path d="M54.8878 15.9407C56.2385 16.742 57.7922 16.6325 58.3545 15.6928C58.9226 14.7531 58.2849 13.3406 56.9342 12.5392C55.5834 11.7379 54.0298 11.8474 53.4675 12.7871C52.8994 13.7269 53.537 15.1393 54.8878 15.9407Z" fill="white"/>
<path d="M4.11598 31.4433C4.77685 30.1346 4.4754 28.653 3.43191 28.1341C2.39421 27.6152 1.01448 28.2494 0.347807 29.5581C-0.313072 30.8668 -0.0116181 32.3484 1.03187 32.8673C2.06957 33.3862 3.4493 32.752 4.11598 31.4433Z" fill="white"/>
<path d="M39.1367 26.0009C39.1367 23.8505 37.0903 22.1094 34.5627 22.1094C32.0352 22.1094 29.9888 23.8505 29.9888 26.0009C29.9888 28.1513 32.0352 29.8923 34.5627 29.8923C37.0903 29.8923 39.1367 28.1513 39.1367 26.0009Z" fill="white"/>
<path d="M68.3951 40.754C68.2212 38.4422 66.2212 36.7126 63.9255 36.8856C62.911 36.9605 62.0066 37.3987 61.3342 38.0617L56.4819 35.1733C56.6558 34.5565 56.7544 33.9108 56.7544 33.2362C56.7544 31.9449 56.4007 30.7284 55.792 29.6907C57.9022 28.1975 58.5979 26.2085 58.8298 25.044C59.3341 24.7903 59.7573 24.4156 60.0356 23.9255C61.0269 22.2133 59.9834 19.7631 57.6935 18.4544C56.5283 17.7856 55.2587 17.5377 54.1688 17.6934C52.8007 16.8632 50.047 15.5315 46.1281 15.2663C45.7571 14.1651 44.9049 13.1504 43.7339 12.4183C44.1339 11.7956 44.5165 11.2018 44.8412 10.7003C46.1165 10.879 47.247 10.4062 47.5021 9.52416C47.7919 8.52103 46.818 7.36223 45.3339 6.94137C43.8498 6.52052 42.4121 6.99326 42.1223 7.9964C41.9484 8.61327 42.244 9.28779 42.8411 9.81242C42.5049 10.3313 42.1223 10.9309 41.7281 11.542C41.5947 11.5074 41.4556 11.4728 41.3223 11.444C40.0469 11.1672 38.7947 11.2191 37.7106 11.542C35.8439 10.2217 33.0903 8.99377 29.1134 8.58444C28.4583 7.41988 26.8409 6.82607 25.1829 7.2354C23.264 7.70814 22.0235 9.33968 22.4061 10.8847C22.4293 10.977 22.4524 11.0635 22.4872 11.1442C21.3336 12.3606 20.0002 14.2689 18.6785 17.2495C18.4408 17.3359 18.2031 17.4282 17.9654 17.5377C17.0205 17.9701 16.2089 18.5466 15.548 19.2039C13.6929 18.7484 12.0871 18.5005 10.8291 18.3621C10.8291 18.0278 10.7363 17.7107 10.5566 17.4397C9.87835 16.4193 8.15079 16.3616 6.6957 17.3187C5.24061 18.2699 4.61451 19.8726 5.29278 20.8931C5.97105 21.9135 7.69861 21.9711 9.1537 21.0141C9.51313 20.7777 9.82038 20.5068 10.0697 20.207C11.1479 20.305 12.603 20.4953 14.3074 20.87C13.6755 22.0922 13.519 23.4124 13.9654 24.5943C11.9421 26.1163 10.4117 27.6613 9.39719 29.2237C8.81747 30.1173 8.48703 30.8898 8.30732 31.5067C8.16818 31.5471 8.02905 31.5989 7.88992 31.6566C5.28698 32.7174 4.06378 35.7326 5.16524 38.3961C6.22613 40.9731 9.06675 42.2702 11.6117 41.3939C13.1248 42.0454 15.7799 42.6219 20.4002 42.4432C20.8814 44.2938 22.064 45.8677 23.6467 46.8593C22.5742 49.2922 21.5017 51.7078 20.6205 53.6507C20.2669 53.5699 19.9075 53.5296 19.5307 53.5296C16.7944 53.5296 14.5741 55.7376 14.5741 58.4588C14.5741 61.18 16.7944 63.388 19.5307 63.388C22.2669 63.388 24.4873 61.18 24.4873 58.4588C24.4873 56.908 23.7684 55.5301 22.6495 54.625C23.2177 53.3739 23.9365 51.7712 24.8525 49.7073C25.1423 49.0501 25.4322 48.3928 25.7163 47.7471C26.325 47.9086 26.9627 47.9893 27.6177 47.9893C28.8293 47.9893 29.9772 47.701 30.9917 47.1879C34.2149 50.3299 36.899 51.8462 38.6788 52.5726C39.2121 55.5186 41.8034 57.7555 44.9223 57.7555C48.4296 57.7555 51.2702 54.9305 51.2702 51.4426C51.2702 50.5894 51.1021 49.7822 50.7949 49.0385C51.7746 46.3289 52.1398 42.1031 52.2674 39.7912C53.6761 39.2378 54.8703 38.2519 55.6703 36.9951L60.3022 39.7509C60.1399 40.2582 60.0646 40.8059 60.1109 41.3709C60.2849 43.6827 62.2849 45.4123 64.5806 45.2393C66.8705 45.0663 68.5864 43.0543 68.4125 40.7425L68.3951 40.754ZM23.9539 12.6258C24.7017 12.966 25.6293 13.0582 26.5742 12.8276C27.8612 12.5105 28.8467 11.6688 29.2409 10.683C31.6989 10.977 33.8613 11.6515 35.6236 12.6719C35.0091 13.2254 34.5744 13.9172 34.4004 14.7186C34.3888 14.782 34.3715 14.8512 34.3657 14.9146C30.1221 15.566 26.8177 16.8574 24.8235 17.8087C23.8728 17.1053 22.5974 16.7421 21.2118 16.771C22.209 14.7878 23.1655 13.4791 23.9655 12.6258H23.9539ZM20.1741 40.2121C17.1828 40.3216 15.1944 40.0852 13.8958 39.7739C15.0089 38.3615 15.3451 36.3783 14.5973 34.5565C13.8958 32.8557 12.4175 31.7142 10.7653 31.3856C10.8987 31.1031 11.0668 30.7861 11.2929 30.4401C11.9653 29.4082 13.1712 28.013 15.3277 26.3872C16.5103 27.2808 18.2147 27.6383 20.0002 27.3558C20.5452 29.4255 21.4437 32.089 22.893 34.862C21.322 36.1476 20.2843 38.0559 20.1741 40.2121ZM27.6119 33.1786C26.5105 33.1786 25.467 33.415 24.522 33.8416C23.1945 31.2646 22.3597 28.7625 21.8553 26.8312C21.9713 26.785 22.0872 26.7332 22.209 26.6813C25.438 25.1996 27.1714 22.0518 26.18 19.5555C28.0525 18.7081 30.9743 17.6242 34.6381 17.0477C35.3338 18.685 37.0787 20.0686 39.328 20.5529C40.8237 20.8758 42.2846 20.7489 43.4846 20.2704C44.847 22.2421 46.3948 24.6404 47.4151 26.5544C44.6093 27.4942 42.5919 30.1288 42.5919 33.2305C42.5919 33.9915 42.7136 34.7237 42.9397 35.4097L34.7541 38.4364C33.8323 35.3866 30.9859 33.1671 27.6177 33.1671L27.6119 33.1786ZM49.4731 47.0553C48.3195 45.8735 46.7079 45.1413 44.9165 45.1413C41.8614 45.1413 39.3164 47.2859 38.7077 50.1397C37.2526 49.4248 35.2352 48.1507 32.841 45.8619C34.1859 44.5475 35.0265 42.7315 35.0613 40.7137L43.9716 37.416C45.2644 39.1513 47.334 40.2755 49.6702 40.2755C49.9137 40.2755 50.1572 40.264 50.3891 40.2409C50.2499 42.276 49.9717 44.9799 49.4673 47.0496L49.4731 47.0553ZM49.6702 26.1912C49.5427 26.1912 49.4093 26.1912 49.2818 26.2028C48.789 25.2284 48.076 23.9659 47.0325 22.3228C46.3194 21.2044 45.6064 20.1436 45.0441 19.3249C45.6528 18.7715 46.0876 18.0854 46.2615 17.2841C46.2615 17.2783 46.2615 17.2725 46.2615 17.2668C48.7717 17.4801 50.7253 18.1777 52.0239 18.8003C51.9253 18.9156 51.8384 19.0424 51.7572 19.175C50.7659 20.8873 51.8094 23.3375 54.0993 24.6462C54.9341 25.1247 55.8152 25.3841 56.65 25.4418C56.3544 26.2546 55.7515 27.2924 54.5456 28.1226C53.2761 26.9234 51.5601 26.1912 49.6702 26.1912Z" fill="white"/>
<path d="M57.6703 58.0725C59.7738 58.0725 61.4791 56.3767 61.4791 54.2848C61.4791 52.1929 59.7738 50.4971 57.6703 50.4971C55.5668 50.4971 53.8616 52.1929 53.8616 54.2848C53.8616 56.3767 55.5668 58.0725 57.6703 58.0725Z" fill="white"/>
<path d="M6.67258 52.6589C8.6096 52.6589 10.1799 51.0974 10.1799 49.171C10.1799 47.2447 8.6096 45.6831 6.67258 45.6831C4.73555 45.6831 3.16528 47.2447 3.16528 49.171C3.16528 51.0974 4.73555 52.6589 6.67258 52.6589Z" fill="white"/>
<path d="M36.3716 67.4178C38.7472 67.4178 40.6731 65.5026 40.6731 63.14C40.6731 60.7775 38.7472 58.8623 36.3716 58.8623C33.9959 58.8623 32.0701 60.7775 32.0701 63.14C32.0701 65.5026 33.9959 67.4178 36.3716 67.4178Z" fill="white"/>
</g>
<defs>
<clipPath id="clip0_233_513">
<rect width="412" height="68" fill="white"/>
</clipPath>
</defs>
</svg>
