<svg width="412" height="68" fill="none" xmlns="http://www.w3.org/2000/svg"><g clip-path="url(#a)" fill="#fff"><path d="M111.422 18.57c0 8.365-6.087 13.427-16.157 13.427h-9.571V43.66h-5.53V5.143H95.27c10.07 0 16.157 5.061 16.157 13.427h-.006Zm-5.531 0c0-5.5-3.71-8.637-10.788-8.637H85.7v17.279h9.403c7.084 0 10.788-3.137 10.788-8.637v-.005ZM145.451 43.66l-8.353-11.83c-.777.057-1.606.109-2.435.109h-9.571v11.72h-5.531V5.144h15.108c10.069 0 16.156 5.061 16.156 13.427 0 5.944-3.095 10.233-8.521 12.158l9.182 12.932h-6.035Zm-.168-25.09c0-5.5-3.71-8.637-10.788-8.637h-9.403v17.33h9.403c7.084 0 10.788-3.193 10.788-8.693ZM156.628 24.398c0-11.282 8.742-19.7 20.638-19.7s20.528 8.366 20.528 19.7c0 11.335-8.742 19.7-20.528 19.7-11.785 0-20.638-8.417-20.638-19.7Zm35.636 0c0-8.526-6.418-14.799-14.998-14.799-8.58 0-15.107 6.273-15.107 14.8 0 8.526 6.417 14.798 15.107 14.798s14.998-6.272 14.998-14.799ZM229.221 43.66l-11.618-15.9-11.455 15.9h-6.366l14.551-19.752-13.669-18.765h6.307l10.847 14.799 10.736-14.8h6.029l-13.664 18.599L235.58 43.66h-6.365.006Z"/><path d="M255.279 30.342V43.66h-5.478V30.233l-15.38-25.09h5.919l12.394 20.305 12.447-20.305h5.478l-15.38 25.2ZM309.987 19.406l-10.476 21.06h-5.153l-10.424-21.06V43.66h-8.649V5.125h11.693l9.977 21.17 10.035-21.17h11.641V43.66h-8.65V19.406h.006ZM356.104 5.125v7.662h-19.293v7.939h17.351v7.333h-17.351v7.997h19.901v7.61h-28.545V5.126h27.937ZM394.023 10.17c3.693 3.361 5.542 8.042 5.542 14.027 0 5.984-1.803 10.734-5.403 14.222-3.6 3.494-9.102 5.235-16.493 5.235h-13.247V5.125h13.693c6.911 0 12.215 1.684 15.908 5.045Zm-6.348 22.905c2.122-1.983 3.188-4.872 3.188-8.654 0-3.781-1.06-6.699-3.188-8.74-2.128-2.04-5.386-3.06-9.786-3.06h-4.823V36.05h5.49c3.954 0 6.991-.992 9.119-2.975ZM407.443 9.074c-2.527 0-4.574-2.035-4.568-4.543.012-2.496 2.064-4.531 4.568-4.531A4.55 4.55 0 0 1 412 4.554a4.532 4.532 0 0 1-4.557 4.52Zm-3.884-4.543a3.884 3.884 0 0 0 3.879 3.88c2.139 0 3.89-1.74 3.895-3.868 0-2.122-1.739-3.857-3.866-3.863-2.157 0-3.896 1.718-3.902 3.851h-.006Z"/><path d="M407.467 5.016h-.76V6.26h-.696V2.704h1.74c.365 0 .661.115.887.352.226.236.336.501.336.801 0 .242-.07.461-.209.657a1.16 1.16 0 0 1-.574.427l.887 1.314h-.806l-.805-1.245v.006Zm-.766-.611h1.003c.18 0 .319-.052.429-.156a.505.505 0 0 0 .163-.386.48.48 0 0 0-.163-.375.565.565 0 0 0-.406-.155h-1.026V4.41v-.006ZM91.462 57.461c1.2 0 2.157.364 2.846 1.107.696.738 1.044 1.77 1.044 3.079v6.06h-.991v-5.985c0-1.038-.261-1.845-.777-2.427-.516-.583-1.252-.877-2.192-.877-.939 0-1.727.358-2.353 1.067-.626.71-.933 1.62-.933 2.733v5.5h-.992v-5.985c0-1.037-.238-1.844-.724-2.427-.487-.582-1.171-.876-2.064-.876-.991 0-1.815.386-2.464 1.153-.643.773-.974 1.764-.974 3.004v5.154h-.991V57.732h.991v1.926a4.114 4.114 0 0 1 1.426-1.562c.615-.398 1.328-.594 2.145-.594 1.658 0 2.771.738 3.334 2.22.295-.664.765-1.194 1.397-1.61.632-.414 1.408-.622 2.313-.622l-.052-.029h.011ZM104.639 67.983c-1.53 0-2.777-.484-3.762-1.442-.986-.956-1.467-2.23-1.467-3.822 0-1.487.475-2.733 1.42-3.73.945-.997 2.163-1.499 3.653-1.499 1.489 0 2.747.473 3.634 1.413.882.94 1.328 2.121 1.328 3.551 0 .248-.012.456-.017.623h-8.98c.052 1.193.458 2.15 1.223 2.882.765.732 1.756 1.096 2.98 1.096.904 0 1.687-.22 2.342-.652.655-.432 1.119-.968 1.408-1.597l.963.288a5.267 5.267 0 0 1-1.786 2.07c-.782.542-1.768.819-2.945.819h.018-.012Zm3.803-5.823c-.081-1.136-.464-2.04-1.159-2.727-.696-.68-1.629-1.026-2.806-1.026s-2.052.363-2.806 1.095-1.16 1.62-1.229 2.675l8.012-.017h-.012ZM118.489 57.49c1.24 0 2.231.386 2.968 1.153.736.767 1.101 1.834 1.101 3.2v5.903h-.991v-5.805c0-1.107-.278-1.966-.835-2.577-.556-.611-1.339-.917-2.359-.917-1.154 0-2.087.386-2.8 1.165-.713.778-1.073 1.798-1.073 3.05v5.073h-.991V57.727h.991v2.064a4.229 4.229 0 0 1 1.577-1.678c.684-.415 1.49-.623 2.423-.623h-.011ZM129.266 58.666v6.227c0 1.355.614 2.023 1.843 2.023.516 0 1.044-.126 1.571-.386l.296.928a4.963 4.963 0 0 1-1.966.427c-.904 0-1.588-.265-2.052-.802-.463-.53-.695-1.262-.695-2.202v-6.226h-2.134v-.928h2.134v-3.552h1.003v3.552h3.71v.928l-3.71.011ZM140.941 67.995c-1.519 0-2.777-.502-3.791-1.51-1.015-1.01-1.519-2.26-1.519-3.754 0-1.493.504-2.733 1.519-3.73 1.014-.997 2.284-1.499 3.803-1.499 1.519 0 2.748.496 3.75 1.487 1.003.992 1.508 2.243 1.508 3.73 0 1.488-.499 2.745-1.496 3.753-.997 1.01-2.255 1.511-3.751 1.511l-.017.011h-.006Zm0-.929c1.2 0 2.215-.415 3.038-1.233.823-.819 1.229-1.845 1.229-3.067 0-1.223-.406-2.249-1.229-3.08-.823-.83-1.838-1.244-3.038-1.244-1.2 0-2.243.415-3.067 1.245-.823.83-1.24 1.856-1.24 3.079 0 1.222.417 2.248 1.24 3.067.824.818 1.844 1.222 3.067 1.222v.011ZM151.318 59.6c.307-.72.783-1.262 1.432-1.626.643-.363 1.42-.484 2.325-.363v.928c-1.154-.126-2.064.156-2.743.871-.672.71-1.014 1.868-1.014 3.476v4.855h-.991V57.732h.991v1.874-.006ZM159.324 55.634a.786.786 0 0 1-.574-.237.801.801 0 0 1-.238-.582c0-.225.081-.404.238-.553a.827.827 0 0 1 .586-.225.85.85 0 0 1 .585.224c.157.15.238.323.238.53a.775.775 0 0 1-.238.572.785.785 0 0 1-.574.236l-.023.029v.006Zm-.487 2.121h.991v10.008h-.991V57.755ZM169.173 68c-1.478 0-2.701-.502-3.669-1.51-.974-1.01-1.461-2.26-1.461-3.754 0-1.493.487-2.732 1.461-3.73.974-.997 2.203-1.499 3.681-1.499.974 0 1.838.208 2.58.623a4.745 4.745 0 0 1 1.774 1.706v-2.104h.991V67.74h-.991V65.62a4.452 4.452 0 0 1-1.757 1.735c-.754.415-1.617.623-2.591.623l-.018.017V68Zm.111-.888c1.182 0 2.185-.415 3.014-1.251.835-.842 1.252-1.868 1.252-3.079 0-1.21-.417-2.242-1.252-3.078-.835-.842-1.838-1.251-3.014-1.251-1.241 0-2.261.415-3.056 1.234-.794.818-1.188 1.844-1.188 3.09 0 1.245.394 2.271 1.2 3.09.806.818 1.814 1.222 3.049 1.222v.029l-.005-.006ZM190.797 67.983c-1.531 0-2.777-.484-3.763-1.442-.985-.956-1.466-2.23-1.466-3.822 0-1.487.475-2.733 1.42-3.73.945-.997 2.162-1.499 3.652-1.499 1.49 0 2.748.473 3.635 1.413.881.94 1.328 2.121 1.328 3.551 0 .248-.012.456-.018.623h-8.98c.053 1.193.458 2.15 1.224 2.882.765.732 1.756 1.096 2.979 1.096.905 0 1.687-.22 2.342-.652.656-.432 1.119-.968 1.409-1.597l.963.288a5.267 5.267 0 0 1-1.786 2.07c-.783.542-1.768.819-2.945.819h.017-.011Zm3.803-5.823c-.081-1.136-.464-2.04-1.16-2.727-.695-.68-1.629-1.026-2.806-1.026-1.176 0-2.052.363-2.805 1.095-.754.732-1.16 1.62-1.229 2.675l8.011-.017h-.011ZM211.209 57.461c1.2 0 2.156.364 2.846 1.107.696.738 1.044 1.77 1.044 3.079v6.06h-.992v-5.985c0-1.038-.261-1.845-.777-2.427-.515-.583-1.252-.877-2.191-.877-.939 0-1.727.358-2.354 1.067-.626.71-.933 1.62-.933 2.733v5.5h-.991v-5.985c0-1.037-.238-1.844-.725-2.427-.487-.582-1.171-.876-2.064-.876-.991 0-1.814.386-2.463 1.153-.644.773-.974 1.764-.974 3.004v5.154h-.992V57.732h.992v1.926a4.107 4.107 0 0 1 1.426-1.562c.614-.398 1.327-.594 2.145-.594 1.658 0 2.771.738 3.333 2.22.296-.664.765-1.194 1.397-1.61.632-.414 1.409-.622 2.313-.622l-.052-.029h.012ZM231.684 57.49c1.241 0 2.232.386 2.969 1.153.736.767 1.101 1.834 1.101 3.2v5.903h-.991v-5.805c0-1.107-.279-1.966-.835-2.577-.557-.611-1.339-.917-2.36-.917-1.153 0-2.087.387-2.8 1.165-.713.778-1.072 1.799-1.072 3.05v5.073h-.991V52.982h.991v6.809a4.229 4.229 0 0 1 1.577-1.678c.684-.415 1.49-.623 2.423-.623h-.012ZM245.018 67.983c-1.531 0-2.777-.484-3.762-1.442-.986-.956-1.467-2.23-1.467-3.822 0-1.487.475-2.733 1.42-3.73.945-.997 2.162-1.499 3.652-1.499 1.49 0 2.748.473 3.635 1.413.881.94 1.328 2.121 1.328 3.551 0 .248-.012.456-.018.623h-8.979c.052 1.193.457 2.15 1.223 2.882.765.732 1.756 1.096 2.979 1.096.905 0 1.687-.22 2.343-.652.655-.432 1.118-.968 1.408-1.597l.963.288a5.267 5.267 0 0 1-1.786 2.07c-.783.542-1.768.819-2.945.819h.017-.011Zm3.803-5.823c-.081-1.136-.464-2.04-1.16-2.727-.695-.68-1.629-1.026-2.805-1.026-1.177 0-2.053.363-2.806 1.095-.754.732-1.16 1.62-1.229 2.675l8.011-.017h-.011ZM258.346 68c-1.479 0-2.702-.502-3.67-1.51-.968-1.01-1.461-2.26-1.461-3.754 0-1.493.487-2.732 1.461-3.73.974-.997 2.203-1.499 3.681-1.499.974 0 1.838.208 2.58.623a4.745 4.745 0 0 1 1.774 1.706v-2.104h.991V67.74h-.991V65.62a4.452 4.452 0 0 1-1.757 1.735c-.753.415-1.617.623-2.591.623l-.017.017V68Zm.11-.888c1.182 0 2.185-.415 3.014-1.251.835-.842 1.252-1.868 1.252-3.079 0-1.21-.417-2.242-1.252-3.078-.835-.842-1.837-1.251-3.014-1.251-1.241 0-2.261.415-3.055 1.234-.795.818-1.189 1.844-1.189 3.09 0 1.245.394 2.271 1.2 3.09.806.818 1.815 1.222 3.05 1.222v.029l-.006-.006ZM268.485 52.982h.991v14.753h-.991V52.982ZM276.271 58.666v6.227c0 1.355.614 2.023 1.843 2.023.516 0 1.044-.126 1.571-.386l.296.928a4.962 4.962 0 0 1-1.965.427c-.905 0-1.589-.265-2.053-.802-.463-.53-.695-1.262-.695-2.202v-6.226h-2.134v-.928h2.134v-3.552h1.003v3.552h3.71v.928l-3.71.011ZM289.024 57.49c1.241 0 2.232.386 2.968 1.153.737.767 1.102 1.834 1.102 3.2v5.903h-.991v-5.805c0-1.107-.279-1.966-.835-2.577-.557-.611-1.339-.917-2.36-.917-1.153 0-2.087.387-2.8 1.165-.713.778-1.072 1.799-1.072 3.05v5.073h-.991V52.982h.991v6.809a4.229 4.229 0 0 1 1.577-1.678c.684-.415 1.49-.623 2.423-.623h-.012ZM310.004 57.49c1.479 0 2.708.496 3.693 1.488.986.997 1.467 2.242 1.467 3.73 0 1.487-.487 2.744-1.461 3.747-.974 1.009-2.203 1.51-3.681 1.51-.974 0-1.838-.207-2.592-.622a4.558 4.558 0 0 1-1.768-1.736v2.122h-.991V52.976h.991v6.85a4.689 4.689 0 0 1 1.774-1.719c.742-.415 1.606-.623 2.58-.623h-.017l.005.006Zm-.087 9.565c1.229 0 2.244-.416 3.05-1.234.805-.819 1.2-1.845 1.2-3.09 0-1.246-.395-2.283-1.189-3.102s-1.814-1.234-3.066-1.234c-1.183 0-2.186.415-3.021 1.251-.835.836-1.252 1.868-1.252 3.079 0 1.21.417 2.243 1.252 3.078.835.842 1.838 1.252 3.021 1.252l.011-.012-.006.012ZM328.213 57.715v10.008h-.991V65.66a4.295 4.295 0 0 1-1.559 1.69c-.679.426-1.479.634-2.424.634-1.24 0-2.232-.387-2.968-1.153-.736-.767-1.101-1.834-1.101-3.2v-5.904h.991v5.806c0 1.107.278 1.966.835 2.577.556.611 1.339.917 2.353.917 1.154 0 2.087-.392 2.812-1.176.725-.785 1.084-1.8 1.084-3.05v-5.074l.974-.011h-.006ZM336.579 67.96c-1.073 0-2.012-.288-2.841-.848-.823-.565-1.357-1.285-1.617-2.15l.974-.26c.191.663.602 1.217 1.252 1.66.643.445 1.391.664 2.232.664.84 0 1.576-.19 2.133-.57.557-.387.835-.848.835-1.402 0-.444-.128-.79-.377-1.038-.249-.247-.673-.455-1.281-.622l-3.009-.888c-.684-.208-1.229-.484-1.646-.842-.418-.357-.626-.859-.626-1.499 0-.732.336-1.36 1.014-1.896.673-.53 1.507-.802 2.493-.802 1.032 0 1.907.237 2.62.71.713.472 1.229 1.066 1.536 1.787l-.95.276c-.192-.513-.574-.945-1.16-1.303-.585-.357-1.281-.53-2.087-.53-.806 0-1.368.19-1.826.565-.458.375-.684.79-.684 1.245 0 .364.139.652.406.86.267.207.672.397 1.223.564l3.049.911c1.519.444 2.284 1.274 2.296 2.485 0 .847-.377 1.55-1.13 2.11-.754.565-1.699.842-2.841.842l.017-.018-.005-.011ZM345.379 55.634a.785.785 0 0 1-.574-.237.801.801 0 0 1-.238-.582c0-.225.081-.404.238-.553a.824.824 0 0 1 .585-.225c.226 0 .429.08.586.224a.71.71 0 0 1 .238.53.78.78 0 0 1-.238.572.786.786 0 0 1-.574.236l-.023.029v.006Zm-.487 2.121h.991v10.008h-.991V57.755ZM355.756 57.49c1.24 0 2.232.386 2.968 1.153.736.767 1.101 1.834 1.101 3.2v5.903h-.991v-5.805c0-1.107-.278-1.966-.835-2.577-.556-.611-1.339-.917-2.359-.917-1.154 0-2.087.386-2.8 1.165-.713.778-1.073 1.798-1.073 3.05v5.073h-.991V57.727h.991v2.064a4.229 4.229 0 0 1 1.577-1.678c.684-.415 1.49-.623 2.423-.623h-.011ZM369.089 67.983c-1.53 0-2.777-.484-3.762-1.442-.986-.956-1.467-2.23-1.467-3.822 0-1.487.475-2.733 1.42-3.73.945-.997 2.163-1.499 3.653-1.499 1.49 0 2.747.473 3.634 1.413.882.94 1.328 2.121 1.328 3.551 0 .248-.012.456-.017.623h-8.98c.052 1.193.458 2.15 1.223 2.882.765.732 1.757 1.096 2.98 1.096.904 0 1.687-.22 2.342-.652.655-.432 1.119-.968 1.409-1.597l.962.288a5.267 5.267 0 0 1-1.786 2.07c-.782.542-1.768.819-2.945.819h.018-.012Zm3.803-5.823c-.081-1.136-.464-2.04-1.159-2.727-.696-.68-1.629-1.026-2.806-1.026s-2.052.363-2.806 1.095-1.159 1.62-1.229 2.675l8.012-.017h-.012ZM381.542 67.96c-1.073 0-2.012-.288-2.841-.848-.823-.565-1.357-1.285-1.618-2.15l.974-.26c.192.663.603 1.217 1.253 1.66.643.445 1.391.664 2.232.664.84 0 1.576-.19 2.133-.57.556-.387.835-.848.835-1.402 0-.444-.128-.79-.377-1.038-.249-.247-.673-.455-1.281-.622l-3.009-.888c-.684-.208-1.229-.484-1.646-.842-.418-.357-.627-.859-.627-1.499 0-.732.337-1.36 1.015-1.896.672-.53 1.507-.802 2.493-.802 1.032 0 1.907.237 2.62.71.713.472 1.229 1.066 1.536 1.787l-.95.276c-.192-.513-.574-.945-1.16-1.303-.585-.357-1.281-.53-2.087-.53-.806 0-1.368.19-1.826.565-.458.375-.684.79-.684 1.245 0 .364.139.652.406.86.266.207.672.397 1.223.564l3.049.911c1.519.444 2.284 1.274 2.296 2.485 0 .847-.377 1.55-1.13 2.11-.754.565-1.699.842-2.841.842l.017-.018-.005-.011ZM393.13 67.96c-1.072 0-2.011-.288-2.84-.848-.824-.565-1.357-1.285-1.618-2.15l.974-.26c.191.663.603 1.217 1.252 1.66.644.445 1.392.664 2.232.664.841 0 1.577-.19 2.134-.57.556-.387.834-.848.834-1.402 0-.444-.127-.79-.377-1.038-.249-.247-.672-.455-1.281-.622l-3.008-.888c-.684-.208-1.229-.484-1.647-.842-.417-.357-.626-.859-.626-1.499 0-.732.336-1.36 1.015-1.896.672-.53 1.507-.802 2.492-.802 1.032 0 1.908.237 2.621.71.713.472 1.229 1.066 1.536 1.787l-.951.276c-.191-.513-.574-.945-1.159-1.303-.586-.357-1.281-.53-2.087-.53-.806 0-1.368.19-1.826.565-.458.375-.684.79-.684 1.245 0 .364.139.652.405.86.267.207.673.397 1.224.564l3.049.911c1.519.444 2.284 1.274 2.296 2.485 0 .847-.377 1.55-1.131 2.11-.753.565-1.698.842-2.84.842l.017-.018-.006-.011ZM32.974 8.14c1.148.03 2.105-.657 2.128-1.527.023-.877-.893-1.609-2.04-1.638-1.148-.028-2.105.658-2.128 1.528-.023.877.892 1.609 2.04 1.638ZM16.487 12.672c1.484-.536 2.389-1.787 2.018-2.802-.371-1.015-1.873-1.401-3.357-.865-1.484.536-2.388 1.787-2.017 2.802.37 1.015 1.872 1.401 3.356.865ZM66.552 31.103c.95-.663.991-2.248.08-3.534-.91-1.286-2.417-1.787-3.367-1.118-.951.668-.992 2.248-.081 3.534.91 1.285 2.417 1.787 3.368 1.118ZM54.888 15.94c1.35.802 2.904.693 3.467-.247.568-.94-.07-2.352-1.42-3.154-1.352-.801-2.905-.692-3.468.248-.568.94.07 2.352 1.42 3.154ZM4.116 31.443c.66-1.308.36-2.79-.684-3.309-1.038-.519-2.418.115-3.084 1.424-.661 1.309-.36 2.79.684 3.31 1.038.518 2.417-.116 3.084-1.425ZM39.137 26c0-2.15-2.047-3.89-4.574-3.89-2.528 0-4.574 1.74-4.574 3.89 0 2.151 2.046 3.892 4.574 3.892 2.527 0 4.574-1.74 4.574-3.891Z"/><path d="M68.395 40.754c-.174-2.312-2.174-4.041-4.47-3.868a4.113 4.113 0 0 0-2.59 1.176l-4.853-2.889a7.001 7.001 0 0 0-.69-5.483 7.427 7.427 0 0 0 3.038-4.646 2.819 2.819 0 0 0 1.206-1.119c.99-1.712-.053-4.162-2.343-5.47-1.165-.67-2.434-.917-3.524-.762-1.368-.83-4.122-2.162-8.04-2.427-.372-1.1-1.224-2.116-2.395-2.848.4-.622.782-1.216 1.107-1.718 1.276.179 2.406-.294 2.661-1.176.29-1.003-.684-2.162-2.168-2.583-1.484-.42-2.922.052-3.212 1.055-.174.617.122 1.292.72 1.816-.337.52-.72 1.119-1.114 1.73-.133-.035-.272-.07-.406-.098-1.275-.277-2.527-.225-3.611.098-1.867-1.32-4.62-2.548-8.598-2.958-.655-1.164-2.272-1.758-3.93-1.349-1.919.473-3.16 2.105-2.777 3.65.023.092.046.178.081.26C21.334 12.36 20 14.268 18.68 17.25a9.21 9.21 0 0 0-.714.288 8.355 8.355 0 0 0-2.417 1.666 36.609 36.609 0 0 0-4.719-.842c0-.334-.093-.651-.272-.922-.679-1.02-2.406-1.078-3.861-.121-1.455.95-2.081 2.554-1.403 3.574.678 1.02 2.406 1.078 3.86.121.36-.236.667-.507.917-.807 1.078.098 2.533.288 4.237.663-.632 1.222-.788 2.542-.342 3.724-2.023 1.522-3.553 3.067-4.568 4.63-.58.893-.91 1.666-1.09 2.283-.139.04-.278.092-.417.15-2.603 1.06-3.826 4.076-2.725 6.74 1.061 2.576 3.902 3.873 6.447 2.997 1.513.651 4.168 1.228 8.788 1.05a7.433 7.433 0 0 0 3.247 4.415 743.959 743.959 0 0 1-3.026 6.792 4.851 4.851 0 0 0-1.09-.121c-2.737 0-4.957 2.208-4.957 4.929s2.22 4.929 4.957 4.929c2.736 0 4.956-2.208 4.956-4.93 0-1.55-.719-2.928-1.837-3.833a640.307 640.307 0 0 0 2.203-4.918c.29-.657.58-1.314.863-1.96a7.405 7.405 0 0 0 1.902.242c1.211 0 2.36-.288 3.374-.801 3.223 3.142 5.907 4.658 7.687 5.385.533 2.946 3.124 5.182 6.243 5.182 3.508 0 6.348-2.825 6.348-6.312 0-.854-.168-1.66-.475-2.404.98-2.71 1.345-6.936 1.472-9.248a7.128 7.128 0 0 0 3.403-2.796l4.632 2.756a4.185 4.185 0 0 0-.191 1.62c.174 2.312 2.174 4.041 4.47 3.868 2.29-.173 4.005-2.185 3.831-4.496l-.017.011ZM23.954 12.626c.748.34 1.675.432 2.62.202 1.287-.317 2.273-1.16 2.667-2.145 2.458.294 4.62.969 6.383 1.989-.615.553-1.05 1.245-1.224 2.047-.011.063-.029.132-.034.196-4.244.651-7.548 1.942-9.543 2.894-.95-.704-2.226-1.067-3.611-1.038.997-1.983 1.954-3.292 2.753-4.145h-.011Zm-3.78 27.586c-2.991.11-4.98-.127-6.278-.438a5.219 5.219 0 0 0 .701-5.218 5.268 5.268 0 0 0-3.832-3.17c.134-.283.302-.6.528-.946.672-1.032 1.878-2.427 4.035-4.053 1.182.894 2.887 1.251 4.672.969a36.312 36.312 0 0 0 2.893 7.506 7.392 7.392 0 0 0-2.719 5.35Zm7.438-7.033a7.482 7.482 0 0 0-3.09.663 34.567 34.567 0 0 1-2.667-7.01c.116-.047.232-.099.354-.15 3.229-1.482 4.962-4.63 3.971-7.127a33.233 33.233 0 0 1 8.458-2.507c.696 1.637 2.44 3.02 4.69 3.505 1.496.323 2.957.196 4.157-.283 1.362 1.972 2.91 4.37 3.93 6.284-2.806.94-4.823 3.575-4.823 6.677 0 .76.122 1.493.348 2.179l-8.186 3.026a7.446 7.446 0 0 0-7.136-5.269l-.006.012Zm21.861 13.876a6.34 6.34 0 0 0-4.556-1.914 6.34 6.34 0 0 0-6.21 4.999c-1.454-.715-3.472-1.99-5.866-4.278a7.348 7.348 0 0 0 2.22-5.148l8.91-3.298a7.088 7.088 0 0 0 5.7 2.86c.243 0 .486-.012.718-.035-.14 2.035-.417 4.739-.922 6.809l.006.005Zm.197-20.864c-.127 0-.26 0-.388.012-.493-.975-1.206-2.237-2.25-3.88a107.371 107.371 0 0 0-1.988-2.998c.609-.553 1.044-1.24 1.218-2.04v-.018c2.51.213 4.463.91 5.762 1.533a2.917 2.917 0 0 0-.267.375c-.991 1.712.052 4.162 2.342 5.471a5.992 5.992 0 0 0 2.551.796c-.296.813-.898 1.85-2.104 2.68a7.073 7.073 0 0 0-4.876-1.93Z"/><path d="M57.67 58.072c2.104 0 3.81-1.695 3.81-3.787 0-2.092-1.706-3.788-3.81-3.788-2.103 0-3.808 1.696-3.808 3.788 0 2.092 1.705 3.788 3.808 3.788ZM6.673 52.659c1.937 0 3.507-1.562 3.507-3.488s-1.57-3.488-3.507-3.488-3.508 1.562-3.508 3.488 1.57 3.488 3.508 3.488ZM36.372 67.418c2.375 0 4.301-1.915 4.301-4.278 0-2.362-1.926-4.278-4.301-4.278-2.376 0-4.302 1.916-4.302 4.278 0 2.363 1.926 4.278 4.302 4.278Z"/></g><defs><clipPath id="a"><path fill="#fff" d="M0 0h412v68H0z"/></clipPath></defs></svg>