<svg width="223" height="223" fill="none" xmlns="http://www.w3.org/2000/svg"><g clip-path="url(#a)"><path d="M208.39 0H14.61C6.541 0 0 6.541 0 14.61v193.78C0 216.459 6.541 223 14.61 223h193.78c8.069 0 14.61-6.541 14.61-14.61V14.61C223 6.541 216.459 0 208.39 0Z" fill="#fff"/><path d="M23.069 15.38h-7.69v7.689h7.69v-7.69ZM30.759 15.38h-7.69v7.689h7.69v-7.69Z" fill="#061327"/><path d="M38.448 15.38h-7.69v7.689h7.69v-7.69ZM46.138 15.38h-7.69v7.689h7.69v-7.69ZM53.828 15.38h-7.69v7.689h7.69v-7.69Z" fill="#061327"/><path d="M61.517 15.38h-7.69v7.689h7.69v-7.69Z" fill="#061327"/><path d="M69.207 15.38h-7.69v7.689h7.69v-7.69ZM107.655 15.38h-7.69v7.689h7.69v-7.69ZM115.345 15.38h-7.69v7.689h7.69v-7.69ZM130.724 15.38h-7.69v7.689h7.69v-7.69ZM146.103 15.38h-7.689v7.689h7.689v-7.69ZM161.483 15.38h-7.69v7.689h7.69v-7.69ZM169.172 15.38h-7.689v7.689h7.689v-7.69ZM176.862 15.38h-7.69v7.689h7.69v-7.69ZM184.552 15.38h-7.69v7.689h7.69v-7.69ZM192.241 15.38h-7.689v7.689h7.689v-7.69ZM199.931 15.38h-7.69v7.689h7.69v-7.69ZM207.621 15.38h-7.69v7.689h7.69v-7.69ZM23.069 23.069h-7.69v7.69h7.69v-7.69Z" fill="#061327"/><path d="M69.207 23.069h-7.69v7.69h7.69v-7.69ZM92.276 23.069h-7.69v7.69h7.69v-7.69ZM99.966 23.069h-7.69v7.69h7.69v-7.69ZM123.034 23.069h-7.689v7.69h7.689v-7.69Z" fill="#061327"/><path d="M130.724 23.069h-7.69v7.69h7.69v-7.69ZM146.103 23.069h-7.689v7.69h7.689v-7.69ZM161.483 23.069h-7.69v7.69h7.69v-7.69ZM207.621 23.069h-7.69v7.69h7.69v-7.69ZM23.069 30.759h-7.69v7.69h7.69v-7.69ZM38.448 30.759h-7.69v7.69h7.69v-7.69ZM46.138 30.759h-7.69v7.69h7.69v-7.69ZM53.828 30.759h-7.69v7.69h7.69v-7.69ZM69.207 30.759h-7.69v7.69h7.69v-7.69ZM115.345 30.759h-7.69v7.69h7.69v-7.69Z" fill="#061327"/><path d="M130.724 30.759h-7.69v7.69h7.69v-7.69ZM146.103 30.759h-7.689v7.69h7.689v-7.69ZM161.483 30.759h-7.69v7.69h7.69v-7.69ZM176.862 30.759h-7.69v7.69h7.69v-7.69ZM184.552 30.759h-7.69v7.69h7.69v-7.69ZM192.241 30.759h-7.689v7.69h7.689v-7.69ZM207.621 30.759h-7.69v7.69h7.69v-7.69ZM23.069 38.448h-7.69v7.69h7.69v-7.69ZM38.448 38.448h-7.69v7.69h7.69v-7.69ZM46.138 38.448h-7.69v7.69h7.69v-7.69ZM53.828 38.448h-7.69v7.69h7.69v-7.69ZM69.207 38.448h-7.69v7.69h7.69v-7.69ZM84.586 38.448h-7.69v7.69h7.69v-7.69ZM115.345 38.448h-7.69v7.69h7.69v-7.69Z" fill="#061327"/><path d="M123.034 38.448h-7.689v7.69h7.689v-7.69ZM138.414 38.448h-7.69v7.69h7.69v-7.69ZM146.103 38.448h-7.689v7.69h7.689v-7.69ZM161.483 38.448h-7.69v7.69h7.69v-7.69ZM176.862 38.448h-7.69v7.69h7.69v-7.69ZM184.552 38.448h-7.69v7.69h7.69v-7.69ZM192.241 38.448h-7.689v7.69h7.689v-7.69ZM207.621 38.448h-7.69v7.69h7.69v-7.69ZM23.069 46.138h-7.69v7.69h7.69v-7.69ZM38.448 46.138h-7.69v7.69h7.69v-7.69ZM46.138 46.138h-7.69v7.69h7.69v-7.69ZM53.828 46.138h-7.69v7.69h7.69v-7.69ZM69.207 46.138h-7.69v7.69h7.69v-7.69ZM84.586 46.138h-7.69v7.69h7.69v-7.69ZM92.276 46.138h-7.69v7.69h7.69v-7.69ZM146.103 46.138h-7.689v7.69h7.689v-7.69ZM161.483 46.138h-7.69v7.69h7.69v-7.69ZM176.862 46.138h-7.69v7.69h7.69v-7.69ZM184.552 46.138h-7.69v7.69h7.69v-7.69ZM192.241 46.138h-7.689v7.69h7.689v-7.69ZM207.621 46.138h-7.69v7.69h7.69v-7.69ZM23.069 53.828h-7.69v7.69h7.69v-7.69ZM69.207 53.828h-7.69v7.69h7.69v-7.69ZM107.655 53.828h-7.69v7.69h7.69v-7.69ZM115.345 53.828h-7.69v7.69h7.69v-7.69ZM130.724 53.828h-7.69v7.69h7.69v-7.69ZM161.483 53.828h-7.69v7.69h7.69v-7.69ZM207.621 53.828h-7.69v7.69h7.69v-7.69Z" fill="#061327"/><path d="M23.069 61.517h-7.69v7.69h7.69v-7.69ZM30.759 61.517h-7.69v7.69h7.69v-7.69Z" fill="#061327"/><path d="M38.448 61.517h-7.69v7.69h7.69v-7.69ZM46.138 61.517h-7.69v7.69h7.69v-7.69ZM53.828 61.517h-7.69v7.69h7.69v-7.69Z" fill="#061327"/><path d="M61.517 61.517h-7.69v7.69h7.69v-7.69Z" fill="#061327"/><path d="M69.207 61.517h-7.69v7.69h7.69v-7.69ZM84.586 61.517h-7.69v7.69h7.69v-7.69ZM99.966 61.517h-7.69v7.69h7.69v-7.69ZM115.345 61.517h-7.69v7.69h7.69v-7.69ZM130.724 61.517h-7.69v7.69h7.69v-7.69ZM146.103 61.517h-7.689v7.69h7.689v-7.69ZM161.483 61.517h-7.69v7.69h7.69v-7.69ZM169.172 61.517h-7.689v7.69h7.689v-7.69ZM176.862 61.517h-7.69v7.69h7.69v-7.69ZM184.552 61.517h-7.69v7.69h7.69v-7.69ZM192.241 61.517h-7.689v7.69h7.689v-7.69ZM199.931 61.517h-7.69v7.69h7.69v-7.69ZM207.621 61.517h-7.69v7.69h7.69v-7.69Z" fill="#061327"/><path d="M99.966 69.207h-7.69v7.69h7.69v-7.69Z" fill="#061327"/><path d="M107.655 69.207h-7.69v7.69h7.69v-7.69ZM146.103 69.207h-7.689v7.69h7.689v-7.69ZM23.069 76.897h-7.69v7.69h7.69v-7.69ZM30.759 76.897h-7.69v7.69h7.69v-7.69ZM61.517 76.897h-7.69v7.69h7.69v-7.69Z" fill="#061327"/><path d="M69.207 76.897h-7.69v7.69h7.69v-7.69Z" fill="#061327"/><path d="M76.896 76.897h-7.69v7.69h7.69v-7.69ZM92.276 76.897h-7.69v7.69h7.69v-7.69ZM107.655 76.897h-7.69v7.69h7.69v-7.69ZM123.034 76.897h-7.689v7.69h7.689v-7.69Z" fill="#061327"/><path d="M130.724 76.897h-7.69v7.69h7.69v-7.69ZM138.414 76.897h-7.69v7.69h7.69v-7.69ZM146.103 76.897h-7.689v7.69h7.689v-7.69ZM176.862 76.897h-7.69v7.69h7.69v-7.69ZM184.552 76.897h-7.69v7.69h7.69v-7.69ZM23.069 84.586h-7.69v7.69h7.69v-7.69ZM30.759 84.586h-7.69v7.69h7.69v-7.69ZM46.138 84.586h-7.69v7.69h7.69v-7.69ZM53.828 84.586h-7.69v7.69h7.69v-7.69Z" fill="#061327"/><path d="M61.517 84.586h-7.69v7.69h7.69v-7.69ZM76.896 84.586h-7.69v7.69h7.69v-7.69ZM84.586 84.586h-7.69v7.69h7.69v-7.69ZM92.276 84.586h-7.69v7.69h7.69v-7.69ZM115.345 84.586h-7.69v7.69h7.69v-7.69ZM138.414 84.586h-7.69v7.69h7.69v-7.69ZM169.172 84.586h-7.689v7.69h7.689v-7.69ZM176.862 84.586h-7.69v7.69h7.69v-7.69ZM184.552 84.586h-7.69v7.69h7.69v-7.69ZM192.241 84.586h-7.689v7.69h7.689v-7.69ZM199.931 84.586h-7.69v7.69h7.69v-7.69ZM23.069 92.276h-7.69v7.69h7.69v-7.69ZM30.759 92.276h-7.69v7.69h7.69v-7.69Z" fill="#061327"/><path d="M38.448 92.276h-7.69v7.69h7.69v-7.69ZM61.517 92.276h-7.69v7.69h7.69v-7.69Z" fill="#061327"/><path d="M69.207 92.276h-7.69v7.69h7.69v-7.69ZM84.586 92.276h-7.69v7.69h7.69v-7.69ZM99.966 92.276h-7.69v7.69h7.69v-7.69ZM123.034 92.276h-7.689v7.69h7.689v-7.69ZM138.414 92.276h-7.69v7.69h7.69v-7.69ZM153.793 92.276h-7.689v7.69h7.689v-7.69ZM161.483 92.276h-7.69v7.69h7.69v-7.69ZM176.862 92.276h-7.69v7.69h7.69v-7.69ZM184.552 92.276h-7.69v7.69h7.69v-7.69ZM199.931 92.276h-7.69v7.69h7.69v-7.69ZM207.621 92.276h-7.69v7.69h7.69v-7.69ZM23.069 99.965h-7.69v7.69h7.69v-7.69ZM30.759 99.965h-7.69v7.69h7.69v-7.69Z" fill="#061327"/><path d="M38.448 99.965h-7.69v7.69h7.69v-7.69ZM46.138 99.965h-7.69v7.69h7.69v-7.69ZM53.828 99.965h-7.69v7.69h7.69v-7.69ZM84.586 99.965h-7.69v7.69h7.69v-7.69ZM92.276 99.965h-7.69v7.69h7.69v-7.69ZM115.345 99.965h-7.69v7.69h7.69v-7.69ZM138.414 99.965h-7.69v7.69h7.69v-7.69ZM146.103 99.965h-7.689v7.69h7.689v-7.69ZM153.793 99.965h-7.689v7.69h7.689v-7.69ZM161.483 99.965h-7.69v7.69h7.69v-7.69ZM169.172 99.965h-7.689v7.69h7.689v-7.69ZM176.862 99.965h-7.69v7.69h7.69v-7.69ZM184.552 99.965h-7.69v7.69h7.69v-7.69ZM207.621 99.965h-7.69v7.69h7.69v-7.69ZM30.759 107.655h-7.69v7.69h7.69v-7.69ZM46.138 107.655h-7.69v7.69h7.69v-7.69ZM53.828 107.655h-7.69v7.69h7.69v-7.69Z" fill="#061327"/><path d="M61.517 107.655h-7.69v7.69h7.69v-7.69Z" fill="#061327"/><path d="M69.207 107.655h-7.69v7.69h7.69v-7.69Z" fill="#061327"/><path d="M76.896 107.655h-7.69v7.69h7.69v-7.69ZM92.276 107.655h-7.69v7.69h7.69v-7.69ZM107.655 107.655h-7.69v7.69h7.69v-7.69ZM115.345 107.655h-7.69v7.69h7.69v-7.69ZM146.103 107.655h-7.689v7.69h7.689v-7.69ZM161.483 107.655h-7.69v7.69h7.69v-7.69ZM169.172 107.655h-7.689v7.69h7.689v-7.69ZM207.621 107.655h-7.69v7.69h7.69v-7.69ZM23.069 115.345h-7.69v7.689h7.69v-7.689ZM30.759 115.345h-7.69v7.689h7.69v-7.689Z" fill="#061327"/><path d="M38.448 115.345h-7.69v7.689h7.69v-7.689ZM46.138 115.345h-7.69v7.689h7.69v-7.689ZM76.896 115.345h-7.69v7.689h7.69v-7.689ZM84.586 115.345h-7.69v7.689h7.69v-7.689ZM123.034 115.345h-7.689v7.689h7.689v-7.689ZM138.414 115.345h-7.69v7.689h7.69v-7.689ZM169.172 115.345h-7.689v7.689h7.689v-7.689ZM199.931 115.345h-7.69v7.689h7.69v-7.689ZM23.069 123.035h-7.69v7.689h7.69v-7.689ZM38.448 123.035h-7.69v7.689h7.69v-7.689ZM53.828 123.035h-7.69v7.689h7.69v-7.689ZM69.207 123.035h-7.69v7.689h7.69v-7.689ZM84.586 123.035h-7.69v7.689h7.69v-7.689ZM99.966 123.035h-7.69v7.689h7.69v-7.689Z" fill="#061327"/><path d="M107.655 123.035h-7.69v7.689h7.69v-7.689ZM115.345 123.035h-7.69v7.689h7.69v-7.689ZM123.034 123.035h-7.689v7.689h7.689v-7.689Z" fill="#061327"/><path d="M130.724 123.035h-7.69v7.689h7.69v-7.689ZM138.414 123.035h-7.69v7.689h7.69v-7.689ZM146.103 123.035h-7.689v7.689h7.689v-7.689ZM153.793 123.035h-7.689v7.689h7.689v-7.689ZM169.172 123.035h-7.689v7.689h7.689v-7.689ZM176.862 123.035h-7.69v7.689h7.69v-7.689ZM184.552 123.035h-7.69v7.689h7.69v-7.689ZM199.931 123.035h-7.69v7.689h7.69v-7.689ZM207.621 123.035h-7.69v7.689h7.69v-7.689ZM23.069 130.724h-7.69v7.69h7.69v-7.69ZM46.138 130.724h-7.69v7.69h7.69v-7.69ZM61.517 130.724h-7.69v7.69h7.69v-7.69ZM92.276 130.724h-7.69v7.69h7.69v-7.69ZM107.655 130.724h-7.69v7.69h7.69v-7.69ZM138.414 130.724h-7.69v7.69h7.69v-7.69ZM146.103 130.724h-7.689v7.69h7.689v-7.69ZM161.483 130.724h-7.69v7.69h7.69v-7.69ZM169.172 130.724h-7.689v7.69h7.689v-7.69ZM192.241 130.724h-7.689v7.69h7.689v-7.69ZM207.621 130.724h-7.69v7.69h7.69v-7.69ZM23.069 138.414h-7.69v7.689h7.69v-7.689ZM46.138 138.414h-7.69v7.689h7.69v-7.689ZM53.828 138.414h-7.69v7.689h7.69v-7.689ZM69.207 138.414h-7.69v7.689h7.69v-7.689Z" fill="#061327"/><path d="M76.896 138.414h-7.69v7.689h7.69v-7.689ZM92.276 138.414h-7.69v7.689h7.69v-7.689ZM107.655 138.414h-7.69v7.689h7.69v-7.689ZM115.345 138.414h-7.69v7.689h7.69v-7.689ZM123.034 138.414h-7.689v7.689h7.689v-7.689Z" fill="#061327"/><path d="M130.724 138.414h-7.69v7.689h7.69v-7.689ZM146.103 138.414h-7.689v7.689h7.689v-7.689ZM153.793 138.414h-7.689v7.689h7.689v-7.689ZM161.483 138.414h-7.69v7.689h7.69v-7.689ZM169.172 138.414h-7.689v7.689h7.689v-7.689ZM176.862 138.414h-7.69v7.689h7.69v-7.689ZM192.241 138.414h-7.689v7.689h7.689v-7.689ZM84.586 146.104h-7.69v7.689h7.69v-7.689ZM92.276 146.104h-7.69v7.689h7.69v-7.689ZM115.345 146.104h-7.69v7.689h7.69v-7.689ZM123.034 146.104h-7.689v7.689h7.689v-7.689ZM146.103 146.104h-7.689v7.689h7.689v-7.689ZM176.862 146.104h-7.69v7.689h7.69v-7.689ZM192.241 146.104h-7.689v7.689h7.689v-7.689ZM23.069 153.793h-7.69v7.69h7.69v-7.69ZM30.759 153.793h-7.69v7.69h7.69v-7.69Z" fill="#061327"/><path d="M38.448 153.793h-7.69v7.69h7.69v-7.69ZM46.138 153.793h-7.69v7.69h7.69v-7.69ZM53.828 153.793h-7.69v7.69h7.69v-7.69Z" fill="#061327"/><path d="M61.517 153.793h-7.69v7.69h7.69v-7.69Z" fill="#061327"/><path d="M69.207 153.793h-7.69v7.69h7.69v-7.69ZM84.586 153.793h-7.69v7.69h7.69v-7.69ZM99.966 153.793h-7.69v7.69h7.69v-7.69Z" fill="#061327"/><path d="M107.655 153.793h-7.69v7.69h7.69v-7.69ZM115.345 153.793h-7.69v7.69h7.69v-7.69ZM146.103 153.793h-7.689v7.69h7.689v-7.69ZM161.483 153.793h-7.69v7.69h7.69v-7.69ZM176.862 153.793h-7.69v7.69h7.69v-7.69ZM184.552 153.793h-7.69v7.69h7.69v-7.69ZM207.621 153.793h-7.69v7.69h7.69v-7.69ZM23.069 161.483h-7.69v7.69h7.69v-7.69ZM69.207 161.483h-7.69v7.69h7.69v-7.69ZM84.586 161.483h-7.69v7.69h7.69v-7.69ZM92.276 161.483h-7.69v7.69h7.69v-7.69ZM115.345 161.483h-7.69v7.69h7.69v-7.69ZM138.414 161.483h-7.69v7.69h7.69v-7.69ZM146.103 161.483h-7.689v7.69h7.689v-7.69ZM176.862 161.483h-7.69v7.69h7.69v-7.69ZM199.931 161.483h-7.69v7.69h7.69v-7.69ZM207.621 161.483h-7.69v7.69h7.69v-7.69Z" fill="#061327"/><path d="M23.069 169.172h-7.69v7.69h7.69v-7.69ZM38.448 169.172h-7.69v7.69h7.69v-7.69ZM46.138 169.172h-7.69v7.69h7.69v-7.69ZM53.828 169.172h-7.69v7.69h7.69v-7.69ZM69.207 169.172h-7.69v7.69h7.69v-7.69ZM92.276 169.172h-7.69v7.69h7.69v-7.69ZM99.966 169.172h-7.69v7.69h7.69v-7.69ZM123.034 169.172h-7.689v7.69h7.689v-7.69Z" fill="#061327"/><path d="M130.724 169.172h-7.69v7.69h7.69v-7.69ZM138.414 169.172h-7.69v7.69h7.69v-7.69ZM146.103 169.172h-7.689v7.69h7.689v-7.69ZM153.793 169.172h-7.689v7.69h7.689v-7.69ZM161.483 169.172h-7.69v7.69h7.69v-7.69ZM169.172 169.172h-7.689v7.69h7.689v-7.69ZM176.862 169.172h-7.69v7.69h7.69v-7.69ZM184.552 169.172h-7.69v7.69h7.69v-7.69ZM192.241 169.172h-7.689v7.69h7.689v-7.69ZM23.069 176.862h-7.69v7.69h7.69v-7.69ZM38.448 176.862h-7.69v7.69h7.69v-7.69ZM46.138 176.862h-7.69v7.69h7.69v-7.69ZM53.828 176.862h-7.69v7.69h7.69v-7.69ZM69.207 176.862h-7.69v7.69h7.69v-7.69ZM92.276 176.862h-7.69v7.69h7.69v-7.69ZM99.966 176.862h-7.69v7.69h7.69v-7.69Z" fill="#061327"/><path d="M107.655 176.862h-7.69v7.69h7.69v-7.69ZM130.724 176.862h-7.69v7.69h7.69v-7.69ZM153.793 176.862h-7.689v7.69h7.689v-7.69ZM161.483 176.862h-7.69v7.69h7.69v-7.69ZM184.552 176.862h-7.69v7.69h7.69v-7.69ZM199.931 176.862h-7.69v7.69h7.69v-7.69ZM207.621 176.862h-7.69v7.69h7.69v-7.69ZM23.069 184.552h-7.69v7.689h7.69v-7.689ZM38.448 184.552h-7.69v7.689h7.69v-7.689ZM46.138 184.552h-7.69v7.689h7.69v-7.689ZM53.828 184.552h-7.69v7.689h7.69v-7.689ZM69.207 184.552h-7.69v7.689h7.69v-7.689ZM92.276 184.552h-7.69v7.689h7.69v-7.689ZM115.345 184.552h-7.69v7.689h7.69v-7.689ZM146.103 184.552h-7.689v7.689h7.689v-7.689ZM169.172 184.552h-7.689v7.689h7.689v-7.689ZM192.241 184.552h-7.689v7.689h7.689v-7.689ZM207.621 184.552h-7.69v7.689h7.69v-7.689ZM23.069 192.241h-7.69v7.69h7.69v-7.69ZM69.207 192.241h-7.69v7.69h7.69v-7.69ZM84.586 192.241h-7.69v7.69h7.69v-7.69ZM99.966 192.241h-7.69v7.69h7.69v-7.69ZM115.345 192.241h-7.69v7.69h7.69v-7.69ZM130.724 192.241h-7.69v7.69h7.69v-7.69ZM146.103 192.241h-7.689v7.69h7.689v-7.69ZM169.172 192.241h-7.689v7.69h7.689v-7.69ZM176.862 192.241h-7.69v7.69h7.69v-7.69ZM207.621 192.241h-7.69v7.69h7.69v-7.69ZM23.069 199.931h-7.69v7.69h7.69v-7.69ZM30.759 199.931h-7.69v7.69h7.69v-7.69Z" fill="#061327"/><path d="M38.448 199.931h-7.69v7.69h7.69v-7.69ZM46.138 199.931h-7.69v7.69h7.69v-7.69ZM53.828 199.931h-7.69v7.69h7.69v-7.69Z" fill="#061327"/><path d="M61.517 199.931h-7.69v7.69h7.69v-7.69Z" fill="#061327"/><path d="M69.207 199.931h-7.69v7.69h7.69v-7.69ZM84.586 199.931h-7.69v7.69h7.69v-7.69ZM99.966 199.931h-7.69v7.69h7.69v-7.69Z" fill="#061327"/><path d="M107.655 199.931h-7.69v7.69h7.69v-7.69ZM146.103 199.931h-7.689v7.69h7.689v-7.69ZM161.483 199.931h-7.69v7.69h7.69v-7.69ZM184.552 199.931h-7.69v7.69h7.69v-7.69ZM207.621 199.931h-7.69v7.69h7.69v-7.69Z" fill="#061327"/></g><defs><clipPath id="a"><path fill="#fff" d="M0 0h223v223H0z"/></clipPath></defs></svg>