<svg width="223" height="223" viewBox="0 0 223 223" fill="none" xmlns="http://www.w3.org/2000/svg">
<g clip-path="url(#clip0_339_2)">
<path d="M208.39 0H14.6103C6.54127 0 0 6.54127 0 14.6103V208.39C0 216.459 6.54127 223 14.6103 223H208.39C216.459 223 223 216.459 223 208.39V14.6103C223 6.54127 216.459 0 208.39 0Z" fill="white"/>
<path d="M23.069 15.3794H15.3794V23.069H23.069V15.3794Z" fill="#061327"/>
<path d="M30.7585 15.3794H23.0688V23.069H30.7585V15.3794Z" fill="#061327"/>
<path d="M38.4482 15.3794H30.7585V23.069H38.4482V15.3794Z" fill="#061327"/>
<path d="M46.1379 15.3794H38.4482V23.069H46.1379V15.3794Z" fill="#061327"/>
<path d="M53.8276 15.3794H46.1379V23.069H53.8276V15.3794Z" fill="#061327"/>
<path d="M61.5173 15.3794H53.8276V23.069H61.5173V15.3794Z" fill="#061327"/>
<path d="M69.207 15.3794H61.5173V23.069H69.207V15.3794Z" fill="#061327"/>
<path d="M107.655 15.3794H99.9656V23.069H107.655V15.3794Z" fill="#061327"/>
<path d="M115.345 15.3794H107.655V23.069H115.345V15.3794Z" fill="#061327"/>
<path d="M130.724 15.3794H123.034V23.069H130.724V15.3794Z" fill="#061327"/>
<path d="M146.103 15.3794H138.414V23.069H146.103V15.3794Z" fill="#061327"/>
<path d="M161.483 15.3794H153.793V23.069H161.483V15.3794Z" fill="#061327"/>
<path d="M169.172 15.3794H161.483V23.069H169.172V15.3794Z" fill="#061327"/>
<path d="M176.862 15.3794H169.172V23.069H176.862V15.3794Z" fill="#061327"/>
<path d="M184.552 15.3794H176.862V23.069H184.552V15.3794Z" fill="#061327"/>
<path d="M192.241 15.3794H184.552V23.069H192.241V15.3794Z" fill="#061327"/>
<path d="M199.931 15.3794H192.241V23.069H199.931V15.3794Z" fill="#061327"/>
<path d="M207.621 15.3794H199.931V23.069H207.621V15.3794Z" fill="#061327"/>
<path d="M23.069 23.0688H15.3794V30.7585H23.069V23.0688Z" fill="#061327"/>
<path d="M69.207 23.0688H61.5173V30.7585H69.207V23.0688Z" fill="#061327"/>
<path d="M92.2758 23.0688H84.5862V30.7585H92.2758V23.0688Z" fill="#061327"/>
<path d="M99.9655 23.0688H92.2759V30.7585H99.9655V23.0688Z" fill="#061327"/>
<path d="M123.034 23.0688H115.345V30.7585H123.034V23.0688Z" fill="#061327"/>
<path d="M130.724 23.0688H123.034V30.7585H130.724V23.0688Z" fill="#061327"/>
<path d="M146.103 23.0688H138.414V30.7585H146.103V23.0688Z" fill="#061327"/>
<path d="M161.483 23.0688H153.793V30.7585H161.483V23.0688Z" fill="#061327"/>
<path d="M207.621 23.0688H199.931V30.7585H207.621V23.0688Z" fill="#061327"/>
<path d="M23.069 30.7588H15.3794V38.4484H23.069V30.7588Z" fill="#061327"/>
<path d="M38.4482 30.7588H30.7585V38.4484H38.4482V30.7588Z" fill="#061327"/>
<path d="M46.1379 30.7588H38.4482V38.4484H46.1379V30.7588Z" fill="#061327"/>
<path d="M53.8276 30.7588H46.1379V38.4484H53.8276V30.7588Z" fill="#061327"/>
<path d="M69.207 30.7588H61.5173V38.4484H69.207V30.7588Z" fill="#061327"/>
<path d="M115.345 30.7588H107.655V38.4484H115.345V30.7588Z" fill="#061327"/>
<path d="M130.724 30.7588H123.034V38.4484H130.724V30.7588Z" fill="#061327"/>
<path d="M146.103 30.7588H138.414V38.4484H146.103V30.7588Z" fill="#061327"/>
<path d="M161.483 30.7588H153.793V38.4484H161.483V30.7588Z" fill="#061327"/>
<path d="M176.862 30.7588H169.172V38.4484H176.862V30.7588Z" fill="#061327"/>
<path d="M184.552 30.7588H176.862V38.4484H184.552V30.7588Z" fill="#061327"/>
<path d="M192.241 30.7588H184.552V38.4484H192.241V30.7588Z" fill="#061327"/>
<path d="M207.621 30.7588H199.931V38.4484H207.621V30.7588Z" fill="#061327"/>
<path d="M23.069 38.4482H15.3794V46.1379H23.069V38.4482Z" fill="#061327"/>
<path d="M38.4482 38.4482H30.7585V46.1379H38.4482V38.4482Z" fill="#061327"/>
<path d="M46.1379 38.4482H38.4482V46.1379H46.1379V38.4482Z" fill="#061327"/>
<path d="M53.8276 38.4482H46.1379V46.1379H53.8276V38.4482Z" fill="#061327"/>
<path d="M69.207 38.4482H61.5173V46.1379H69.207V38.4482Z" fill="#061327"/>
<path d="M84.5861 38.4482H76.8965V46.1379H84.5861V38.4482Z" fill="#061327"/>
<path d="M115.345 38.4482H107.655V46.1379H115.345V38.4482Z" fill="#061327"/>
<path d="M123.034 38.4482H115.345V46.1379H123.034V38.4482Z" fill="#061327"/>
<path d="M138.414 38.4482H130.724V46.1379H138.414V38.4482Z" fill="#061327"/>
<path d="M146.103 38.4482H138.414V46.1379H146.103V38.4482Z" fill="#061327"/>
<path d="M161.483 38.4482H153.793V46.1379H161.483V38.4482Z" fill="#061327"/>
<path d="M176.862 38.4482H169.172V46.1379H176.862V38.4482Z" fill="#061327"/>
<path d="M184.552 38.4482H176.862V46.1379H184.552V38.4482Z" fill="#061327"/>
<path d="M192.241 38.4482H184.552V46.1379H192.241V38.4482Z" fill="#061327"/>
<path d="M207.621 38.4482H199.931V46.1379H207.621V38.4482Z" fill="#061327"/>
<path d="M23.069 46.1377H15.3794V53.8274H23.069V46.1377Z" fill="#061327"/>
<path d="M38.4482 46.1377H30.7585V53.8274H38.4482V46.1377Z" fill="#061327"/>
<path d="M46.1379 46.1377H38.4482V53.8274H46.1379V46.1377Z" fill="#061327"/>
<path d="M53.8276 46.1377H46.1379V53.8274H53.8276V46.1377Z" fill="#061327"/>
<path d="M69.207 46.1377H61.5173V53.8274H69.207V46.1377Z" fill="#061327"/>
<path d="M84.5861 46.1377H76.8965V53.8274H84.5861V46.1377Z" fill="#061327"/>
<path d="M92.2758 46.1377H84.5862V53.8274H92.2758V46.1377Z" fill="#061327"/>
<path d="M146.103 46.1377H138.414V53.8274H146.103V46.1377Z" fill="#061327"/>
<path d="M161.483 46.1377H153.793V53.8274H161.483V46.1377Z" fill="#061327"/>
<path d="M176.862 46.1377H169.172V53.8274H176.862V46.1377Z" fill="#061327"/>
<path d="M184.552 46.1377H176.862V53.8274H184.552V46.1377Z" fill="#061327"/>
<path d="M192.241 46.1377H184.552V53.8274H192.241V46.1377Z" fill="#061327"/>
<path d="M207.621 46.1377H199.931V53.8274H207.621V46.1377Z" fill="#061327"/>
<path d="M23.069 53.8276H15.3794V61.5173H23.069V53.8276Z" fill="#061327"/>
<path d="M69.207 53.8276H61.5173V61.5173H69.207V53.8276Z" fill="#061327"/>
<path d="M107.655 53.8276H99.9656V61.5173H107.655V53.8276Z" fill="#061327"/>
<path d="M115.345 53.8276H107.655V61.5173H115.345V53.8276Z" fill="#061327"/>
<path d="M130.724 53.8276H123.034V61.5173H130.724V53.8276Z" fill="#061327"/>
<path d="M161.483 53.8276H153.793V61.5173H161.483V53.8276Z" fill="#061327"/>
<path d="M207.621 53.8276H199.931V61.5173H207.621V53.8276Z" fill="#061327"/>
<path d="M23.069 61.5171H15.3794V69.2067H23.069V61.5171Z" fill="#061327"/>
<path d="M30.7585 61.5171H23.0688V69.2067H30.7585V61.5171Z" fill="#061327"/>
<path d="M38.4482 61.5171H30.7585V69.2067H38.4482V61.5171Z" fill="#061327"/>
<path d="M46.1379 61.5171H38.4482V69.2067H46.1379V61.5171Z" fill="#061327"/>
<path d="M53.8276 61.5171H46.1379V69.2067H53.8276V61.5171Z" fill="#061327"/>
<path d="M61.5173 61.5171H53.8276V69.2067H61.5173V61.5171Z" fill="#061327"/>
<path d="M69.207 61.5171H61.5173V69.2067H69.207V61.5171Z" fill="#061327"/>
<path d="M84.5861 61.5171H76.8965V69.2067H84.5861V61.5171Z" fill="#061327"/>
<path d="M99.9655 61.5171H92.2759V69.2067H99.9655V61.5171Z" fill="#061327"/>
<path d="M115.345 61.5171H107.655V69.2067H115.345V61.5171Z" fill="#061327"/>
<path d="M130.724 61.5171H123.034V69.2067H130.724V61.5171Z" fill="#061327"/>
<path d="M146.103 61.5171H138.414V69.2067H146.103V61.5171Z" fill="#061327"/>
<path d="M161.483 61.5171H153.793V69.2067H161.483V61.5171Z" fill="#061327"/>
<path d="M169.172 61.5171H161.483V69.2067H169.172V61.5171Z" fill="#061327"/>
<path d="M176.862 61.5171H169.172V69.2067H176.862V61.5171Z" fill="#061327"/>
<path d="M184.552 61.5171H176.862V69.2067H184.552V61.5171Z" fill="#061327"/>
<path d="M192.241 61.5171H184.552V69.2067H192.241V61.5171Z" fill="#061327"/>
<path d="M199.931 61.5171H192.241V69.2067H199.931V61.5171Z" fill="#061327"/>
<path d="M207.621 61.5171H199.931V69.2067H207.621V61.5171Z" fill="#061327"/>
<path d="M99.9655 69.207H92.2759V76.8967H99.9655V69.207Z" fill="#061327"/>
<path d="M107.655 69.207H99.9656V76.8967H107.655V69.207Z" fill="#061327"/>
<path d="M146.103 69.207H138.414V76.8967H146.103V69.207Z" fill="#061327"/>
<path d="M23.069 76.8965H15.3794V84.5861H23.069V76.8965Z" fill="#061327"/>
<path d="M30.7585 76.8965H23.0688V84.5861H30.7585V76.8965Z" fill="#061327"/>
<path d="M61.5173 76.8965H53.8276V84.5861H61.5173V76.8965Z" fill="#061327"/>
<path d="M69.207 76.8965H61.5173V84.5861H69.207V76.8965Z" fill="#061327"/>
<path d="M76.8964 76.8965H69.2068V84.5861H76.8964V76.8965Z" fill="#061327"/>
<path d="M92.2758 76.8965H84.5862V84.5861H92.2758V76.8965Z" fill="#061327"/>
<path d="M107.655 76.8965H99.9656V84.5861H107.655V76.8965Z" fill="#061327"/>
<path d="M123.034 76.8965H115.345V84.5861H123.034V76.8965Z" fill="#061327"/>
<path d="M130.724 76.8965H123.034V84.5861H130.724V76.8965Z" fill="#061327"/>
<path d="M138.414 76.8965H130.724V84.5861H138.414V76.8965Z" fill="#061327"/>
<path d="M146.103 76.8965H138.414V84.5861H146.103V76.8965Z" fill="#061327"/>
<path d="M176.862 76.8965H169.172V84.5861H176.862V76.8965Z" fill="#061327"/>
<path d="M184.552 76.8965H176.862V84.5861H184.552V76.8965Z" fill="#061327"/>
<path d="M23.069 84.5864H15.3794V92.2761H23.069V84.5864Z" fill="#061327"/>
<path d="M30.7585 84.5864H23.0688V92.2761H30.7585V84.5864Z" fill="#061327"/>
<path d="M46.1379 84.5864H38.4482V92.2761H46.1379V84.5864Z" fill="#061327"/>
<path d="M53.8276 84.5864H46.1379V92.2761H53.8276V84.5864Z" fill="#061327"/>
<path d="M61.5173 84.5864H53.8276V92.2761H61.5173V84.5864Z" fill="#061327"/>
<path d="M76.8964 84.5864H69.2068V92.2761H76.8964V84.5864Z" fill="#061327"/>
<path d="M84.5861 84.5864H76.8965V92.2761H84.5861V84.5864Z" fill="#061327"/>
<path d="M92.2758 84.5864H84.5862V92.2761H92.2758V84.5864Z" fill="#061327"/>
<path d="M115.345 84.5864H107.655V92.2761H115.345V84.5864Z" fill="#061327"/>
<path d="M138.414 84.5864H130.724V92.2761H138.414V84.5864Z" fill="#061327"/>
<path d="M169.172 84.5864H161.483V92.2761H169.172V84.5864Z" fill="#061327"/>
<path d="M176.862 84.5864H169.172V92.2761H176.862V84.5864Z" fill="#061327"/>
<path d="M184.552 84.5864H176.862V92.2761H184.552V84.5864Z" fill="#061327"/>
<path d="M192.241 84.5864H184.552V92.2761H192.241V84.5864Z" fill="#061327"/>
<path d="M199.931 84.5864H192.241V92.2761H199.931V84.5864Z" fill="#061327"/>
<path d="M23.069 92.2759H15.3794V99.9655H23.069V92.2759Z" fill="#061327"/>
<path d="M30.7585 92.2759H23.0688V99.9655H30.7585V92.2759Z" fill="#061327"/>
<path d="M38.4482 92.2759H30.7585V99.9655H38.4482V92.2759Z" fill="#061327"/>
<path d="M61.5173 92.2759H53.8276V99.9655H61.5173V92.2759Z" fill="#061327"/>
<path d="M69.207 92.2759H61.5173V99.9655H69.207V92.2759Z" fill="#061327"/>
<path d="M84.5861 92.2759H76.8965V99.9655H84.5861V92.2759Z" fill="#061327"/>
<path d="M99.9655 92.2759H92.2759V99.9655H99.9655V92.2759Z" fill="#061327"/>
<path d="M123.034 92.2759H115.345V99.9655H123.034V92.2759Z" fill="#061327"/>
<path d="M138.414 92.2759H130.724V99.9655H138.414V92.2759Z" fill="#061327"/>
<path d="M153.793 92.2759H146.104V99.9655H153.793V92.2759Z" fill="#061327"/>
<path d="M161.483 92.2759H153.793V99.9655H161.483V92.2759Z" fill="#061327"/>
<path d="M176.862 92.2759H169.172V99.9655H176.862V92.2759Z" fill="#061327"/>
<path d="M184.552 92.2759H176.862V99.9655H184.552V92.2759Z" fill="#061327"/>
<path d="M199.931 92.2759H192.241V99.9655H199.931V92.2759Z" fill="#061327"/>
<path d="M207.621 92.2759H199.931V99.9655H207.621V92.2759Z" fill="#061327"/>
<path d="M23.069 99.9653H15.3794V107.655H23.069V99.9653Z" fill="#061327"/>
<path d="M30.7585 99.9653H23.0688V107.655H30.7585V99.9653Z" fill="#061327"/>
<path d="M38.4482 99.9653H30.7585V107.655H38.4482V99.9653Z" fill="#061327"/>
<path d="M46.1379 99.9653H38.4482V107.655H46.1379V99.9653Z" fill="#061327"/>
<path d="M53.8276 99.9653H46.1379V107.655H53.8276V99.9653Z" fill="#061327"/>
<path d="M84.5861 99.9653H76.8965V107.655H84.5861V99.9653Z" fill="#061327"/>
<path d="M92.2758 99.9653H84.5862V107.655H92.2758V99.9653Z" fill="#061327"/>
<path d="M115.345 99.9653H107.655V107.655H115.345V99.9653Z" fill="#061327"/>
<path d="M138.414 99.9653H130.724V107.655H138.414V99.9653Z" fill="#061327"/>
<path d="M146.103 99.9653H138.414V107.655H146.103V99.9653Z" fill="#061327"/>
<path d="M153.793 99.9653H146.104V107.655H153.793V99.9653Z" fill="#061327"/>
<path d="M161.483 99.9653H153.793V107.655H161.483V99.9653Z" fill="#061327"/>
<path d="M169.172 99.9653H161.483V107.655H169.172V99.9653Z" fill="#061327"/>
<path d="M176.862 99.9653H169.172V107.655H176.862V99.9653Z" fill="#061327"/>
<path d="M184.552 99.9653H176.862V107.655H184.552V99.9653Z" fill="#061327"/>
<path d="M207.621 99.9653H199.931V107.655H207.621V99.9653Z" fill="#061327"/>
<path d="M30.7585 107.655H23.0688V115.345H30.7585V107.655Z" fill="#061327"/>
<path d="M46.1379 107.655H38.4482V115.345H46.1379V107.655Z" fill="#061327"/>
<path d="M53.8276 107.655H46.1379V115.345H53.8276V107.655Z" fill="#061327"/>
<path d="M61.5173 107.655H53.8276V115.345H61.5173V107.655Z" fill="#061327"/>
<path d="M69.207 107.655H61.5173V115.345H69.207V107.655Z" fill="#061327"/>
<path d="M76.8964 107.655H69.2068V115.345H76.8964V107.655Z" fill="#061327"/>
<path d="M92.2758 107.655H84.5862V115.345H92.2758V107.655Z" fill="#061327"/>
<path d="M107.655 107.655H99.9656V115.345H107.655V107.655Z" fill="#061327"/>
<path d="M115.345 107.655H107.655V115.345H115.345V107.655Z" fill="#061327"/>
<path d="M146.103 107.655H138.414V115.345H146.103V107.655Z" fill="#061327"/>
<path d="M161.483 107.655H153.793V115.345H161.483V107.655Z" fill="#061327"/>
<path d="M169.172 107.655H161.483V115.345H169.172V107.655Z" fill="#061327"/>
<path d="M207.621 107.655H199.931V115.345H207.621V107.655Z" fill="#061327"/>
<path d="M23.069 115.345H15.3794V123.034H23.069V115.345Z" fill="#061327"/>
<path d="M30.7585 115.345H23.0688V123.034H30.7585V115.345Z" fill="#061327"/>
<path d="M38.4482 115.345H30.7585V123.034H38.4482V115.345Z" fill="#061327"/>
<path d="M46.1379 115.345H38.4482V123.034H46.1379V115.345Z" fill="#061327"/>
<path d="M76.8964 115.345H69.2068V123.034H76.8964V115.345Z" fill="#061327"/>
<path d="M84.5861 115.345H76.8965V123.034H84.5861V115.345Z" fill="#061327"/>
<path d="M123.034 115.345H115.345V123.034H123.034V115.345Z" fill="#061327"/>
<path d="M138.414 115.345H130.724V123.034H138.414V115.345Z" fill="#061327"/>
<path d="M169.172 115.345H161.483V123.034H169.172V115.345Z" fill="#061327"/>
<path d="M199.931 115.345H192.241V123.034H199.931V115.345Z" fill="#061327"/>
<path d="M23.069 123.035H15.3794V130.724H23.069V123.035Z" fill="#061327"/>
<path d="M38.4482 123.035H30.7585V130.724H38.4482V123.035Z" fill="#061327"/>
<path d="M53.8276 123.035H46.1379V130.724H53.8276V123.035Z" fill="#061327"/>
<path d="M69.207 123.035H61.5173V130.724H69.207V123.035Z" fill="#061327"/>
<path d="M84.5861 123.035H76.8965V130.724H84.5861V123.035Z" fill="#061327"/>
<path d="M99.9655 123.035H92.2759V130.724H99.9655V123.035Z" fill="#061327"/>
<path d="M107.655 123.035H99.9656V130.724H107.655V123.035Z" fill="#061327"/>
<path d="M115.345 123.035H107.655V130.724H115.345V123.035Z" fill="#061327"/>
<path d="M123.034 123.035H115.345V130.724H123.034V123.035Z" fill="#061327"/>
<path d="M130.724 123.035H123.034V130.724H130.724V123.035Z" fill="#061327"/>
<path d="M138.414 123.035H130.724V130.724H138.414V123.035Z" fill="#061327"/>
<path d="M146.103 123.035H138.414V130.724H146.103V123.035Z" fill="#061327"/>
<path d="M153.793 123.035H146.104V130.724H153.793V123.035Z" fill="#061327"/>
<path d="M169.172 123.035H161.483V130.724H169.172V123.035Z" fill="#061327"/>
<path d="M176.862 123.035H169.172V130.724H176.862V123.035Z" fill="#061327"/>
<path d="M184.552 123.035H176.862V130.724H184.552V123.035Z" fill="#061327"/>
<path d="M199.931 123.035H192.241V130.724H199.931V123.035Z" fill="#061327"/>
<path d="M207.621 123.035H199.931V130.724H207.621V123.035Z" fill="#061327"/>
<path d="M23.069 130.724H15.3794V138.414H23.069V130.724Z" fill="#061327"/>
<path d="M46.1379 130.724H38.4482V138.414H46.1379V130.724Z" fill="#061327"/>
<path d="M61.5173 130.724H53.8276V138.414H61.5173V130.724Z" fill="#061327"/>
<path d="M92.2758 130.724H84.5862V138.414H92.2758V130.724Z" fill="#061327"/>
<path d="M107.655 130.724H99.9656V138.414H107.655V130.724Z" fill="#061327"/>
<path d="M138.414 130.724H130.724V138.414H138.414V130.724Z" fill="#061327"/>
<path d="M146.103 130.724H138.414V138.414H146.103V130.724Z" fill="#061327"/>
<path d="M161.483 130.724H153.793V138.414H161.483V130.724Z" fill="#061327"/>
<path d="M169.172 130.724H161.483V138.414H169.172V130.724Z" fill="#061327"/>
<path d="M192.241 130.724H184.552V138.414H192.241V130.724Z" fill="#061327"/>
<path d="M207.621 130.724H199.931V138.414H207.621V130.724Z" fill="#061327"/>
<path d="M23.069 138.414H15.3794V146.103H23.069V138.414Z" fill="#061327"/>
<path d="M46.1379 138.414H38.4482V146.103H46.1379V138.414Z" fill="#061327"/>
<path d="M53.8276 138.414H46.1379V146.103H53.8276V138.414Z" fill="#061327"/>
<path d="M69.207 138.414H61.5173V146.103H69.207V138.414Z" fill="#061327"/>
<path d="M76.8964 138.414H69.2068V146.103H76.8964V138.414Z" fill="#061327"/>
<path d="M92.2758 138.414H84.5862V146.103H92.2758V138.414Z" fill="#061327"/>
<path d="M107.655 138.414H99.9656V146.103H107.655V138.414Z" fill="#061327"/>
<path d="M115.345 138.414H107.655V146.103H115.345V138.414Z" fill="#061327"/>
<path d="M123.034 138.414H115.345V146.103H123.034V138.414Z" fill="#061327"/>
<path d="M130.724 138.414H123.034V146.103H130.724V138.414Z" fill="#061327"/>
<path d="M146.103 138.414H138.414V146.103H146.103V138.414Z" fill="#061327"/>
<path d="M153.793 138.414H146.104V146.103H153.793V138.414Z" fill="#061327"/>
<path d="M161.483 138.414H153.793V146.103H161.483V138.414Z" fill="#061327"/>
<path d="M169.172 138.414H161.483V146.103H169.172V138.414Z" fill="#061327"/>
<path d="M176.862 138.414H169.172V146.103H176.862V138.414Z" fill="#061327"/>
<path d="M192.241 138.414H184.552V146.103H192.241V138.414Z" fill="#061327"/>
<path d="M84.5861 146.104H76.8965V153.793H84.5861V146.104Z" fill="#061327"/>
<path d="M92.2758 146.104H84.5862V153.793H92.2758V146.104Z" fill="#061327"/>
<path d="M115.345 146.104H107.655V153.793H115.345V146.104Z" fill="#061327"/>
<path d="M123.034 146.104H115.345V153.793H123.034V146.104Z" fill="#061327"/>
<path d="M146.103 146.104H138.414V153.793H146.103V146.104Z" fill="#061327"/>
<path d="M176.862 146.104H169.172V153.793H176.862V146.104Z" fill="#061327"/>
<path d="M192.241 146.104H184.552V153.793H192.241V146.104Z" fill="#061327"/>
<path d="M23.069 153.793H15.3794V161.483H23.069V153.793Z" fill="#061327"/>
<path d="M30.7585 153.793H23.0688V161.483H30.7585V153.793Z" fill="#061327"/>
<path d="M38.4482 153.793H30.7585V161.483H38.4482V153.793Z" fill="#061327"/>
<path d="M46.1379 153.793H38.4482V161.483H46.1379V153.793Z" fill="#061327"/>
<path d="M53.8276 153.793H46.1379V161.483H53.8276V153.793Z" fill="#061327"/>
<path d="M61.5173 153.793H53.8276V161.483H61.5173V153.793Z" fill="#061327"/>
<path d="M69.207 153.793H61.5173V161.483H69.207V153.793Z" fill="#061327"/>
<path d="M84.5861 153.793H76.8965V161.483H84.5861V153.793Z" fill="#061327"/>
<path d="M99.9655 153.793H92.2759V161.483H99.9655V153.793Z" fill="#061327"/>
<path d="M107.655 153.793H99.9656V161.483H107.655V153.793Z" fill="#061327"/>
<path d="M115.345 153.793H107.655V161.483H115.345V153.793Z" fill="#061327"/>
<path d="M146.103 153.793H138.414V161.483H146.103V153.793Z" fill="#061327"/>
<path d="M161.483 153.793H153.793V161.483H161.483V153.793Z" fill="#061327"/>
<path d="M176.862 153.793H169.172V161.483H176.862V153.793Z" fill="#061327"/>
<path d="M184.552 153.793H176.862V161.483H184.552V153.793Z" fill="#061327"/>
<path d="M207.621 153.793H199.931V161.483H207.621V153.793Z" fill="#061327"/>
<path d="M23.069 161.483H15.3794V169.173H23.069V161.483Z" fill="#061327"/>
<path d="M69.207 161.483H61.5173V169.173H69.207V161.483Z" fill="#061327"/>
<path d="M84.5861 161.483H76.8965V169.173H84.5861V161.483Z" fill="#061327"/>
<path d="M92.2758 161.483H84.5862V169.173H92.2758V161.483Z" fill="#061327"/>
<path d="M115.345 161.483H107.655V169.173H115.345V161.483Z" fill="#061327"/>
<path d="M138.414 161.483H130.724V169.173H138.414V161.483Z" fill="#061327"/>
<path d="M146.103 161.483H138.414V169.173H146.103V161.483Z" fill="#061327"/>
<path d="M176.862 161.483H169.172V169.173H176.862V161.483Z" fill="#061327"/>
<path d="M199.931 161.483H192.241V169.173H199.931V161.483Z" fill="#061327"/>
<path d="M207.621 161.483H199.931V169.173H207.621V161.483Z" fill="#061327"/>
<path d="M23.069 169.172H15.3794V176.862H23.069V169.172Z" fill="#061327"/>
<path d="M38.4482 169.172H30.7585V176.862H38.4482V169.172Z" fill="#061327"/>
<path d="M46.1379 169.172H38.4482V176.862H46.1379V169.172Z" fill="#061327"/>
<path d="M53.8276 169.172H46.1379V176.862H53.8276V169.172Z" fill="#061327"/>
<path d="M69.207 169.172H61.5173V176.862H69.207V169.172Z" fill="#061327"/>
<path d="M92.2758 169.172H84.5862V176.862H92.2758V169.172Z" fill="#061327"/>
<path d="M99.9655 169.172H92.2759V176.862H99.9655V169.172Z" fill="#061327"/>
<path d="M123.034 169.172H115.345V176.862H123.034V169.172Z" fill="#061327"/>
<path d="M130.724 169.172H123.034V176.862H130.724V169.172Z" fill="#061327"/>
<path d="M138.414 169.172H130.724V176.862H138.414V169.172Z" fill="#061327"/>
<path d="M146.103 169.172H138.414V176.862H146.103V169.172Z" fill="#061327"/>
<path d="M153.793 169.172H146.104V176.862H153.793V169.172Z" fill="#061327"/>
<path d="M161.483 169.172H153.793V176.862H161.483V169.172Z" fill="#061327"/>
<path d="M169.172 169.172H161.483V176.862H169.172V169.172Z" fill="#061327"/>
<path d="M176.862 169.172H169.172V176.862H176.862V169.172Z" fill="#061327"/>
<path d="M184.552 169.172H176.862V176.862H184.552V169.172Z" fill="#061327"/>
<path d="M192.241 169.172H184.552V176.862H192.241V169.172Z" fill="#061327"/>
<path d="M23.069 176.862H15.3794V184.552H23.069V176.862Z" fill="#061327"/>
<path d="M38.4482 176.862H30.7585V184.552H38.4482V176.862Z" fill="#061327"/>
<path d="M46.1379 176.862H38.4482V184.552H46.1379V176.862Z" fill="#061327"/>
<path d="M53.8276 176.862H46.1379V184.552H53.8276V176.862Z" fill="#061327"/>
<path d="M69.207 176.862H61.5173V184.552H69.207V176.862Z" fill="#061327"/>
<path d="M92.2758 176.862H84.5862V184.552H92.2758V176.862Z" fill="#061327"/>
<path d="M99.9655 176.862H92.2759V184.552H99.9655V176.862Z" fill="#061327"/>
<path d="M107.655 176.862H99.9656V184.552H107.655V176.862Z" fill="#061327"/>
<path d="M130.724 176.862H123.034V184.552H130.724V176.862Z" fill="#061327"/>
<path d="M153.793 176.862H146.104V184.552H153.793V176.862Z" fill="#061327"/>
<path d="M161.483 176.862H153.793V184.552H161.483V176.862Z" fill="#061327"/>
<path d="M184.552 176.862H176.862V184.552H184.552V176.862Z" fill="#061327"/>
<path d="M199.931 176.862H192.241V184.552H199.931V176.862Z" fill="#061327"/>
<path d="M207.621 176.862H199.931V184.552H207.621V176.862Z" fill="#061327"/>
<path d="M23.069 184.552H15.3794V192.241H23.069V184.552Z" fill="#061327"/>
<path d="M38.4482 184.552H30.7585V192.241H38.4482V184.552Z" fill="#061327"/>
<path d="M46.1379 184.552H38.4482V192.241H46.1379V184.552Z" fill="#061327"/>
<path d="M53.8276 184.552H46.1379V192.241H53.8276V184.552Z" fill="#061327"/>
<path d="M69.207 184.552H61.5173V192.241H69.207V184.552Z" fill="#061327"/>
<path d="M92.2758 184.552H84.5862V192.241H92.2758V184.552Z" fill="#061327"/>
<path d="M115.345 184.552H107.655V192.241H115.345V184.552Z" fill="#061327"/>
<path d="M146.103 184.552H138.414V192.241H146.103V184.552Z" fill="#061327"/>
<path d="M169.172 184.552H161.483V192.241H169.172V184.552Z" fill="#061327"/>
<path d="M192.241 184.552H184.552V192.241H192.241V184.552Z" fill="#061327"/>
<path d="M207.621 184.552H199.931V192.241H207.621V184.552Z" fill="#061327"/>
<path d="M23.069 192.241H15.3794V199.931H23.069V192.241Z" fill="#061327"/>
<path d="M69.207 192.241H61.5173V199.931H69.207V192.241Z" fill="#061327"/>
<path d="M84.5861 192.241H76.8965V199.931H84.5861V192.241Z" fill="#061327"/>
<path d="M99.9655 192.241H92.2759V199.931H99.9655V192.241Z" fill="#061327"/>
<path d="M115.345 192.241H107.655V199.931H115.345V192.241Z" fill="#061327"/>
<path d="M130.724 192.241H123.034V199.931H130.724V192.241Z" fill="#061327"/>
<path d="M146.103 192.241H138.414V199.931H146.103V192.241Z" fill="#061327"/>
<path d="M169.172 192.241H161.483V199.931H169.172V192.241Z" fill="#061327"/>
<path d="M176.862 192.241H169.172V199.931H176.862V192.241Z" fill="#061327"/>
<path d="M207.621 192.241H199.931V199.931H207.621V192.241Z" fill="#061327"/>
<path d="M23.069 199.931H15.3794V207.621H23.069V199.931Z" fill="#061327"/>
<path d="M30.7585 199.931H23.0688V207.621H30.7585V199.931Z" fill="#061327"/>
<path d="M38.4482 199.931H30.7585V207.621H38.4482V199.931Z" fill="#061327"/>
<path d="M46.1379 199.931H38.4482V207.621H46.1379V199.931Z" fill="#061327"/>
<path d="M53.8276 199.931H46.1379V207.621H53.8276V199.931Z" fill="#061327"/>
<path d="M61.5173 199.931H53.8276V207.621H61.5173V199.931Z" fill="#061327"/>
<path d="M69.207 199.931H61.5173V207.621H69.207V199.931Z" fill="#061327"/>
<path d="M84.5861 199.931H76.8965V207.621H84.5861V199.931Z" fill="#061327"/>
<path d="M99.9655 199.931H92.2759V207.621H99.9655V199.931Z" fill="#061327"/>
<path d="M107.655 199.931H99.9656V207.621H107.655V199.931Z" fill="#061327"/>
<path d="M146.103 199.931H138.414V207.621H146.103V199.931Z" fill="#061327"/>
<path d="M161.483 199.931H153.793V207.621H161.483V199.931Z" fill="#061327"/>
<path d="M184.552 199.931H176.862V207.621H184.552V199.931Z" fill="#061327"/>
<path d="M207.621 199.931H199.931V207.621H207.621V199.931Z" fill="#061327"/>
</g>
<defs>
<clipPath id="clip0_339_2">
<rect width="223" height="223" fill="white"/>
</clipPath>
</defs>
</svg>
