<svg width="41" height="41" viewBox="0 0 41 41" fill="none" xmlns="http://www.w3.org/2000/svg">
<path d="M20.0865 32.4648L10.7214 39.6152C10.2574 39.9949 9.75118 40.1737 9.20277 40.1518C8.65437 40.1315 8.16924 39.9738 7.74739 39.6785C7.32554 39.3832 6.99902 38.9824 6.76785 38.4762C6.53499 37.97 6.52402 37.4216 6.73494 36.831L10.3418 25.1246L1.16651 18.607C0.660287 18.2695 0.343899 17.8266 0.217343 17.2782C0.0907879 16.7298 0.111881 16.2235 0.280621 15.7595C0.449362 15.2955 0.744657 14.8837 1.16651 14.5243C1.58836 14.1666 2.09458 13.9877 2.68517 13.9877H14.0119L17.682 1.83841C17.8929 1.24782 18.2203 0.793907 18.6641 0.476675C19.1062 0.16113 19.5803 0.00335693 20.0865 0.00335693C20.5928 0.00335693 21.0669 0.16113 21.509 0.476675C21.9528 0.793907 22.2802 1.24782 22.4911 1.83841L26.1612 13.9877H37.4879C38.0785 13.9877 38.5847 14.1666 39.0066 14.5243C39.4284 14.8837 39.7237 15.2955 39.8925 15.7595C40.0612 16.2235 40.0823 16.7298 39.9557 17.2782C39.8292 17.8266 39.5128 18.2695 39.0066 18.607L29.8313 25.1246L33.4381 36.831C33.6491 37.4216 33.6389 37.97 33.4078 38.4762C33.1749 38.9824 32.8475 39.3832 32.4257 39.6785C32.0038 39.9738 31.5187 40.1315 30.9703 40.1518C30.4219 40.1737 29.9157 39.9949 29.4516 39.6152L20.0865 32.4648Z" fill="white"/>
</svg>
