<svg width="629" height="73" viewBox="0 0 629 73" fill="none" xmlns="http://www.w3.org/2000/svg">
<path d="M4.656 19.872H8.56C9.56267 19.872 10.4907 19.7013 11.344 19.36C12.2187 18.9973 12.976 18.496 13.616 17.856C14.2773 17.216 14.7787 16.4693 15.12 15.616C15.4827 14.7627 15.664 13.8347 15.664 12.832C15.664 11.8293 15.4827 10.9013 15.12 10.048C14.7573 9.17333 14.256 8.416 13.616 7.776C12.976 7.136 12.2187 6.63467 11.344 6.272C10.4907 5.90933 9.56267 5.728 8.56 5.728H4.656V19.872ZM0.016 24V1.6H8.624C10.3093 1.6 11.8667 1.888 13.296 2.464C14.7253 3.01867 15.9733 3.808 17.04 4.832C18.1067 5.856 18.9387 7.05067 19.536 8.416C20.1547 9.78133 20.464 11.2533 20.464 12.832C20.464 14.432 20.1653 15.904 19.568 17.248C18.9707 18.592 18.128 19.776 17.04 20.8C15.9733 21.8027 14.7253 22.592 13.296 23.168C11.8667 23.7227 10.3093 24 8.624 24H0.016ZM23.353 24V7.328H27.737V9.184C28.2703 8.45867 28.9103 7.904 29.657 7.52C30.4037 7.136 31.2463 6.944 32.185 6.944C32.9957 6.96533 33.6037 7.09333 34.009 7.328V11.168C33.689 11.0187 33.337 10.912 32.953 10.848C32.569 10.7627 32.1743 10.72 31.769 10.72C30.9157 10.72 30.137 10.9333 29.433 11.36C28.729 11.7867 28.1637 12.3947 27.737 13.184V24H23.353ZM38.6875 24.32C37.9835 24.32 37.3755 24.064 36.8635 23.552C36.3515 23.04 36.0955 22.432 36.0955 21.728C36.0955 21.0027 36.3515 20.384 36.8635 19.872C37.3755 19.36 37.9835 19.104 38.6875 19.104C39.3915 19.104 39.9995 19.36 40.5115 19.872C41.0235 20.384 41.2795 21.0027 41.2795 21.728C41.2795 22.432 41.0235 23.04 40.5115 23.552C39.9995 24.064 39.3915 24.32 38.6875 24.32ZM54.367 24.352C52.703 24.352 51.1563 24.064 49.727 23.488C48.2977 22.8907 47.039 22.0693 45.951 21.024C44.8843 19.9573 44.0417 18.7307 43.423 17.344C42.8257 15.936 42.527 14.4213 42.527 12.8C42.527 11.1787 42.8257 9.67467 43.423 8.288C44.0417 6.88 44.8843 5.65333 45.951 4.608C47.039 3.54133 48.2977 2.72 49.727 2.144C51.1563 1.54667 52.703 1.248 54.367 1.248C56.031 1.248 57.5777 1.54667 59.007 2.144C60.4577 2.72 61.7163 3.54133 62.783 4.608C63.871 5.65333 64.7137 6.88 65.311 8.288C65.9083 9.67467 66.207 11.1787 66.207 12.8C66.207 14.4213 65.9083 15.936 65.311 17.344C64.7137 18.7307 63.871 19.9573 62.783 21.024C61.7163 22.0693 60.4577 22.8907 59.007 23.488C57.5777 24.064 56.031 24.352 54.367 24.352ZM54.367 20.096C55.391 20.096 56.3297 19.9147 57.183 19.552C58.0363 19.168 58.783 18.656 59.423 18.016C60.063 17.3547 60.5643 16.576 60.927 15.68C61.2897 14.784 61.471 13.824 61.471 12.8C61.471 11.7547 61.2897 10.7947 60.927 9.92C60.5643 9.024 60.063 8.256 59.423 7.616C58.783 6.95467 58.0363 6.44267 57.183 6.08C56.3297 5.696 55.391 5.504 54.367 5.504C53.3643 5.504 52.4363 5.696 51.583 6.08C50.7297 6.44267 49.983 6.95467 49.343 7.616C48.703 8.256 48.2017 9.024 47.839 9.92C47.4763 10.7947 47.295 11.744 47.295 12.768C47.295 13.8133 47.4763 14.784 47.839 15.68C48.2017 16.576 48.703 17.3547 49.343 18.016C49.983 18.656 50.7297 19.168 51.583 19.552C52.4363 19.9147 53.3643 20.096 54.367 20.096ZM69.1343 24V7.328H73.5183V8.704C74.7769 7.57333 76.3343 7.008 78.1903 7.008C79.4916 7.008 80.6329 7.296 81.6143 7.872C82.6169 8.42667 83.3956 9.20533 83.9503 10.208C84.5049 11.1893 84.7823 12.3413 84.7823 13.664V24H80.3983V14.304C80.3983 13.216 80.0889 12.3627 79.4703 11.744C78.8516 11.104 78.0089 10.784 76.9423 10.784C76.1956 10.784 75.5343 10.9333 74.9583 11.232C74.3823 11.5093 73.9023 11.9147 73.5183 12.448V24H69.1343ZM94.151 14.208C92.9563 14.208 91.8577 13.92 90.855 13.344C89.8737 12.7467 89.0843 11.9467 88.487 10.944C87.911 9.94133 87.623 8.82133 87.623 7.584C87.623 6.34667 87.911 5.23733 88.487 4.256C89.0843 3.25333 89.8737 2.464 90.855 1.888C91.8577 1.29067 92.9563 0.991999 94.151 0.991999C95.3883 0.991999 96.4977 1.29067 97.479 1.888C98.4603 2.464 99.239 3.25333 99.815 4.256C100.412 5.25867 100.711 6.368 100.711 7.584C100.711 8.82133 100.412 9.94133 99.815 10.944C99.239 11.9467 98.4603 12.7467 97.479 13.344C96.4977 13.92 95.3883 14.208 94.151 14.208ZM94.151 12.768C95.1323 12.768 95.9963 12.5547 96.743 12.128C97.4897 11.68 98.0763 11.0613 98.503 10.272C98.951 9.48267 99.175 8.58667 99.175 7.584C99.175 6.58133 98.951 5.696 98.503 4.928C98.0763 4.13867 97.4897 3.52 96.743 3.072C95.9963 2.624 95.1323 2.4 94.151 2.4C93.191 2.4 92.327 2.624 91.559 3.072C90.8123 3.52 90.2257 4.13867 89.799 4.928C89.3723 5.696 89.159 6.58133 89.159 7.584C89.159 8.58667 89.3723 9.48267 89.799 10.272C90.2257 11.04 90.8123 11.648 91.559 12.096C92.327 12.544 93.191 12.768 94.151 12.768ZM91.847 10.56V4.544H94.567C95.207 4.544 95.7083 4.71467 96.071 5.056C96.4337 5.39733 96.615 5.856 96.615 6.432C96.615 6.79467 96.519 7.12533 96.327 7.424C96.1563 7.72267 95.9003 7.95733 95.559 8.128L96.967 10.56H95.303L94.183 8.448H93.351V10.56H91.847ZM94.279 5.728H93.351V7.36H94.247C94.823 7.36 95.111 7.08267 95.111 6.528C95.111 6.272 95.0363 6.08 94.887 5.952C94.759 5.80267 94.5563 5.728 94.279 5.728ZM108.278 24L117.494 1.6H122.838L131.958 24H126.934L124.662 18.112H115.414L113.11 24H108.278ZM116.854 14.4H123.254L120.054 6.144L116.854 14.4ZM133.572 30.528V7.328H137.892V8.704C139.257 7.63733 140.836 7.104 142.628 7.104C144.206 7.104 145.636 7.488 146.916 8.256C148.196 9.024 149.209 10.0587 149.956 11.36C150.724 12.64 151.108 14.08 151.108 15.68C151.108 17.28 150.724 18.7307 149.956 20.032C149.188 21.312 148.153 22.336 146.852 23.104C145.55 23.8507 144.1 24.224 142.5 24.224C141.668 24.224 140.868 24.1173 140.1 23.904C139.332 23.6693 138.617 23.3387 137.956 22.912V30.528H133.572ZM141.924 20.512C142.841 20.512 143.662 20.2987 144.388 19.872C145.134 19.4453 145.721 18.8693 146.148 18.144C146.574 17.4187 146.788 16.5973 146.788 15.68C146.788 14.7627 146.574 13.9413 146.148 13.216C145.721 12.4693 145.134 11.8933 144.388 11.488C143.662 11.0613 142.841 10.848 141.924 10.848C141.113 10.848 140.366 10.9867 139.684 11.264C139.022 11.52 138.446 11.9147 137.956 12.448V18.944C138.425 19.4347 139.001 19.8187 139.684 20.096C140.388 20.3733 141.134 20.512 141.924 20.512ZM153.759 30.528V7.328H158.079V8.704C159.445 7.63733 161.023 7.104 162.815 7.104C164.394 7.104 165.823 7.488 167.103 8.256C168.383 9.024 169.397 10.0587 170.143 11.36C170.911 12.64 171.295 14.08 171.295 15.68C171.295 17.28 170.911 18.7307 170.143 20.032C169.375 21.312 168.341 22.336 167.039 23.104C165.738 23.8507 164.287 24.224 162.687 24.224C161.855 24.224 161.055 24.1173 160.287 23.904C159.519 23.6693 158.805 23.3387 158.143 22.912V30.528H153.759ZM162.111 20.512C163.029 20.512 163.85 20.2987 164.575 19.872C165.322 19.4453 165.909 18.8693 166.335 18.144C166.762 17.4187 166.975 16.5973 166.975 15.68C166.975 14.7627 166.762 13.9413 166.335 13.216C165.909 12.4693 165.322 11.8933 164.575 11.488C163.85 11.0613 163.029 10.848 162.111 10.848C161.301 10.848 160.554 10.9867 159.871 11.264C159.21 11.52 158.634 11.9147 158.143 12.448V18.944C158.613 19.4347 159.189 19.8187 159.871 20.096C160.575 20.3733 161.322 20.512 162.111 20.512ZM176.125 24.32C175.421 24.32 174.813 24.064 174.301 23.552C173.789 23.04 173.533 22.432 173.533 21.728C173.533 21.0027 173.789 20.384 174.301 19.872C174.813 19.36 175.421 19.104 176.125 19.104C176.829 19.104 177.437 19.36 177.949 19.872C178.461 20.384 178.717 21.0027 178.717 21.728C178.717 22.432 178.461 23.04 177.949 23.552C177.437 24.064 176.829 24.32 176.125 24.32ZM176.125 12.224C175.421 12.224 174.813 11.968 174.301 11.456C173.789 10.944 173.533 10.336 173.533 9.632C173.533 8.90667 173.789 8.288 174.301 7.776C174.813 7.264 175.421 7.008 176.125 7.008C176.829 7.008 177.437 7.264 177.949 7.776C178.461 8.288 178.717 8.90667 178.717 9.632C178.717 10.336 178.461 10.944 177.949 11.456C177.437 11.968 176.829 12.224 176.125 12.224ZM199.555 24.352C197.891 24.352 196.344 24.064 194.915 23.488C193.485 22.8907 192.227 22.0693 191.139 21.024C190.072 19.9573 189.229 18.7307 188.611 17.344C188.013 15.936 187.715 14.4213 187.715 12.8C187.715 11.1787 188.013 9.67467 188.611 8.288C189.229 6.88 190.072 5.65333 191.139 4.608C192.227 3.54133 193.485 2.72 194.915 2.144C196.344 1.54667 197.891 1.248 199.555 1.248C201.219 1.248 202.765 1.54667 204.194 2.144C205.645 2.72 206.904 3.54133 207.971 4.608C209.059 5.65333 209.901 6.88 210.499 8.288C211.096 9.67467 211.395 11.1787 211.395 12.8C211.395 14.4213 211.096 15.936 210.499 17.344C209.901 18.7307 209.059 19.9573 207.971 21.024C206.904 22.0693 205.645 22.8907 204.194 23.488C202.765 24.064 201.219 24.352 199.555 24.352ZM199.555 20.096C200.579 20.096 201.517 19.9147 202.371 19.552C203.224 19.168 203.971 18.656 204.611 18.016C205.251 17.3547 205.752 16.576 206.115 15.68C206.477 14.784 206.659 13.824 206.659 12.8C206.659 11.7547 206.477 10.7947 206.115 9.92C205.752 9.024 205.251 8.256 204.611 7.616C203.971 6.95467 203.224 6.44267 202.371 6.08C201.517 5.696 200.579 5.504 199.555 5.504C198.552 5.504 197.624 5.696 196.771 6.08C195.917 6.44267 195.171 6.95467 194.531 7.616C193.891 8.256 193.389 9.024 193.027 9.92C192.664 10.7947 192.483 11.744 192.483 12.768C192.483 13.8133 192.664 14.784 193.027 15.68C193.389 16.576 193.891 17.3547 194.531 18.016C195.171 18.656 195.917 19.168 196.771 19.552C197.624 19.9147 198.552 20.096 199.555 20.096ZM220.759 30.528V7.328H225.079V8.704C226.445 7.63733 228.023 7.104 229.815 7.104C231.394 7.104 232.823 7.488 234.103 8.256C235.383 9.024 236.397 10.0587 237.143 11.36C237.911 12.64 238.295 14.08 238.295 15.68C238.295 17.28 237.911 18.7307 237.143 20.032C236.375 21.312 235.341 22.336 234.039 23.104C232.738 23.8507 231.287 24.224 229.687 24.224C228.855 24.224 228.055 24.1173 227.287 23.904C226.519 23.6693 225.805 23.3387 225.143 22.912V30.528H220.759ZM229.111 20.512C230.029 20.512 230.85 20.2987 231.575 19.872C232.322 19.4453 232.909 18.8693 233.335 18.144C233.762 17.4187 233.975 16.5973 233.975 15.68C233.975 14.7627 233.762 13.9413 233.335 13.216C232.909 12.4693 232.322 11.8933 231.575 11.488C230.85 11.0613 230.029 10.848 229.111 10.848C228.301 10.848 227.554 10.9867 226.871 11.264C226.21 11.52 225.634 11.9147 225.143 12.448V18.944C225.613 19.4347 226.189 19.8187 226.871 20.096C227.575 20.3733 228.322 20.512 229.111 20.512ZM240.947 24V7.328H245.331V9.184C245.864 8.45867 246.504 7.904 247.251 7.52C247.997 7.136 248.84 6.944 249.779 6.944C250.589 6.96533 251.197 7.09333 251.603 7.328V11.168C251.283 11.0187 250.931 10.912 250.547 10.848C250.163 10.7627 249.768 10.72 249.363 10.72C248.509 10.72 247.731 10.9333 247.027 11.36C246.323 11.7867 245.757 12.3947 245.331 13.184V24H240.947ZM254.009 24V7.328H258.393V24H254.009ZM256.185 5.344C255.503 5.344 254.916 5.09867 254.425 4.608C253.935 4.11733 253.689 3.53067 253.689 2.848C253.689 2.144 253.935 1.55733 254.425 1.088C254.916 0.597333 255.503 0.351999 256.185 0.351999C256.889 0.351999 257.476 0.597333 257.945 1.088C258.436 1.55733 258.681 2.144 258.681 2.848C258.681 3.53067 258.436 4.11733 257.945 4.608C257.476 5.09867 256.889 5.344 256.185 5.344ZM261.822 24V7.328H266.206V8.704C267.464 7.57333 269.022 7.008 270.878 7.008C272.179 7.008 273.32 7.296 274.302 7.872C275.304 8.42667 276.083 9.20533 276.638 10.208C277.192 11.1893 277.47 12.3413 277.47 13.664V24H273.086V14.304C273.086 13.216 272.776 12.3627 272.158 11.744C271.539 11.104 270.696 10.784 269.63 10.784C268.883 10.784 268.222 10.9333 267.646 11.232C267.07 11.5093 266.59 11.9147 266.206 12.448V24H261.822ZM288.759 24.32C287.116 24.32 285.633 23.9467 284.311 23.2C282.988 22.432 281.943 21.3973 281.174 20.096C280.407 18.7733 280.023 17.3013 280.023 15.68C280.023 14.0373 280.407 12.5653 281.174 11.264C281.943 9.96267 282.988 8.928 284.311 8.16C285.633 7.392 287.116 7.008 288.759 7.008C290.081 7.008 291.34 7.264 292.535 7.776C293.751 8.288 294.796 9.024 295.671 9.984L292.983 12.832C292.364 12.1493 291.713 11.648 291.031 11.328C290.369 10.9867 289.644 10.816 288.855 10.816C288.001 10.816 287.233 11.0293 286.551 11.456C285.889 11.8827 285.356 12.4587 284.951 13.184C284.567 13.9093 284.375 14.7413 284.375 15.68C284.375 16.576 284.567 17.3973 284.951 18.144C285.356 18.8693 285.911 19.4453 286.615 19.872C287.319 20.2773 288.097 20.48 288.951 20.48C289.697 20.48 290.391 20.3307 291.031 20.032C291.692 19.712 292.321 19.2427 292.919 18.624L295.543 21.376C294.689 22.2933 293.665 23.0187 292.471 23.552C291.276 24.064 290.039 24.32 288.759 24.32ZM297.822 24V7.328H302.206V24H297.822ZM299.998 5.344C299.315 5.344 298.728 5.09867 298.238 4.608C297.747 4.11733 297.502 3.53067 297.502 2.848C297.502 2.144 297.747 1.55733 298.238 1.088C298.728 0.597333 299.315 0.351999 299.998 0.351999C300.702 0.351999 301.288 0.597333 301.758 1.088C302.248 1.55733 302.494 2.144 302.494 2.848C302.494 3.53067 302.248 4.11733 301.758 4.608C301.288 5.09867 300.702 5.344 299.998 5.344ZM305.634 30.528V7.328H309.954V8.704C311.32 7.63733 312.898 7.104 314.69 7.104C316.269 7.104 317.698 7.488 318.978 8.256C320.258 9.024 321.272 10.0587 322.018 11.36C322.786 12.64 323.17 14.08 323.17 15.68C323.17 17.28 322.786 18.7307 322.018 20.032C321.25 21.312 320.216 22.336 318.914 23.104C317.613 23.8507 316.162 24.224 314.562 24.224C313.73 24.224 312.93 24.1173 312.162 23.904C311.394 23.6693 310.68 23.3387 310.018 22.912V30.528H305.634ZM313.986 20.512C314.904 20.512 315.725 20.2987 316.45 19.872C317.197 19.4453 317.784 18.8693 318.21 18.144C318.637 17.4187 318.85 16.5973 318.85 15.68C318.85 14.7627 318.637 13.9413 318.21 13.216C317.784 12.4693 317.197 11.8933 316.45 11.488C315.725 11.0613 314.904 10.848 313.986 10.848C313.176 10.848 312.429 10.9867 311.746 11.264C311.085 11.52 310.509 11.9147 310.018 12.448V18.944C310.488 19.4347 311.064 19.8187 311.746 20.096C312.45 20.3733 313.197 20.512 313.986 20.512ZM331.29 24.288C330.095 24.288 329.039 24.0747 328.122 23.648C327.205 23.2 326.49 22.592 325.978 21.824C325.466 21.056 325.21 20.1707 325.21 19.168C325.21 17.568 325.807 16.3307 327.002 15.456C328.218 14.56 329.882 14.112 331.994 14.112C333.445 14.112 334.81 14.336 336.09 14.784V13.568C336.09 12.608 335.791 11.8827 335.194 11.392C334.597 10.9013 333.722 10.656 332.57 10.656C331.866 10.656 331.109 10.7733 330.298 11.008C329.487 11.2213 328.549 11.5627 327.482 12.032L325.882 8.8C327.205 8.20267 328.463 7.75467 329.658 7.456C330.874 7.15733 332.09 7.008 333.306 7.008C335.546 7.008 337.285 7.552 338.522 8.64C339.781 9.70667 340.41 11.2213 340.41 13.184V24H336.09V22.816C335.407 23.328 334.671 23.7013 333.882 23.936C333.093 24.1707 332.229 24.288 331.29 24.288ZM329.37 19.072C329.37 19.712 329.647 20.224 330.202 20.608C330.757 20.9707 331.493 21.152 332.41 21.152C333.135 21.152 333.807 21.0667 334.426 20.896C335.045 20.704 335.599 20.4267 336.09 20.064V17.632C335.557 17.4187 335.002 17.2587 334.426 17.152C333.85 17.0453 333.231 16.992 332.57 16.992C331.567 16.992 330.778 17.184 330.202 17.568C329.647 17.9307 329.37 18.432 329.37 19.072ZM343.728 24V1.6L348.112 0.863998V24H343.728ZM357.978 30.528V7.328H362.298V8.704C363.663 7.63733 365.242 7.104 367.034 7.104C368.613 7.104 370.042 7.488 371.322 8.256C372.602 9.024 373.615 10.0587 374.362 11.36C375.13 12.64 375.514 14.08 375.514 15.68C375.514 17.28 375.13 18.7307 374.362 20.032C373.594 21.312 372.559 22.336 371.258 23.104C369.957 23.8507 368.506 24.224 366.906 24.224C366.074 24.224 365.274 24.1173 364.506 23.904C363.738 23.6693 363.023 23.3387 362.362 22.912V30.528H357.978ZM366.33 20.512C367.247 20.512 368.069 20.2987 368.794 19.872C369.541 19.4453 370.127 18.8693 370.554 18.144C370.981 17.4187 371.194 16.5973 371.194 15.68C371.194 14.7627 370.981 13.9413 370.554 13.216C370.127 12.4693 369.541 11.8933 368.794 11.488C368.069 11.0613 367.247 10.848 366.33 10.848C365.519 10.848 364.773 10.9867 364.09 11.264C363.429 11.52 362.853 11.9147 362.362 12.448V18.944C362.831 19.4347 363.407 19.8187 364.09 20.096C364.794 20.3733 365.541 20.512 366.33 20.512ZM378.166 24V7.328H382.55V9.184C383.083 8.45867 383.723 7.904 384.47 7.52C385.216 7.136 386.059 6.944 386.998 6.944C387.808 6.96533 388.416 7.09333 388.822 7.328V11.168C388.502 11.0187 388.15 10.912 387.766 10.848C387.382 10.7627 386.987 10.72 386.582 10.72C385.728 10.72 384.95 10.9333 384.246 11.36C383.542 11.7867 382.976 12.3947 382.55 13.184V24H378.166ZM398.669 24.32C397.005 24.32 395.501 23.936 394.157 23.168C392.813 22.4 391.746 21.3653 390.957 20.064C390.167 18.7627 389.773 17.3013 389.773 15.68C389.773 14.0587 390.157 12.5973 390.924 11.296C391.714 9.97333 392.781 8.928 394.125 8.16C395.49 7.392 397.005 7.008 398.669 7.008C400.333 7.008 401.837 7.392 403.181 8.16C404.546 8.928 405.613 9.97333 406.381 11.296C407.17 12.5973 407.565 14.0587 407.565 15.68C407.565 17.3013 407.17 18.7627 406.381 20.064C405.613 21.3653 404.557 22.4 403.213 23.168C401.869 23.936 400.354 24.32 398.669 24.32ZM398.669 20.512C399.543 20.512 400.322 20.2987 401.005 19.872C401.709 19.4453 402.263 18.8693 402.669 18.144C403.095 17.3973 403.309 16.576 403.309 15.68C403.309 14.7627 403.095 13.9413 402.669 13.216C402.263 12.4907 401.709 11.9147 401.005 11.488C400.322 11.04 399.543 10.816 398.669 10.816C397.815 10.816 397.037 11.04 396.333 11.488C395.629 11.9147 395.074 12.4907 394.669 13.216C394.263 13.9413 394.061 14.7627 394.061 15.68C394.061 16.576 394.263 17.3973 394.669 18.144C395.074 18.8693 395.629 19.4453 396.333 19.872C397.037 20.2987 397.815 20.512 398.669 20.512ZM412.435 5.344C411.753 5.344 411.166 5.09867 410.675 4.608C410.185 4.11733 409.939 3.53067 409.939 2.848C409.939 2.144 410.185 1.55733 410.675 1.088C411.166 0.597333 411.753 0.351999 412.435 0.351999C413.139 0.351999 413.726 0.597333 414.195 1.088C414.686 1.55733 414.931 2.144 414.931 2.848C414.931 3.53067 414.686 4.11733 414.195 4.608C413.726 5.09867 413.139 5.344 412.435 5.344ZM409.235 30.848C408.83 30.848 408.414 30.816 407.987 30.752C407.561 30.7093 407.219 30.6453 406.963 30.56V27.2C407.347 27.2853 407.817 27.328 408.371 27.328C409.011 27.328 409.481 27.1893 409.779 26.912C410.099 26.656 410.259 26.2293 410.259 25.632V7.328H414.643V25.888C414.643 27.4667 414.174 28.6827 413.235 29.536C412.297 30.4107 410.963 30.848 409.235 30.848ZM426.232 24.32C424.568 24.32 423.053 23.936 421.688 23.168C420.344 22.4 419.277 21.3653 418.488 20.064C417.698 18.7627 417.304 17.3013 417.304 15.68C417.304 14.0587 417.677 12.5973 418.424 11.296C419.192 9.99467 420.226 8.96 421.528 8.192C422.829 7.424 424.28 7.04 425.88 7.04C427.48 7.04 428.898 7.43467 430.136 8.224C431.373 9.01333 432.344 10.08 433.048 11.424C433.773 12.768 434.136 14.2933 434.136 16V17.152H421.784C421.976 17.8133 422.285 18.4107 422.712 18.944C423.16 19.4773 423.704 19.8933 424.344 20.192C425.005 20.4907 425.709 20.64 426.456 20.64C427.202 20.64 427.885 20.5227 428.504 20.288C429.144 20.0533 429.688 19.7227 430.136 19.296L433.016 21.92C431.992 22.752 430.936 23.36 429.848 23.744C428.781 24.128 427.576 24.32 426.232 24.32ZM421.72 14.016H429.816C429.666 13.3547 429.389 12.7787 428.984 12.288C428.6 11.776 428.13 11.3813 427.576 11.104C427.042 10.8053 426.445 10.656 425.784 10.656C425.101 10.656 424.482 10.7947 423.928 11.072C423.373 11.3493 422.904 11.744 422.52 12.256C422.157 12.7467 421.89 13.3333 421.72 14.016ZM444.257 24.256C442.401 24.256 440.993 23.84 440.033 23.008C439.094 22.1547 438.625 20.9173 438.625 19.296V10.976H435.201V7.328H438.625V3.072L443.009 2.08V7.328H447.777V10.976H443.009V18.4C443.009 19.168 443.18 19.7227 443.521 20.064C443.862 20.384 444.46 20.544 445.313 20.544C445.74 20.544 446.124 20.5227 446.465 20.48C446.828 20.416 447.222 20.3093 447.649 20.16V23.776C447.201 23.9253 446.636 24.0427 445.953 24.128C445.292 24.2133 444.726 24.256 444.257 24.256ZM457.856 24.32C456.192 24.32 454.688 23.936 453.344 23.168C452 22.4 450.933 21.3653 450.144 20.064C449.355 18.7627 448.96 17.3013 448.96 15.68C448.96 14.0587 449.344 12.5973 450.112 11.296C450.901 9.97333 451.968 8.928 453.312 8.16C454.677 7.392 456.192 7.008 457.856 7.008C459.52 7.008 461.024 7.392 462.368 8.16C463.733 8.928 464.8 9.97333 465.568 11.296C466.357 12.5973 466.752 14.0587 466.752 15.68C466.752 17.3013 466.357 18.7627 465.568 20.064C464.8 21.3653 463.744 22.4 462.4 23.168C461.056 23.936 459.541 24.32 457.856 24.32ZM457.856 20.512C458.731 20.512 459.509 20.2987 460.192 19.872C460.896 19.4453 461.451 18.8693 461.856 18.144C462.283 17.3973 462.496 16.576 462.496 15.68C462.496 14.7627 462.283 13.9413 461.856 13.216C461.451 12.4907 460.896 11.9147 460.192 11.488C459.509 11.04 458.731 10.816 457.856 10.816C457.003 10.816 456.224 11.04 455.52 11.488C454.816 11.9147 454.261 12.4907 453.856 13.216C453.451 13.9413 453.248 14.7627 453.248 15.68C453.248 16.576 453.451 17.3973 453.856 18.144C454.261 18.8693 454.816 19.4453 455.52 19.872C456.224 20.2987 457.003 20.512 457.856 20.512ZM475.884 24V7.328H480.268V8.704C481.527 7.57333 483.084 7.008 484.94 7.008C486.242 7.008 487.383 7.296 488.364 7.872C489.367 8.42667 490.146 9.20533 490.7 10.208C491.255 11.1893 491.532 12.3413 491.532 13.664V24H487.148V14.304C487.148 13.216 486.839 12.3627 486.22 11.744C485.602 11.104 484.759 10.784 483.692 10.784C482.946 10.784 482.284 10.9333 481.708 11.232C481.132 11.5093 480.652 11.9147 480.268 12.448V24H475.884ZM500.165 24.288C498.97 24.288 497.914 24.0747 496.997 23.648C496.08 23.2 495.365 22.592 494.853 21.824C494.341 21.056 494.085 20.1707 494.085 19.168C494.085 17.568 494.682 16.3307 495.877 15.456C497.093 14.56 498.757 14.112 500.869 14.112C502.32 14.112 503.685 14.336 504.965 14.784V13.568C504.965 12.608 504.666 11.8827 504.069 11.392C503.472 10.9013 502.597 10.656 501.445 10.656C500.741 10.656 499.984 10.7733 499.173 11.008C498.362 11.2213 497.424 11.5627 496.357 12.032L494.757 8.8C496.08 8.20267 497.338 7.75467 498.533 7.456C499.749 7.15733 500.965 7.008 502.181 7.008C504.421 7.008 506.16 7.552 507.397 8.64C508.656 9.70667 509.285 11.2213 509.285 13.184V24H504.965V22.816C504.282 23.328 503.546 23.7013 502.757 23.936C501.968 24.1707 501.104 24.288 500.165 24.288ZM498.245 19.072C498.245 19.712 498.522 20.224 499.077 20.608C499.632 20.9707 500.368 21.152 501.285 21.152C502.01 21.152 502.682 21.0667 503.301 20.896C503.92 20.704 504.474 20.4267 504.965 20.064V17.632C504.432 17.4187 503.877 17.2587 503.301 17.152C502.725 17.0453 502.106 16.992 501.445 16.992C500.442 16.992 499.653 17.184 499.077 17.568C498.522 17.9307 498.245 18.432 498.245 19.072ZM524.353 24.288C523.158 24.288 522.102 24.0747 521.185 23.648C520.267 23.2 519.553 22.592 519.041 21.824C518.529 21.056 518.273 20.1707 518.273 19.168C518.273 17.568 518.87 16.3307 520.065 15.456C521.281 14.56 522.945 14.112 525.057 14.112C526.507 14.112 527.873 14.336 529.153 14.784V13.568C529.153 12.608 528.854 11.8827 528.257 11.392C527.659 10.9013 526.785 10.656 525.633 10.656C524.929 10.656 524.171 10.7733 523.361 11.008C522.55 11.2213 521.611 11.5627 520.545 12.032L518.945 8.8C520.267 8.20267 521.526 7.75467 522.721 7.456C523.937 7.15733 525.153 7.008 526.369 7.008C528.609 7.008 530.347 7.552 531.585 8.64C532.843 9.70667 533.472 11.2213 533.472 13.184V24H529.153V22.816C528.47 23.328 527.734 23.7013 526.945 23.936C526.155 24.1707 525.291 24.288 524.353 24.288ZM522.433 19.072C522.433 19.712 522.71 20.224 523.265 20.608C523.819 20.9707 524.555 21.152 525.473 21.152C526.198 21.152 526.87 21.0667 527.489 20.896C528.107 20.704 528.662 20.4267 529.153 20.064V17.632C528.619 17.4187 528.065 17.2587 527.489 17.152C526.913 17.0453 526.294 16.992 525.633 16.992C524.63 16.992 523.841 17.184 523.265 17.568C522.71 17.9307 522.433 18.432 522.433 19.072ZM523.361 4.544L526.241 0.383999H531.233L526.913 4.544H523.361ZM536.791 24V7.328H541.175V9.184C541.708 8.45867 542.348 7.904 543.095 7.52C543.841 7.136 544.684 6.944 545.623 6.944C546.433 6.96533 547.041 7.09333 547.447 7.328V11.168C547.127 11.0187 546.775 10.912 546.391 10.848C546.007 10.7627 545.612 10.72 545.207 10.72C544.353 10.72 543.575 10.9333 542.871 11.36C542.167 11.7867 541.601 12.3947 541.175 13.184V24H536.791ZM557.326 24.32C555.662 24.32 554.147 23.936 552.782 23.168C551.438 22.4 550.371 21.3653 549.582 20.064C548.792 18.7627 548.398 17.3013 548.398 15.68C548.398 14.0587 548.771 12.5973 549.518 11.296C550.286 9.99467 551.32 8.96 552.622 8.192C553.923 7.424 555.374 7.04 556.974 7.04C558.574 7.04 559.992 7.43467 561.23 8.224C562.467 9.01333 563.438 10.08 564.142 11.424C564.867 12.768 565.23 14.2933 565.23 16V17.152H552.878C553.07 17.8133 553.379 18.4107 553.806 18.944C554.254 19.4773 554.798 19.8933 555.438 20.192C556.099 20.4907 556.803 20.64 557.55 20.64C558.296 20.64 558.979 20.5227 559.598 20.288C560.238 20.0533 560.782 19.7227 561.23 19.296L564.11 21.92C563.086 22.752 562.03 23.36 560.942 23.744C559.875 24.128 558.67 24.32 557.326 24.32ZM552.814 14.016H560.91C560.76 13.3547 560.483 12.7787 560.078 12.288C559.694 11.776 559.224 11.3813 558.67 11.104C558.136 10.8053 557.539 10.656 556.878 10.656C556.195 10.656 555.576 10.7947 555.022 11.072C554.467 11.3493 553.998 11.744 553.614 12.256C553.251 12.7467 552.984 13.3333 552.814 14.016ZM573.134 24.288C571.939 24.288 570.883 24.0747 569.966 23.648C569.048 23.2 568.334 22.592 567.822 21.824C567.31 21.056 567.054 20.1707 567.054 19.168C567.054 17.568 567.651 16.3307 568.846 15.456C570.062 14.56 571.726 14.112 573.838 14.112C575.288 14.112 576.654 14.336 577.934 14.784V13.568C577.934 12.608 577.635 11.8827 577.038 11.392C576.44 10.9013 575.566 10.656 574.414 10.656C573.71 10.656 572.952 10.7733 572.142 11.008C571.331 11.2213 570.392 11.5627 569.326 12.032L567.726 8.8C569.048 8.20267 570.307 7.75467 571.502 7.456C572.718 7.15733 573.934 7.008 575.15 7.008C577.39 7.008 579.128 7.552 580.366 8.64C581.624 9.70667 582.254 11.2213 582.254 13.184V24H577.934V22.816C577.251 23.328 576.515 23.7013 575.726 23.936C574.936 24.1707 574.072 24.288 573.134 24.288ZM571.214 19.072C571.214 19.712 571.491 20.224 572.046 20.608C572.6 20.9707 573.336 21.152 574.254 21.152C574.979 21.152 575.651 21.0667 576.27 20.896C576.888 20.704 577.443 20.4267 577.934 20.064V17.632C577.4 17.4187 576.846 17.2587 576.27 17.152C575.694 17.0453 575.075 16.992 574.414 16.992C573.411 16.992 572.622 17.184 572.046 17.568C571.491 17.9307 571.214 18.432 571.214 19.072ZM599.721 24.224C598.143 24.224 596.713 23.84 595.433 23.072C594.153 22.304 593.129 21.28 592.361 20C591.615 18.6987 591.241 17.248 591.241 15.648C591.241 14.048 591.615 12.608 592.361 11.328C593.129 10.0267 594.164 9.00267 595.465 8.256C596.767 7.488 598.228 7.104 599.849 7.104C600.681 7.104 601.481 7.22133 602.249 7.456C603.017 7.66933 603.732 7.98933 604.393 8.416V1.6L608.777 0.863998V24H604.457V22.624C603.092 23.6907 601.513 24.224 599.721 24.224ZM600.425 20.48C601.236 20.48 601.972 20.352 602.633 20.096C603.316 19.8187 603.903 19.4133 604.393 18.88V12.384C603.903 11.8933 603.316 11.5093 602.633 11.232C601.951 10.9547 601.215 10.816 600.425 10.816C599.508 10.816 598.676 11.0293 597.929 11.456C597.204 11.8613 596.628 12.4373 596.201 13.184C595.775 13.9093 595.561 14.7307 595.561 15.648C595.561 16.5653 595.775 17.3867 596.201 18.112C596.628 18.8373 597.204 19.4133 597.929 19.84C598.676 20.2667 599.508 20.48 600.425 20.48ZM620.357 24.32C618.693 24.32 617.178 23.936 615.813 23.168C614.469 22.4 613.402 21.3653 612.613 20.064C611.823 18.7627 611.429 17.3013 611.429 15.68C611.429 14.0587 611.802 12.5973 612.549 11.296C613.317 9.99467 614.351 8.96 615.653 8.192C616.954 7.424 618.405 7.04 620.005 7.04C621.605 7.04 623.023 7.43467 624.261 8.224C625.498 9.01333 626.469 10.08 627.173 11.424C627.898 12.768 628.261 14.2933 628.261 16V17.152H615.909C616.101 17.8133 616.41 18.4107 616.837 18.944C617.285 19.4773 617.829 19.8933 618.469 20.192C619.13 20.4907 619.834 20.64 620.581 20.64C621.327 20.64 622.01 20.5227 622.629 20.288C623.269 20.0533 623.813 19.7227 624.261 19.296L627.141 21.92C626.117 22.752 625.061 23.36 623.973 23.744C622.906 24.128 621.701 24.32 620.357 24.32ZM615.845 14.016H623.941C623.791 13.3547 623.514 12.7787 623.109 12.288C622.725 11.776 622.255 11.3813 621.701 11.104C621.167 10.8053 620.57 10.656 619.909 10.656C619.226 10.656 618.607 10.7947 618.053 11.072C617.498 11.3493 617.029 11.744 616.645 12.256C616.282 12.7467 616.015 13.3333 615.845 14.016ZM0.016 66V43.6H4.656V52.624H14.96V43.6H19.6V66H14.96V56.816H4.656V66H0.016ZM31.5443 66.32C29.8803 66.32 28.3656 65.936 27.0003 65.168C25.6563 64.4 24.5896 63.3653 23.8003 62.064C23.0109 60.7627 22.6163 59.3013 22.6163 57.68C22.6163 56.0587 22.9896 54.5973 23.7363 53.296C24.5043 51.9947 25.5389 50.96 26.8403 50.192C28.1416 49.424 29.5923 49.04 31.1923 49.04C32.7923 49.04 34.2109 49.4347 35.4483 50.224C36.6856 51.0133 37.6563 52.08 38.3603 53.424C39.0856 54.768 39.4483 56.2933 39.4483 58V59.152H27.0963C27.2883 59.8133 27.5976 60.4107 28.0243 60.944C28.4723 61.4773 29.0163 61.8933 29.6562 62.192C30.3176 62.4907 31.0216 62.64 31.7683 62.64C32.5149 62.64 33.1976 62.5227 33.8163 62.288C34.4563 62.0533 35.0003 61.7227 35.4483 61.296L38.3283 63.92C37.3043 64.752 36.2483 65.36 35.1603 65.744C34.0936 66.128 32.8883 66.32 31.5443 66.32ZM27.0323 56.016H35.1283C34.9789 55.3547 34.7016 54.7787 34.2963 54.288C33.9123 53.776 33.4429 53.3813 32.8883 53.104C32.3549 52.8053 31.7576 52.656 31.0963 52.656C30.4136 52.656 29.7949 52.7947 29.2403 53.072C28.6856 53.3493 28.2163 53.744 27.8323 54.256C27.4696 54.7467 27.2029 55.3333 27.0323 56.016ZM47.3525 66.288C46.1578 66.288 45.1018 66.0747 44.1845 65.648C43.2672 65.2 42.5525 64.592 42.0405 63.824C41.5285 63.056 41.2725 62.1707 41.2725 61.168C41.2725 59.568 41.8698 58.3307 43.0645 57.456C44.2805 56.56 45.9445 56.112 48.0565 56.112C49.5072 56.112 50.8725 56.336 52.1525 56.784V55.568C52.1525 54.608 51.8538 53.8827 51.2565 53.392C50.6592 52.9013 49.7845 52.656 48.6325 52.656C47.9285 52.656 47.1712 52.7733 46.3605 53.008C45.5498 53.2213 44.6112 53.5627 43.5445 54.032L41.9445 50.8C43.2672 50.2027 44.5258 49.7547 45.7205 49.456C46.9365 49.1573 48.1525 49.008 49.3685 49.008C51.6085 49.008 53.3472 49.552 54.5845 50.64C55.8432 51.7067 56.4725 53.2213 56.4725 55.184V66H52.1525V64.816C51.4698 65.328 50.7338 65.7013 49.9445 65.936C49.1552 66.1707 48.2912 66.288 47.3525 66.288ZM45.4325 61.072C45.4325 61.712 45.7098 62.224 46.2645 62.608C46.8192 62.9707 47.5552 63.152 48.4725 63.152C49.1978 63.152 49.8698 63.0667 50.4885 62.896C51.1072 62.704 51.6618 62.4267 52.1525 62.064V59.632C51.6192 59.4187 51.0645 59.2587 50.4885 59.152C49.9125 59.0453 49.2938 58.992 48.6325 58.992C47.6298 58.992 46.8405 59.184 46.2645 59.568C45.7098 59.9307 45.4325 60.432 45.4325 61.072ZM59.7905 66V43.6L64.1745 42.864V66H59.7905ZM75.507 66.256C73.651 66.256 72.243 65.84 71.283 65.008C70.3443 64.1547 69.875 62.9173 69.875 61.296V52.976H66.451V49.328H69.875V45.072L74.259 44.08V49.328H79.027V52.976H74.259V60.4C74.259 61.168 74.4297 61.7227 74.771 62.064C75.1123 62.384 75.7097 62.544 76.563 62.544C76.9897 62.544 77.3737 62.5227 77.715 62.48C78.0777 62.416 78.4723 62.3093 78.899 62.16V65.776C78.451 65.9253 77.8857 66.0427 77.203 66.128C76.5417 66.2133 75.9763 66.256 75.507 66.256ZM81.1655 66V43.6L85.5495 42.64V50.704C86.8082 49.5733 88.3655 49.008 90.2215 49.008C91.5228 49.008 92.6642 49.296 93.6455 49.872C94.6482 50.4267 95.4268 51.2053 95.9815 52.208C96.5362 53.1893 96.8135 54.3413 96.8135 55.664V66H92.4295V56.304C92.4295 55.216 92.1202 54.3627 91.5015 53.744C90.8828 53.104 90.0402 52.784 88.9735 52.784C88.2268 52.784 87.5655 52.9333 86.9895 53.232C86.4135 53.5093 85.9335 53.9147 85.5495 54.448V66H81.1655ZM106.86 66V43.6H124.076V47.632H111.5V52.752H119.788V56.656H111.5V61.968H124.204V66H106.86ZM133.971 66.224C132.393 66.224 130.963 65.84 129.683 65.072C128.403 64.304 127.379 63.28 126.611 62C125.865 60.6987 125.491 59.248 125.491 57.648C125.491 56.048 125.865 54.608 126.611 53.328C127.379 52.0267 128.414 51.0027 129.715 50.256C131.017 49.488 132.478 49.104 134.099 49.104C134.931 49.104 135.731 49.2213 136.499 49.456C137.267 49.6693 137.982 49.9893 138.643 50.416V43.6L143.027 42.864V66H138.707V64.624C137.342 65.6907 135.763 66.224 133.971 66.224ZM134.675 62.48C135.486 62.48 136.222 62.352 136.883 62.096C137.566 61.8187 138.153 61.4133 138.643 60.88V54.384C138.153 53.8933 137.566 53.5093 136.883 53.232C136.201 52.9547 135.465 52.816 134.675 52.816C133.758 52.816 132.926 53.0293 132.179 53.456C131.454 53.8613 130.878 54.4373 130.451 55.184C130.025 55.9093 129.811 56.7307 129.811 57.648C129.811 58.5653 130.025 59.3867 130.451 60.112C130.878 60.8373 131.454 61.4133 132.179 61.84C132.926 62.2667 133.758 62.48 134.675 62.48ZM154.351 66.256C152.495 66.256 151.087 65.84 150.127 65.008C149.188 64.1547 148.719 62.9173 148.719 61.296V52.976H145.295V49.328H148.719V45.072L153.103 44.08V49.328H157.871V52.976H153.103V60.4C153.103 61.168 153.273 61.7227 153.615 62.064C153.956 62.384 154.553 62.544 155.407 62.544C155.833 62.544 156.217 62.5227 156.559 62.48C156.921 62.416 157.316 62.3093 157.743 62.16V65.776C157.295 65.9253 156.729 66.0427 156.047 66.128C155.385 66.2133 154.82 66.256 154.351 66.256ZM167.982 66.32C166.318 66.32 164.803 65.936 163.438 65.168C162.094 64.4 161.027 63.3653 160.238 62.064C159.448 60.7627 159.054 59.3013 159.054 57.68C159.054 56.0587 159.427 54.5973 160.174 53.296C160.942 51.9947 161.976 50.96 163.278 50.192C164.579 49.424 166.03 49.04 167.63 49.04C169.23 49.04 170.648 49.4347 171.886 50.224C173.123 51.0133 174.094 52.08 174.798 53.424C175.523 54.768 175.886 56.2933 175.886 58V59.152H163.534C163.726 59.8133 164.035 60.4107 164.462 60.944C164.91 61.4773 165.454 61.8933 166.094 62.192C166.755 62.4907 167.459 62.64 168.206 62.64C168.952 62.64 169.635 62.5227 170.254 62.288C170.894 62.0533 171.438 61.7227 171.886 61.296L174.766 63.92C173.742 64.752 172.686 65.36 171.598 65.744C170.531 66.128 169.326 66.32 167.982 66.32ZM163.47 56.016H171.566C171.416 55.3547 171.139 54.7787 170.734 54.288C170.35 53.776 169.88 53.3813 169.326 53.104C168.792 52.8053 168.195 52.656 167.534 52.656C166.851 52.656 166.232 52.7947 165.678 53.072C165.123 53.3493 164.654 53.744 164.27 54.256C163.907 54.7467 163.64 55.3333 163.47 56.016ZM186.665 66.32C185.022 66.32 183.539 65.9467 182.217 65.2C180.894 64.432 179.849 63.3973 179.081 62.096C178.313 60.7733 177.929 59.3013 177.929 57.68C177.929 56.0373 178.313 54.5653 179.081 53.264C179.849 51.9627 180.894 50.928 182.217 50.16C183.539 49.392 185.022 49.008 186.665 49.008C187.987 49.008 189.246 49.264 190.441 49.776C191.657 50.288 192.702 51.024 193.577 51.984L190.889 54.832C190.27 54.1493 189.619 53.648 188.937 53.328C188.275 52.9867 187.55 52.816 186.761 52.816C185.907 52.816 185.139 53.0293 184.457 53.456C183.795 53.8827 183.262 54.4587 182.857 55.184C182.473 55.9093 182.281 56.7413 182.281 57.68C182.281 58.576 182.473 59.3973 182.857 60.144C183.262 60.8693 183.817 61.4453 184.521 61.872C185.225 62.2773 186.003 62.48 186.857 62.48C187.603 62.48 188.297 62.3307 188.937 62.032C189.598 61.712 190.227 61.2427 190.825 60.624L193.449 63.376C192.595 64.2933 191.571 65.0187 190.377 65.552C189.182 66.064 187.945 66.32 186.665 66.32ZM195.728 66V43.6L200.112 42.64V50.704C201.371 49.5733 202.928 49.008 204.784 49.008C206.085 49.008 207.227 49.296 208.208 49.872C209.211 50.4267 209.989 51.2053 210.544 52.208C211.099 53.1893 211.376 54.3413 211.376 55.664V66H206.992V56.304C206.992 55.216 206.683 54.3627 206.064 53.744C205.445 53.104 204.603 52.784 203.536 52.784C202.789 52.784 202.128 52.9333 201.552 53.232C200.976 53.5093 200.496 53.9147 200.112 54.448V66H195.728ZM221.134 66V43.6L225.518 42.864V66H221.134ZM228.947 66V49.328H233.331V66H228.947ZM231.123 47.344C230.44 47.344 229.853 47.0987 229.363 46.608C228.872 46.1173 228.627 45.5307 228.627 44.848C228.627 44.144 228.872 43.5573 229.363 43.088C229.853 42.5973 230.44 42.352 231.123 42.352C231.827 42.352 232.413 42.5973 232.883 43.088C233.373 43.5573 233.619 44.144 233.619 44.848C233.619 45.5307 233.373 46.1173 232.883 46.608C232.413 47.0987 231.827 47.344 231.123 47.344ZM244.471 66.224C242.893 66.224 241.463 65.84 240.183 65.072C238.903 64.304 237.879 63.28 237.111 62C236.365 60.6987 235.991 59.248 235.991 57.648C235.991 56.048 236.365 54.608 237.111 53.328C237.879 52.0267 238.914 51.0027 240.215 50.256C241.517 49.488 242.978 49.104 244.599 49.104C245.431 49.104 246.231 49.2213 246.999 49.456C247.767 49.6693 248.482 49.9893 249.143 50.416V43.6L253.527 42.864V66H249.207V64.624C247.842 65.6907 246.263 66.224 244.471 66.224ZM245.175 62.48C245.986 62.48 246.722 62.352 247.383 62.096C248.066 61.8187 248.653 61.4133 249.143 60.88V54.384C248.653 53.8933 248.066 53.5093 247.383 53.232C246.701 52.9547 245.965 52.816 245.175 52.816C244.258 52.816 243.426 53.0293 242.679 53.456C241.954 53.8613 241.378 54.4373 240.951 55.184C240.525 55.9093 240.311 56.7307 240.311 57.648C240.311 58.5653 240.525 59.3867 240.951 60.112C241.378 60.8373 241.954 61.4133 242.679 61.84C243.426 62.2667 244.258 62.48 245.175 62.48ZM265.107 66.32C263.443 66.32 261.928 65.936 260.563 65.168C259.219 64.4 258.152 63.3653 257.363 62.064C256.573 60.7627 256.179 59.3013 256.179 57.68C256.179 56.0587 256.552 54.5973 257.299 53.296C258.067 51.9947 259.101 50.96 260.403 50.192C261.704 49.424 263.155 49.04 264.755 49.04C266.355 49.04 267.773 49.4347 269.011 50.224C270.248 51.0133 271.219 52.08 271.923 53.424C272.648 54.768 273.011 56.2933 273.011 58V59.152H260.659C260.851 59.8133 261.16 60.4107 261.587 60.944C262.035 61.4773 262.579 61.8933 263.219 62.192C263.88 62.4907 264.584 62.64 265.331 62.64C266.077 62.64 266.76 62.5227 267.379 62.288C268.019 62.0533 268.563 61.7227 269.011 61.296L271.891 63.92C270.867 64.752 269.811 65.36 268.723 65.744C267.656 66.128 266.451 66.32 265.107 66.32ZM260.595 56.016H268.691C268.541 55.3547 268.264 54.7787 267.859 54.288C267.475 53.776 267.005 53.3813 266.451 53.104C265.917 52.8053 265.32 52.656 264.659 52.656C263.976 52.656 263.357 52.7947 262.803 53.072C262.248 53.3493 261.779 53.744 261.395 54.256C261.032 54.7467 260.765 55.3333 260.595 56.016ZM275.697 66V49.328H280.081V51.184C280.614 50.4587 281.254 49.904 282.001 49.52C282.747 49.136 283.59 48.944 284.529 48.944C285.339 48.9653 285.947 49.0933 286.353 49.328V53.168C286.033 53.0187 285.681 52.912 285.297 52.848C284.913 52.7627 284.518 52.72 284.113 52.72C283.259 52.72 282.481 52.9333 281.777 53.36C281.073 53.7867 280.507 54.3947 280.081 55.184V66H275.697ZM293.634 66.288C292.439 66.288 291.383 66.0747 290.466 65.648C289.548 65.2 288.834 64.592 288.322 63.824C287.81 63.056 287.554 62.1707 287.554 61.168C287.554 59.568 288.151 58.3307 289.346 57.456C290.562 56.56 292.226 56.112 294.338 56.112C295.788 56.112 297.154 56.336 298.434 56.784V55.568C298.434 54.608 298.135 53.8827 297.538 53.392C296.94 52.9013 296.066 52.656 294.914 52.656C294.21 52.656 293.452 52.7733 292.642 53.008C291.831 53.2213 290.892 53.5627 289.826 54.032L288.226 50.8C289.548 50.2027 290.807 49.7547 292.002 49.456C293.218 49.1573 294.434 49.008 295.65 49.008C297.89 49.008 299.628 49.552 300.866 50.64C302.124 51.7067 302.754 53.2213 302.754 55.184V66H298.434V64.816C297.751 65.328 297.015 65.7013 296.226 65.936C295.436 66.1707 294.572 66.288 293.634 66.288ZM291.714 61.072C291.714 61.712 291.991 62.224 292.546 62.608C293.1 62.9707 293.836 63.152 294.754 63.152C295.479 63.152 296.151 63.0667 296.77 62.896C297.388 62.704 297.943 62.4267 298.434 62.064V59.632C297.9 59.4187 297.346 59.2587 296.77 59.152C296.194 59.0453 295.575 58.992 294.914 58.992C293.911 58.992 293.122 59.184 292.546 59.568C291.991 59.9307 291.714 60.432 291.714 61.072ZM313.784 66.224C312.205 66.224 310.776 65.84 309.496 65.072C308.216 64.304 307.192 63.28 306.424 62C305.677 60.6987 305.304 59.248 305.304 57.648C305.304 56.048 305.677 54.608 306.424 53.328C307.192 52.0267 308.226 51.0027 309.528 50.256C310.829 49.488 312.29 49.104 313.912 49.104C314.744 49.104 315.544 49.2213 316.312 49.456C317.08 49.6693 317.794 49.9893 318.456 50.416V43.6L322.84 42.864V66H318.52V64.624C317.154 65.6907 315.576 66.224 313.784 66.224ZM314.488 62.48C315.298 62.48 316.034 62.352 316.696 62.096C317.378 61.8187 317.965 61.4133 318.456 60.88V54.384C317.965 53.8933 317.378 53.5093 316.696 53.232C316.013 52.9547 315.277 52.816 314.488 52.816C313.57 52.816 312.738 53.0293 311.992 53.456C311.266 53.8613 310.69 54.4373 310.264 55.184C309.837 55.9093 309.624 56.7307 309.624 57.648C309.624 58.5653 309.837 59.3867 310.264 60.112C310.69 60.8373 311.266 61.4133 311.992 61.84C312.738 62.2667 313.57 62.48 314.488 62.48ZM334.387 66.32C332.723 66.32 331.219 65.936 329.875 65.168C328.531 64.4 327.465 63.3653 326.675 62.064C325.886 60.7627 325.491 59.3013 325.491 57.68C325.491 56.0587 325.875 54.5973 326.643 53.296C327.433 51.9733 328.499 50.928 329.843 50.16C331.209 49.392 332.723 49.008 334.387 49.008C336.051 49.008 337.555 49.392 338.899 50.16C340.265 50.928 341.331 51.9733 342.099 53.296C342.889 54.5973 343.283 56.0587 343.283 57.68C343.283 59.3013 342.889 60.7627 342.099 62.064C341.331 63.3653 340.275 64.4 338.931 65.168C337.587 65.936 336.073 66.32 334.387 66.32ZM334.387 62.512C335.262 62.512 336.041 62.2987 336.723 61.872C337.427 61.4453 337.982 60.8693 338.387 60.144C338.814 59.3973 339.027 58.576 339.027 57.68C339.027 56.7627 338.814 55.9413 338.387 55.216C337.982 54.4907 337.427 53.9147 336.723 53.488C336.041 53.04 335.262 52.816 334.387 52.816C333.534 52.816 332.755 53.04 332.051 53.488C331.347 53.9147 330.793 54.4907 330.387 55.216C329.982 55.9413 329.779 56.7627 329.779 57.68C329.779 58.576 329.982 59.3973 330.387 60.144C330.793 60.8693 331.347 61.4453 332.051 61.872C332.755 62.2987 333.534 62.512 334.387 62.512ZM352.416 72.528V49.328H356.736V50.704C358.101 49.6373 359.68 49.104 361.472 49.104C363.05 49.104 364.48 49.488 365.76 50.256C367.04 51.024 368.053 52.0587 368.8 53.36C369.568 54.64 369.952 56.08 369.952 57.68C369.952 59.28 369.568 60.7307 368.8 62.032C368.032 63.312 366.997 64.336 365.696 65.104C364.394 65.8507 362.944 66.224 361.344 66.224C360.512 66.224 359.712 66.1173 358.944 65.904C358.176 65.6693 357.461 65.3387 356.8 64.912V72.528H352.416ZM360.768 62.512C361.685 62.512 362.506 62.2987 363.232 61.872C363.978 61.4453 364.565 60.8693 364.992 60.144C365.418 59.4187 365.632 58.5973 365.632 57.68C365.632 56.7627 365.418 55.9413 364.992 55.216C364.565 54.4693 363.978 53.8933 363.232 53.488C362.506 53.0613 361.685 52.848 360.768 52.848C359.957 52.848 359.21 52.9867 358.528 53.264C357.866 53.52 357.29 53.9147 356.8 54.448V60.944C357.269 61.4347 357.845 61.8187 358.528 62.096C359.232 62.3733 359.978 62.512 360.768 62.512ZM380.763 66.32C379.099 66.32 377.584 65.936 376.219 65.168C374.875 64.4 373.808 63.3653 373.019 62.064C372.23 60.7627 371.835 59.3013 371.835 57.68C371.835 56.0587 372.208 54.5973 372.955 53.296C373.723 51.9947 374.758 50.96 376.059 50.192C377.36 49.424 378.811 49.04 380.411 49.04C382.011 49.04 383.43 49.4347 384.667 50.224C385.904 51.0133 386.875 52.08 387.579 53.424C388.304 54.768 388.667 56.2933 388.667 58V59.152H376.315C376.507 59.8133 376.816 60.4107 377.243 60.944C377.691 61.4773 378.235 61.8933 378.875 62.192C379.536 62.4907 380.24 62.64 380.987 62.64C381.734 62.64 382.416 62.5227 383.035 62.288C383.675 62.0533 384.219 61.7227 384.667 61.296L387.547 63.92C386.523 64.752 385.467 65.36 384.379 65.744C383.312 66.128 382.107 66.32 380.763 66.32ZM376.251 56.016H384.347C384.198 55.3547 383.92 54.7787 383.515 54.288C383.131 53.776 382.662 53.3813 382.107 53.104C381.574 52.8053 380.976 52.656 380.315 52.656C379.632 52.656 379.014 52.7947 378.459 53.072C377.904 53.3493 377.435 53.744 377.051 54.256C376.688 54.7467 376.422 55.3333 376.251 56.016ZM391.353 66V43.6L395.737 42.864V66H391.353ZM407.294 66.32C405.63 66.32 404.126 65.936 402.782 65.168C401.438 64.4 400.371 63.3653 399.582 62.064C398.792 60.7627 398.398 59.3013 398.398 57.68C398.398 56.0587 398.782 54.5973 399.549 53.296C400.339 51.9733 401.406 50.928 402.75 50.16C404.115 49.392 405.63 49.008 407.294 49.008C408.958 49.008 410.462 49.392 411.806 50.16C413.171 50.928 414.238 51.9733 415.006 53.296C415.795 54.5973 416.19 56.0587 416.19 57.68C416.19 59.3013 415.795 60.7627 415.006 62.064C414.238 63.3653 413.182 64.4 411.838 65.168C410.494 65.936 408.979 66.32 407.294 66.32ZM407.294 62.512C408.168 62.512 408.947 62.2987 409.63 61.872C410.334 61.4453 410.888 60.8693 411.294 60.144C411.72 59.3973 411.934 58.576 411.934 57.68C411.934 56.7627 411.72 55.9413 411.294 55.216C410.888 54.4907 410.334 53.9147 409.63 53.488C408.947 53.04 408.168 52.816 407.294 52.816C406.44 52.816 405.662 53.04 404.958 53.488C404.254 53.9147 403.699 54.4907 403.294 55.216C402.888 55.9413 402.686 56.7627 402.686 57.68C402.686 58.576 402.888 59.3973 403.294 60.144C403.699 60.8693 404.254 61.4453 404.958 61.872C405.662 62.2987 406.44 62.512 407.294 62.512ZM425.322 66V49.328H429.706V50.704C430.964 49.5733 432.522 49.008 434.378 49.008C435.679 49.008 436.82 49.296 437.802 49.872C438.804 50.4267 439.583 51.2053 440.138 52.208C440.692 53.1893 440.97 54.3413 440.97 55.664V66H436.586V56.304C436.586 55.216 436.276 54.3627 435.658 53.744C435.039 53.104 434.196 52.784 433.13 52.784C432.383 52.784 431.722 52.9333 431.146 53.232C430.57 53.5093 430.09 53.9147 429.706 54.448V66H425.322ZM452.419 66.32C450.755 66.32 449.251 65.936 447.907 65.168C446.563 64.4 445.496 63.3653 444.707 62.064C443.917 60.7627 443.523 59.3013 443.523 57.68C443.523 56.0587 443.907 54.5973 444.674 53.296C445.464 51.9733 446.531 50.928 447.875 50.16C449.24 49.392 450.755 49.008 452.419 49.008C454.083 49.008 455.587 49.392 456.931 50.16C458.296 50.928 459.363 51.9733 460.131 53.296C460.92 54.5973 461.315 56.0587 461.315 57.68C461.315 59.3013 460.92 60.7627 460.131 62.064C459.363 63.3653 458.307 64.4 456.963 65.168C455.619 65.936 454.104 66.32 452.419 66.32ZM452.419 62.512C453.293 62.512 454.072 62.2987 454.755 61.872C455.459 61.4453 456.013 60.8693 456.419 60.144C456.845 59.3973 457.059 58.576 457.059 57.68C457.059 56.7627 456.845 55.9413 456.419 55.216C456.013 54.4907 455.459 53.9147 454.755 53.488C454.072 53.04 453.293 52.816 452.419 52.816C451.565 52.816 450.787 53.04 450.083 53.488C449.379 53.9147 448.824 54.4907 448.419 55.216C448.013 55.9413 447.811 56.7627 447.811 57.68C447.811 58.576 448.013 59.3973 448.419 60.144C448.824 60.8693 449.379 61.4453 450.083 61.872C450.787 62.2987 451.565 62.512 452.419 62.512ZM470.249 66.32C468.713 66.32 467.295 66.128 465.993 65.744C464.692 65.3387 463.561 64.7627 462.601 64.016L464.777 61.104C465.737 61.744 466.655 62.224 467.529 62.544C468.425 62.864 469.311 63.024 470.185 63.024C471.167 63.024 471.945 62.864 472.521 62.544C473.119 62.2027 473.417 61.7653 473.417 61.232C473.417 60.8053 473.247 60.464 472.905 60.208C472.585 59.952 472.063 59.7707 471.337 59.664L468.137 59.184C466.473 58.928 465.215 58.3947 464.361 57.584C463.508 56.752 463.081 55.664 463.081 54.32C463.081 53.232 463.359 52.304 463.913 51.536C464.489 50.7467 465.289 50.1387 466.313 49.712C467.359 49.264 468.596 49.04 470.025 49.04C471.241 49.04 472.425 49.2107 473.577 49.552C474.751 49.8933 475.849 50.416 476.873 51.12L474.761 53.968C473.844 53.392 472.969 52.976 472.137 52.72C471.305 52.464 470.463 52.336 469.609 52.336C468.82 52.336 468.18 52.4853 467.689 52.784C467.22 53.0827 466.985 53.4773 466.985 53.968C466.985 54.416 467.156 54.768 467.497 55.024C467.839 55.28 468.425 55.4613 469.257 55.568L472.425 56.048C474.089 56.2827 475.359 56.816 476.233 57.648C477.108 58.4587 477.545 59.5147 477.545 60.816C477.545 61.8827 477.225 62.832 476.585 63.664C475.945 64.4747 475.081 65.1253 473.993 65.616C472.905 66.0853 471.657 66.32 470.249 66.32ZM485.968 66.32C484.432 66.32 483.013 66.128 481.712 65.744C480.411 65.3387 479.28 64.7627 478.32 64.016L480.496 61.104C481.456 61.744 482.373 62.224 483.248 62.544C484.144 62.864 485.029 63.024 485.904 63.024C486.885 63.024 487.664 62.864 488.24 62.544C488.837 62.2027 489.136 61.7653 489.136 61.232C489.136 60.8053 488.965 60.464 488.624 60.208C488.304 59.952 487.781 59.7707 487.056 59.664L483.856 59.184C482.192 58.928 480.933 58.3947 480.08 57.584C479.227 56.752 478.8 55.664 478.8 54.32C478.8 53.232 479.077 52.304 479.632 51.536C480.208 50.7467 481.008 50.1387 482.032 49.712C483.077 49.264 484.315 49.04 485.744 49.04C486.96 49.04 488.144 49.2107 489.296 49.552C490.469 49.8933 491.568 50.416 492.592 51.12L490.48 53.968C489.563 53.392 488.688 52.976 487.856 52.72C487.024 52.464 486.181 52.336 485.328 52.336C484.539 52.336 483.899 52.4853 483.408 52.784C482.939 53.0827 482.704 53.4773 482.704 53.968C482.704 54.416 482.875 54.768 483.216 55.024C483.557 55.28 484.144 55.4613 484.976 55.568L488.144 56.048C489.808 56.2827 491.077 56.816 491.952 57.648C492.827 58.4587 493.264 59.5147 493.264 60.816C493.264 61.8827 492.944 62.832 492.304 63.664C491.664 64.4747 490.8 65.1253 489.712 65.616C488.624 66.0853 487.376 66.32 485.968 66.32ZM503.731 66.32C502.067 66.32 500.563 65.936 499.219 65.168C497.875 64.4 496.808 63.3653 496.019 62.064C495.23 60.7627 494.835 59.3013 494.835 57.68C494.835 56.0587 495.219 54.5973 495.987 53.296C496.776 51.9733 497.843 50.928 499.187 50.16C500.552 49.392 502.067 49.008 503.731 49.008C505.395 49.008 506.899 49.392 508.243 50.16C509.608 50.928 510.675 51.9733 511.443 53.296C512.232 54.5973 512.627 56.0587 512.627 57.68C512.627 59.3013 512.232 60.7627 511.443 62.064C510.675 63.3653 509.619 64.4 508.275 65.168C506.931 65.936 505.416 66.32 503.731 66.32ZM503.731 62.512C504.606 62.512 505.384 62.2987 506.067 61.872C506.771 61.4453 507.326 60.8693 507.731 60.144C508.158 59.3973 508.371 58.576 508.371 57.68C508.371 56.7627 508.158 55.9413 507.731 55.216C507.326 54.4907 506.771 53.9147 506.067 53.488C505.384 53.04 504.606 52.816 503.731 52.816C502.878 52.816 502.099 53.04 501.395 53.488C500.691 53.9147 500.136 54.4907 499.731 55.216C499.326 55.9413 499.123 56.7627 499.123 57.68C499.123 58.576 499.326 59.3973 499.731 60.144C500.136 60.8693 500.691 61.4453 501.395 61.872C502.099 62.2987 502.878 62.512 503.731 62.512ZM533.087 66.32C531.423 66.32 529.866 66.032 528.415 65.456C526.965 64.8587 525.695 64.0373 524.607 62.992C523.541 61.9467 522.698 60.7307 522.079 59.344C521.482 57.936 521.183 56.4213 521.183 54.8C521.183 53.1573 521.482 51.6427 522.079 50.256C522.698 48.848 523.551 47.6213 524.639 46.576C525.727 45.5307 526.986 44.72 528.415 44.144C529.866 43.5467 531.423 43.248 533.087 43.248C534.325 43.248 535.519 43.4187 536.671 43.76C537.823 44.1013 538.89 44.5813 539.871 45.2C540.874 45.8187 541.727 46.5653 542.431 47.44L539.295 50.544C538.485 49.5413 537.546 48.784 536.479 48.272C535.434 47.76 534.303 47.504 533.087 47.504C532.085 47.504 531.146 47.696 530.271 48.08C529.397 48.4427 528.639 48.9547 527.999 49.616C527.359 50.256 526.858 51.024 526.495 51.92C526.133 52.7947 525.951 53.7547 525.951 54.8C525.951 55.824 526.133 56.784 526.495 57.68C526.858 58.5547 527.37 59.3227 528.031 59.984C528.693 60.624 529.461 61.1253 530.335 61.488C531.231 61.8507 532.202 62.032 533.247 62.032C534.421 62.032 535.519 61.7867 536.543 61.296C537.567 60.8053 538.474 60.1013 539.263 59.184L542.303 62.192C541.599 63.0453 540.757 63.7813 539.775 64.4C538.794 65.0187 537.727 65.4987 536.575 65.84C535.445 66.16 534.282 66.32 533.087 66.32ZM545.016 66V43.6H562.232V47.632H549.656V52.752H557.944V56.656H549.656V61.968H562.36V66H545.016ZM575.305 66.352C573.641 66.352 572.094 66.064 570.665 65.488C569.235 64.8907 567.977 64.0693 566.889 63.024C565.822 61.9573 564.979 60.7307 564.361 59.344C563.763 57.936 563.465 56.4213 563.465 54.8C563.465 53.1787 563.763 51.6747 564.361 50.288C564.979 48.88 565.822 47.6533 566.889 46.608C567.977 45.5413 569.235 44.72 570.665 44.144C572.094 43.5467 573.641 43.248 575.305 43.248C576.969 43.248 578.515 43.5467 579.944 44.144C581.395 44.72 582.654 45.5413 583.721 46.608C584.809 47.6533 585.651 48.88 586.249 50.288C586.846 51.6747 587.145 53.1787 587.145 54.8C587.145 56.4213 586.846 57.936 586.249 59.344C585.651 60.7307 584.809 61.9573 583.721 63.024C582.654 64.0693 581.395 64.8907 579.944 65.488C578.515 66.064 576.969 66.352 575.305 66.352ZM575.305 62.096C576.329 62.096 577.267 61.9147 578.121 61.552C578.974 61.168 579.721 60.656 580.361 60.016C581.001 59.3547 581.502 58.576 581.865 57.68C582.227 56.784 582.409 55.824 582.409 54.8C582.409 53.7547 582.227 52.7947 581.865 51.92C581.502 51.024 581.001 50.256 580.361 49.616C579.721 48.9547 578.974 48.4427 578.121 48.08C577.267 47.696 576.329 47.504 575.305 47.504C574.302 47.504 573.374 47.696 572.521 48.08C571.667 48.4427 570.921 48.9547 570.281 49.616C569.641 50.256 569.139 51.024 568.777 51.92C568.414 52.7947 568.233 53.744 568.233 54.768C568.233 55.8133 568.414 56.784 568.777 57.68C569.139 58.576 569.641 59.3547 570.281 60.016C570.921 60.656 571.667 61.168 572.521 61.552C573.374 61.9147 574.302 62.096 575.305 62.096Z" fill="white"/>
</svg>
