<svg width="629" height="73" fill="none" xmlns="http://www.w3.org/2000/svg"><path d="M4.656 19.872H8.56c1.003 0 1.93-.17 2.784-.512a6.926 6.926 0 0 0 2.272-1.504 6.382 6.382 0 0 0 1.504-2.24 7.043 7.043 0 0 0 .544-2.784c0-1.003-.181-1.93-.544-2.784a6.926 6.926 0 0 0-1.504-2.272 6.925 6.925 0 0 0-2.272-1.504 7.044 7.044 0 0 0-2.784-.544H4.656v14.144ZM.016 24V1.6h8.608c1.685 0 3.243.288 4.672.864a11.188 11.188 0 0 1 3.744 2.368 11.067 11.067 0 0 1 2.496 3.584c.619 1.365.928 2.837.928 4.416 0 1.6-.299 3.072-.896 4.416A10.934 10.934 0 0 1 17.04 20.8a11.9 11.9 0 0 1-3.744 2.368c-1.43.555-2.987.832-4.672.832H.016Zm23.337 0V7.328h4.384v1.856a5.483 5.483 0 0 1 1.92-1.664c.747-.384 1.59-.576 2.528-.576.81.021 1.419.15 1.824.384v3.84a4.067 4.067 0 0 0-1.056-.32 5.444 5.444 0 0 0-1.184-.128 4.42 4.42 0 0 0-2.336.64c-.704.427-1.27 1.035-1.696 1.824V24h-4.384Zm15.334.32c-.703 0-1.311-.256-1.823-.768s-.768-1.12-.768-1.824c0-.725.256-1.344.768-1.856s1.12-.768 1.824-.768c.703 0 1.311.256 1.823.768s.768 1.13.768 1.856c0 .704-.256 1.312-.768 1.824s-1.12.768-1.824.768Zm15.68.032c-1.664 0-3.21-.288-4.64-.864a12.169 12.169 0 0 1-3.776-2.464 12.174 12.174 0 0 1-2.528-3.68c-.597-1.408-.896-2.923-.896-4.544 0-1.621.299-3.125.896-4.512a11.67 11.67 0 0 1 2.528-3.68 11.455 11.455 0 0 1 3.776-2.464c1.43-.597 2.976-.896 4.64-.896 1.664 0 3.21.299 4.64.896 1.45.576 2.71 1.397 3.776 2.464a11.01 11.01 0 0 1 2.528 3.68c.597 1.387.896 2.89.896 4.512 0 1.621-.299 3.136-.896 4.544a11.455 11.455 0 0 1-2.528 3.68 11.69 11.69 0 0 1-3.776 2.464c-1.43.576-2.976.864-4.64.864Zm0-4.256c1.024 0 1.963-.181 2.816-.544a7.474 7.474 0 0 0 2.24-1.536 7.21 7.21 0 0 0 1.504-2.336 7.602 7.602 0 0 0 .544-2.88c0-1.045-.181-2.005-.544-2.88a6.849 6.849 0 0 0-1.504-2.304 6.77 6.77 0 0 0-2.24-1.536c-.853-.384-1.792-.576-2.816-.576-1.003 0-1.93.192-2.784.576a6.77 6.77 0 0 0-2.24 1.536 6.849 6.849 0 0 0-1.504 2.304 7.362 7.362 0 0 0-.544 2.848c0 1.045.181 2.016.544 2.912a7.21 7.21 0 0 0 1.504 2.336 7.474 7.474 0 0 0 2.24 1.536 7.043 7.043 0 0 0 2.784.544ZM69.134 24V7.328h4.384v1.376c1.259-1.13 2.816-1.696 4.672-1.696 1.302 0 2.443.288 3.424.864a5.861 5.861 0 0 1 2.336 2.336c.555.981.832 2.133.832 3.456V24h-4.384v-9.696c0-1.088-.31-1.941-.928-2.56-.618-.64-1.461-.96-2.528-.96-.746 0-1.408.15-1.984.448a3.766 3.766 0 0 0-1.44 1.216V24h-4.384Zm25.017-9.792a6.5 6.5 0 0 1-3.296-.864 6.894 6.894 0 0 1-2.368-2.4c-.576-1.003-.864-2.123-.864-3.36 0-1.237.288-2.347.864-3.328a6.629 6.629 0 0 1 2.368-2.368 6.322 6.322 0 0 1 3.296-.896c1.237 0 2.347.299 3.328.896a6.38 6.38 0 0 1 2.336 2.368c.597 1.003.896 2.112.896 3.328 0 1.237-.299 2.357-.896 3.36a6.63 6.63 0 0 1-2.336 2.4c-.981.576-2.09.864-3.328.864Zm0-1.44c.981 0 1.845-.213 2.592-.64a4.757 4.757 0 0 0 1.76-1.856c.448-.79.672-1.685.672-2.688 0-1.003-.224-1.888-.672-2.656a4.756 4.756 0 0 0-1.76-1.856c-.747-.448-1.61-.672-2.592-.672-.96 0-1.824.224-2.592.672a4.756 4.756 0 0 0-1.76 1.856c-.427.768-.64 1.653-.64 2.656 0 1.003.213 1.899.64 2.688a4.818 4.818 0 0 0 1.76 1.824c.768.448 1.632.672 2.592.672Zm-2.304-2.208V4.544h2.72c.64 0 1.141.17 1.504.512.363.341.544.8.544 1.376 0 .363-.096.693-.288.992-.17.299-.427.533-.768.704l1.408 2.432h-1.664l-1.12-2.112h-.832v2.112h-1.504Zm2.432-4.832h-.928V7.36h.896c.576 0 .864-.277.864-.832 0-.256-.075-.448-.224-.576-.128-.15-.33-.224-.608-.224ZM108.278 24l9.216-22.4h5.344l9.12 22.4h-5.024l-2.272-5.888h-9.248L113.11 24h-4.832Zm8.576-9.6h6.4l-3.2-8.256-3.2 8.256Zm16.718 16.128v-23.2h4.32v1.376c1.365-1.067 2.944-1.6 4.736-1.6 1.578 0 3.008.384 4.288 1.152a8.487 8.487 0 0 1 3.04 3.104c.768 1.28 1.152 2.72 1.152 4.32s-.384 3.05-1.152 4.352a8.743 8.743 0 0 1-3.104 3.072c-1.302.747-2.752 1.12-4.352 1.12a8.927 8.927 0 0 1-2.4-.32 8.528 8.528 0 0 1-2.144-.992v7.616h-4.384Zm8.352-10.016c.917 0 1.738-.213 2.464-.64a4.727 4.727 0 0 0 1.76-1.728c.426-.725.64-1.547.64-2.464s-.214-1.739-.64-2.464a4.429 4.429 0 0 0-1.76-1.728c-.726-.427-1.547-.64-2.464-.64-.811 0-1.558.139-2.24.416a4.548 4.548 0 0 0-1.728 1.184v6.496c.469.49 1.045.875 1.728 1.152.704.277 1.45.416 2.24.416Zm11.835 10.016v-23.2h4.32v1.376c1.366-1.067 2.944-1.6 4.736-1.6 1.579 0 3.008.384 4.288 1.152a8.48 8.48 0 0 1 3.04 3.104c.768 1.28 1.152 2.72 1.152 4.32s-.384 3.05-1.152 4.352a8.735 8.735 0 0 1-3.104 3.072c-1.301.747-2.752 1.12-4.352 1.12a8.927 8.927 0 0 1-2.4-.32 8.544 8.544 0 0 1-2.144-.992v7.616h-4.384Zm8.352-10.016c.918 0 1.739-.213 2.464-.64a4.712 4.712 0 0 0 1.76-1.728c.427-.725.64-1.547.64-2.464s-.213-1.739-.64-2.464a4.416 4.416 0 0 0-1.76-1.728c-.725-.427-1.546-.64-2.464-.64a5.9 5.9 0 0 0-2.24.416 4.563 4.563 0 0 0-1.728 1.184v6.496c.47.49 1.046.875 1.728 1.152a6.058 6.058 0 0 0 2.24.416Zm14.014 3.808c-.704 0-1.312-.256-1.824-.768s-.768-1.12-.768-1.824c0-.725.256-1.344.768-1.856s1.12-.768 1.824-.768 1.312.256 1.824.768.768 1.13.768 1.856c0 .704-.256 1.312-.768 1.824s-1.12.768-1.824.768Zm0-12.096c-.704 0-1.312-.256-1.824-.768s-.768-1.12-.768-1.824c0-.725.256-1.344.768-1.856s1.12-.768 1.824-.768 1.312.256 1.824.768.768 1.13.768 1.856c0 .704-.256 1.312-.768 1.824s-1.12.768-1.824.768Zm23.43 12.128c-1.664 0-3.211-.288-4.64-.864a12.16 12.16 0 0 1-3.776-2.464 12.156 12.156 0 0 1-2.528-3.68c-.598-1.408-.896-2.923-.896-4.544 0-1.621.298-3.125.896-4.512a11.654 11.654 0 0 1 2.528-3.68 11.447 11.447 0 0 1 3.776-2.464c1.429-.597 2.976-.896 4.64-.896 1.664 0 3.21.299 4.639.896a11.036 11.036 0 0 1 3.777 2.464 11.02 11.02 0 0 1 2.528 3.68c.597 1.387.896 2.89.896 4.512 0 1.621-.299 3.136-.896 4.544a11.466 11.466 0 0 1-2.528 3.68 11.695 11.695 0 0 1-3.777 2.464c-1.429.576-2.975.864-4.639.864Zm0-4.256c1.024 0 1.962-.181 2.816-.544a7.477 7.477 0 0 0 2.24-1.536 7.214 7.214 0 0 0 1.504-2.336 7.615 7.615 0 0 0 .544-2.88c0-1.045-.182-2.005-.544-2.88a6.853 6.853 0 0 0-1.504-2.304 6.773 6.773 0 0 0-2.24-1.536c-.854-.384-1.792-.576-2.816-.576a6.703 6.703 0 0 0-2.784.576c-.854.363-1.6.875-2.24 1.536a6.838 6.838 0 0 0-1.504 2.304 7.356 7.356 0 0 0-.544 2.848c0 1.045.181 2.016.544 2.912a7.198 7.198 0 0 0 1.504 2.336 7.465 7.465 0 0 0 2.24 1.536 7.04 7.04 0 0 0 2.784.544Zm21.204 10.432v-23.2h4.32v1.376c1.366-1.067 2.944-1.6 4.736-1.6 1.579 0 3.008.384 4.288 1.152a8.48 8.48 0 0 1 3.04 3.104c.768 1.28 1.152 2.72 1.152 4.32s-.384 3.05-1.152 4.352a8.735 8.735 0 0 1-3.104 3.072c-1.301.747-2.752 1.12-4.352 1.12a8.927 8.927 0 0 1-2.4-.32 8.544 8.544 0 0 1-2.144-.992v7.616h-4.384Zm8.352-10.016c.918 0 1.739-.213 2.464-.64a4.712 4.712 0 0 0 1.76-1.728c.427-.725.64-1.547.64-2.464s-.213-1.739-.64-2.464a4.416 4.416 0 0 0-1.76-1.728c-.725-.427-1.546-.64-2.464-.64a5.9 5.9 0 0 0-2.24.416 4.563 4.563 0 0 0-1.728 1.184v6.496c.47.49 1.046.875 1.728 1.152a6.058 6.058 0 0 0 2.24.416ZM240.947 24V7.328h4.384v1.856a5.478 5.478 0 0 1 1.92-1.664c.746-.384 1.589-.576 2.528-.576.81.021 1.418.15 1.824.384v3.84a4.067 4.067 0 0 0-1.056-.32 5.446 5.446 0 0 0-1.184-.128c-.854 0-1.632.213-2.336.64-.704.427-1.27 1.035-1.696 1.824V24h-4.384Zm13.062 0V7.328h4.384V24h-4.384Zm2.176-18.656a2.403 2.403 0 0 1-1.76-.736 2.404 2.404 0 0 1-.736-1.76c0-.704.246-1.29.736-1.76a2.403 2.403 0 0 1 1.76-.736c.704 0 1.291.245 1.76.736.491.47.736 1.056.736 1.76a2.4 2.4 0 0 1-.736 1.76c-.469.49-1.056.736-1.76.736ZM261.822 24V7.328h4.384v1.376c1.258-1.13 2.816-1.696 4.672-1.696 1.301 0 2.442.288 3.424.864a5.867 5.867 0 0 1 2.336 2.336c.554.981.832 2.133.832 3.456V24h-4.384v-9.696c0-1.088-.31-1.941-.928-2.56-.619-.64-1.462-.96-2.528-.96-.747 0-1.408.15-1.984.448a3.766 3.766 0 0 0-1.44 1.216V24h-4.384Zm26.937.32c-1.643 0-3.126-.373-4.448-1.12a8.589 8.589 0 0 1-3.137-3.104c-.767-1.323-1.151-2.795-1.151-4.416 0-1.643.384-3.115 1.151-4.416a8.589 8.589 0 0 1 3.137-3.104c1.322-.768 2.805-1.152 4.448-1.152a9.49 9.49 0 0 1 3.776.768 8.82 8.82 0 0 1 3.136 2.208l-2.688 2.848c-.619-.683-1.27-1.184-1.952-1.504a4.677 4.677 0 0 0-2.176-.512c-.854 0-1.622.213-2.304.64a4.795 4.795 0 0 0-1.6 1.728c-.384.725-.576 1.557-.576 2.496 0 .896.192 1.717.576 2.464a4.62 4.62 0 0 0 1.664 1.728 4.596 4.596 0 0 0 2.336.608c.746 0 1.44-.15 2.08-.448.661-.32 1.29-.79 1.888-1.408l2.624 2.752a9.36 9.36 0 0 1-3.072 2.176 9.333 9.333 0 0 1-3.712.768Zm9.063-.32V7.328h4.384V24h-4.384Zm2.176-18.656a2.4 2.4 0 0 1-1.76-.736 2.4 2.4 0 0 1-.736-1.76c0-.704.245-1.29.736-1.76a2.4 2.4 0 0 1 1.76-.736c.704 0 1.29.245 1.76.736.49.47.736 1.056.736 1.76 0 .683-.246 1.27-.736 1.76-.47.49-1.056.736-1.76.736Zm5.636 25.184v-23.2h4.32v1.376c1.366-1.067 2.944-1.6 4.736-1.6 1.579 0 3.008.384 4.288 1.152a8.48 8.48 0 0 1 3.04 3.104c.768 1.28 1.152 2.72 1.152 4.32s-.384 3.05-1.152 4.352a8.735 8.735 0 0 1-3.104 3.072c-1.301.747-2.752 1.12-4.352 1.12a8.927 8.927 0 0 1-2.4-.32 8.544 8.544 0 0 1-2.144-.992v7.616h-4.384Zm8.352-10.016c.918 0 1.739-.213 2.464-.64a4.712 4.712 0 0 0 1.76-1.728c.427-.725.64-1.547.64-2.464s-.213-1.739-.64-2.464a4.416 4.416 0 0 0-1.76-1.728c-.725-.427-1.546-.64-2.464-.64a5.9 5.9 0 0 0-2.24.416 4.563 4.563 0 0 0-1.728 1.184v6.496c.47.49 1.046.875 1.728 1.152a6.058 6.058 0 0 0 2.24.416Zm17.304 3.776c-1.195 0-2.251-.213-3.168-.64-.917-.448-1.632-1.056-2.144-1.824-.512-.768-.768-1.653-.768-2.656 0-1.6.597-2.837 1.792-3.712 1.216-.896 2.88-1.344 4.992-1.344 1.451 0 2.816.224 4.096.672v-1.216c0-.96-.299-1.685-.896-2.176-.597-.49-1.472-.736-2.624-.736-.704 0-1.461.117-2.272.352-.811.213-1.749.555-2.816 1.024l-1.6-3.232c1.323-.597 2.581-1.045 3.776-1.344a15.244 15.244 0 0 1 3.648-.448c2.24 0 3.979.544 5.216 1.632 1.259 1.067 1.888 2.581 1.888 4.544V24h-4.32v-1.184a6.975 6.975 0 0 1-2.208 1.12 9.061 9.061 0 0 1-2.592.352Zm-1.92-5.216c0 .64.277 1.152.832 1.536.555.363 1.291.544 2.208.544.725 0 1.397-.085 2.016-.256a5.534 5.534 0 0 0 1.664-.832v-2.432a8.765 8.765 0 0 0-1.664-.48 10.194 10.194 0 0 0-1.856-.16c-1.003 0-1.792.192-2.368.576-.555.363-.832.864-.832 1.504ZM343.728 24V1.6l4.384-.736V24h-4.384Zm14.25 6.528v-23.2h4.32v1.376c1.365-1.067 2.944-1.6 4.736-1.6 1.579 0 3.008.384 4.288 1.152a8.487 8.487 0 0 1 3.04 3.104c.768 1.28 1.152 2.72 1.152 4.32s-.384 3.05-1.152 4.352a8.743 8.743 0 0 1-3.104 3.072c-1.301.747-2.752 1.12-4.352 1.12a8.927 8.927 0 0 1-2.4-.32 8.528 8.528 0 0 1-2.144-.992v7.616h-4.384Zm8.352-10.016c.917 0 1.739-.213 2.464-.64a4.72 4.72 0 0 0 1.76-1.728c.427-.725.64-1.547.64-2.464s-.213-1.739-.64-2.464a4.423 4.423 0 0 0-1.76-1.728c-.725-.427-1.547-.64-2.464-.64-.811 0-1.557.139-2.24.416a4.563 4.563 0 0 0-1.728 1.184v6.496c.469.49 1.045.875 1.728 1.152a6.058 6.058 0 0 0 2.24.416ZM378.166 24V7.328h4.384v1.856a5.478 5.478 0 0 1 1.92-1.664c.746-.384 1.589-.576 2.528-.576.81.021 1.418.15 1.824.384v3.84a4.067 4.067 0 0 0-1.056-.32 5.446 5.446 0 0 0-1.184-.128c-.854 0-1.632.213-2.336.64-.704.427-1.27 1.035-1.696 1.824V24h-4.384Zm20.503.32c-1.664 0-3.168-.384-4.512-1.152a8.757 8.757 0 0 1-3.2-3.104c-.79-1.301-1.184-2.763-1.184-4.384 0-1.621.384-3.083 1.151-4.384a8.686 8.686 0 0 1 3.201-3.136c1.365-.768 2.88-1.152 4.544-1.152 1.664 0 3.168.384 4.512 1.152 1.365.768 2.432 1.813 3.2 3.136.789 1.301 1.184 2.763 1.184 4.384 0 1.621-.395 3.083-1.184 4.384a8.51 8.51 0 0 1-3.168 3.104c-1.344.768-2.859 1.152-4.544 1.152Zm0-3.808c.874 0 1.653-.213 2.336-.64a4.627 4.627 0 0 0 1.664-1.728c.426-.747.64-1.568.64-2.464 0-.917-.214-1.739-.64-2.464a4.627 4.627 0 0 0-1.664-1.728c-.683-.448-1.462-.672-2.336-.672a4.26 4.26 0 0 0-2.336.672 4.62 4.62 0 0 0-1.664 1.728c-.406.725-.608 1.547-.608 2.464 0 .896.202 1.717.608 2.464a4.62 4.62 0 0 0 1.664 1.728c.704.427 1.482.64 2.336.64Zm13.766-15.168a2.403 2.403 0 0 1-1.76-.736 2.404 2.404 0 0 1-.736-1.76c0-.704.246-1.29.736-1.76a2.403 2.403 0 0 1 1.76-.736c.704 0 1.291.245 1.76.736.491.47.736 1.056.736 1.76a2.4 2.4 0 0 1-.736 1.76c-.469.49-1.056.736-1.76.736Zm-3.2 25.504c-.405 0-.821-.032-1.248-.096a4.892 4.892 0 0 1-1.024-.192V27.2c.384.085.854.128 1.408.128.64 0 1.11-.139 1.408-.416.32-.256.48-.683.48-1.28V7.328h4.384v18.56c0 1.579-.469 2.795-1.408 3.648-.938.875-2.272 1.312-4 1.312Zm16.997-6.528c-1.664 0-3.179-.384-4.544-1.152a8.757 8.757 0 0 1-3.2-3.104c-.79-1.301-1.184-2.763-1.184-4.384 0-1.621.373-3.083 1.12-4.384a8.652 8.652 0 0 1 3.104-3.104c1.301-.768 2.752-1.152 4.352-1.152 1.6 0 3.018.395 4.256 1.184 1.237.79 2.208 1.856 2.912 3.2.725 1.344 1.088 2.87 1.088 4.576v1.152h-12.352c.192.661.501 1.259.928 1.792a4.7 4.7 0 0 0 1.632 1.248 5.07 5.07 0 0 0 2.112.448c.746 0 1.429-.117 2.048-.352a4.656 4.656 0 0 0 1.632-.992l2.88 2.624c-1.024.832-2.08 1.44-3.168 1.824-1.067.384-2.272.576-3.616.576Zm-4.512-10.304h8.096a4.092 4.092 0 0 0-.832-1.728 3.957 3.957 0 0 0-1.408-1.184 3.606 3.606 0 0 0-1.792-.448 4.09 4.09 0 0 0-1.856.416 3.948 3.948 0 0 0-1.408 1.184c-.363.49-.63 1.077-.8 1.76Zm22.537 10.24c-1.856 0-3.264-.416-4.224-1.248-.939-.853-1.408-2.09-1.408-3.712v-8.32h-3.424V7.328h3.424V3.072l4.384-.992v5.248h4.768v3.648h-4.768V18.4c0 .768.171 1.323.512 1.664.341.32.939.48 1.792.48.427 0 .811-.021 1.152-.064a7.63 7.63 0 0 0 1.184-.32v3.616c-.448.15-1.013.267-1.696.352-.661.085-1.227.128-1.696.128Zm13.599.064c-1.664 0-3.168-.384-4.512-1.152a8.757 8.757 0 0 1-3.2-3.104c-.789-1.301-1.184-2.763-1.184-4.384 0-1.621.384-3.083 1.152-4.384a8.676 8.676 0 0 1 3.2-3.136c1.365-.768 2.88-1.152 4.544-1.152 1.664 0 3.168.384 4.512 1.152 1.365.768 2.432 1.813 3.2 3.136.789 1.301 1.184 2.763 1.184 4.384 0 1.621-.395 3.083-1.184 4.384a8.51 8.51 0 0 1-3.168 3.104c-1.344.768-2.859 1.152-4.544 1.152Zm0-3.808c.875 0 1.653-.213 2.336-.64a4.62 4.62 0 0 0 1.664-1.728c.427-.747.64-1.568.64-2.464 0-.917-.213-1.739-.64-2.464a4.62 4.62 0 0 0-1.664-1.728c-.683-.448-1.461-.672-2.336-.672-.853 0-1.632.224-2.336.672a4.62 4.62 0 0 0-1.664 1.728c-.405.725-.608 1.547-.608 2.464 0 .896.203 1.717.608 2.464a4.62 4.62 0 0 0 1.664 1.728c.704.427 1.483.64 2.336.64ZM475.884 24V7.328h4.384v1.376c1.259-1.13 2.816-1.696 4.672-1.696 1.302 0 2.443.288 3.424.864a5.855 5.855 0 0 1 2.336 2.336c.555.981.832 2.133.832 3.456V24h-4.384v-9.696c0-1.088-.309-1.941-.928-2.56-.618-.64-1.461-.96-2.528-.96-.746 0-1.408.15-1.984.448a3.766 3.766 0 0 0-1.44 1.216V24h-4.384Zm24.281.288c-1.195 0-2.251-.213-3.168-.64-.917-.448-1.632-1.056-2.144-1.824-.512-.768-.768-1.653-.768-2.656 0-1.6.597-2.837 1.792-3.712 1.216-.896 2.88-1.344 4.992-1.344 1.451 0 2.816.224 4.096.672v-1.216c0-.96-.299-1.685-.896-2.176-.597-.49-1.472-.736-2.624-.736-.704 0-1.461.117-2.272.352-.811.213-1.749.555-2.816 1.024l-1.6-3.232c1.323-.597 2.581-1.045 3.776-1.344a15.244 15.244 0 0 1 3.648-.448c2.24 0 3.979.544 5.216 1.632 1.259 1.067 1.888 2.581 1.888 4.544V24h-4.32v-1.184a6.975 6.975 0 0 1-2.208 1.12 9.061 9.061 0 0 1-2.592.352Zm-1.92-5.216c0 .64.277 1.152.832 1.536.555.363 1.291.544 2.208.544.725 0 1.397-.085 2.016-.256a5.534 5.534 0 0 0 1.664-.832v-2.432a8.765 8.765 0 0 0-1.664-.48 10.194 10.194 0 0 0-1.856-.16c-1.003 0-1.792.192-2.368.576-.555.363-.832.864-.832 1.504Zm26.108 5.216c-1.195 0-2.251-.213-3.168-.64-.918-.448-1.632-1.056-2.144-1.824-.512-.768-.768-1.653-.768-2.656 0-1.6.597-2.837 1.792-3.712 1.216-.896 2.88-1.344 4.992-1.344 1.45 0 2.816.224 4.096.672v-1.216c0-.96-.299-1.685-.896-2.176-.598-.49-1.472-.736-2.624-.736-.704 0-1.462.117-2.272.352-.811.213-1.75.555-2.816 1.024l-1.6-3.232c1.322-.597 2.581-1.045 3.776-1.344a15.244 15.244 0 0 1 3.648-.448c2.24 0 3.978.544 5.216 1.632 1.258 1.067 1.887 2.581 1.887 4.544V24h-4.319v-1.184a6.975 6.975 0 0 1-2.208 1.12 9.071 9.071 0 0 1-2.592.352Zm-1.92-5.216c0 .64.277 1.152.832 1.536.554.363 1.29.544 2.208.544.725 0 1.397-.085 2.016-.256a5.546 5.546 0 0 0 1.664-.832v-2.432a8.786 8.786 0 0 0-1.664-.48 10.194 10.194 0 0 0-1.856-.16c-1.003 0-1.792.192-2.368.576-.555.363-.832.864-.832 1.504Zm.928-14.528 2.88-4.16h4.992l-4.32 4.16h-3.552ZM536.791 24V7.328h4.384v1.856a5.478 5.478 0 0 1 1.92-1.664c.746-.384 1.589-.576 2.528-.576.81.021 1.418.15 1.824.384v3.84a4.067 4.067 0 0 0-1.056-.32 5.446 5.446 0 0 0-1.184-.128c-.854 0-1.632.213-2.336.64-.704.427-1.27 1.035-1.696 1.824V24h-4.384Zm20.535.32c-1.664 0-3.179-.384-4.544-1.152a8.757 8.757 0 0 1-3.2-3.104c-.79-1.301-1.184-2.763-1.184-4.384 0-1.621.373-3.083 1.12-4.384a8.652 8.652 0 0 1 3.104-3.104c1.301-.768 2.752-1.152 4.352-1.152 1.6 0 3.018.395 4.256 1.184 1.237.79 2.208 1.856 2.912 3.2.725 1.344 1.088 2.87 1.088 4.576v1.152h-12.352c.192.661.501 1.259.928 1.792a4.7 4.7 0 0 0 1.632 1.248 5.07 5.07 0 0 0 2.112.448c.746 0 1.429-.117 2.048-.352a4.656 4.656 0 0 0 1.632-.992l2.88 2.624c-1.024.832-2.08 1.44-3.168 1.824-1.067.384-2.272.576-3.616.576Zm-4.512-10.304h8.096a4.092 4.092 0 0 0-.832-1.728 3.957 3.957 0 0 0-1.408-1.184 3.606 3.606 0 0 0-1.792-.448 4.09 4.09 0 0 0-1.856.416 3.948 3.948 0 0 0-1.408 1.184c-.363.49-.63 1.077-.8 1.76Zm20.32 10.272c-1.195 0-2.251-.213-3.168-.64-.918-.448-1.632-1.056-2.144-1.824-.512-.768-.768-1.653-.768-2.656 0-1.6.597-2.837 1.792-3.712 1.216-.896 2.88-1.344 4.992-1.344 1.45 0 2.816.224 4.096.672v-1.216c0-.96-.299-1.685-.896-2.176-.598-.49-1.472-.736-2.624-.736-.704 0-1.462.117-2.272.352-.811.213-1.75.555-2.816 1.024l-1.6-3.232c1.322-.597 2.581-1.045 3.776-1.344a15.244 15.244 0 0 1 3.648-.448c2.24 0 3.978.544 5.216 1.632 1.258 1.067 1.888 2.581 1.888 4.544V24h-4.32v-1.184a6.975 6.975 0 0 1-2.208 1.12 9.071 9.071 0 0 1-2.592.352Zm-1.92-5.216c0 .64.277 1.152.832 1.536.554.363 1.29.544 2.208.544.725 0 1.397-.085 2.016-.256a5.546 5.546 0 0 0 1.664-.832v-2.432a8.786 8.786 0 0 0-1.664-.48 10.194 10.194 0 0 0-1.856-.16c-1.003 0-1.792.192-2.368.576-.555.363-.832.864-.832 1.504Zm28.507 5.152c-1.578 0-3.008-.384-4.288-1.152A8.825 8.825 0 0 1 592.361 20c-.746-1.301-1.12-2.752-1.12-4.352 0-1.6.374-3.04 1.12-4.32a8.41 8.41 0 0 1 3.104-3.072c1.302-.768 2.763-1.152 4.384-1.152.832 0 1.632.117 2.4.352a7.76 7.76 0 0 1 2.144.96V1.6l4.384-.736V24h-4.32v-1.376c-1.365 1.067-2.944 1.6-4.736 1.6Zm.704-3.744c.811 0 1.547-.128 2.208-.384a4.822 4.822 0 0 0 1.76-1.216v-6.496a5.24 5.24 0 0 0-1.76-1.152 5.806 5.806 0 0 0-2.208-.416c-.917 0-1.749.213-2.496.64a4.487 4.487 0 0 0-1.728 1.728c-.426.725-.64 1.547-.64 2.464s.214 1.739.64 2.464a4.798 4.798 0 0 0 1.728 1.728c.747.427 1.579.64 2.496.64Zm19.932 3.84c-1.664 0-3.179-.384-4.544-1.152a8.757 8.757 0 0 1-3.2-3.104c-.79-1.301-1.184-2.763-1.184-4.384 0-1.621.373-3.083 1.12-4.384a8.652 8.652 0 0 1 3.104-3.104c1.301-.768 2.752-1.152 4.352-1.152 1.6 0 3.018.395 4.256 1.184 1.237.79 2.208 1.856 2.912 3.2.725 1.344 1.088 2.87 1.088 4.576v1.152h-12.352c.192.661.501 1.259.928 1.792a4.7 4.7 0 0 0 1.632 1.248 5.07 5.07 0 0 0 2.112.448c.746 0 1.429-.117 2.048-.352a4.656 4.656 0 0 0 1.632-.992l2.88 2.624c-1.024.832-2.08 1.44-3.168 1.824-1.067.384-2.272.576-3.616.576Zm-4.512-10.304h8.096a4.092 4.092 0 0 0-.832-1.728 3.957 3.957 0 0 0-1.408-1.184 3.606 3.606 0 0 0-1.792-.448 4.09 4.09 0 0 0-1.856.416 3.948 3.948 0 0 0-1.408 1.184c-.363.49-.63 1.077-.8 1.76ZM.016 66V43.6h4.64v9.024H14.96V43.6h4.64V66h-4.64v-9.184H4.656V66H.016Zm31.528.32c-1.664 0-3.178-.384-4.544-1.152a8.759 8.759 0 0 1-3.2-3.104c-.79-1.301-1.184-2.763-1.184-4.384 0-1.621.374-3.083 1.12-4.384a8.657 8.657 0 0 1 3.104-3.104c1.302-.768 2.752-1.152 4.352-1.152 1.6 0 3.019.395 4.256 1.184 1.238.79 2.208 1.856 2.912 3.2.726 1.344 1.088 2.87 1.088 4.576v1.152H27.096a5.13 5.13 0 0 0 .928 1.792c.448.533.992.95 1.632 1.248a5.072 5.072 0 0 0 2.112.448c.747 0 1.43-.117 2.048-.352a4.656 4.656 0 0 0 1.632-.992l2.88 2.624c-1.024.832-2.08 1.44-3.168 1.824-1.066.384-2.272.576-3.616.576Zm-4.512-10.304h8.096a4.082 4.082 0 0 0-.832-1.728 3.952 3.952 0 0 0-1.408-1.184 3.604 3.604 0 0 0-1.792-.448c-.682 0-1.301.139-1.856.416a3.95 3.95 0 0 0-1.408 1.184c-.362.49-.63 1.077-.8 1.76Zm20.32 10.272c-1.194 0-2.25-.213-3.167-.64-.918-.448-1.633-1.056-2.145-1.824-.511-.768-.767-1.653-.767-2.656 0-1.6.597-2.837 1.791-3.712 1.217-.896 2.88-1.344 4.992-1.344 1.451 0 2.817.224 4.097.672v-1.216c0-.96-.3-1.685-.896-2.176-.598-.49-1.472-.736-2.624-.736-.705 0-1.462.117-2.273.352-.81.213-1.749.555-2.816 1.024l-1.6-3.232c1.323-.597 2.582-1.045 3.776-1.344a15.243 15.243 0 0 1 3.648-.448c2.24 0 3.98.544 5.216 1.632 1.26 1.067 1.888 2.581 1.888 4.544V66h-4.32v-1.184a6.969 6.969 0 0 1-2.208 1.12 9.064 9.064 0 0 1-2.592.352Zm-1.92-5.216c0 .64.278 1.152.832 1.536.555.363 1.291.544 2.208.544.726 0 1.398-.085 2.017-.256a5.534 5.534 0 0 0 1.664-.832v-2.432a8.771 8.771 0 0 0-1.664-.48 10.192 10.192 0 0 0-1.856-.16c-1.003 0-1.793.192-2.369.576-.554.363-.832.864-.832 1.504ZM59.79 66V43.6l4.384-.736V66H59.79Zm15.717.256c-1.856 0-3.264-.416-4.224-1.248-.939-.853-1.408-2.09-1.408-3.712v-8.32h-3.424v-3.648h3.424v-4.256l4.384-.992v5.248h4.768v3.648h-4.768V60.4c0 .768.17 1.323.512 1.664.341.32.939.48 1.792.48.427 0 .81-.021 1.152-.064a7.63 7.63 0 0 0 1.184-.32v3.616c-.448.15-1.013.267-1.696.352-.661.085-1.227.128-1.696.128ZM81.165 66V43.6l4.384-.96v8.064c1.26-1.13 2.816-1.696 4.672-1.696 1.302 0 2.443.288 3.424.864a5.86 5.86 0 0 1 2.337 2.336c.554.981.832 2.133.832 3.456V66H92.43v-9.696c0-1.088-.31-1.941-.929-2.56-.618-.64-1.46-.96-2.528-.96-.746 0-1.407.15-1.983.448a3.766 3.766 0 0 0-1.44 1.216V66h-4.385Zm25.695 0V43.6h17.216v4.032H111.5v5.12h8.288v3.904H111.5v5.312h12.704V66H106.86Zm27.111.224c-1.578 0-3.008-.384-4.288-1.152A8.825 8.825 0 0 1 126.611 62c-.746-1.301-1.12-2.752-1.12-4.352 0-1.6.374-3.04 1.12-4.32a8.41 8.41 0 0 1 3.104-3.072c1.302-.768 2.763-1.152 4.384-1.152.832 0 1.632.117 2.4.352a7.757 7.757 0 0 1 2.144.96V43.6l4.384-.736V66h-4.32v-1.376c-1.365 1.067-2.944 1.6-4.736 1.6Zm.704-3.744c.811 0 1.547-.128 2.208-.384a4.822 4.822 0 0 0 1.76-1.216v-6.496a5.24 5.24 0 0 0-1.76-1.152 5.806 5.806 0 0 0-2.208-.416c-.917 0-1.749.213-2.496.64a4.487 4.487 0 0 0-1.728 1.728c-.426.725-.64 1.547-.64 2.464s.214 1.739.64 2.464a4.798 4.798 0 0 0 1.728 1.728c.747.427 1.579.64 2.496.64Zm19.676 3.776c-1.856 0-3.264-.416-4.224-1.248-.939-.853-1.408-2.09-1.408-3.712v-8.32h-3.424v-3.648h3.424v-4.256l4.384-.992v5.248h4.768v3.648h-4.768V60.4c0 .768.17 1.323.512 1.664.341.32.938.48 1.792.48.426 0 .81-.021 1.152-.064a7.66 7.66 0 0 0 1.184-.32v3.616c-.448.15-1.014.267-1.696.352a13.58 13.58 0 0 1-1.696.128Zm13.631.064c-1.664 0-3.179-.384-4.544-1.152a8.757 8.757 0 0 1-3.2-3.104c-.79-1.301-1.184-2.763-1.184-4.384 0-1.621.373-3.083 1.12-4.384a8.653 8.653 0 0 1 3.104-3.104c1.301-.768 2.752-1.152 4.352-1.152 1.6 0 3.018.395 4.256 1.184 1.237.79 2.208 1.856 2.912 3.2.725 1.344 1.088 2.87 1.088 4.576v1.152h-12.352c.192.661.501 1.259.928 1.792a4.7 4.7 0 0 0 1.632 1.248 5.07 5.07 0 0 0 2.112.448c.746 0 1.429-.117 2.048-.352a4.656 4.656 0 0 0 1.632-.992l2.88 2.624c-1.024.832-2.08 1.44-3.168 1.824-1.067.384-2.272.576-3.616.576Zm-4.512-10.304h8.096a4.092 4.092 0 0 0-.832-1.728 3.957 3.957 0 0 0-1.408-1.184 3.606 3.606 0 0 0-1.792-.448 4.09 4.09 0 0 0-1.856.416 3.948 3.948 0 0 0-1.408 1.184c-.363.49-.63 1.077-.8 1.76Zm23.195 10.304c-1.643 0-3.126-.373-4.448-1.12a8.578 8.578 0 0 1-3.136-3.104c-.768-1.323-1.152-2.795-1.152-4.416 0-1.643.384-3.115 1.152-4.416a8.578 8.578 0 0 1 3.136-3.104c1.322-.768 2.805-1.152 4.448-1.152a9.49 9.49 0 0 1 3.776.768 8.82 8.82 0 0 1 3.136 2.208l-2.688 2.848c-.619-.683-1.27-1.184-1.952-1.504a4.677 4.677 0 0 0-2.176-.512c-.854 0-1.622.213-2.304.64a4.795 4.795 0 0 0-1.6 1.728c-.384.725-.576 1.557-.576 2.496 0 .896.192 1.717.576 2.464a4.62 4.62 0 0 0 1.664 1.728 4.596 4.596 0 0 0 2.336.608c.746 0 1.44-.15 2.08-.448.661-.32 1.29-.79 1.888-1.408l2.624 2.752a9.36 9.36 0 0 1-3.072 2.176 9.333 9.333 0 0 1-3.712.768Zm9.063-.32V43.6l4.384-.96v8.064c1.259-1.13 2.816-1.696 4.672-1.696 1.301 0 2.443.288 3.424.864a5.86 5.86 0 0 1 2.336 2.336c.555.981.832 2.133.832 3.456V66h-4.384v-9.696c0-1.088-.309-1.941-.928-2.56-.619-.64-1.461-.96-2.528-.96-.747 0-1.408.15-1.984.448a3.766 3.766 0 0 0-1.44 1.216V66h-4.384Zm25.406 0V43.6l4.384-.736V66h-4.384Zm7.813 0V49.328h4.384V66h-4.384Zm2.176-18.656a2.4 2.4 0 0 1-1.76-.736 2.4 2.4 0 0 1-.736-1.76c0-.704.245-1.29.736-1.76a2.4 2.4 0 0 1 1.76-.736c.704 0 1.29.245 1.76.736.49.47.736 1.056.736 1.76 0 .683-.246 1.27-.736 1.76-.47.49-1.056.736-1.76.736Zm13.348 18.88c-1.578 0-3.008-.384-4.288-1.152A8.825 8.825 0 0 1 237.111 62c-.746-1.301-1.12-2.752-1.12-4.352 0-1.6.374-3.04 1.12-4.32a8.41 8.41 0 0 1 3.104-3.072c1.302-.768 2.763-1.152 4.384-1.152.832 0 1.632.117 2.4.352a7.757 7.757 0 0 1 2.144.96V43.6l4.384-.736V66h-4.32v-1.376c-1.365 1.067-2.944 1.6-4.736 1.6Zm.704-3.744c.811 0 1.547-.128 2.208-.384a4.822 4.822 0 0 0 1.76-1.216v-6.496a5.24 5.24 0 0 0-1.76-1.152 5.806 5.806 0 0 0-2.208-.416c-.917 0-1.749.213-2.496.64a4.487 4.487 0 0 0-1.728 1.728c-.426.725-.64 1.547-.64 2.464s.214 1.739.64 2.464a4.798 4.798 0 0 0 1.728 1.728c.747.427 1.579.64 2.496.64Zm19.932 3.84c-1.664 0-3.179-.384-4.544-1.152a8.757 8.757 0 0 1-3.2-3.104c-.79-1.301-1.184-2.763-1.184-4.384 0-1.621.373-3.083 1.12-4.384a8.653 8.653 0 0 1 3.104-3.104c1.301-.768 2.752-1.152 4.352-1.152 1.6 0 3.018.395 4.256 1.184 1.237.79 2.208 1.856 2.912 3.2.725 1.344 1.088 2.87 1.088 4.576v1.152h-12.352c.192.661.501 1.259.928 1.792a4.7 4.7 0 0 0 1.632 1.248 5.07 5.07 0 0 0 2.112.448c.746 0 1.429-.117 2.048-.352a4.656 4.656 0 0 0 1.632-.992l2.88 2.624c-1.024.832-2.08 1.44-3.168 1.824-1.067.384-2.272.576-3.616.576Zm-4.512-10.304h8.096a4.092 4.092 0 0 0-.832-1.728 3.957 3.957 0 0 0-1.408-1.184 3.606 3.606 0 0 0-1.792-.448 4.09 4.09 0 0 0-1.856.416 3.948 3.948 0 0 0-1.408 1.184c-.363.49-.63 1.077-.8 1.76ZM275.697 66V49.328h4.384v1.856a5.478 5.478 0 0 1 1.92-1.664c.746-.384 1.589-.576 2.528-.576.81.021 1.418.15 1.824.384v3.84a4.067 4.067 0 0 0-1.056-.32 5.446 5.446 0 0 0-1.184-.128c-.854 0-1.632.213-2.336.64-.704.427-1.27 1.035-1.696 1.824V66h-4.384Zm17.937.288c-1.195 0-2.251-.213-3.168-.64-.918-.448-1.632-1.056-2.144-1.824-.512-.768-.768-1.653-.768-2.656 0-1.6.597-2.837 1.792-3.712 1.216-.896 2.88-1.344 4.992-1.344 1.45 0 2.816.224 4.096.672v-1.216c0-.96-.299-1.685-.896-2.176-.598-.49-1.472-.736-2.624-.736-.704 0-1.462.117-2.272.352-.811.213-1.75.555-2.816 1.024l-1.6-3.232c1.322-.597 2.581-1.045 3.776-1.344a15.243 15.243 0 0 1 3.648-.448c2.24 0 3.978.544 5.216 1.632 1.258 1.067 1.888 2.581 1.888 4.544V66h-4.32v-1.184a6.975 6.975 0 0 1-2.208 1.12 9.071 9.071 0 0 1-2.592.352Zm-1.92-5.216c0 .64.277 1.152.832 1.536.554.363 1.29.544 2.208.544.725 0 1.397-.085 2.016-.256a5.546 5.546 0 0 0 1.664-.832v-2.432a8.786 8.786 0 0 0-1.664-.48 10.194 10.194 0 0 0-1.856-.16c-1.003 0-1.792.192-2.368.576-.555.363-.832.864-.832 1.504Zm22.07 5.152c-1.579 0-3.008-.384-4.288-1.152A8.825 8.825 0 0 1 306.424 62c-.747-1.301-1.12-2.752-1.12-4.352 0-1.6.373-3.04 1.12-4.32a8.403 8.403 0 0 1 3.104-3.072c1.301-.768 2.762-1.152 4.384-1.152.832 0 1.632.117 2.4.352a7.77 7.77 0 0 1 2.144.96V43.6l4.384-.736V66h-4.32v-1.376c-1.366 1.067-2.944 1.6-4.736 1.6Zm.704-3.744c.81 0 1.546-.128 2.208-.384a4.839 4.839 0 0 0 1.76-1.216v-6.496a5.26 5.26 0 0 0-1.76-1.152 5.813 5.813 0 0 0-2.208-.416c-.918 0-1.75.213-2.496.64a4.474 4.474 0 0 0-1.728 1.728c-.427.725-.64 1.547-.64 2.464s.213 1.739.64 2.464a4.782 4.782 0 0 0 1.728 1.728c.746.427 1.578.64 2.496.64Zm19.899 3.84c-1.664 0-3.168-.384-4.512-1.152a8.764 8.764 0 0 1-3.2-3.104c-.789-1.301-1.184-2.763-1.184-4.384 0-1.621.384-3.083 1.152-4.384a8.683 8.683 0 0 1 3.2-3.136c1.366-.768 2.88-1.152 4.544-1.152 1.664 0 3.168.384 4.512 1.152a8.366 8.366 0 0 1 3.2 3.136c.79 1.301 1.184 2.763 1.184 4.384 0 1.621-.394 3.083-1.184 4.384a8.51 8.51 0 0 1-3.168 3.104c-1.344.768-2.858 1.152-4.544 1.152Zm0-3.808c.875 0 1.654-.213 2.336-.64a4.62 4.62 0 0 0 1.664-1.728c.427-.747.64-1.568.64-2.464 0-.917-.213-1.739-.64-2.464a4.62 4.62 0 0 0-1.664-1.728c-.682-.448-1.461-.672-2.336-.672-.853 0-1.632.224-2.336.672a4.627 4.627 0 0 0-1.664 1.728c-.405.725-.608 1.547-.608 2.464 0 .896.203 1.717.608 2.464.406.725.96 1.301 1.664 1.728.704.427 1.483.64 2.336.64Zm18.029 10.016v-23.2h4.32v1.376c1.365-1.067 2.944-1.6 4.736-1.6 1.578 0 3.008.384 4.288 1.152a8.487 8.487 0 0 1 3.04 3.104c.768 1.28 1.152 2.72 1.152 4.32s-.384 3.05-1.152 4.352a8.743 8.743 0 0 1-3.104 3.072c-1.302.747-2.752 1.12-4.352 1.12a8.927 8.927 0 0 1-2.4-.32 8.528 8.528 0 0 1-2.144-.992v7.616h-4.384Zm8.352-10.016c.917 0 1.738-.213 2.464-.64a4.727 4.727 0 0 0 1.76-1.728c.426-.725.64-1.547.64-2.464s-.214-1.739-.64-2.464a4.429 4.429 0 0 0-1.76-1.728c-.726-.427-1.547-.64-2.464-.64-.811 0-1.558.139-2.24.416a4.548 4.548 0 0 0-1.728 1.184v6.496c.469.49 1.045.875 1.728 1.152.704.277 1.45.416 2.24.416Zm19.995 3.808c-1.664 0-3.179-.384-4.544-1.152a8.757 8.757 0 0 1-3.2-3.104c-.789-1.301-1.184-2.763-1.184-4.384 0-1.621.373-3.083 1.12-4.384a8.66 8.66 0 0 1 3.104-3.104c1.301-.768 2.752-1.152 4.352-1.152 1.6 0 3.019.395 4.256 1.184 1.237.79 2.208 1.856 2.912 3.2.725 1.344 1.088 2.87 1.088 4.576v1.152h-12.352c.192.661.501 1.259.928 1.792a4.7 4.7 0 0 0 1.632 1.248 5.07 5.07 0 0 0 2.112.448c.747 0 1.429-.117 2.048-.352a4.656 4.656 0 0 0 1.632-.992l2.88 2.624c-1.024.832-2.08 1.44-3.168 1.824-1.067.384-2.272.576-3.616.576Zm-4.512-10.304h8.096a4.08 4.08 0 0 0-.832-1.728 3.948 3.948 0 0 0-1.408-1.184 3.604 3.604 0 0 0-1.792-.448c-.683 0-1.301.139-1.856.416a3.948 3.948 0 0 0-1.408 1.184c-.363.49-.629 1.077-.8 1.76ZM391.353 66V43.6l4.384-.736V66h-4.384Zm15.941.32c-1.664 0-3.168-.384-4.512-1.152a8.757 8.757 0 0 1-3.2-3.104c-.79-1.301-1.184-2.763-1.184-4.384 0-1.621.384-3.083 1.151-4.384a8.685 8.685 0 0 1 3.201-3.136c1.365-.768 2.88-1.152 4.544-1.152 1.664 0 3.168.384 4.512 1.152 1.365.768 2.432 1.813 3.2 3.136.789 1.301 1.184 2.763 1.184 4.384 0 1.621-.395 3.083-1.184 4.384a8.51 8.51 0 0 1-3.168 3.104c-1.344.768-2.859 1.152-4.544 1.152Zm0-3.808c.874 0 1.653-.213 2.336-.64a4.627 4.627 0 0 0 1.664-1.728c.426-.747.64-1.568.64-2.464 0-.917-.214-1.739-.64-2.464a4.627 4.627 0 0 0-1.664-1.728c-.683-.448-1.462-.672-2.336-.672a4.26 4.26 0 0 0-2.336.672 4.62 4.62 0 0 0-1.664 1.728c-.406.725-.608 1.547-.608 2.464 0 .896.202 1.717.608 2.464a4.62 4.62 0 0 0 1.664 1.728c.704.427 1.482.64 2.336.64ZM425.322 66V49.328h4.384v1.376c1.258-1.13 2.816-1.696 4.672-1.696 1.301 0 2.442.288 3.424.864a5.867 5.867 0 0 1 2.336 2.336c.554.981.832 2.133.832 3.456V66h-4.384v-9.696c0-1.088-.31-1.941-.928-2.56-.619-.64-1.462-.96-2.528-.96-.747 0-1.408.15-1.984.448a3.766 3.766 0 0 0-1.44 1.216V66h-4.384Zm27.097.32c-1.664 0-3.168-.384-4.512-1.152a8.757 8.757 0 0 1-3.2-3.104c-.79-1.301-1.184-2.763-1.184-4.384 0-1.621.384-3.083 1.151-4.384a8.685 8.685 0 0 1 3.201-3.136c1.365-.768 2.88-1.152 4.544-1.152 1.664 0 3.168.384 4.512 1.152 1.365.768 2.432 1.813 3.2 3.136.789 1.301 1.184 2.763 1.184 4.384 0 1.621-.395 3.083-1.184 4.384a8.51 8.51 0 0 1-3.168 3.104c-1.344.768-2.859 1.152-4.544 1.152Zm0-3.808c.874 0 1.653-.213 2.336-.64a4.627 4.627 0 0 0 1.664-1.728c.426-.747.64-1.568.64-2.464 0-.917-.214-1.739-.64-2.464a4.627 4.627 0 0 0-1.664-1.728c-.683-.448-1.462-.672-2.336-.672a4.26 4.26 0 0 0-2.336.672 4.62 4.62 0 0 0-1.664 1.728c-.406.725-.608 1.547-.608 2.464 0 .896.202 1.717.608 2.464a4.62 4.62 0 0 0 1.664 1.728c.704.427 1.482.64 2.336.64Zm17.83 3.808c-1.536 0-2.954-.192-4.256-.576-1.301-.405-2.432-.981-3.392-1.728l2.176-2.912c.96.64 1.878 1.12 2.752 1.44.896.32 1.782.48 2.656.48.982 0 1.76-.16 2.336-.48.598-.341.896-.779.896-1.312 0-.427-.17-.768-.512-1.024-.32-.256-.842-.437-1.568-.544l-3.2-.48c-1.664-.256-2.922-.79-3.776-1.6-.853-.832-1.28-1.92-1.28-3.264 0-1.088.278-2.016.832-2.784.576-.79 1.376-1.397 2.4-1.824 1.046-.448 2.283-.672 3.712-.672 1.216 0 2.4.17 3.552.512 1.174.341 2.272.864 3.296 1.568l-2.112 2.848c-.917-.576-1.792-.992-2.624-1.248a8.548 8.548 0 0 0-2.528-.384c-.789 0-1.429.15-1.92.448-.469.299-.704.693-.704 1.184 0 .448.171.8.512 1.056.342.256.928.437 1.76.544l3.168.48c1.664.235 2.934.768 3.808 1.6.875.81 1.312 1.867 1.312 3.168 0 1.067-.32 2.016-.96 2.848-.64.81-1.504 1.461-2.592 1.952-1.088.47-2.336.704-3.744.704Zm15.719 0c-1.536 0-2.955-.192-4.256-.576-1.301-.405-2.432-.981-3.392-1.728l2.176-2.912c.96.64 1.877 1.12 2.752 1.44.896.32 1.781.48 2.656.48.981 0 1.76-.16 2.336-.48.597-.341.896-.779.896-1.312 0-.427-.171-.768-.512-1.024-.32-.256-.843-.437-1.568-.544l-3.2-.48c-1.664-.256-2.923-.79-3.776-1.6-.853-.832-1.28-1.92-1.28-3.264 0-1.088.277-2.016.832-2.784.576-.79 1.376-1.397 2.4-1.824 1.045-.448 2.283-.672 3.712-.672 1.216 0 2.4.17 3.552.512 1.173.341 2.272.864 3.296 1.568l-2.112 2.848c-.917-.576-1.792-.992-2.624-1.248a8.553 8.553 0 0 0-2.528-.384c-.789 0-1.429.15-1.92.448-.469.299-.704.693-.704 1.184 0 .448.171.8.512 1.056.341.256.928.437 1.76.544l3.168.48c1.664.235 2.933.768 3.808 1.6.875.81 1.312 1.867 1.312 3.168 0 1.067-.32 2.016-.96 2.848-.64.81-1.504 1.461-2.592 1.952-1.088.47-2.336.704-3.744.704Zm17.763 0c-1.664 0-3.168-.384-4.512-1.152a8.757 8.757 0 0 1-3.2-3.104c-.789-1.301-1.184-2.763-1.184-4.384 0-1.621.384-3.083 1.152-4.384a8.675 8.675 0 0 1 3.2-3.136c1.365-.768 2.88-1.152 4.544-1.152 1.664 0 3.168.384 4.512 1.152 1.365.768 2.432 1.813 3.2 3.136.789 1.301 1.184 2.763 1.184 4.384 0 1.621-.395 3.083-1.184 4.384a8.51 8.51 0 0 1-3.168 3.104c-1.344.768-2.859 1.152-4.544 1.152Zm0-3.808c.875 0 1.653-.213 2.336-.64a4.62 4.62 0 0 0 1.664-1.728c.427-.747.64-1.568.64-2.464 0-.917-.213-1.739-.64-2.464a4.62 4.62 0 0 0-1.664-1.728c-.683-.448-1.461-.672-2.336-.672-.853 0-1.632.224-2.336.672a4.62 4.62 0 0 0-1.664 1.728c-.405.725-.608 1.547-.608 2.464 0 .896.203 1.717.608 2.464a4.62 4.62 0 0 0 1.664 1.728c.704.427 1.483.64 2.336.64Zm29.356 3.808c-1.664 0-3.221-.288-4.672-.864a12.078 12.078 0 0 1-3.808-2.464 11.792 11.792 0 0 1-2.528-3.648c-.597-1.408-.896-2.923-.896-4.544 0-1.643.299-3.157.896-4.544a11.424 11.424 0 0 1 2.56-3.68 11.718 11.718 0 0 1 3.776-2.432c1.451-.597 3.008-.896 4.672-.896 1.238 0 2.432.17 3.584.512 1.152.341 2.219.821 3.2 1.44a9.973 9.973 0 0 1 2.56 2.24l-3.136 3.104c-.81-1.003-1.749-1.76-2.816-2.272a7.606 7.606 0 0 0-3.392-.768 6.93 6.93 0 0 0-2.816.576 6.696 6.696 0 0 0-2.272 1.536 6.853 6.853 0 0 0-1.504 2.304c-.362.875-.544 1.835-.544 2.88 0 1.024.182 1.984.544 2.88a7.046 7.046 0 0 0 1.536 2.304 7.314 7.314 0 0 0 2.304 1.504 7.689 7.689 0 0 0 2.912.544 7.527 7.527 0 0 0 3.296-.736c1.024-.49 1.931-1.195 2.72-2.112l3.04 3.008a10.51 10.51 0 0 1-2.528 2.208 12.762 12.762 0 0 1-3.2 1.44c-1.13.32-2.293.48-3.488.48Zm11.929-.32V43.6h17.216v4.032h-12.576v5.12h8.288v3.904h-8.288v5.312h12.704V66h-17.344Zm30.289.352c-1.664 0-3.211-.288-4.64-.864a12.16 12.16 0 0 1-3.776-2.464 12.156 12.156 0 0 1-2.528-3.68c-.598-1.408-.896-2.923-.896-4.544 0-1.621.298-3.125.896-4.512a11.654 11.654 0 0 1 2.528-3.68 11.447 11.447 0 0 1 3.776-2.464c1.429-.597 2.976-.896 4.64-.896 1.664 0 3.21.299 4.639.896a11.036 11.036 0 0 1 3.777 2.464 11.02 11.02 0 0 1 2.528 3.68c.597 1.387.896 2.89.896 4.512 0 1.621-.299 3.136-.896 4.544a11.466 11.466 0 0 1-2.528 3.68 11.695 11.695 0 0 1-3.777 2.464c-1.429.576-2.975.864-4.639.864Zm0-4.256c1.024 0 1.962-.181 2.816-.544a7.477 7.477 0 0 0 2.24-1.536 7.214 7.214 0 0 0 1.504-2.336 7.615 7.615 0 0 0 .544-2.88c0-1.045-.182-2.005-.544-2.88a6.853 6.853 0 0 0-1.504-2.304 6.774 6.774 0 0 0-2.24-1.536c-.854-.384-1.792-.576-2.816-.576a6.703 6.703 0 0 0-2.784.576c-.854.363-1.6.875-2.24 1.536a6.838 6.838 0 0 0-1.504 2.304 7.356 7.356 0 0 0-.544 2.848c0 1.045.181 2.016.544 2.912a7.198 7.198 0 0 0 1.504 2.336 7.465 7.465 0 0 0 2.24 1.536 7.04 7.04 0 0 0 2.784.544Z" fill="#fff"/></svg>